G04 EAGLE Gerber RS-274X export*
G75*
%MOMM*%
%FSLAX34Y34*%
%LPD*%
%INBottom Copper*%
%IPPOS*%
%AMOC8*
5,1,8,0,0,1.08239X$1,22.5*%
G01*
%ADD10C,1.270000*%
%ADD11R,3.200000X4.200000*%
%ADD12C,0.756400*%
%ADD13C,0.254000*%
%ADD14C,0.656400*%
%ADD15C,0.152400*%

G36*
X405573Y10178D02*
X405573Y10178D01*
X405711Y10191D01*
X405731Y10198D01*
X405751Y10201D01*
X405880Y10252D01*
X406011Y10299D01*
X406027Y10310D01*
X406046Y10318D01*
X406159Y10399D01*
X406274Y10477D01*
X406287Y10493D01*
X406304Y10504D01*
X406392Y10612D01*
X406484Y10716D01*
X406493Y10734D01*
X406506Y10749D01*
X406566Y10875D01*
X406629Y10999D01*
X406633Y11019D01*
X406642Y11037D01*
X406668Y11173D01*
X406699Y11309D01*
X406698Y11330D01*
X406702Y11349D01*
X406693Y11488D01*
X406689Y11627D01*
X406683Y11647D01*
X406682Y11667D01*
X406639Y11799D01*
X406600Y11933D01*
X406590Y11950D01*
X406584Y11969D01*
X406509Y12087D01*
X406439Y12207D01*
X406420Y12228D01*
X406414Y12238D01*
X406399Y12252D01*
X406333Y12327D01*
X401213Y17447D01*
X397839Y25592D01*
X397839Y34408D01*
X401213Y42553D01*
X407447Y48787D01*
X415592Y52161D01*
X424408Y52161D01*
X432553Y48787D01*
X437673Y43667D01*
X437782Y43582D01*
X437889Y43494D01*
X437908Y43485D01*
X437924Y43473D01*
X438052Y43417D01*
X438177Y43358D01*
X438197Y43354D01*
X438216Y43346D01*
X438354Y43324D01*
X438490Y43298D01*
X438510Y43300D01*
X438530Y43296D01*
X438669Y43309D01*
X438807Y43318D01*
X438826Y43324D01*
X438846Y43326D01*
X438978Y43373D01*
X439109Y43416D01*
X439127Y43427D01*
X439146Y43434D01*
X439261Y43512D01*
X439378Y43586D01*
X439392Y43601D01*
X439409Y43612D01*
X439501Y43717D01*
X439596Y43818D01*
X439606Y43836D01*
X439619Y43851D01*
X439683Y43975D01*
X439750Y44096D01*
X439755Y44116D01*
X439764Y44134D01*
X439794Y44270D01*
X439829Y44404D01*
X439831Y44432D01*
X439834Y44444D01*
X439833Y44465D01*
X439839Y44565D01*
X439839Y405435D01*
X439822Y405573D01*
X439809Y405711D01*
X439802Y405731D01*
X439799Y405751D01*
X439748Y405880D01*
X439701Y406011D01*
X439690Y406027D01*
X439682Y406046D01*
X439601Y406159D01*
X439523Y406274D01*
X439507Y406287D01*
X439496Y406304D01*
X439388Y406392D01*
X439284Y406484D01*
X439266Y406493D01*
X439251Y406506D01*
X439125Y406566D01*
X439001Y406629D01*
X438981Y406633D01*
X438963Y406642D01*
X438827Y406668D01*
X438691Y406699D01*
X438670Y406698D01*
X438651Y406702D01*
X438512Y406693D01*
X438373Y406689D01*
X438353Y406683D01*
X438333Y406682D01*
X438201Y406639D01*
X438067Y406600D01*
X438050Y406590D01*
X438031Y406584D01*
X437913Y406509D01*
X437793Y406439D01*
X437772Y406420D01*
X437762Y406414D01*
X437748Y406399D01*
X437673Y406333D01*
X432553Y401213D01*
X424408Y397839D01*
X415592Y397839D01*
X407447Y401213D01*
X401213Y407447D01*
X397839Y415592D01*
X397839Y424408D01*
X401213Y432553D01*
X406333Y437673D01*
X406418Y437782D01*
X406506Y437889D01*
X406515Y437908D01*
X406527Y437924D01*
X406583Y438052D01*
X406642Y438177D01*
X406646Y438197D01*
X406654Y438216D01*
X406676Y438354D01*
X406702Y438490D01*
X406700Y438510D01*
X406704Y438530D01*
X406691Y438669D01*
X406682Y438807D01*
X406676Y438826D01*
X406674Y438846D01*
X406627Y438978D01*
X406584Y439109D01*
X406573Y439127D01*
X406566Y439146D01*
X406488Y439261D01*
X406414Y439378D01*
X406399Y439392D01*
X406388Y439409D01*
X406283Y439501D01*
X406182Y439596D01*
X406164Y439606D01*
X406149Y439619D01*
X406025Y439683D01*
X405904Y439750D01*
X405884Y439755D01*
X405866Y439764D01*
X405730Y439794D01*
X405596Y439829D01*
X405568Y439831D01*
X405556Y439834D01*
X405535Y439833D01*
X405435Y439839D01*
X44565Y439839D01*
X44427Y439822D01*
X44289Y439809D01*
X44269Y439802D01*
X44249Y439799D01*
X44120Y439748D01*
X43989Y439701D01*
X43973Y439690D01*
X43954Y439682D01*
X43841Y439601D01*
X43726Y439523D01*
X43713Y439507D01*
X43696Y439496D01*
X43608Y439388D01*
X43516Y439284D01*
X43507Y439266D01*
X43494Y439251D01*
X43434Y439125D01*
X43371Y439001D01*
X43367Y438981D01*
X43358Y438963D01*
X43332Y438827D01*
X43301Y438691D01*
X43302Y438670D01*
X43298Y438651D01*
X43307Y438512D01*
X43311Y438373D01*
X43317Y438353D01*
X43318Y438333D01*
X43361Y438201D01*
X43400Y438067D01*
X43410Y438050D01*
X43416Y438031D01*
X43491Y437913D01*
X43561Y437793D01*
X43580Y437772D01*
X43586Y437762D01*
X43601Y437748D01*
X43667Y437673D01*
X48787Y432553D01*
X52161Y424408D01*
X52161Y415592D01*
X48787Y407447D01*
X42553Y401213D01*
X34408Y397839D01*
X25592Y397839D01*
X17447Y401213D01*
X12327Y406333D01*
X12218Y406418D01*
X12111Y406506D01*
X12092Y406515D01*
X12076Y406527D01*
X11948Y406583D01*
X11823Y406642D01*
X11803Y406646D01*
X11784Y406654D01*
X11646Y406676D01*
X11510Y406702D01*
X11490Y406700D01*
X11470Y406704D01*
X11331Y406691D01*
X11193Y406682D01*
X11174Y406676D01*
X11154Y406674D01*
X11022Y406627D01*
X10891Y406584D01*
X10873Y406573D01*
X10854Y406566D01*
X10739Y406488D01*
X10622Y406414D01*
X10608Y406399D01*
X10591Y406388D01*
X10499Y406283D01*
X10404Y406182D01*
X10394Y406164D01*
X10381Y406149D01*
X10317Y406025D01*
X10250Y405904D01*
X10245Y405884D01*
X10236Y405866D01*
X10206Y405730D01*
X10171Y405596D01*
X10169Y405568D01*
X10166Y405556D01*
X10167Y405535D01*
X10161Y405435D01*
X10161Y44565D01*
X10178Y44427D01*
X10191Y44289D01*
X10198Y44269D01*
X10201Y44249D01*
X10252Y44120D01*
X10299Y43989D01*
X10310Y43973D01*
X10318Y43954D01*
X10399Y43841D01*
X10477Y43726D01*
X10493Y43713D01*
X10504Y43696D01*
X10612Y43608D01*
X10716Y43516D01*
X10734Y43507D01*
X10749Y43494D01*
X10875Y43434D01*
X10999Y43371D01*
X11019Y43367D01*
X11037Y43358D01*
X11173Y43332D01*
X11309Y43301D01*
X11330Y43302D01*
X11349Y43298D01*
X11488Y43307D01*
X11627Y43311D01*
X11647Y43317D01*
X11667Y43318D01*
X11799Y43361D01*
X11933Y43400D01*
X11950Y43410D01*
X11969Y43416D01*
X12087Y43491D01*
X12207Y43561D01*
X12228Y43580D01*
X12238Y43586D01*
X12252Y43601D01*
X12327Y43667D01*
X17447Y48787D01*
X25592Y52161D01*
X34408Y52161D01*
X42553Y48787D01*
X48787Y42553D01*
X52161Y34408D01*
X52161Y25592D01*
X48787Y17447D01*
X43667Y12327D01*
X43582Y12218D01*
X43494Y12111D01*
X43485Y12092D01*
X43473Y12076D01*
X43417Y11948D01*
X43358Y11823D01*
X43354Y11803D01*
X43346Y11784D01*
X43324Y11646D01*
X43298Y11510D01*
X43300Y11490D01*
X43296Y11470D01*
X43309Y11331D01*
X43318Y11193D01*
X43324Y11174D01*
X43326Y11154D01*
X43373Y11022D01*
X43416Y10891D01*
X43427Y10873D01*
X43434Y10854D01*
X43512Y10739D01*
X43586Y10622D01*
X43601Y10608D01*
X43612Y10591D01*
X43717Y10499D01*
X43818Y10404D01*
X43836Y10394D01*
X43851Y10381D01*
X43975Y10317D01*
X44096Y10250D01*
X44116Y10245D01*
X44134Y10236D01*
X44270Y10206D01*
X44404Y10171D01*
X44432Y10169D01*
X44444Y10166D01*
X44465Y10167D01*
X44565Y10161D01*
X405435Y10161D01*
X405573Y10178D01*
G37*
%LPC*%
G36*
X291194Y72653D02*
X291194Y72653D01*
X289050Y73541D01*
X287409Y75182D01*
X286521Y77326D01*
X286521Y79646D01*
X286692Y80059D01*
X286731Y80202D01*
X286773Y80345D01*
X286773Y80356D01*
X286776Y80365D01*
X286778Y80514D01*
X286781Y80587D01*
X287099Y81090D01*
X287111Y81116D01*
X287128Y81139D01*
X287199Y81283D01*
X287409Y81790D01*
X287673Y82053D01*
X287709Y82101D01*
X287753Y82141D01*
X287847Y82272D01*
X288330Y83033D01*
X288330Y83034D01*
X288330Y83035D01*
X288331Y83035D01*
X288370Y83097D01*
X289090Y84235D01*
X289141Y84342D01*
X289198Y84445D01*
X289208Y84485D01*
X289225Y84522D01*
X289248Y84639D01*
X289277Y84753D01*
X289281Y84815D01*
X289285Y84835D01*
X289284Y84855D01*
X289287Y84914D01*
X289287Y86106D01*
X289287Y86108D01*
X289287Y86111D01*
X289276Y86272D01*
X289182Y86990D01*
X289179Y86999D01*
X289179Y87008D01*
X289139Y87153D01*
X289101Y87298D01*
X289097Y87306D01*
X289094Y87315D01*
X289023Y87459D01*
X288304Y88704D01*
X288248Y88777D01*
X288201Y88856D01*
X288153Y88903D01*
X288112Y88957D01*
X288039Y89014D01*
X287974Y89079D01*
X287876Y89144D01*
X287863Y89154D01*
X287855Y89158D01*
X287840Y89168D01*
X286595Y89887D01*
X286587Y89890D01*
X286579Y89896D01*
X286440Y89952D01*
X286302Y90010D01*
X286293Y90011D01*
X286284Y90015D01*
X286126Y90046D01*
X285408Y90140D01*
X285405Y90140D01*
X285403Y90141D01*
X285242Y90151D01*
X273117Y90151D01*
X268393Y92879D01*
X265665Y97603D01*
X265665Y124968D01*
X265650Y125086D01*
X265643Y125205D01*
X265630Y125243D01*
X265625Y125284D01*
X265582Y125394D01*
X265545Y125507D01*
X265523Y125542D01*
X265508Y125579D01*
X265439Y125675D01*
X265375Y125776D01*
X265345Y125804D01*
X265322Y125837D01*
X265230Y125913D01*
X265143Y125994D01*
X265108Y126014D01*
X265077Y126039D01*
X264969Y126090D01*
X264865Y126148D01*
X264825Y126158D01*
X264789Y126175D01*
X264672Y126197D01*
X264557Y126227D01*
X264497Y126231D01*
X264477Y126235D01*
X264456Y126233D01*
X264396Y126237D01*
X240984Y126237D01*
X240537Y126684D01*
X240537Y152716D01*
X240984Y153163D01*
X264396Y153163D01*
X264514Y153178D01*
X264633Y153185D01*
X264671Y153198D01*
X264712Y153203D01*
X264822Y153246D01*
X264935Y153283D01*
X264970Y153305D01*
X265007Y153320D01*
X265103Y153389D01*
X265204Y153453D01*
X265232Y153483D01*
X265265Y153506D01*
X265341Y153598D01*
X265422Y153685D01*
X265442Y153720D01*
X265467Y153751D01*
X265518Y153859D01*
X265576Y153963D01*
X265586Y154003D01*
X265603Y154039D01*
X265625Y154156D01*
X265655Y154271D01*
X265659Y154331D01*
X265663Y154351D01*
X265661Y154372D01*
X265665Y154432D01*
X265665Y177800D01*
X265663Y177820D01*
X265659Y177924D01*
X265547Y179061D01*
X265524Y179164D01*
X265509Y179270D01*
X265482Y179349D01*
X265477Y179371D01*
X265469Y179385D01*
X265457Y179422D01*
X264587Y181521D01*
X264583Y181529D01*
X264580Y181538D01*
X264503Y181668D01*
X264430Y181798D01*
X264423Y181804D01*
X264418Y181812D01*
X264312Y181933D01*
X262705Y183540D01*
X262698Y183546D01*
X262692Y183553D01*
X262573Y183642D01*
X262454Y183735D01*
X262445Y183739D01*
X262438Y183744D01*
X262293Y183815D01*
X260194Y184685D01*
X260091Y184713D01*
X259992Y184749D01*
X259908Y184763D01*
X259887Y184769D01*
X259871Y184769D01*
X259833Y184775D01*
X258696Y184887D01*
X258677Y184887D01*
X258572Y184893D01*
X226881Y184893D01*
X222767Y186598D01*
X219618Y189747D01*
X217913Y193861D01*
X217913Y232410D01*
X217913Y232412D01*
X217913Y232415D01*
X217902Y232576D01*
X217808Y233294D01*
X217805Y233303D01*
X217805Y233312D01*
X217765Y233457D01*
X217727Y233602D01*
X217723Y233610D01*
X217720Y233619D01*
X217649Y233763D01*
X216930Y235008D01*
X216874Y235081D01*
X216827Y235160D01*
X216779Y235207D01*
X216738Y235261D01*
X216665Y235318D01*
X216600Y235383D01*
X216502Y235448D01*
X216489Y235458D01*
X216481Y235462D01*
X216466Y235472D01*
X215221Y236191D01*
X215213Y236194D01*
X215205Y236200D01*
X215066Y236256D01*
X214928Y236314D01*
X214919Y236315D01*
X214910Y236319D01*
X214752Y236350D01*
X214034Y236444D01*
X214031Y236444D01*
X214029Y236445D01*
X213868Y236455D01*
X211146Y236455D01*
X211127Y236453D01*
X211109Y236455D01*
X210970Y236433D01*
X210830Y236415D01*
X210820Y236412D01*
X210206Y236335D01*
X210168Y236325D01*
X210128Y236323D01*
X210014Y236286D01*
X209898Y236257D01*
X209863Y236237D01*
X209826Y236225D01*
X209684Y236148D01*
X207493Y234761D01*
X207447Y234723D01*
X207396Y234693D01*
X207275Y234586D01*
X207012Y234323D01*
X206505Y234113D01*
X206480Y234099D01*
X206453Y234090D01*
X206312Y234013D01*
X205810Y233695D01*
X205747Y233702D01*
X205737Y233701D01*
X205727Y233702D01*
X205580Y233679D01*
X205432Y233658D01*
X205419Y233654D01*
X205413Y233653D01*
X205400Y233647D01*
X205280Y233606D01*
X204868Y233435D01*
X202548Y233435D01*
X200404Y234323D01*
X198763Y235964D01*
X197875Y238108D01*
X197875Y240428D01*
X198763Y242572D01*
X200404Y244213D01*
X202548Y245101D01*
X204868Y245101D01*
X205861Y244690D01*
X205946Y244666D01*
X206027Y244634D01*
X206098Y244625D01*
X206167Y244606D01*
X206255Y244604D01*
X206343Y244593D01*
X206361Y244594D01*
X206533Y244460D01*
X206611Y244414D01*
X206683Y244360D01*
X206794Y244306D01*
X206807Y244298D01*
X206814Y244296D01*
X206827Y244289D01*
X207012Y244213D01*
X207520Y243704D01*
X207523Y243702D01*
X207638Y243600D01*
X209246Y242348D01*
X209264Y242338D01*
X209279Y242324D01*
X209400Y242257D01*
X209520Y242186D01*
X209540Y242180D01*
X209557Y242170D01*
X209691Y242136D01*
X209825Y242097D01*
X209846Y242096D01*
X209865Y242091D01*
X210026Y242081D01*
X216459Y242081D01*
X220947Y239489D01*
X223539Y235001D01*
X223539Y196088D01*
X223541Y196068D01*
X223545Y195964D01*
X223627Y195125D01*
X223651Y195021D01*
X223666Y194916D01*
X223693Y194836D01*
X223698Y194815D01*
X223705Y194801D01*
X223718Y194763D01*
X224360Y193213D01*
X224365Y193205D01*
X224367Y193196D01*
X224444Y193066D01*
X224518Y192937D01*
X224524Y192930D01*
X224529Y192922D01*
X224635Y192802D01*
X225822Y191615D01*
X225829Y191609D01*
X225835Y191602D01*
X225954Y191513D01*
X226073Y191420D01*
X226081Y191417D01*
X226089Y191411D01*
X226233Y191340D01*
X227783Y190698D01*
X227886Y190670D01*
X227986Y190633D01*
X228069Y190620D01*
X228090Y190614D01*
X228106Y190614D01*
X228145Y190607D01*
X228984Y190525D01*
X229003Y190525D01*
X229108Y190519D01*
X258349Y190519D01*
X258418Y190527D01*
X258488Y190526D01*
X258575Y190547D01*
X258664Y190559D01*
X258729Y190584D01*
X258797Y190601D01*
X258876Y190643D01*
X258960Y190676D01*
X259016Y190717D01*
X259078Y190749D01*
X259144Y190810D01*
X259217Y190862D01*
X259262Y190916D01*
X259313Y190963D01*
X259363Y191038D01*
X259420Y191107D01*
X259450Y191171D01*
X259488Y191229D01*
X259517Y191314D01*
X259555Y191395D01*
X259569Y191464D01*
X259591Y191530D01*
X259598Y191619D01*
X259615Y191707D01*
X259611Y191777D01*
X259616Y191847D01*
X259601Y191935D01*
X259595Y192025D01*
X259574Y192091D01*
X259562Y192160D01*
X259525Y192242D01*
X259497Y192327D01*
X259460Y192386D01*
X259431Y192450D01*
X259375Y192520D01*
X259327Y192596D01*
X259276Y192644D01*
X259233Y192698D01*
X259161Y192753D01*
X259096Y192814D01*
X259035Y192848D01*
X258979Y192890D01*
X258834Y192961D01*
X258316Y193175D01*
X256675Y194816D01*
X255787Y196960D01*
X255787Y199280D01*
X256162Y200184D01*
X256175Y200232D01*
X256196Y200277D01*
X256217Y200385D01*
X256246Y200491D01*
X256246Y200541D01*
X256256Y200590D01*
X256249Y200699D01*
X256251Y200809D01*
X256239Y200857D01*
X256236Y200907D01*
X256202Y201011D01*
X256177Y201118D01*
X256153Y201162D01*
X256138Y201209D01*
X256079Y201302D01*
X256028Y201399D01*
X255994Y201436D01*
X255968Y201478D01*
X255888Y201553D01*
X255814Y201635D01*
X255772Y201662D01*
X255736Y201696D01*
X255640Y201749D01*
X255548Y201809D01*
X255501Y201826D01*
X255458Y201850D01*
X255352Y201877D01*
X255247Y201913D01*
X255198Y201917D01*
X255150Y201929D01*
X254989Y201939D01*
X247279Y201939D01*
X244926Y203298D01*
X243567Y205651D01*
X243567Y206818D01*
X243549Y206966D01*
X243532Y207114D01*
X243529Y207123D01*
X243527Y207134D01*
X243473Y207272D01*
X243420Y207411D01*
X243413Y207423D01*
X243410Y207430D01*
X243402Y207441D01*
X243336Y207548D01*
X242582Y208622D01*
X242581Y208622D01*
X241962Y209503D01*
X241942Y209524D01*
X241928Y209549D01*
X241821Y209670D01*
X241435Y210056D01*
X241292Y210402D01*
X241262Y210454D01*
X241241Y210509D01*
X241157Y210647D01*
X240924Y210979D01*
X240931Y211040D01*
X240925Y211081D01*
X240927Y211121D01*
X240903Y211237D01*
X240886Y211355D01*
X240866Y211413D01*
X240862Y211433D01*
X240853Y211451D01*
X240834Y211507D01*
X240547Y212200D01*
X240547Y214448D01*
X240544Y214478D01*
X240546Y214508D01*
X240524Y214635D01*
X240507Y214764D01*
X240496Y214792D01*
X240491Y214821D01*
X240438Y214939D01*
X240390Y215059D01*
X240373Y215084D01*
X240360Y215111D01*
X240280Y215212D01*
X240204Y215317D01*
X240180Y215336D01*
X240162Y215359D01*
X240058Y215437D01*
X239959Y215520D01*
X239931Y215532D01*
X239907Y215550D01*
X239788Y215600D01*
X239671Y215655D01*
X239642Y215661D01*
X239614Y215672D01*
X239485Y215691D01*
X239359Y215715D01*
X239329Y215713D01*
X239299Y215717D01*
X239170Y215703D01*
X239041Y215695D01*
X239013Y215686D01*
X238983Y215683D01*
X238861Y215637D01*
X238739Y215597D01*
X238713Y215581D01*
X238685Y215570D01*
X238608Y215523D01*
X238540Y215531D01*
X238499Y215525D01*
X238459Y215527D01*
X238343Y215503D01*
X238225Y215486D01*
X238167Y215466D01*
X238147Y215462D01*
X238129Y215453D01*
X238073Y215434D01*
X237380Y215147D01*
X235060Y215147D01*
X232916Y216035D01*
X231275Y217676D01*
X230387Y219820D01*
X230387Y222140D01*
X231275Y224284D01*
X232916Y225925D01*
X235060Y226813D01*
X237380Y226813D01*
X238073Y226526D01*
X238187Y226495D01*
X238299Y226456D01*
X238340Y226453D01*
X238379Y226442D01*
X238498Y226440D01*
X238608Y226431D01*
X238933Y226203D01*
X238985Y226175D01*
X239033Y226139D01*
X239178Y226068D01*
X239524Y225925D01*
X239910Y225539D01*
X239933Y225521D01*
X239952Y225499D01*
X240077Y225398D01*
X242031Y224024D01*
X242163Y223954D01*
X242293Y223882D01*
X242303Y223880D01*
X242312Y223875D01*
X242458Y223840D01*
X242601Y223803D01*
X242615Y223802D01*
X242622Y223800D01*
X242637Y223801D01*
X242762Y223793D01*
X257045Y223793D01*
X260118Y222018D01*
X261893Y218945D01*
X261893Y213632D01*
X261908Y213514D01*
X261915Y213395D01*
X261928Y213357D01*
X261933Y213316D01*
X261976Y213206D01*
X262013Y213093D01*
X262035Y213058D01*
X262050Y213021D01*
X262119Y212925D01*
X262183Y212824D01*
X262213Y212796D01*
X262236Y212763D01*
X262328Y212687D01*
X262415Y212606D01*
X262450Y212586D01*
X262481Y212561D01*
X262589Y212510D01*
X262693Y212452D01*
X262733Y212442D01*
X262769Y212425D01*
X262886Y212403D01*
X263001Y212373D01*
X263061Y212369D01*
X263081Y212365D01*
X263102Y212367D01*
X263162Y212363D01*
X275497Y212363D01*
X275634Y212380D01*
X275773Y212393D01*
X275792Y212400D01*
X275812Y212403D01*
X275941Y212454D01*
X276072Y212501D01*
X276089Y212512D01*
X276108Y212520D01*
X276221Y212601D01*
X276336Y212679D01*
X276349Y212695D01*
X276365Y212706D01*
X276454Y212814D01*
X276546Y212918D01*
X276555Y212936D01*
X276568Y212951D01*
X276627Y213077D01*
X276691Y213201D01*
X276695Y213221D01*
X276704Y213239D01*
X276730Y213376D01*
X276760Y213511D01*
X276760Y213532D01*
X276764Y213551D01*
X276755Y213690D01*
X276751Y213829D01*
X276745Y213849D01*
X276744Y213869D01*
X276701Y214001D01*
X276662Y214135D01*
X276652Y214152D01*
X276646Y214171D01*
X276571Y214289D01*
X276501Y214409D01*
X276482Y214430D01*
X276476Y214440D01*
X276461Y214454D01*
X276394Y214529D01*
X274752Y216172D01*
X272777Y220940D01*
X272777Y231140D01*
X272777Y231143D01*
X272777Y231145D01*
X272766Y231306D01*
X272646Y232221D01*
X272643Y232230D01*
X272643Y232240D01*
X272603Y232385D01*
X272565Y232529D01*
X272561Y232537D01*
X272558Y232546D01*
X272487Y232690D01*
X271571Y234276D01*
X271515Y234350D01*
X271467Y234429D01*
X271419Y234476D01*
X271379Y234530D01*
X271306Y234587D01*
X271240Y234652D01*
X271143Y234717D01*
X271130Y234727D01*
X271122Y234731D01*
X271106Y234741D01*
X269520Y235657D01*
X269512Y235660D01*
X269504Y235666D01*
X269366Y235722D01*
X269227Y235780D01*
X269218Y235781D01*
X269209Y235785D01*
X269051Y235816D01*
X268136Y235936D01*
X268133Y235936D01*
X268131Y235937D01*
X267970Y235947D01*
X255452Y235947D01*
X255304Y235929D01*
X255156Y235912D01*
X255147Y235909D01*
X255136Y235907D01*
X254998Y235853D01*
X254859Y235800D01*
X254847Y235793D01*
X254840Y235790D01*
X254829Y235782D01*
X254722Y235716D01*
X253648Y234962D01*
X253648Y234961D01*
X252767Y234342D01*
X252746Y234322D01*
X252721Y234308D01*
X252600Y234201D01*
X252214Y233815D01*
X251868Y233672D01*
X251816Y233642D01*
X251761Y233621D01*
X251623Y233537D01*
X251291Y233304D01*
X251230Y233311D01*
X251189Y233305D01*
X251148Y233307D01*
X251032Y233283D01*
X250915Y233266D01*
X250857Y233246D01*
X250837Y233242D01*
X250819Y233233D01*
X250763Y233214D01*
X250070Y232927D01*
X247750Y232927D01*
X245606Y233815D01*
X243965Y235456D01*
X243128Y237477D01*
X243103Y237520D01*
X243087Y237567D01*
X243025Y237658D01*
X242970Y237754D01*
X242936Y237789D01*
X242908Y237830D01*
X242826Y237903D01*
X242749Y237982D01*
X242707Y238008D01*
X242670Y238041D01*
X242572Y238091D01*
X242478Y238148D01*
X242431Y238163D01*
X242386Y238186D01*
X242279Y238210D01*
X242174Y238242D01*
X242124Y238244D01*
X242076Y238255D01*
X241966Y238252D01*
X241856Y238257D01*
X241808Y238247D01*
X241758Y238246D01*
X241653Y238215D01*
X241545Y238193D01*
X241500Y238171D01*
X241453Y238157D01*
X241358Y238101D01*
X241259Y238053D01*
X241221Y238021D01*
X241179Y237996D01*
X241058Y237889D01*
X239524Y236355D01*
X237380Y235467D01*
X235060Y235467D01*
X232916Y236355D01*
X231275Y237996D01*
X230387Y240140D01*
X230387Y242460D01*
X231275Y244604D01*
X231962Y245290D01*
X232022Y245368D01*
X232088Y245438D01*
X232118Y245492D01*
X232157Y245542D01*
X232195Y245631D01*
X232243Y245716D01*
X232247Y245730D01*
X232482Y245868D01*
X232546Y245917D01*
X232615Y245958D01*
X232732Y246061D01*
X232734Y246063D01*
X232736Y246065D01*
X232916Y246245D01*
X233531Y246499D01*
X233538Y246503D01*
X233545Y246505D01*
X233689Y246578D01*
X234719Y247184D01*
X234720Y247185D01*
X235442Y247609D01*
X235511Y247663D01*
X235586Y247708D01*
X235637Y247760D01*
X235694Y247804D01*
X235748Y247873D01*
X235809Y247935D01*
X235854Y248002D01*
X236334Y248280D01*
X236370Y248307D01*
X236410Y248327D01*
X236496Y248403D01*
X236587Y248472D01*
X236615Y248507D01*
X236649Y248537D01*
X236719Y248627D01*
X236829Y248648D01*
X236955Y248689D01*
X237084Y248724D01*
X237117Y248741D01*
X237131Y248746D01*
X237150Y248757D01*
X237228Y248796D01*
X240115Y250463D01*
X243945Y250463D01*
X244083Y250480D01*
X244222Y250493D01*
X244241Y250500D01*
X244261Y250503D01*
X244390Y250554D01*
X244521Y250601D01*
X244538Y250612D01*
X244557Y250620D01*
X244669Y250701D01*
X244784Y250779D01*
X244797Y250795D01*
X244814Y250806D01*
X244903Y250914D01*
X244995Y251018D01*
X245004Y251036D01*
X245017Y251051D01*
X245076Y251177D01*
X245139Y251301D01*
X245144Y251321D01*
X245152Y251339D01*
X245178Y251475D01*
X245209Y251611D01*
X245208Y251632D01*
X245212Y251651D01*
X245203Y251790D01*
X245199Y251929D01*
X245194Y251949D01*
X245192Y251969D01*
X245149Y252101D01*
X245111Y252235D01*
X245100Y252252D01*
X245094Y252271D01*
X245020Y252389D01*
X244949Y252509D01*
X244931Y252530D01*
X244924Y252540D01*
X244909Y252554D01*
X244843Y252629D01*
X244703Y252769D01*
X244680Y252787D01*
X244661Y252809D01*
X244536Y252910D01*
X243655Y253529D01*
X243655Y253530D01*
X242581Y254284D01*
X242450Y254354D01*
X242320Y254426D01*
X242310Y254428D01*
X242300Y254433D01*
X242156Y254468D01*
X242012Y254505D01*
X241998Y254506D01*
X241991Y254508D01*
X241977Y254507D01*
X241851Y254515D01*
X238088Y254515D01*
X233610Y256370D01*
X230182Y259798D01*
X228327Y264276D01*
X228327Y289560D01*
X228325Y289580D01*
X228321Y289684D01*
X228195Y290967D01*
X228171Y291070D01*
X228156Y291176D01*
X228129Y291256D01*
X228124Y291277D01*
X228117Y291291D01*
X228104Y291328D01*
X227123Y293698D01*
X227118Y293706D01*
X227116Y293715D01*
X227107Y293730D01*
X227103Y293743D01*
X227051Y293825D01*
X227039Y293845D01*
X226965Y293974D01*
X226959Y293981D01*
X226954Y293989D01*
X226848Y294110D01*
X225034Y295924D01*
X225026Y295929D01*
X225021Y295937D01*
X224901Y296026D01*
X224783Y296119D01*
X224774Y296122D01*
X224767Y296128D01*
X224622Y296199D01*
X222252Y297180D01*
X222150Y297208D01*
X222050Y297245D01*
X221967Y297258D01*
X221946Y297264D01*
X221930Y297265D01*
X221891Y297271D01*
X220608Y297397D01*
X220589Y297397D01*
X220484Y297403D01*
X126271Y297403D01*
X126123Y297385D01*
X125975Y297368D01*
X125966Y297365D01*
X125955Y297363D01*
X125817Y297309D01*
X125678Y297256D01*
X125666Y297249D01*
X125659Y297246D01*
X125648Y297238D01*
X125541Y297172D01*
X124467Y296418D01*
X124467Y296417D01*
X123586Y295798D01*
X123565Y295778D01*
X123540Y295764D01*
X123419Y295657D01*
X123033Y295271D01*
X122687Y295128D01*
X122635Y295098D01*
X122580Y295077D01*
X122442Y294993D01*
X122110Y294760D01*
X122049Y294767D01*
X122008Y294761D01*
X121967Y294763D01*
X121851Y294739D01*
X121734Y294722D01*
X121676Y294702D01*
X121656Y294698D01*
X121638Y294689D01*
X121582Y294670D01*
X120889Y294383D01*
X118569Y294383D01*
X116425Y295271D01*
X114784Y296912D01*
X113896Y299056D01*
X113896Y300238D01*
X113881Y300356D01*
X113874Y300475D01*
X113861Y300513D01*
X113856Y300554D01*
X113813Y300664D01*
X113776Y300777D01*
X113754Y300812D01*
X113739Y300849D01*
X113670Y300945D01*
X113606Y301046D01*
X113576Y301074D01*
X113553Y301107D01*
X113461Y301183D01*
X113374Y301264D01*
X113339Y301284D01*
X113308Y301309D01*
X113200Y301360D01*
X113096Y301418D01*
X113056Y301428D01*
X113020Y301445D01*
X112903Y301467D01*
X112788Y301497D01*
X112728Y301501D01*
X112708Y301505D01*
X112687Y301503D01*
X112627Y301507D01*
X110600Y301507D01*
X108456Y302395D01*
X106815Y304036D01*
X105927Y306180D01*
X105927Y308500D01*
X106815Y310644D01*
X108456Y312285D01*
X110600Y313173D01*
X112920Y313173D01*
X113613Y312886D01*
X113727Y312855D01*
X113839Y312816D01*
X113880Y312813D01*
X113919Y312802D01*
X114038Y312800D01*
X114148Y312791D01*
X114473Y312563D01*
X114526Y312535D01*
X114573Y312499D01*
X114718Y312428D01*
X115064Y312285D01*
X115450Y311899D01*
X115473Y311881D01*
X115492Y311859D01*
X115617Y311758D01*
X117572Y310384D01*
X117702Y310314D01*
X117833Y310242D01*
X117843Y310240D01*
X117853Y310235D01*
X117997Y310200D01*
X118141Y310163D01*
X118155Y310162D01*
X118162Y310160D01*
X118177Y310161D01*
X118302Y310153D01*
X246305Y310153D01*
X246375Y310161D01*
X246444Y310160D01*
X246532Y310181D01*
X246621Y310193D01*
X246686Y310218D01*
X246754Y310235D01*
X246833Y310277D01*
X246917Y310310D01*
X246973Y310351D01*
X247035Y310383D01*
X247101Y310444D01*
X247174Y310496D01*
X247218Y310550D01*
X247270Y310597D01*
X247319Y310672D01*
X247377Y310741D01*
X247406Y310805D01*
X247445Y310863D01*
X247474Y310948D01*
X247512Y311029D01*
X247525Y311098D01*
X247548Y311164D01*
X247555Y311253D01*
X247572Y311341D01*
X247568Y311411D01*
X247573Y311481D01*
X247558Y311569D01*
X247552Y311659D01*
X247531Y311725D01*
X247519Y311794D01*
X247482Y311876D01*
X247454Y311961D01*
X247417Y312020D01*
X247388Y312084D01*
X247332Y312154D01*
X247284Y312230D01*
X247233Y312278D01*
X247190Y312333D01*
X247118Y312386D01*
X247052Y312448D01*
X246991Y312482D01*
X246935Y312524D01*
X246900Y312541D01*
X245245Y314196D01*
X244357Y316340D01*
X244357Y318660D01*
X244644Y319353D01*
X244675Y319464D01*
X244675Y319465D01*
X244675Y319467D01*
X244714Y319579D01*
X244717Y319620D01*
X244728Y319659D01*
X244729Y319749D01*
X244735Y319777D01*
X244733Y319812D01*
X244739Y319888D01*
X244967Y320213D01*
X244995Y320266D01*
X245031Y320313D01*
X245102Y320458D01*
X245245Y320804D01*
X245631Y321190D01*
X245649Y321213D01*
X245671Y321232D01*
X245772Y321357D01*
X246391Y322238D01*
X246392Y322238D01*
X247146Y323311D01*
X247215Y323442D01*
X247288Y323573D01*
X247290Y323583D01*
X247295Y323592D01*
X247330Y323737D01*
X247367Y323881D01*
X247368Y323895D01*
X247370Y323902D01*
X247369Y323916D01*
X247377Y324042D01*
X247377Y327893D01*
X247360Y328030D01*
X247347Y328169D01*
X247340Y328188D01*
X247337Y328208D01*
X247286Y328337D01*
X247239Y328468D01*
X247228Y328485D01*
X247220Y328504D01*
X247139Y328616D01*
X247061Y328731D01*
X247045Y328745D01*
X247034Y328761D01*
X246926Y328850D01*
X246822Y328942D01*
X246804Y328951D01*
X246789Y328964D01*
X246663Y329023D01*
X246539Y329086D01*
X246519Y329091D01*
X246501Y329099D01*
X246364Y329126D01*
X246229Y329156D01*
X246208Y329155D01*
X246189Y329159D01*
X246050Y329151D01*
X245911Y329146D01*
X245891Y329141D01*
X245871Y329140D01*
X245739Y329097D01*
X245605Y329058D01*
X245588Y329048D01*
X245569Y329041D01*
X245451Y328967D01*
X245331Y328896D01*
X245310Y328878D01*
X245300Y328871D01*
X245286Y328856D01*
X245211Y328790D01*
X243588Y327167D01*
X241444Y326280D01*
X239124Y326280D01*
X238431Y326566D01*
X238317Y326598D01*
X238205Y326636D01*
X238164Y326639D01*
X238125Y326650D01*
X238006Y326652D01*
X237896Y326661D01*
X237571Y326890D01*
X237518Y326917D01*
X237471Y326953D01*
X237326Y327024D01*
X236980Y327167D01*
X236594Y327553D01*
X236571Y327571D01*
X236552Y327593D01*
X236427Y327694D01*
X235546Y328314D01*
X234472Y329068D01*
X234341Y329138D01*
X234211Y329210D01*
X234201Y329212D01*
X234191Y329217D01*
X234047Y329252D01*
X233903Y329289D01*
X233889Y329290D01*
X233882Y329292D01*
X233868Y329292D01*
X233742Y329300D01*
X154479Y329300D01*
X154381Y329287D01*
X154282Y329284D01*
X154224Y329267D01*
X154164Y329260D01*
X154072Y329223D01*
X153976Y329196D01*
X153924Y329165D01*
X153868Y329143D01*
X153788Y329085D01*
X153703Y329034D01*
X153627Y328968D01*
X153611Y328956D01*
X153603Y328946D01*
X153582Y328928D01*
X153427Y328773D01*
X153335Y328655D01*
X153242Y328539D01*
X153238Y328530D01*
X153232Y328522D01*
X153172Y328385D01*
X153111Y328250D01*
X153108Y328236D01*
X153105Y328230D01*
X153103Y328215D01*
X153074Y328093D01*
X152848Y326800D01*
X152740Y326178D01*
X152664Y325740D01*
X152662Y325711D01*
X152655Y325683D01*
X152645Y325522D01*
X152645Y324976D01*
X152501Y324629D01*
X152486Y324572D01*
X152461Y324518D01*
X152423Y324361D01*
X152354Y323961D01*
X152306Y323923D01*
X152281Y323890D01*
X152251Y323863D01*
X152186Y323764D01*
X152114Y323669D01*
X152088Y323614D01*
X152076Y323597D01*
X152070Y323578D01*
X152044Y323524D01*
X151757Y322832D01*
X150116Y321191D01*
X147972Y320303D01*
X145652Y320303D01*
X143508Y321191D01*
X141867Y322832D01*
X140979Y324976D01*
X140979Y327296D01*
X141867Y329440D01*
X143508Y331081D01*
X144200Y331368D01*
X144303Y331426D01*
X144333Y331438D01*
X144345Y331447D01*
X144410Y331478D01*
X144441Y331505D01*
X144477Y331525D01*
X144547Y331593D01*
X144590Y331625D01*
X144610Y331649D01*
X144652Y331685D01*
X144690Y331732D01*
X144705Y331746D01*
X144716Y331764D01*
X144753Y331810D01*
X144947Y332086D01*
X144993Y332174D01*
X145048Y332257D01*
X145068Y332314D01*
X145096Y332367D01*
X145119Y332464D01*
X145151Y332558D01*
X145156Y332618D01*
X145170Y332676D01*
X145169Y332775D01*
X145177Y332875D01*
X145166Y332934D01*
X145165Y332994D01*
X145139Y333090D01*
X145122Y333188D01*
X145097Y333243D01*
X145082Y333301D01*
X145032Y333387D01*
X144992Y333478D01*
X144954Y333525D01*
X144924Y333577D01*
X144855Y333649D01*
X144793Y333726D01*
X144745Y333763D01*
X144703Y333806D01*
X144618Y333858D01*
X144539Y333918D01*
X144450Y333961D01*
X144432Y333972D01*
X144420Y333976D01*
X144394Y333989D01*
X144016Y334145D01*
X142375Y335786D01*
X141487Y337930D01*
X141487Y340250D01*
X141850Y341126D01*
X141863Y341174D01*
X141884Y341219D01*
X141905Y341327D01*
X141934Y341433D01*
X141935Y341483D01*
X141944Y341532D01*
X141937Y341641D01*
X141939Y341751D01*
X141928Y341799D01*
X141924Y341849D01*
X141891Y341953D01*
X141865Y342060D01*
X141842Y342104D01*
X141826Y342151D01*
X141768Y342244D01*
X141716Y342341D01*
X141683Y342378D01*
X141656Y342420D01*
X141576Y342495D01*
X141502Y342577D01*
X141461Y342604D01*
X141425Y342638D01*
X141328Y342691D01*
X141237Y342751D01*
X141190Y342768D01*
X141146Y342792D01*
X141040Y342819D01*
X140936Y342855D01*
X140886Y342859D01*
X140838Y342871D01*
X140678Y342881D01*
X98630Y342881D01*
X98513Y342866D01*
X98394Y342859D01*
X98355Y342847D01*
X98314Y342841D01*
X98204Y342798D01*
X98092Y342762D01*
X98038Y342732D01*
X98018Y342724D01*
X98002Y342713D01*
X97951Y342684D01*
X96751Y341925D01*
X95988Y341441D01*
X95942Y341403D01*
X95890Y341373D01*
X95769Y341267D01*
X95506Y341003D01*
X94999Y340793D01*
X94974Y340779D01*
X94947Y340770D01*
X94806Y340693D01*
X94305Y340376D01*
X94242Y340383D01*
X94232Y340381D01*
X94222Y340382D01*
X94075Y340359D01*
X93927Y340338D01*
X93914Y340334D01*
X93908Y340333D01*
X93894Y340327D01*
X93775Y340286D01*
X93362Y340115D01*
X91042Y340115D01*
X88855Y341021D01*
X88752Y341107D01*
X88733Y341115D01*
X88717Y341128D01*
X88589Y341183D01*
X88464Y341242D01*
X88444Y341246D01*
X88426Y341254D01*
X88288Y341276D01*
X88151Y341302D01*
X88131Y341301D01*
X88111Y341304D01*
X87973Y341291D01*
X87834Y341282D01*
X87815Y341276D01*
X87795Y341274D01*
X87663Y341227D01*
X87532Y341184D01*
X87515Y341173D01*
X87496Y341167D01*
X87380Y341088D01*
X87263Y341014D01*
X87249Y340999D01*
X87232Y340988D01*
X87141Y340884D01*
X87045Y340782D01*
X87035Y340765D01*
X87022Y340750D01*
X86959Y340626D01*
X86891Y340504D01*
X86886Y340484D01*
X86877Y340466D01*
X86847Y340330D01*
X86812Y340196D01*
X86810Y340168D01*
X86807Y340156D01*
X86808Y340136D01*
X86802Y340035D01*
X86802Y313942D01*
X86814Y313844D01*
X86817Y313745D01*
X86834Y313686D01*
X86842Y313626D01*
X86878Y313534D01*
X86906Y313439D01*
X86936Y313387D01*
X86959Y313331D01*
X87017Y313251D01*
X87067Y313165D01*
X87133Y313090D01*
X87145Y313073D01*
X87155Y313065D01*
X87173Y313044D01*
X115093Y285124D01*
X115172Y285064D01*
X115244Y284996D01*
X115297Y284967D01*
X115345Y284930D01*
X115436Y284890D01*
X115522Y284842D01*
X115581Y284827D01*
X115636Y284803D01*
X115734Y284788D01*
X115830Y284763D01*
X115930Y284757D01*
X115951Y284753D01*
X115963Y284755D01*
X115991Y284753D01*
X132929Y284753D01*
X133027Y284765D01*
X133126Y284768D01*
X133185Y284785D01*
X133245Y284793D01*
X133337Y284829D01*
X133432Y284857D01*
X133484Y284887D01*
X133502Y284894D01*
X135927Y284894D01*
X137946Y282875D01*
X183629Y237191D01*
X185649Y235172D01*
X185649Y207248D01*
X185667Y207100D01*
X185684Y206952D01*
X185687Y206943D01*
X185689Y206932D01*
X185743Y206794D01*
X185796Y206655D01*
X185803Y206643D01*
X185806Y206636D01*
X185814Y206625D01*
X185880Y206517D01*
X187254Y204563D01*
X187273Y204542D01*
X187288Y204517D01*
X187395Y204396D01*
X187781Y204010D01*
X187924Y203664D01*
X187954Y203612D01*
X187975Y203556D01*
X188059Y203419D01*
X188292Y203087D01*
X188285Y203026D01*
X188291Y202985D01*
X188289Y202945D01*
X188313Y202829D01*
X188330Y202711D01*
X188350Y202653D01*
X188354Y202633D01*
X188363Y202615D01*
X188382Y202559D01*
X188669Y201866D01*
X188669Y199546D01*
X187781Y197402D01*
X186140Y195761D01*
X183996Y194873D01*
X181676Y194873D01*
X179532Y195761D01*
X177891Y197402D01*
X177003Y199546D01*
X177003Y201866D01*
X177290Y202559D01*
X177321Y202673D01*
X177360Y202785D01*
X177363Y202826D01*
X177374Y202865D01*
X177376Y202984D01*
X177385Y203094D01*
X177613Y203419D01*
X177641Y203472D01*
X177677Y203519D01*
X177748Y203664D01*
X177891Y204010D01*
X178277Y204396D01*
X178295Y204419D01*
X178317Y204438D01*
X178418Y204563D01*
X179037Y205444D01*
X179038Y205444D01*
X179792Y206517D01*
X179862Y206649D01*
X179934Y206779D01*
X179936Y206789D01*
X179941Y206798D01*
X179976Y206943D01*
X180013Y207087D01*
X180014Y207101D01*
X180016Y207108D01*
X180015Y207122D01*
X180023Y207248D01*
X180023Y232316D01*
X180011Y232414D01*
X180008Y232513D01*
X179991Y232572D01*
X179983Y232632D01*
X179947Y232724D01*
X179919Y232819D01*
X179889Y232871D01*
X179866Y232927D01*
X179808Y233007D01*
X179758Y233093D01*
X179692Y233168D01*
X179680Y233185D01*
X179670Y233193D01*
X179652Y233214D01*
X134110Y278756D01*
X134031Y278816D01*
X133959Y278884D01*
X133906Y278913D01*
X133858Y278950D01*
X133767Y278990D01*
X133681Y279038D01*
X133622Y279053D01*
X133567Y279077D01*
X133469Y279092D01*
X133373Y279117D01*
X133273Y279123D01*
X133252Y279127D01*
X133240Y279125D01*
X133212Y279127D01*
X113135Y279127D01*
X111116Y281147D01*
X91044Y301218D01*
X90935Y301303D01*
X90828Y301392D01*
X90809Y301400D01*
X90793Y301413D01*
X90665Y301468D01*
X90540Y301527D01*
X90520Y301531D01*
X90501Y301539D01*
X90363Y301561D01*
X90227Y301587D01*
X90207Y301586D01*
X90187Y301589D01*
X90048Y301576D01*
X89910Y301567D01*
X89891Y301561D01*
X89871Y301559D01*
X89739Y301512D01*
X89608Y301469D01*
X89590Y301458D01*
X89571Y301451D01*
X89456Y301373D01*
X89339Y301299D01*
X89325Y301284D01*
X89308Y301273D01*
X89216Y301169D01*
X89121Y301067D01*
X89111Y301050D01*
X89098Y301034D01*
X89034Y300911D01*
X88967Y300789D01*
X88962Y300769D01*
X88953Y300751D01*
X88923Y300615D01*
X88888Y300481D01*
X88886Y300453D01*
X88883Y300441D01*
X88884Y300420D01*
X88878Y300320D01*
X88878Y299056D01*
X87990Y296912D01*
X86349Y295271D01*
X84205Y294383D01*
X81885Y294383D01*
X79741Y295271D01*
X78100Y296912D01*
X77717Y297836D01*
X77670Y297919D01*
X77632Y298005D01*
X77592Y298056D01*
X77560Y298113D01*
X77494Y298181D01*
X77435Y298255D01*
X77423Y298266D01*
X77389Y298520D01*
X77367Y298601D01*
X77356Y298683D01*
X77309Y298820D01*
X77307Y298827D01*
X77305Y298830D01*
X77304Y298836D01*
X77212Y299056D01*
X77212Y299737D01*
X77212Y299742D01*
X77212Y299747D01*
X77201Y299907D01*
X77038Y301109D01*
X76873Y302324D01*
X76870Y302337D01*
X76870Y302351D01*
X76829Y302491D01*
X76792Y302631D01*
X76785Y302643D01*
X76781Y302656D01*
X76708Y302781D01*
X76636Y302909D01*
X76626Y302918D01*
X76620Y302930D01*
X76513Y303051D01*
X74542Y305023D01*
X72522Y307042D01*
X72522Y396373D01*
X75675Y399525D01*
X75693Y399549D01*
X75715Y399568D01*
X75790Y399674D01*
X75869Y399777D01*
X75881Y399804D01*
X75898Y399828D01*
X75944Y399949D01*
X75996Y400068D01*
X76000Y400098D01*
X76011Y400125D01*
X76025Y400254D01*
X76046Y400383D01*
X76043Y400412D01*
X76046Y400441D01*
X76028Y400570D01*
X76016Y400699D01*
X76006Y400727D01*
X76002Y400756D01*
X75950Y400909D01*
X75419Y402189D01*
X75419Y405531D01*
X76698Y408619D01*
X79061Y410982D01*
X82149Y412261D01*
X85491Y412261D01*
X88579Y410982D01*
X90942Y408619D01*
X92221Y405531D01*
X92221Y404840D01*
X92238Y404702D01*
X92251Y404563D01*
X92258Y404544D01*
X92261Y404524D01*
X92312Y404395D01*
X92359Y404264D01*
X92370Y404247D01*
X92378Y404229D01*
X92459Y404116D01*
X92537Y404001D01*
X92553Y403988D01*
X92564Y403971D01*
X92672Y403882D01*
X92776Y403791D01*
X92794Y403781D01*
X92809Y403768D01*
X92935Y403709D01*
X93059Y403646D01*
X93079Y403641D01*
X93097Y403633D01*
X93233Y403607D01*
X93369Y403576D01*
X93390Y403577D01*
X93409Y403573D01*
X93548Y403582D01*
X93687Y403586D01*
X93707Y403592D01*
X93727Y403593D01*
X93859Y403636D01*
X93993Y403674D01*
X94010Y403685D01*
X94029Y403691D01*
X94147Y403765D01*
X94267Y403836D01*
X94288Y403854D01*
X94298Y403861D01*
X94312Y403876D01*
X94387Y403942D01*
X95101Y404655D01*
X95161Y404734D01*
X95229Y404806D01*
X95258Y404859D01*
X95295Y404907D01*
X95335Y404998D01*
X95383Y405084D01*
X95398Y405143D01*
X95422Y405198D01*
X95437Y405296D01*
X95462Y405392D01*
X95468Y405492D01*
X95472Y405513D01*
X95470Y405525D01*
X95472Y405553D01*
X95472Y411806D01*
X95460Y411904D01*
X95457Y412003D01*
X95440Y412061D01*
X95432Y412121D01*
X95396Y412213D01*
X95368Y412308D01*
X95338Y412360D01*
X95315Y412417D01*
X95257Y412497D01*
X95207Y412582D01*
X95141Y412658D01*
X95129Y412674D01*
X95119Y412682D01*
X95101Y412703D01*
X92700Y415103D01*
X91421Y418191D01*
X91421Y421533D01*
X92700Y424621D01*
X95063Y426984D01*
X98151Y428263D01*
X101493Y428263D01*
X104581Y426984D01*
X106944Y424621D01*
X108223Y421533D01*
X108223Y418191D01*
X106944Y415103D01*
X104581Y412740D01*
X101881Y411622D01*
X101856Y411607D01*
X101828Y411598D01*
X101718Y411529D01*
X101605Y411465D01*
X101584Y411444D01*
X101559Y411428D01*
X101470Y411333D01*
X101377Y411243D01*
X101361Y411218D01*
X101341Y411197D01*
X101278Y411083D01*
X101210Y410972D01*
X101202Y410944D01*
X101187Y410918D01*
X101155Y410792D01*
X101117Y410668D01*
X101115Y410639D01*
X101108Y410610D01*
X101098Y410449D01*
X101098Y402697D01*
X99079Y400678D01*
X99078Y400678D01*
X87173Y388773D01*
X87113Y388694D01*
X87045Y388622D01*
X87016Y388569D01*
X86979Y388521D01*
X86939Y388430D01*
X86891Y388344D01*
X86876Y388285D01*
X86852Y388230D01*
X86837Y388132D01*
X86812Y388036D01*
X86806Y387936D01*
X86802Y387915D01*
X86804Y387903D01*
X86802Y387875D01*
X86802Y351861D01*
X86819Y351723D01*
X86832Y351584D01*
X86839Y351565D01*
X86842Y351545D01*
X86893Y351416D01*
X86940Y351285D01*
X86951Y351268D01*
X86959Y351249D01*
X87040Y351137D01*
X87118Y351022D01*
X87134Y351008D01*
X87145Y350992D01*
X87253Y350903D01*
X87357Y350811D01*
X87375Y350802D01*
X87390Y350789D01*
X87516Y350730D01*
X87640Y350667D01*
X87660Y350662D01*
X87678Y350654D01*
X87814Y350628D01*
X87951Y350597D01*
X87971Y350598D01*
X87990Y350594D01*
X88129Y350603D01*
X88268Y350607D01*
X88288Y350612D01*
X88308Y350614D01*
X88440Y350656D01*
X88574Y350695D01*
X88591Y350706D01*
X88610Y350712D01*
X88728Y350786D01*
X88848Y350857D01*
X88869Y350875D01*
X88879Y350882D01*
X88884Y350887D01*
X91042Y351781D01*
X93362Y351781D01*
X94354Y351370D01*
X94439Y351347D01*
X94521Y351314D01*
X94591Y351305D01*
X94661Y351286D01*
X94749Y351285D01*
X94836Y351273D01*
X94855Y351275D01*
X95027Y351140D01*
X95104Y351094D01*
X95176Y351040D01*
X95287Y350986D01*
X95300Y350978D01*
X95307Y350976D01*
X95321Y350969D01*
X95506Y350893D01*
X96014Y350384D01*
X96017Y350382D01*
X96132Y350280D01*
X98068Y348774D01*
X98085Y348764D01*
X98100Y348750D01*
X98222Y348683D01*
X98341Y348612D01*
X98361Y348606D01*
X98378Y348596D01*
X98513Y348562D01*
X98646Y348523D01*
X98667Y348522D01*
X98686Y348517D01*
X98847Y348507D01*
X245680Y348507D01*
X245828Y348525D01*
X245976Y348542D01*
X245985Y348545D01*
X245996Y348547D01*
X246134Y348601D01*
X246273Y348654D01*
X246285Y348661D01*
X246292Y348664D01*
X246303Y348672D01*
X246410Y348738D01*
X248365Y350112D01*
X248386Y350132D01*
X248411Y350146D01*
X248532Y350253D01*
X248918Y350639D01*
X249264Y350782D01*
X249316Y350812D01*
X249371Y350833D01*
X249509Y350917D01*
X249841Y351150D01*
X249902Y351143D01*
X249943Y351149D01*
X249983Y351147D01*
X250099Y351171D01*
X250217Y351188D01*
X250275Y351208D01*
X250295Y351212D01*
X250313Y351221D01*
X250369Y351240D01*
X251062Y351527D01*
X253382Y351527D01*
X255526Y350639D01*
X257167Y348998D01*
X258055Y346854D01*
X258055Y344534D01*
X257186Y342436D01*
X257175Y342397D01*
X257161Y342385D01*
X255526Y340749D01*
X253382Y339861D01*
X253044Y339861D01*
X252913Y339845D01*
X252781Y339834D01*
X252755Y339825D01*
X252728Y339821D01*
X252605Y339773D01*
X252480Y339729D01*
X252458Y339714D01*
X252433Y339704D01*
X252325Y339627D01*
X252215Y339553D01*
X252197Y339533D01*
X252175Y339518D01*
X252091Y339415D01*
X252002Y339317D01*
X251990Y339293D01*
X251973Y339273D01*
X251916Y339153D01*
X251855Y339036D01*
X251848Y339009D01*
X251837Y338985D01*
X251812Y338855D01*
X251782Y338726D01*
X251782Y338699D01*
X251777Y338673D01*
X251785Y338541D01*
X251788Y338408D01*
X251795Y338382D01*
X251797Y338355D01*
X251838Y338229D01*
X251873Y338102D01*
X251890Y338067D01*
X251895Y338053D01*
X251907Y338034D01*
X251945Y337957D01*
X253003Y336125D01*
X253003Y324042D01*
X253021Y323894D01*
X253038Y323746D01*
X253041Y323737D01*
X253043Y323726D01*
X253097Y323588D01*
X253150Y323449D01*
X253157Y323437D01*
X253160Y323430D01*
X253168Y323419D01*
X253234Y323311D01*
X254608Y321357D01*
X254627Y321336D01*
X254642Y321311D01*
X254749Y321190D01*
X255135Y320804D01*
X255278Y320458D01*
X255308Y320406D01*
X255329Y320350D01*
X255413Y320213D01*
X255646Y319881D01*
X255639Y319820D01*
X255645Y319779D01*
X255643Y319739D01*
X255664Y319639D01*
X255665Y319621D01*
X255669Y319607D01*
X255684Y319505D01*
X255704Y319447D01*
X255708Y319427D01*
X255717Y319409D01*
X255736Y319353D01*
X256023Y318660D01*
X256023Y316340D01*
X255135Y314196D01*
X253494Y312555D01*
X251350Y311667D01*
X251085Y311667D01*
X250941Y311649D01*
X250795Y311634D01*
X250783Y311629D01*
X250769Y311627D01*
X250634Y311574D01*
X250497Y311523D01*
X250486Y311515D01*
X250474Y311510D01*
X250356Y311425D01*
X250236Y311342D01*
X250227Y311331D01*
X250216Y311324D01*
X250124Y311212D01*
X250028Y311101D01*
X250022Y311089D01*
X250014Y311079D01*
X249952Y310947D01*
X249887Y310816D01*
X249884Y310803D01*
X249878Y310791D01*
X249851Y310649D01*
X249820Y310505D01*
X249821Y310492D01*
X249818Y310479D01*
X249827Y310334D01*
X249833Y310188D01*
X249837Y310174D01*
X249838Y310161D01*
X249883Y310023D01*
X249925Y309883D01*
X249932Y309871D01*
X249936Y309859D01*
X250014Y309736D01*
X250089Y309611D01*
X250099Y309601D01*
X250106Y309590D01*
X250212Y309490D01*
X250316Y309388D01*
X250332Y309378D01*
X250338Y309372D01*
X250353Y309364D01*
X250450Y309299D01*
X253459Y307561D01*
X256051Y303073D01*
X256051Y266446D01*
X256053Y266426D01*
X256057Y266322D01*
X256164Y265235D01*
X256187Y265131D01*
X256202Y265026D01*
X256230Y264946D01*
X256234Y264925D01*
X256242Y264911D01*
X256254Y264874D01*
X257086Y262866D01*
X257091Y262858D01*
X257093Y262849D01*
X257169Y262720D01*
X257244Y262590D01*
X257250Y262583D01*
X257255Y262575D01*
X257361Y262454D01*
X258898Y260917D01*
X258905Y260912D01*
X258911Y260904D01*
X259031Y260814D01*
X259149Y260722D01*
X259158Y260719D01*
X259165Y260713D01*
X259310Y260642D01*
X261318Y259810D01*
X261420Y259782D01*
X261520Y259746D01*
X261603Y259732D01*
X261624Y259726D01*
X261640Y259726D01*
X261679Y259720D01*
X262766Y259613D01*
X262785Y259613D01*
X262890Y259607D01*
X274636Y259607D01*
X274784Y259625D01*
X274932Y259642D01*
X274941Y259645D01*
X274952Y259647D01*
X275090Y259701D01*
X275229Y259754D01*
X275241Y259761D01*
X275248Y259764D01*
X275259Y259772D01*
X275367Y259838D01*
X277321Y261212D01*
X277342Y261231D01*
X277367Y261246D01*
X277488Y261353D01*
X277874Y261739D01*
X278220Y261882D01*
X278272Y261912D01*
X278328Y261933D01*
X278465Y262017D01*
X278797Y262250D01*
X278858Y262243D01*
X278899Y262249D01*
X278939Y262247D01*
X279055Y262271D01*
X279173Y262288D01*
X279231Y262308D01*
X279251Y262312D01*
X279269Y262321D01*
X279325Y262340D01*
X280018Y262627D01*
X282338Y262627D01*
X284482Y261739D01*
X286123Y260098D01*
X287011Y257954D01*
X287011Y255634D01*
X286123Y253490D01*
X285262Y252629D01*
X285177Y252520D01*
X285088Y252413D01*
X285080Y252394D01*
X285067Y252378D01*
X285012Y252251D01*
X284953Y252125D01*
X284949Y252105D01*
X284941Y252086D01*
X284919Y251948D01*
X284893Y251812D01*
X284894Y251792D01*
X284891Y251772D01*
X284904Y251633D01*
X284913Y251495D01*
X284919Y251476D01*
X284921Y251456D01*
X284968Y251324D01*
X285011Y251193D01*
X285022Y251175D01*
X285028Y251156D01*
X285107Y251041D01*
X285181Y250924D01*
X285196Y250910D01*
X285207Y250893D01*
X285311Y250801D01*
X285413Y250706D01*
X285430Y250696D01*
X285445Y250683D01*
X285569Y250620D01*
X285691Y250552D01*
X285711Y250547D01*
X285729Y250538D01*
X285865Y250508D01*
X285999Y250473D01*
X286027Y250471D01*
X286039Y250468D01*
X286059Y250469D01*
X286160Y250463D01*
X290412Y250463D01*
X290530Y250478D01*
X290649Y250485D01*
X290687Y250498D01*
X290728Y250503D01*
X290838Y250546D01*
X290951Y250583D01*
X290986Y250605D01*
X291023Y250620D01*
X291119Y250689D01*
X291220Y250753D01*
X291248Y250783D01*
X291281Y250806D01*
X291357Y250898D01*
X291438Y250985D01*
X291458Y251020D01*
X291483Y251051D01*
X291534Y251159D01*
X291592Y251263D01*
X291602Y251303D01*
X291619Y251339D01*
X291641Y251456D01*
X291671Y251571D01*
X291675Y251631D01*
X291679Y251651D01*
X291677Y251672D01*
X291681Y251732D01*
X291681Y264286D01*
X293610Y268943D01*
X297175Y272508D01*
X301832Y274437D01*
X321660Y274437D01*
X321680Y274439D01*
X321784Y274443D01*
X323080Y274570D01*
X323183Y274594D01*
X323289Y274609D01*
X323369Y274636D01*
X323390Y274641D01*
X323404Y274648D01*
X323441Y274661D01*
X325835Y275652D01*
X325843Y275657D01*
X325852Y275660D01*
X325982Y275736D01*
X326111Y275810D01*
X326118Y275816D01*
X326126Y275821D01*
X326246Y275928D01*
X328078Y277760D01*
X328084Y277767D01*
X328091Y277773D01*
X328181Y277892D01*
X328273Y278011D01*
X328277Y278019D01*
X328283Y278027D01*
X328354Y278171D01*
X329345Y280565D01*
X329358Y280613D01*
X329379Y280658D01*
X329390Y280714D01*
X329410Y280767D01*
X329423Y280851D01*
X329429Y280872D01*
X329429Y280887D01*
X329436Y280926D01*
X329563Y282222D01*
X329563Y282241D01*
X329569Y282346D01*
X329569Y380655D01*
X329557Y380753D01*
X329554Y380852D01*
X329537Y380910D01*
X329529Y380970D01*
X329493Y381062D01*
X329465Y381157D01*
X329435Y381209D01*
X329412Y381266D01*
X329354Y381346D01*
X329304Y381431D01*
X329238Y381507D01*
X329226Y381523D01*
X329216Y381531D01*
X329198Y381552D01*
X326888Y383861D01*
X325609Y386949D01*
X325609Y390291D01*
X326888Y393379D01*
X329251Y395742D01*
X332339Y397021D01*
X335681Y397021D01*
X338769Y395742D01*
X341132Y393379D01*
X342411Y390291D01*
X342411Y386949D01*
X341132Y383861D01*
X338769Y381498D01*
X335978Y380342D01*
X335953Y380328D01*
X335925Y380319D01*
X335815Y380249D01*
X335702Y380185D01*
X335681Y380164D01*
X335656Y380149D01*
X335567Y380054D01*
X335474Y379964D01*
X335458Y379938D01*
X335438Y379917D01*
X335375Y379803D01*
X335307Y379692D01*
X335299Y379664D01*
X335284Y379638D01*
X335252Y379512D01*
X335214Y379389D01*
X335212Y379359D01*
X335205Y379330D01*
X335195Y379170D01*
X335195Y279654D01*
X333134Y274679D01*
X329327Y270872D01*
X324352Y268811D01*
X323635Y268811D01*
X323633Y268811D01*
X323631Y268811D01*
X323474Y268791D01*
X323320Y268771D01*
X323318Y268771D01*
X323315Y268770D01*
X323168Y268711D01*
X323024Y268654D01*
X323022Y268653D01*
X323020Y268652D01*
X322893Y268559D01*
X322767Y268468D01*
X322765Y268466D01*
X322763Y268464D01*
X322665Y268344D01*
X322564Y268223D01*
X322563Y268221D01*
X322561Y268219D01*
X322493Y268073D01*
X322428Y267935D01*
X322428Y267933D01*
X322427Y267931D01*
X322397Y267772D01*
X322369Y267623D01*
X322369Y267620D01*
X322368Y267618D01*
X322379Y267461D01*
X322388Y267305D01*
X322389Y267303D01*
X322389Y267301D01*
X322439Y267149D01*
X322486Y267003D01*
X322488Y267001D01*
X322488Y266999D01*
X322572Y266868D01*
X322656Y266734D01*
X322658Y266732D01*
X322659Y266730D01*
X322771Y266626D01*
X322888Y266516D01*
X322890Y266515D01*
X322892Y266513D01*
X323028Y266427D01*
X324074Y265857D01*
X324146Y265829D01*
X324213Y265792D01*
X324293Y265772D01*
X324370Y265741D01*
X324447Y265732D01*
X324521Y265713D01*
X324681Y265703D01*
X354330Y265703D01*
X354350Y265705D01*
X354454Y265709D01*
X356681Y265928D01*
X356784Y265952D01*
X356890Y265967D01*
X356970Y265994D01*
X356991Y265999D01*
X357005Y266006D01*
X357042Y266019D01*
X361156Y267723D01*
X361164Y267727D01*
X361173Y267730D01*
X361302Y267806D01*
X361432Y267880D01*
X361439Y267887D01*
X361447Y267891D01*
X361568Y267998D01*
X364716Y271146D01*
X364722Y271154D01*
X364729Y271159D01*
X364819Y271279D01*
X364911Y271398D01*
X364915Y271406D01*
X364920Y271414D01*
X364991Y271558D01*
X365787Y273480D01*
X365788Y273483D01*
X365790Y273486D01*
X365831Y273638D01*
X365871Y273787D01*
X365871Y273790D01*
X365872Y273793D01*
X365874Y273947D01*
X365876Y274105D01*
X365876Y274108D01*
X365876Y274111D01*
X365847Y274270D01*
X365305Y276467D01*
X365300Y276481D01*
X365298Y276496D01*
X365246Y276648D01*
X365007Y277224D01*
X365007Y277520D01*
X364998Y277593D01*
X364999Y277666D01*
X364970Y277824D01*
X364845Y278331D01*
X364867Y278380D01*
X364918Y278472D01*
X364931Y278525D01*
X364953Y278575D01*
X364971Y278678D01*
X364997Y278780D01*
X365003Y278867D01*
X365006Y278888D01*
X365005Y278904D01*
X365007Y278941D01*
X365007Y279544D01*
X365895Y281688D01*
X367536Y283329D01*
X369680Y284217D01*
X370963Y284217D01*
X371100Y284234D01*
X371239Y284247D01*
X371258Y284254D01*
X371278Y284257D01*
X371407Y284308D01*
X371538Y284355D01*
X371555Y284366D01*
X371574Y284374D01*
X371686Y284455D01*
X371802Y284533D01*
X371815Y284549D01*
X371831Y284560D01*
X371920Y284668D01*
X372012Y284772D01*
X372021Y284790D01*
X372034Y284805D01*
X372093Y284931D01*
X372157Y285055D01*
X372161Y285075D01*
X372170Y285093D01*
X372196Y285229D01*
X372226Y285365D01*
X372226Y285386D01*
X372230Y285405D01*
X372221Y285544D01*
X372217Y285683D01*
X372211Y285703D01*
X372210Y285723D01*
X372167Y285855D01*
X372128Y285989D01*
X372118Y286006D01*
X372112Y286025D01*
X372037Y286143D01*
X371967Y286263D01*
X371948Y286284D01*
X371942Y286294D01*
X371927Y286308D01*
X371860Y286383D01*
X362871Y295373D01*
X362810Y295420D01*
X362756Y295474D01*
X362737Y295486D01*
X362723Y295499D01*
X362673Y295527D01*
X362620Y295568D01*
X362549Y295598D01*
X362484Y295638D01*
X362448Y295651D01*
X362445Y295652D01*
X362439Y295654D01*
X362332Y295693D01*
X360856Y296128D01*
X360855Y296128D01*
X360014Y296376D01*
X359914Y296392D01*
X359816Y296417D01*
X359721Y296423D01*
X359700Y296426D01*
X359687Y296425D01*
X359656Y296427D01*
X359520Y296427D01*
X358797Y296727D01*
X358781Y296731D01*
X358670Y296772D01*
X357660Y297069D01*
X357655Y297076D01*
X357631Y297096D01*
X357611Y297121D01*
X357509Y297198D01*
X357417Y297274D01*
X355735Y298956D01*
X354847Y301100D01*
X354847Y303420D01*
X355735Y305564D01*
X357376Y307205D01*
X359520Y308093D01*
X361840Y308093D01*
X363984Y307205D01*
X365684Y305504D01*
X365714Y305452D01*
X365737Y305429D01*
X365754Y305402D01*
X365847Y305315D01*
X365867Y305295D01*
X366168Y304271D01*
X366175Y304255D01*
X366213Y304143D01*
X366513Y303420D01*
X366513Y303284D01*
X366525Y303184D01*
X366529Y303083D01*
X366550Y302990D01*
X366553Y302969D01*
X366557Y302956D01*
X366564Y302926D01*
X367247Y300608D01*
X367278Y300537D01*
X367299Y300464D01*
X367341Y300392D01*
X367375Y300316D01*
X367422Y300256D01*
X367461Y300190D01*
X367567Y300069D01*
X386264Y281372D01*
X388581Y279055D01*
X388581Y255460D01*
X388596Y255342D01*
X388603Y255223D01*
X388616Y255185D01*
X388621Y255144D01*
X388664Y255034D01*
X388701Y254921D01*
X388723Y254886D01*
X388738Y254849D01*
X388807Y254753D01*
X388871Y254652D01*
X388901Y254624D01*
X388924Y254591D01*
X389016Y254515D01*
X389103Y254434D01*
X389138Y254414D01*
X389169Y254389D01*
X389277Y254338D01*
X389381Y254280D01*
X389421Y254270D01*
X389457Y254253D01*
X389574Y254231D01*
X389689Y254201D01*
X389749Y254197D01*
X389769Y254193D01*
X389790Y254195D01*
X389850Y254191D01*
X402109Y254191D01*
X403311Y252989D01*
X403311Y209291D01*
X402109Y208089D01*
X368411Y208089D01*
X368200Y208300D01*
X368090Y208386D01*
X367983Y208474D01*
X367964Y208483D01*
X367948Y208495D01*
X367820Y208551D01*
X367695Y208610D01*
X367675Y208614D01*
X367656Y208622D01*
X367518Y208644D01*
X367382Y208670D01*
X367362Y208668D01*
X367342Y208671D01*
X367203Y208658D01*
X367065Y208650D01*
X367046Y208644D01*
X367026Y208642D01*
X366895Y208595D01*
X366763Y208552D01*
X366745Y208541D01*
X366726Y208534D01*
X366612Y208456D01*
X366494Y208382D01*
X366480Y208367D01*
X366463Y208355D01*
X366371Y208251D01*
X366276Y208150D01*
X366266Y208132D01*
X366253Y208117D01*
X366190Y207993D01*
X366122Y207871D01*
X366117Y207852D01*
X366108Y207834D01*
X366078Y207698D01*
X366043Y207564D01*
X366041Y207536D01*
X366038Y207524D01*
X366039Y207503D01*
X366033Y207403D01*
X366033Y205932D01*
X366051Y205784D01*
X366068Y205636D01*
X366071Y205627D01*
X366073Y205616D01*
X366127Y205478D01*
X366180Y205339D01*
X366187Y205327D01*
X366190Y205320D01*
X366198Y205309D01*
X366264Y205202D01*
X367638Y203247D01*
X367658Y203226D01*
X367672Y203201D01*
X367779Y203080D01*
X368165Y202694D01*
X368308Y202348D01*
X368338Y202296D01*
X368359Y202240D01*
X368443Y202103D01*
X368676Y201771D01*
X368669Y201710D01*
X368675Y201669D01*
X368673Y201629D01*
X368697Y201513D01*
X368714Y201395D01*
X368734Y201337D01*
X368738Y201317D01*
X368747Y201299D01*
X368766Y201243D01*
X369053Y200550D01*
X369053Y198230D01*
X368165Y196086D01*
X366524Y194445D01*
X364380Y193557D01*
X362060Y193557D01*
X359916Y194445D01*
X358275Y196086D01*
X357387Y198230D01*
X357387Y200550D01*
X357674Y201243D01*
X357705Y201357D01*
X357744Y201469D01*
X357747Y201510D01*
X357758Y201549D01*
X357760Y201668D01*
X357769Y201778D01*
X357997Y202103D01*
X358025Y202156D01*
X358061Y202203D01*
X358132Y202348D01*
X358275Y202694D01*
X358661Y203080D01*
X358679Y203103D01*
X358701Y203122D01*
X358802Y203247D01*
X359421Y204128D01*
X359422Y204128D01*
X360176Y205202D01*
X360246Y205332D01*
X360318Y205463D01*
X360320Y205473D01*
X360325Y205483D01*
X360360Y205626D01*
X360397Y205771D01*
X360398Y205785D01*
X360400Y205792D01*
X360399Y205807D01*
X360407Y205932D01*
X360407Y232410D01*
X360405Y232430D01*
X360401Y232534D01*
X360211Y234463D01*
X360188Y234567D01*
X360173Y234672D01*
X360145Y234752D01*
X360141Y234774D01*
X360133Y234788D01*
X360121Y234825D01*
X358644Y238389D01*
X358640Y238397D01*
X358637Y238406D01*
X358561Y238535D01*
X358487Y238665D01*
X358480Y238672D01*
X358475Y238680D01*
X358369Y238801D01*
X355641Y241529D01*
X355634Y241535D01*
X355628Y241542D01*
X355508Y241632D01*
X355390Y241724D01*
X355381Y241728D01*
X355374Y241733D01*
X355229Y241804D01*
X351665Y243281D01*
X351617Y243294D01*
X351572Y243315D01*
X351516Y243326D01*
X351462Y243345D01*
X351379Y243359D01*
X351358Y243365D01*
X351342Y243365D01*
X351303Y243371D01*
X349375Y243561D01*
X349355Y243561D01*
X349250Y243567D01*
X339028Y243567D01*
X338880Y243549D01*
X338732Y243532D01*
X338723Y243529D01*
X338712Y243527D01*
X338574Y243473D01*
X338435Y243420D01*
X338423Y243413D01*
X338416Y243410D01*
X338405Y243402D01*
X338297Y243336D01*
X337224Y242582D01*
X337224Y242581D01*
X336343Y241962D01*
X336322Y241942D01*
X336297Y241928D01*
X336176Y241821D01*
X335790Y241435D01*
X335444Y241292D01*
X335392Y241262D01*
X335336Y241241D01*
X335199Y241157D01*
X334867Y240924D01*
X334806Y240931D01*
X334765Y240925D01*
X334724Y240927D01*
X334608Y240903D01*
X334491Y240886D01*
X334433Y240866D01*
X334413Y240862D01*
X334395Y240853D01*
X334339Y240834D01*
X333646Y240547D01*
X332915Y240547D01*
X332777Y240530D01*
X332638Y240517D01*
X332619Y240510D01*
X332599Y240507D01*
X332470Y240456D01*
X332339Y240409D01*
X332322Y240398D01*
X332304Y240390D01*
X332191Y240309D01*
X332076Y240231D01*
X332063Y240215D01*
X332046Y240204D01*
X331958Y240096D01*
X331866Y239992D01*
X331856Y239974D01*
X331843Y239959D01*
X331784Y239833D01*
X331721Y239709D01*
X331716Y239689D01*
X331708Y239671D01*
X331682Y239535D01*
X331651Y239399D01*
X331652Y239378D01*
X331648Y239359D01*
X331657Y239220D01*
X331661Y239081D01*
X331667Y239061D01*
X331668Y239041D01*
X331711Y238909D01*
X331749Y238775D01*
X331760Y238758D01*
X331766Y238739D01*
X331841Y238621D01*
X331911Y238501D01*
X331929Y238480D01*
X331936Y238470D01*
X331951Y238456D01*
X332017Y238381D01*
X339981Y230417D01*
X340263Y230135D01*
X340381Y230043D01*
X340497Y229950D01*
X340506Y229946D01*
X340514Y229940D01*
X340651Y229880D01*
X340786Y229819D01*
X340800Y229816D01*
X340806Y229813D01*
X340821Y229811D01*
X340943Y229782D01*
X343296Y229372D01*
X343325Y229370D01*
X343353Y229363D01*
X343514Y229353D01*
X344060Y229353D01*
X344407Y229209D01*
X344464Y229194D01*
X344518Y229169D01*
X344675Y229131D01*
X345075Y229062D01*
X345113Y229014D01*
X345146Y228989D01*
X345173Y228959D01*
X345272Y228894D01*
X345367Y228822D01*
X345422Y228796D01*
X345439Y228784D01*
X345458Y228778D01*
X345512Y228752D01*
X346204Y228465D01*
X347845Y226824D01*
X348733Y224680D01*
X348733Y223002D01*
X348748Y222884D01*
X348755Y222765D01*
X348768Y222727D01*
X348773Y222686D01*
X348816Y222576D01*
X348853Y222463D01*
X348875Y222428D01*
X348890Y222391D01*
X348959Y222295D01*
X349023Y222194D01*
X349053Y222166D01*
X349076Y222133D01*
X349168Y222057D01*
X349255Y221976D01*
X349290Y221956D01*
X349321Y221931D01*
X349429Y221880D01*
X349533Y221822D01*
X349573Y221812D01*
X349609Y221795D01*
X349726Y221773D01*
X349841Y221743D01*
X349901Y221739D01*
X349921Y221735D01*
X349942Y221737D01*
X350002Y221733D01*
X351680Y221733D01*
X353824Y220845D01*
X355465Y219204D01*
X356353Y217060D01*
X356353Y214740D01*
X355465Y212596D01*
X353824Y210955D01*
X351680Y210067D01*
X350002Y210067D01*
X349884Y210052D01*
X349765Y210045D01*
X349727Y210032D01*
X349686Y210027D01*
X349576Y209984D01*
X349463Y209947D01*
X349428Y209925D01*
X349391Y209910D01*
X349295Y209841D01*
X349194Y209777D01*
X349166Y209747D01*
X349133Y209724D01*
X349057Y209632D01*
X348976Y209545D01*
X348956Y209510D01*
X348931Y209479D01*
X348880Y209371D01*
X348822Y209267D01*
X348812Y209227D01*
X348795Y209191D01*
X348773Y209074D01*
X348743Y208959D01*
X348739Y208899D01*
X348735Y208879D01*
X348737Y208858D01*
X348733Y208798D01*
X348733Y207120D01*
X347845Y204976D01*
X346204Y203335D01*
X344060Y202447D01*
X341740Y202447D01*
X341047Y202734D01*
X340933Y202765D01*
X340821Y202804D01*
X340780Y202807D01*
X340741Y202818D01*
X340622Y202820D01*
X340512Y202829D01*
X340187Y203057D01*
X340134Y203085D01*
X340087Y203121D01*
X339942Y203192D01*
X339596Y203335D01*
X339210Y203721D01*
X339187Y203739D01*
X339168Y203761D01*
X339043Y203862D01*
X338162Y204481D01*
X338162Y204482D01*
X337088Y205236D01*
X336957Y205306D01*
X336827Y205378D01*
X336817Y205380D01*
X336807Y205385D01*
X336663Y205420D01*
X336519Y205457D01*
X336505Y205458D01*
X336498Y205460D01*
X336484Y205459D01*
X336358Y205467D01*
X330920Y205467D01*
X330865Y205493D01*
X330838Y205499D01*
X330814Y205509D01*
X330682Y205528D01*
X330552Y205553D01*
X330526Y205552D01*
X330499Y205556D01*
X330367Y205542D01*
X330235Y205534D01*
X330209Y205525D01*
X330183Y205522D01*
X330058Y205476D01*
X329933Y205435D01*
X329910Y205421D01*
X329884Y205412D01*
X329776Y205336D01*
X329664Y205265D01*
X329645Y205246D01*
X329623Y205230D01*
X329537Y205130D01*
X329446Y205034D01*
X329433Y205010D01*
X329415Y204990D01*
X329356Y204871D01*
X329292Y204755D01*
X329286Y204729D01*
X329274Y204705D01*
X329246Y204575D01*
X329213Y204447D01*
X329211Y204409D01*
X329207Y204394D01*
X329208Y204372D01*
X329203Y204287D01*
X329203Y195580D01*
X329203Y195578D01*
X329203Y195575D01*
X329214Y195415D01*
X329230Y195288D01*
X329233Y195279D01*
X329233Y195269D01*
X329238Y195249D01*
X329239Y195234D01*
X329261Y195166D01*
X329273Y195124D01*
X329311Y194980D01*
X329315Y194972D01*
X329318Y194963D01*
X329389Y194818D01*
X329516Y194599D01*
X329572Y194525D01*
X329620Y194446D01*
X329668Y194399D01*
X329709Y194346D01*
X329781Y194288D01*
X329847Y194224D01*
X329945Y194158D01*
X329958Y194148D01*
X329965Y194145D01*
X329981Y194134D01*
X330200Y194008D01*
X330209Y194004D01*
X330217Y193998D01*
X330355Y193942D01*
X330494Y193884D01*
X330503Y193883D01*
X330512Y193879D01*
X330670Y193848D01*
X330796Y193832D01*
X330799Y193832D01*
X330801Y193831D01*
X330962Y193821D01*
X339660Y193821D01*
X339808Y193839D01*
X339956Y193856D01*
X339965Y193859D01*
X339976Y193861D01*
X340114Y193915D01*
X340253Y193968D01*
X340265Y193975D01*
X340272Y193978D01*
X340283Y193986D01*
X340390Y194052D01*
X342345Y195426D01*
X342366Y195445D01*
X342391Y195460D01*
X342512Y195567D01*
X342898Y195953D01*
X343244Y196096D01*
X343296Y196126D01*
X343351Y196147D01*
X343489Y196231D01*
X343821Y196464D01*
X343882Y196457D01*
X343923Y196463D01*
X343963Y196461D01*
X344079Y196485D01*
X344197Y196502D01*
X344255Y196522D01*
X344275Y196526D01*
X344293Y196535D01*
X344349Y196554D01*
X345042Y196841D01*
X347362Y196841D01*
X349506Y195953D01*
X351147Y194312D01*
X352035Y192168D01*
X352035Y189848D01*
X351147Y187704D01*
X349506Y186063D01*
X347362Y185175D01*
X345042Y185175D01*
X344349Y185462D01*
X344235Y185493D01*
X344123Y185532D01*
X344082Y185535D01*
X344043Y185546D01*
X343924Y185548D01*
X343814Y185557D01*
X343489Y185785D01*
X343436Y185813D01*
X343389Y185849D01*
X343244Y185920D01*
X342898Y186063D01*
X342512Y186449D01*
X342489Y186467D01*
X342470Y186489D01*
X342345Y186590D01*
X341464Y187209D01*
X341464Y187210D01*
X340390Y187964D01*
X340259Y188034D01*
X340129Y188106D01*
X340119Y188108D01*
X340109Y188113D01*
X339965Y188148D01*
X339821Y188185D01*
X339807Y188186D01*
X339800Y188188D01*
X339786Y188187D01*
X339660Y188195D01*
X328983Y188195D01*
X326027Y189902D01*
X325904Y189954D01*
X325785Y190010D01*
X325758Y190015D01*
X325733Y190026D01*
X325602Y190045D01*
X325472Y190070D01*
X325446Y190068D01*
X325419Y190072D01*
X325287Y190058D01*
X325155Y190050D01*
X325129Y190042D01*
X325103Y190039D01*
X324978Y189993D01*
X324853Y189952D01*
X324830Y189938D01*
X324804Y189928D01*
X324696Y189853D01*
X324584Y189782D01*
X324565Y189762D01*
X324543Y189747D01*
X324457Y189647D01*
X324366Y189550D01*
X324353Y189527D01*
X324335Y189506D01*
X324276Y189387D01*
X324212Y189272D01*
X324206Y189246D01*
X324194Y189221D01*
X324166Y189092D01*
X324133Y188964D01*
X324131Y188926D01*
X324127Y188910D01*
X324128Y188888D01*
X324123Y188803D01*
X324123Y184150D01*
X324123Y184148D01*
X324123Y184145D01*
X324134Y183984D01*
X324211Y183397D01*
X324213Y183388D01*
X324213Y183379D01*
X324254Y183234D01*
X324292Y183090D01*
X324296Y183082D01*
X324299Y183073D01*
X324370Y182928D01*
X324957Y181912D01*
X325013Y181838D01*
X325061Y181759D01*
X325109Y181712D01*
X325149Y181658D01*
X325222Y181601D01*
X325288Y181536D01*
X325385Y181471D01*
X325399Y181461D01*
X325406Y181457D01*
X325422Y181447D01*
X326438Y180860D01*
X326447Y180856D01*
X326454Y180851D01*
X326593Y180795D01*
X326732Y180737D01*
X326741Y180735D01*
X326749Y180732D01*
X326907Y180701D01*
X327494Y180624D01*
X327497Y180624D01*
X327499Y180623D01*
X327660Y180613D01*
X356678Y180613D01*
X356826Y180631D01*
X356974Y180648D01*
X356983Y180651D01*
X356994Y180653D01*
X357132Y180707D01*
X357271Y180760D01*
X357283Y180767D01*
X357290Y180770D01*
X357301Y180778D01*
X357408Y180844D01*
X359363Y182218D01*
X359384Y182238D01*
X359409Y182252D01*
X359530Y182359D01*
X359961Y182790D01*
X360067Y182850D01*
X360074Y182857D01*
X360082Y182862D01*
X360203Y182968D01*
X360336Y183101D01*
X360338Y183102D01*
X360486Y183118D01*
X360496Y183122D01*
X360507Y183123D01*
X360645Y183178D01*
X360784Y183230D01*
X360796Y183237D01*
X360802Y183240D01*
X360814Y183249D01*
X360829Y183257D01*
X360900Y183249D01*
X360941Y183255D01*
X360981Y183253D01*
X361097Y183277D01*
X361215Y183294D01*
X361273Y183314D01*
X361293Y183318D01*
X361311Y183327D01*
X361367Y183346D01*
X362060Y183633D01*
X364380Y183633D01*
X366524Y182745D01*
X368165Y181104D01*
X369053Y178960D01*
X369053Y176640D01*
X368165Y174496D01*
X366524Y172855D01*
X364380Y171967D01*
X362060Y171967D01*
X361367Y172254D01*
X361253Y172285D01*
X361141Y172324D01*
X361100Y172327D01*
X361061Y172338D01*
X360942Y172340D01*
X360824Y172349D01*
X360805Y172347D01*
X360790Y172355D01*
X360660Y172427D01*
X360650Y172430D01*
X360640Y172435D01*
X360495Y172470D01*
X360352Y172507D01*
X360338Y172508D01*
X360331Y172509D01*
X360325Y172509D01*
X360203Y172632D01*
X360195Y172638D01*
X360189Y172645D01*
X360070Y172735D01*
X359951Y172827D01*
X359943Y172831D01*
X359935Y172836D01*
X359935Y172837D01*
X359530Y173241D01*
X359507Y173259D01*
X359488Y173281D01*
X359363Y173382D01*
X357409Y174756D01*
X357277Y174826D01*
X357147Y174898D01*
X357137Y174900D01*
X357128Y174905D01*
X356983Y174940D01*
X356839Y174977D01*
X356825Y174978D01*
X356818Y174979D01*
X356804Y174979D01*
X356678Y174987D01*
X356280Y174987D01*
X356279Y174987D01*
X344042Y174987D01*
X343992Y174981D01*
X343943Y174983D01*
X343835Y174961D01*
X343726Y174947D01*
X343680Y174929D01*
X343631Y174919D01*
X343533Y174871D01*
X343430Y174830D01*
X343390Y174801D01*
X343346Y174779D01*
X343262Y174708D01*
X343173Y174644D01*
X343141Y174605D01*
X343104Y174573D01*
X343040Y174483D01*
X342970Y174399D01*
X342949Y174354D01*
X342920Y174313D01*
X342881Y174210D01*
X342835Y174111D01*
X342825Y174062D01*
X342808Y174016D01*
X342796Y173906D01*
X342775Y173799D01*
X342778Y173749D01*
X342772Y173700D01*
X342788Y173591D01*
X342795Y173481D01*
X342810Y173434D01*
X342817Y173385D01*
X342869Y173232D01*
X343653Y171340D01*
X343653Y169020D01*
X342765Y166876D01*
X341124Y165235D01*
X338980Y164347D01*
X336620Y164347D01*
X336571Y164341D01*
X336521Y164343D01*
X336414Y164321D01*
X336305Y164307D01*
X336259Y164289D01*
X336210Y164279D01*
X336111Y164231D01*
X336009Y164190D01*
X335969Y164161D01*
X335924Y164139D01*
X335841Y164068D01*
X335752Y164004D01*
X335720Y163965D01*
X335682Y163933D01*
X335619Y163843D01*
X335549Y163759D01*
X335528Y163714D01*
X335499Y163673D01*
X335460Y163570D01*
X335414Y163471D01*
X335404Y163422D01*
X335387Y163376D01*
X335374Y163266D01*
X335354Y163159D01*
X335357Y163109D01*
X335351Y163060D01*
X335367Y162951D01*
X335373Y162841D01*
X335389Y162794D01*
X335396Y162745D01*
X335448Y162592D01*
X336033Y161180D01*
X336033Y158860D01*
X335145Y156716D01*
X333776Y155347D01*
X333691Y155238D01*
X333602Y155131D01*
X333594Y155112D01*
X333581Y155096D01*
X333526Y154968D01*
X333467Y154843D01*
X333463Y154823D01*
X333455Y154804D01*
X333433Y154666D01*
X333407Y154530D01*
X333408Y154510D01*
X333405Y154490D01*
X333418Y154351D01*
X333427Y154213D01*
X333433Y154194D01*
X333435Y154174D01*
X333482Y154042D01*
X333525Y153911D01*
X333536Y153893D01*
X333542Y153874D01*
X333621Y153759D01*
X333695Y153642D01*
X333710Y153628D01*
X333721Y153611D01*
X333825Y153519D01*
X333927Y153424D01*
X333944Y153414D01*
X333959Y153401D01*
X334084Y153337D01*
X334205Y153270D01*
X334225Y153265D01*
X334243Y153256D01*
X334379Y153226D01*
X334513Y153191D01*
X334541Y153189D01*
X334553Y153186D01*
X334573Y153187D01*
X334674Y153181D01*
X375920Y153181D01*
X375922Y153181D01*
X375925Y153181D01*
X376086Y153192D01*
X376541Y153252D01*
X376550Y153254D01*
X376559Y153254D01*
X376703Y153294D01*
X376849Y153332D01*
X376857Y153337D01*
X376866Y153339D01*
X377010Y153411D01*
X377799Y153866D01*
X377873Y153922D01*
X377952Y153970D01*
X377999Y154018D01*
X378052Y154059D01*
X378110Y154131D01*
X378175Y154197D01*
X378239Y154294D01*
X378250Y154308D01*
X378254Y154316D01*
X378264Y154331D01*
X378719Y155120D01*
X378723Y155128D01*
X378728Y155136D01*
X378784Y155274D01*
X378843Y155413D01*
X378844Y155422D01*
X378847Y155431D01*
X378878Y155589D01*
X378938Y156044D01*
X378938Y156047D01*
X378939Y156049D01*
X378949Y156210D01*
X378949Y176461D01*
X378940Y176537D01*
X378940Y176613D01*
X378927Y176664D01*
X378927Y176669D01*
X378923Y176683D01*
X378920Y176694D01*
X378909Y176776D01*
X378881Y176847D01*
X378862Y176922D01*
X378795Y177068D01*
X377638Y179190D01*
X377579Y179272D01*
X377528Y179359D01*
X377465Y179431D01*
X377452Y179448D01*
X377442Y179456D01*
X377421Y179480D01*
X377325Y179576D01*
X377026Y180299D01*
X377018Y180313D01*
X376968Y180420D01*
X376464Y181345D01*
X376465Y181353D01*
X376462Y181385D01*
X376466Y181417D01*
X376448Y181543D01*
X376437Y181662D01*
X376437Y184040D01*
X377325Y186184D01*
X378966Y187825D01*
X381110Y188713D01*
X383430Y188713D01*
X385574Y187825D01*
X387215Y186184D01*
X388103Y184040D01*
X388103Y181636D01*
X388087Y181577D01*
X388086Y181545D01*
X388079Y181514D01*
X388084Y181387D01*
X388083Y181358D01*
X387893Y181010D01*
X387572Y180421D01*
X387566Y180405D01*
X387514Y180299D01*
X387215Y179576D01*
X387119Y179480D01*
X387057Y179400D01*
X386987Y179326D01*
X386937Y179246D01*
X386924Y179229D01*
X386918Y179216D01*
X386902Y179190D01*
X385745Y177068D01*
X385717Y176996D01*
X385680Y176929D01*
X385660Y176849D01*
X385629Y176772D01*
X385620Y176696D01*
X385601Y176621D01*
X385594Y176519D01*
X385593Y176513D01*
X385594Y176507D01*
X385591Y176461D01*
X385591Y153619D01*
X382999Y149131D01*
X378511Y146539D01*
X296199Y146539D01*
X292300Y148790D01*
X290049Y152689D01*
X290049Y161221D01*
X290040Y161297D01*
X290040Y161373D01*
X290028Y161421D01*
X290027Y161438D01*
X290018Y161465D01*
X290009Y161536D01*
X289981Y161607D01*
X289962Y161682D01*
X289895Y161828D01*
X288738Y163950D01*
X288679Y164032D01*
X288628Y164119D01*
X288565Y164191D01*
X288552Y164208D01*
X288542Y164217D01*
X288521Y164240D01*
X288425Y164336D01*
X288126Y165059D01*
X288118Y165073D01*
X288068Y165180D01*
X287564Y166105D01*
X287565Y166113D01*
X287562Y166145D01*
X287566Y166177D01*
X287548Y166303D01*
X287537Y166422D01*
X287537Y168800D01*
X288425Y170944D01*
X290066Y172585D01*
X292210Y173473D01*
X294530Y173473D01*
X296674Y172585D01*
X298315Y170944D01*
X299203Y168800D01*
X299203Y166396D01*
X299187Y166337D01*
X299186Y166305D01*
X299179Y166274D01*
X299184Y166147D01*
X299183Y166118D01*
X298993Y165770D01*
X298672Y165181D01*
X298666Y165165D01*
X298614Y165059D01*
X298315Y164336D01*
X298219Y164240D01*
X298157Y164160D01*
X298087Y164086D01*
X298037Y164006D01*
X298024Y163989D01*
X298018Y163976D01*
X298002Y163950D01*
X296845Y161828D01*
X296817Y161756D01*
X296780Y161689D01*
X296760Y161609D01*
X296758Y161606D01*
X296753Y161594D01*
X296752Y161590D01*
X296729Y161532D01*
X296720Y161456D01*
X296701Y161381D01*
X296695Y161292D01*
X296693Y161282D01*
X296694Y161271D01*
X296691Y161221D01*
X296691Y154940D01*
X296691Y154938D01*
X296691Y154935D01*
X296702Y154775D01*
X296718Y154648D01*
X296721Y154639D01*
X296721Y154629D01*
X296761Y154484D01*
X296799Y154340D01*
X296803Y154332D01*
X296806Y154323D01*
X296877Y154178D01*
X297004Y153959D01*
X297060Y153885D01*
X297108Y153806D01*
X297156Y153759D01*
X297197Y153706D01*
X297269Y153648D01*
X297335Y153584D01*
X297433Y153518D01*
X297446Y153508D01*
X297453Y153505D01*
X297469Y153494D01*
X297688Y153368D01*
X297697Y153364D01*
X297705Y153358D01*
X297843Y153302D01*
X297982Y153244D01*
X297991Y153243D01*
X298000Y153239D01*
X298158Y153208D01*
X298284Y153192D01*
X298287Y153192D01*
X298289Y153191D01*
X298450Y153181D01*
X325726Y153181D01*
X325864Y153198D01*
X326003Y153211D01*
X326022Y153218D01*
X326042Y153221D01*
X326171Y153272D01*
X326302Y153319D01*
X326319Y153330D01*
X326338Y153338D01*
X326450Y153419D01*
X326565Y153497D01*
X326579Y153513D01*
X326595Y153524D01*
X326684Y153632D01*
X326776Y153736D01*
X326785Y153754D01*
X326798Y153769D01*
X326857Y153895D01*
X326920Y154019D01*
X326925Y154039D01*
X326933Y154057D01*
X326959Y154193D01*
X326990Y154330D01*
X326989Y154350D01*
X326993Y154369D01*
X326984Y154508D01*
X326980Y154647D01*
X326975Y154667D01*
X326973Y154687D01*
X326930Y154819D01*
X326892Y154953D01*
X326881Y154970D01*
X326875Y154989D01*
X326801Y155107D01*
X326730Y155227D01*
X326712Y155248D01*
X326705Y155258D01*
X326690Y155272D01*
X326624Y155348D01*
X326510Y155461D01*
X326487Y155479D01*
X326468Y155501D01*
X326343Y155602D01*
X325462Y156221D01*
X325462Y156222D01*
X324388Y156976D01*
X324257Y157046D01*
X324127Y157118D01*
X324117Y157120D01*
X324107Y157125D01*
X323963Y157160D01*
X323819Y157197D01*
X323805Y157198D01*
X323798Y157200D01*
X323784Y157199D01*
X323658Y157207D01*
X310986Y157207D01*
X308502Y158642D01*
X307067Y161126D01*
X307067Y191770D01*
X307067Y191772D01*
X307067Y191775D01*
X307056Y191936D01*
X306979Y192523D01*
X306977Y192532D01*
X306977Y192541D01*
X306936Y192686D01*
X306898Y192830D01*
X306894Y192838D01*
X306891Y192847D01*
X306820Y192992D01*
X306233Y194008D01*
X306177Y194082D01*
X306129Y194161D01*
X306081Y194208D01*
X306041Y194262D01*
X305968Y194319D01*
X305902Y194384D01*
X305805Y194449D01*
X305791Y194459D01*
X305784Y194463D01*
X305768Y194473D01*
X304752Y195060D01*
X304743Y195064D01*
X304736Y195069D01*
X304597Y195125D01*
X304458Y195183D01*
X304449Y195185D01*
X304441Y195188D01*
X304283Y195219D01*
X303696Y195296D01*
X303693Y195296D01*
X303691Y195297D01*
X303530Y195307D01*
X268561Y195307D01*
X268162Y195307D01*
X268014Y195289D01*
X267866Y195272D01*
X267857Y195269D01*
X267846Y195267D01*
X267708Y195213D01*
X267569Y195160D01*
X267557Y195153D01*
X267550Y195150D01*
X267539Y195142D01*
X267431Y195076D01*
X265477Y193702D01*
X265456Y193682D01*
X265431Y193668D01*
X265310Y193561D01*
X264879Y193130D01*
X264773Y193070D01*
X264766Y193063D01*
X264758Y193058D01*
X264637Y192952D01*
X264504Y192819D01*
X264501Y192818D01*
X264354Y192802D01*
X264344Y192798D01*
X264333Y192797D01*
X264195Y192743D01*
X264056Y192690D01*
X264044Y192682D01*
X264038Y192680D01*
X264026Y192672D01*
X264011Y192663D01*
X263940Y192671D01*
X263899Y192665D01*
X263858Y192667D01*
X263742Y192643D01*
X263625Y192626D01*
X263567Y192606D01*
X263547Y192602D01*
X263529Y192593D01*
X263473Y192574D01*
X262637Y192228D01*
X262516Y192159D01*
X262394Y192094D01*
X262379Y192081D01*
X262361Y192071D01*
X262261Y191974D01*
X262158Y191880D01*
X262147Y191863D01*
X262133Y191849D01*
X262060Y191731D01*
X261983Y191615D01*
X261977Y191595D01*
X261966Y191578D01*
X261925Y191445D01*
X261880Y191314D01*
X261879Y191294D01*
X261873Y191274D01*
X261866Y191135D01*
X261855Y190997D01*
X261858Y190977D01*
X261858Y190957D01*
X261886Y190820D01*
X261909Y190683D01*
X261918Y190665D01*
X261922Y190645D01*
X261983Y190520D01*
X262040Y190393D01*
X262053Y190378D01*
X262062Y190359D01*
X262152Y190254D01*
X262239Y190145D01*
X262255Y190133D01*
X262268Y190117D01*
X262381Y190038D01*
X262493Y189954D01*
X262518Y189941D01*
X262528Y189934D01*
X262547Y189927D01*
X262637Y189883D01*
X265777Y188582D01*
X269354Y185005D01*
X271291Y180330D01*
X271291Y154432D01*
X271306Y154314D01*
X271313Y154195D01*
X271326Y154157D01*
X271331Y154116D01*
X271374Y154006D01*
X271411Y153893D01*
X271433Y153858D01*
X271448Y153821D01*
X271517Y153725D01*
X271581Y153624D01*
X271611Y153596D01*
X271634Y153563D01*
X271726Y153487D01*
X271813Y153406D01*
X271848Y153386D01*
X271879Y153361D01*
X271987Y153310D01*
X272091Y153252D01*
X272131Y153242D01*
X272167Y153225D01*
X272284Y153203D01*
X272399Y153173D01*
X272459Y153169D01*
X272479Y153165D01*
X272500Y153167D01*
X272560Y153163D01*
X279716Y153163D01*
X280163Y152716D01*
X280163Y126684D01*
X279716Y126237D01*
X272560Y126237D01*
X272442Y126222D01*
X272323Y126215D01*
X272285Y126202D01*
X272244Y126197D01*
X272134Y126154D01*
X272021Y126117D01*
X271986Y126095D01*
X271949Y126080D01*
X271853Y126011D01*
X271752Y125947D01*
X271724Y125917D01*
X271691Y125894D01*
X271615Y125802D01*
X271534Y125715D01*
X271514Y125680D01*
X271489Y125649D01*
X271438Y125541D01*
X271380Y125437D01*
X271370Y125397D01*
X271353Y125361D01*
X271331Y125244D01*
X271301Y125129D01*
X271297Y125069D01*
X271293Y125049D01*
X271295Y125028D01*
X271291Y124968D01*
X271291Y100330D01*
X271291Y100327D01*
X271291Y100325D01*
X271302Y100164D01*
X271414Y99314D01*
X271416Y99305D01*
X271416Y99296D01*
X271456Y99151D01*
X271494Y99007D01*
X271499Y98999D01*
X271501Y98990D01*
X271573Y98845D01*
X272423Y97373D01*
X272478Y97300D01*
X272526Y97221D01*
X272574Y97173D01*
X272615Y97120D01*
X272687Y97063D01*
X272753Y96998D01*
X272851Y96933D01*
X272864Y96922D01*
X272872Y96919D01*
X272887Y96909D01*
X274359Y96059D01*
X274368Y96055D01*
X274375Y96050D01*
X274514Y95994D01*
X274653Y95935D01*
X274662Y95934D01*
X274670Y95931D01*
X274828Y95900D01*
X275678Y95788D01*
X275681Y95788D01*
X275683Y95787D01*
X275844Y95777D01*
X287833Y95777D01*
X292321Y93185D01*
X294913Y88697D01*
X294913Y85131D01*
X294915Y85111D01*
X294913Y85090D01*
X294935Y84953D01*
X294953Y84815D01*
X294960Y84797D01*
X294963Y84776D01*
X295019Y84649D01*
X295070Y84520D01*
X295082Y84503D01*
X295090Y84485D01*
X295180Y84351D01*
X296686Y82416D01*
X296689Y82414D01*
X296790Y82298D01*
X297299Y81790D01*
X297375Y81605D01*
X297420Y81526D01*
X297456Y81444D01*
X297525Y81342D01*
X297533Y81328D01*
X297538Y81323D01*
X297546Y81311D01*
X297683Y81136D01*
X297680Y81105D01*
X297690Y81034D01*
X297690Y80963D01*
X297712Y80877D01*
X297724Y80790D01*
X297766Y80668D01*
X297769Y80655D01*
X297772Y80649D01*
X297776Y80638D01*
X298187Y79646D01*
X298187Y77326D01*
X297299Y75182D01*
X295658Y73541D01*
X293514Y72653D01*
X291194Y72653D01*
G37*
%LPD*%
%LPC*%
G36*
X296528Y281187D02*
X296528Y281187D01*
X294384Y282075D01*
X292743Y283716D01*
X291855Y285860D01*
X291855Y288264D01*
X291871Y288323D01*
X291872Y288355D01*
X291879Y288386D01*
X291874Y288513D01*
X291875Y288542D01*
X292386Y289480D01*
X292392Y289495D01*
X292444Y289601D01*
X292743Y290324D01*
X292839Y290420D01*
X292901Y290500D01*
X292970Y290574D01*
X293021Y290655D01*
X293034Y290671D01*
X293039Y290683D01*
X293056Y290710D01*
X293476Y291480D01*
X294213Y292832D01*
X294241Y292904D01*
X294278Y292971D01*
X294298Y293051D01*
X294329Y293128D01*
X294338Y293204D01*
X294357Y293279D01*
X294367Y293439D01*
X294367Y326880D01*
X294352Y326998D01*
X294345Y327117D01*
X294332Y327155D01*
X294327Y327196D01*
X294284Y327306D01*
X294247Y327419D01*
X294225Y327454D01*
X294210Y327491D01*
X294141Y327587D01*
X294077Y327688D01*
X294047Y327716D01*
X294024Y327749D01*
X293932Y327825D01*
X293845Y327906D01*
X293810Y327926D01*
X293779Y327951D01*
X293671Y328002D01*
X293567Y328060D01*
X293527Y328070D01*
X293491Y328087D01*
X293374Y328109D01*
X293259Y328139D01*
X293199Y328143D01*
X293179Y328147D01*
X293158Y328145D01*
X293098Y328149D01*
X273935Y328149D01*
X273837Y328137D01*
X273738Y328134D01*
X273680Y328117D01*
X273620Y328109D01*
X273528Y328073D01*
X273433Y328045D01*
X273380Y328015D01*
X273324Y327992D01*
X273244Y327934D01*
X273159Y327884D01*
X273083Y327818D01*
X273067Y327806D01*
X273059Y327796D01*
X273038Y327778D01*
X270654Y325394D01*
X270595Y325318D01*
X270528Y325247D01*
X270498Y325193D01*
X270459Y325143D01*
X270421Y325054D01*
X270374Y324969D01*
X270358Y324909D01*
X270333Y324851D01*
X270318Y324755D01*
X270293Y324662D01*
X270293Y324599D01*
X270283Y324537D01*
X270292Y324440D01*
X270292Y324344D01*
X270307Y324283D01*
X270313Y324220D01*
X270346Y324129D01*
X270369Y324035D01*
X270414Y323940D01*
X270421Y323921D01*
X270427Y323912D01*
X270437Y323889D01*
X271078Y322714D01*
X271137Y322632D01*
X271188Y322545D01*
X271251Y322473D01*
X271264Y322456D01*
X271274Y322448D01*
X271295Y322424D01*
X271391Y322328D01*
X271690Y321605D01*
X271699Y321590D01*
X271748Y321483D01*
X272252Y320559D01*
X272251Y320551D01*
X272254Y320519D01*
X272250Y320487D01*
X272268Y320361D01*
X272279Y320242D01*
X272279Y317864D01*
X271391Y315720D01*
X269750Y314079D01*
X267606Y313191D01*
X265286Y313191D01*
X263142Y314079D01*
X261501Y315720D01*
X260613Y317864D01*
X260613Y320268D01*
X260629Y320327D01*
X260630Y320359D01*
X260637Y320390D01*
X260632Y320517D01*
X260633Y320546D01*
X261144Y321484D01*
X261150Y321499D01*
X261202Y321605D01*
X261501Y322328D01*
X261597Y322424D01*
X261659Y322504D01*
X261728Y322578D01*
X261779Y322658D01*
X261792Y322675D01*
X261798Y322688D01*
X261814Y322714D01*
X262234Y323484D01*
X262971Y324836D01*
X262999Y324908D01*
X263036Y324975D01*
X263056Y325055D01*
X263087Y325132D01*
X263096Y325208D01*
X263115Y325283D01*
X263125Y325443D01*
X263125Y327257D01*
X265611Y329744D01*
X265697Y329853D01*
X265785Y329960D01*
X265794Y329979D01*
X265806Y329995D01*
X265862Y330123D01*
X265921Y330248D01*
X265925Y330268D01*
X265933Y330287D01*
X265955Y330425D01*
X265981Y330561D01*
X265979Y330581D01*
X265982Y330601D01*
X265969Y330740D01*
X265961Y330878D01*
X265955Y330897D01*
X265953Y330917D01*
X265905Y331049D01*
X265863Y331180D01*
X265852Y331198D01*
X265845Y331217D01*
X265767Y331332D01*
X265693Y331449D01*
X265678Y331463D01*
X265666Y331480D01*
X265562Y331572D01*
X265461Y331667D01*
X265443Y331677D01*
X265428Y331690D01*
X265304Y331754D01*
X265182Y331821D01*
X265163Y331826D01*
X265145Y331835D01*
X265009Y331865D01*
X264875Y331900D01*
X264846Y331902D01*
X264834Y331905D01*
X264814Y331904D01*
X264714Y331910D01*
X263035Y331910D01*
X260891Y332798D01*
X259250Y334439D01*
X258362Y336583D01*
X258362Y338903D01*
X258649Y339596D01*
X258680Y339710D01*
X258719Y339822D01*
X258722Y339863D01*
X258733Y339902D01*
X258735Y340021D01*
X258744Y340131D01*
X258972Y340456D01*
X259000Y340509D01*
X259036Y340556D01*
X259107Y340701D01*
X259231Y341001D01*
X259240Y341034D01*
X259244Y341042D01*
X259256Y341053D01*
X259636Y341433D01*
X259654Y341456D01*
X259676Y341475D01*
X259777Y341600D01*
X260396Y342481D01*
X260397Y342481D01*
X261151Y343555D01*
X261221Y343685D01*
X261293Y343816D01*
X261295Y343826D01*
X261300Y343836D01*
X261335Y343980D01*
X261372Y344124D01*
X261373Y344138D01*
X261375Y344145D01*
X261374Y344160D01*
X261382Y344285D01*
X261382Y349314D01*
X261370Y349412D01*
X261367Y349511D01*
X261350Y349570D01*
X261342Y349630D01*
X261306Y349722D01*
X261278Y349817D01*
X261248Y349869D01*
X261225Y349925D01*
X261167Y350005D01*
X261117Y350091D01*
X261051Y350166D01*
X261039Y350183D01*
X261029Y350191D01*
X261011Y350212D01*
X257007Y354216D01*
X256928Y354276D01*
X256856Y354344D01*
X256803Y354373D01*
X256755Y354410D01*
X256664Y354450D01*
X256578Y354498D01*
X256519Y354513D01*
X256464Y354537D01*
X256366Y354552D01*
X256270Y354577D01*
X256170Y354583D01*
X256149Y354587D01*
X256137Y354585D01*
X256109Y354587D01*
X132388Y354587D01*
X111555Y375420D01*
X111555Y394022D01*
X111552Y394051D01*
X111554Y394081D01*
X111532Y394209D01*
X111515Y394337D01*
X111505Y394365D01*
X111500Y394394D01*
X111446Y394512D01*
X111398Y394633D01*
X111381Y394657D01*
X111369Y394684D01*
X111288Y394785D01*
X111212Y394890D01*
X111189Y394909D01*
X111170Y394932D01*
X111067Y395010D01*
X110967Y395093D01*
X110940Y395106D01*
X110916Y395124D01*
X110772Y395195D01*
X108271Y396230D01*
X105908Y398593D01*
X104629Y401681D01*
X104629Y405023D01*
X105908Y408111D01*
X108271Y410474D01*
X111359Y411753D01*
X114701Y411753D01*
X115125Y411577D01*
X115192Y411559D01*
X115257Y411531D01*
X115345Y411517D01*
X115432Y411493D01*
X115502Y411492D01*
X115571Y411481D01*
X115660Y411489D01*
X115750Y411488D01*
X115818Y411504D01*
X115887Y411511D01*
X115972Y411541D01*
X116059Y411562D01*
X116121Y411595D01*
X116187Y411618D01*
X116261Y411669D01*
X116340Y411711D01*
X116392Y411758D01*
X116450Y411797D01*
X116509Y411864D01*
X116576Y411925D01*
X116614Y411983D01*
X116660Y412035D01*
X116701Y412116D01*
X116750Y412191D01*
X116773Y412257D01*
X116805Y412319D01*
X116824Y412406D01*
X116854Y412491D01*
X116859Y412561D01*
X116874Y412629D01*
X116872Y412719D01*
X116879Y412808D01*
X116867Y412877D01*
X116865Y412947D01*
X116840Y413033D01*
X116824Y413122D01*
X116796Y413185D01*
X116776Y413252D01*
X116731Y413330D01*
X116694Y413412D01*
X116650Y413466D01*
X116615Y413526D01*
X116508Y413647D01*
X115814Y414341D01*
X114535Y417429D01*
X114535Y420771D01*
X115814Y423859D01*
X118177Y426222D01*
X121265Y427501D01*
X124607Y427501D01*
X127695Y426222D01*
X130058Y423859D01*
X130539Y422696D01*
X130554Y422671D01*
X130563Y422643D01*
X130633Y422533D01*
X130697Y422420D01*
X130717Y422399D01*
X130733Y422374D01*
X130828Y422285D01*
X130918Y422192D01*
X130943Y422176D01*
X130965Y422156D01*
X131079Y422093D01*
X131189Y422025D01*
X131217Y422017D01*
X131243Y422002D01*
X131369Y421970D01*
X131493Y421932D01*
X131523Y421930D01*
X131551Y421923D01*
X131712Y421913D01*
X141475Y421913D01*
X144548Y420138D01*
X146323Y417065D01*
X146323Y393700D01*
X146323Y393698D01*
X146323Y393695D01*
X146334Y393534D01*
X146368Y393276D01*
X146370Y393267D01*
X146370Y393258D01*
X146374Y393242D01*
X146375Y393237D01*
X146382Y393215D01*
X146410Y393114D01*
X146448Y392968D01*
X146453Y392960D01*
X146455Y392951D01*
X146527Y392807D01*
X146785Y392360D01*
X146841Y392286D01*
X146889Y392207D01*
X146937Y392160D01*
X146977Y392106D01*
X147050Y392049D01*
X147116Y391984D01*
X147213Y391919D01*
X147227Y391909D01*
X147234Y391905D01*
X147250Y391895D01*
X147697Y391637D01*
X147706Y391633D01*
X147713Y391628D01*
X147852Y391572D01*
X147990Y391514D01*
X147999Y391512D01*
X148008Y391509D01*
X148166Y391478D01*
X148263Y391465D01*
X148336Y391464D01*
X148408Y391454D01*
X148494Y391464D01*
X148581Y391463D01*
X148652Y391481D01*
X148724Y391489D01*
X148805Y391519D01*
X148889Y391541D01*
X148953Y391575D01*
X149021Y391601D01*
X149159Y391685D01*
X151083Y393038D01*
X151104Y393058D01*
X151129Y393072D01*
X151250Y393179D01*
X151636Y393565D01*
X151982Y393708D01*
X152034Y393738D01*
X152089Y393759D01*
X152227Y393843D01*
X152559Y394076D01*
X152620Y394069D01*
X152661Y394075D01*
X152701Y394073D01*
X152817Y394097D01*
X152935Y394114D01*
X152993Y394134D01*
X153013Y394138D01*
X153031Y394147D01*
X153087Y394166D01*
X153780Y394453D01*
X156100Y394453D01*
X158244Y393565D01*
X159885Y391924D01*
X160773Y389780D01*
X160773Y387460D01*
X159885Y385316D01*
X158244Y383675D01*
X156100Y382787D01*
X153780Y382787D01*
X153087Y383074D01*
X152973Y383105D01*
X152861Y383144D01*
X152820Y383147D01*
X152781Y383158D01*
X152662Y383160D01*
X152552Y383169D01*
X152227Y383397D01*
X152174Y383425D01*
X152127Y383461D01*
X151982Y383532D01*
X151636Y383675D01*
X151250Y384061D01*
X151227Y384079D01*
X151208Y384101D01*
X151083Y384202D01*
X150202Y384821D01*
X150202Y384822D01*
X149128Y385576D01*
X148997Y385646D01*
X148867Y385718D01*
X148857Y385720D01*
X148847Y385725D01*
X148703Y385760D01*
X148559Y385797D01*
X148545Y385798D01*
X148538Y385800D01*
X148524Y385799D01*
X148398Y385807D01*
X146475Y385807D01*
X142812Y387922D01*
X140697Y391585D01*
X140697Y415018D01*
X140682Y415136D01*
X140675Y415255D01*
X140662Y415293D01*
X140657Y415334D01*
X140614Y415444D01*
X140577Y415557D01*
X140555Y415592D01*
X140540Y415629D01*
X140471Y415725D01*
X140407Y415826D01*
X140377Y415854D01*
X140354Y415887D01*
X140262Y415963D01*
X140175Y416044D01*
X140140Y416064D01*
X140109Y416089D01*
X140001Y416140D01*
X139897Y416198D01*
X139857Y416208D01*
X139821Y416225D01*
X139704Y416247D01*
X139589Y416277D01*
X139529Y416281D01*
X139509Y416285D01*
X139488Y416283D01*
X139428Y416287D01*
X131712Y416287D01*
X131683Y416284D01*
X131653Y416286D01*
X131525Y416264D01*
X131396Y416247D01*
X131369Y416237D01*
X131340Y416232D01*
X131221Y416178D01*
X131101Y416130D01*
X131077Y416113D01*
X131050Y416101D01*
X130949Y416020D01*
X130843Y415944D01*
X130824Y415921D01*
X130801Y415902D01*
X130724Y415799D01*
X130641Y415699D01*
X130628Y415672D01*
X130610Y415648D01*
X130539Y415504D01*
X130058Y414341D01*
X127695Y411978D01*
X124607Y410699D01*
X121265Y410699D01*
X120841Y410875D01*
X120774Y410893D01*
X120709Y410921D01*
X120621Y410935D01*
X120534Y410959D01*
X120464Y410960D01*
X120395Y410971D01*
X120306Y410963D01*
X120216Y410964D01*
X120148Y410948D01*
X120079Y410941D01*
X119994Y410911D01*
X119907Y410890D01*
X119845Y410857D01*
X119779Y410834D01*
X119705Y410783D01*
X119626Y410741D01*
X119574Y410694D01*
X119516Y410655D01*
X119457Y410588D01*
X119390Y410527D01*
X119352Y410469D01*
X119306Y410417D01*
X119265Y410336D01*
X119216Y410261D01*
X119193Y410195D01*
X119161Y410133D01*
X119142Y410046D01*
X119112Y409961D01*
X119107Y409891D01*
X119092Y409823D01*
X119094Y409733D01*
X119087Y409644D01*
X119099Y409575D01*
X119101Y409505D01*
X119126Y409419D01*
X119142Y409330D01*
X119170Y409267D01*
X119190Y409200D01*
X119235Y409122D01*
X119272Y409040D01*
X119316Y408986D01*
X119351Y408926D01*
X119458Y408805D01*
X120152Y408111D01*
X121431Y405023D01*
X121431Y401681D01*
X120152Y398593D01*
X117725Y396166D01*
X117688Y396145D01*
X117667Y396125D01*
X117642Y396109D01*
X117553Y396014D01*
X117460Y395924D01*
X117444Y395899D01*
X117424Y395877D01*
X117361Y395764D01*
X117293Y395653D01*
X117285Y395625D01*
X117270Y395599D01*
X117238Y395473D01*
X117200Y395349D01*
X117198Y395319D01*
X117191Y395291D01*
X117181Y395130D01*
X117181Y378276D01*
X117193Y378178D01*
X117196Y378079D01*
X117213Y378020D01*
X117221Y377960D01*
X117257Y377868D01*
X117285Y377773D01*
X117315Y377721D01*
X117338Y377665D01*
X117396Y377585D01*
X117446Y377499D01*
X117512Y377424D01*
X117524Y377407D01*
X117534Y377399D01*
X117552Y377378D01*
X134346Y360584D01*
X134425Y360524D01*
X134497Y360456D01*
X134550Y360427D01*
X134598Y360390D01*
X134689Y360350D01*
X134775Y360302D01*
X134834Y360287D01*
X134889Y360263D01*
X134987Y360248D01*
X135083Y360223D01*
X135183Y360217D01*
X135204Y360213D01*
X135216Y360215D01*
X135244Y360213D01*
X137323Y360213D01*
X137372Y360219D01*
X137422Y360217D01*
X137529Y360239D01*
X137638Y360253D01*
X137685Y360271D01*
X137733Y360281D01*
X137832Y360329D01*
X137934Y360370D01*
X137974Y360399D01*
X138019Y360421D01*
X138103Y360492D01*
X138191Y360556D01*
X138223Y360595D01*
X138261Y360627D01*
X138324Y360717D01*
X138394Y360801D01*
X138415Y360846D01*
X138444Y360887D01*
X138483Y360990D01*
X138530Y361089D01*
X138539Y361138D01*
X138557Y361184D01*
X138569Y361294D01*
X138590Y361401D01*
X138586Y361451D01*
X138592Y361500D01*
X138577Y361609D01*
X138570Y361719D01*
X138554Y361766D01*
X138548Y361815D01*
X138495Y361968D01*
X137931Y363330D01*
X137931Y365650D01*
X138819Y367794D01*
X140460Y369435D01*
X142604Y370323D01*
X145008Y370323D01*
X145066Y370307D01*
X145098Y370306D01*
X145130Y370299D01*
X145257Y370304D01*
X145286Y370303D01*
X146223Y369792D01*
X146239Y369786D01*
X146345Y369734D01*
X147068Y369435D01*
X147164Y369339D01*
X147244Y369277D01*
X147318Y369207D01*
X147398Y369157D01*
X147415Y369144D01*
X147428Y369138D01*
X147454Y369122D01*
X149576Y367965D01*
X149648Y367937D01*
X149715Y367900D01*
X149795Y367880D01*
X149872Y367849D01*
X149949Y367840D01*
X150023Y367821D01*
X150183Y367811D01*
X196160Y367811D01*
X196266Y367824D01*
X196373Y367829D01*
X196423Y367844D01*
X196475Y367851D01*
X196575Y367890D01*
X196678Y367921D01*
X196751Y367960D01*
X196771Y367968D01*
X196784Y367977D01*
X196820Y367996D01*
X198931Y369283D01*
X198987Y369327D01*
X199047Y369363D01*
X199168Y369469D01*
X199388Y369689D01*
X199951Y369922D01*
X199967Y369931D01*
X199984Y369936D01*
X200126Y370011D01*
X200861Y370459D01*
X200979Y370446D01*
X200980Y370446D01*
X200981Y370446D01*
X201139Y370468D01*
X201294Y370490D01*
X201295Y370490D01*
X201296Y370490D01*
X201448Y370542D01*
X201532Y370577D01*
X203936Y370577D01*
X203994Y370561D01*
X204026Y370560D01*
X204058Y370553D01*
X204185Y370558D01*
X204214Y370557D01*
X205151Y370046D01*
X205167Y370040D01*
X205273Y369988D01*
X205996Y369689D01*
X206092Y369593D01*
X206172Y369531D01*
X206246Y369461D01*
X206326Y369411D01*
X206343Y369398D01*
X206356Y369392D01*
X206382Y369376D01*
X208504Y368219D01*
X208574Y368192D01*
X208598Y368179D01*
X208599Y368179D01*
X208643Y368154D01*
X208723Y368134D01*
X208800Y368103D01*
X208877Y368094D01*
X208951Y368075D01*
X209111Y368065D01*
X276203Y368065D01*
X278520Y365748D01*
X301009Y343259D01*
X301009Y293439D01*
X301018Y293363D01*
X301018Y293286D01*
X301038Y293206D01*
X301049Y293124D01*
X301077Y293052D01*
X301096Y292978D01*
X301163Y292832D01*
X302320Y290710D01*
X302379Y290628D01*
X302430Y290541D01*
X302493Y290469D01*
X302506Y290452D01*
X302516Y290444D01*
X302537Y290420D01*
X302633Y290324D01*
X302932Y289601D01*
X302941Y289586D01*
X302990Y289479D01*
X303494Y288555D01*
X303493Y288547D01*
X303496Y288515D01*
X303492Y288483D01*
X303510Y288357D01*
X303521Y288238D01*
X303521Y285860D01*
X302633Y283716D01*
X300992Y282075D01*
X298848Y281187D01*
X296528Y281187D01*
G37*
%LPD*%
%LPC*%
G36*
X164574Y113029D02*
X164574Y113029D01*
X163829Y113774D01*
X163829Y152926D01*
X164574Y153671D01*
X222776Y153671D01*
X223521Y152926D01*
X223521Y113774D01*
X222776Y113029D01*
X164574Y113029D01*
G37*
%LPD*%
%LPC*%
G36*
X127110Y145297D02*
X127110Y145297D01*
X126417Y145584D01*
X126303Y145615D01*
X126191Y145654D01*
X126150Y145657D01*
X126111Y145668D01*
X125992Y145670D01*
X125882Y145679D01*
X125557Y145907D01*
X125504Y145935D01*
X125457Y145971D01*
X125312Y146042D01*
X124966Y146185D01*
X124580Y146571D01*
X124557Y146589D01*
X124538Y146611D01*
X124413Y146712D01*
X123532Y147331D01*
X123532Y147332D01*
X122458Y148086D01*
X122327Y148156D01*
X122197Y148228D01*
X122187Y148230D01*
X122177Y148235D01*
X122033Y148270D01*
X121889Y148307D01*
X121875Y148308D01*
X121868Y148310D01*
X121854Y148309D01*
X121728Y148317D01*
X111720Y148317D01*
X106952Y150292D01*
X103302Y153942D01*
X101327Y158710D01*
X101327Y197695D01*
X103442Y201358D01*
X107105Y203473D01*
X130810Y203473D01*
X130832Y203475D01*
X130910Y203477D01*
X133251Y203661D01*
X133319Y203675D01*
X133388Y203679D01*
X133544Y203719D01*
X137998Y205166D01*
X138105Y205217D01*
X138215Y205260D01*
X138267Y205293D01*
X138285Y205302D01*
X138301Y205315D01*
X138351Y205347D01*
X142140Y208099D01*
X142227Y208181D01*
X142318Y208256D01*
X142357Y208303D01*
X142372Y208317D01*
X142383Y208334D01*
X142421Y208380D01*
X145173Y212169D01*
X145231Y212273D01*
X145294Y212373D01*
X145317Y212429D01*
X145327Y212447D01*
X145332Y212467D01*
X145354Y212522D01*
X146801Y216976D01*
X146814Y217044D01*
X146836Y217109D01*
X146859Y217269D01*
X147043Y219610D01*
X147042Y219632D01*
X147047Y219710D01*
X147047Y237298D01*
X147029Y237446D01*
X147012Y237594D01*
X147009Y237603D01*
X147007Y237614D01*
X146953Y237752D01*
X146900Y237891D01*
X146893Y237903D01*
X146890Y237910D01*
X146882Y237921D01*
X146816Y238028D01*
X146062Y239102D01*
X146061Y239102D01*
X145442Y239983D01*
X145422Y240004D01*
X145408Y240029D01*
X145301Y240150D01*
X144915Y240536D01*
X144772Y240882D01*
X144742Y240934D01*
X144721Y240989D01*
X144637Y241127D01*
X144404Y241459D01*
X144411Y241520D01*
X144405Y241561D01*
X144407Y241601D01*
X144383Y241717D01*
X144366Y241835D01*
X144346Y241893D01*
X144342Y241913D01*
X144333Y241931D01*
X144314Y241987D01*
X144027Y242680D01*
X144027Y245000D01*
X144915Y247144D01*
X146556Y248785D01*
X148700Y249673D01*
X151020Y249673D01*
X153164Y248785D01*
X154805Y247144D01*
X155693Y245000D01*
X155693Y242680D01*
X155406Y241987D01*
X155375Y241873D01*
X155336Y241761D01*
X155333Y241720D01*
X155322Y241681D01*
X155320Y241562D01*
X155311Y241452D01*
X155083Y241127D01*
X155055Y241074D01*
X155019Y241027D01*
X154948Y240882D01*
X154805Y240536D01*
X154419Y240150D01*
X154401Y240127D01*
X154379Y240108D01*
X154278Y239983D01*
X152904Y238028D01*
X152834Y237897D01*
X152762Y237767D01*
X152760Y237757D01*
X152755Y237747D01*
X152720Y237603D01*
X152683Y237459D01*
X152682Y237445D01*
X152680Y237438D01*
X152681Y237424D01*
X152673Y237298D01*
X152673Y231611D01*
X152691Y231467D01*
X152706Y231321D01*
X152711Y231309D01*
X152713Y231295D01*
X152766Y231160D01*
X152817Y231023D01*
X152825Y231012D01*
X152830Y231000D01*
X152915Y230882D01*
X152998Y230762D01*
X153009Y230753D01*
X153016Y230742D01*
X153128Y230650D01*
X153239Y230554D01*
X153251Y230548D01*
X153261Y230540D01*
X153393Y230478D01*
X153524Y230413D01*
X153537Y230410D01*
X153549Y230404D01*
X153692Y230377D01*
X153835Y230346D01*
X153848Y230347D01*
X153861Y230344D01*
X154006Y230353D01*
X154152Y230359D01*
X154166Y230363D01*
X154179Y230364D01*
X154317Y230409D01*
X154457Y230451D01*
X154469Y230458D01*
X154481Y230462D01*
X154604Y230540D01*
X154729Y230615D01*
X154739Y230625D01*
X154750Y230632D01*
X154850Y230738D01*
X154952Y230842D01*
X154962Y230858D01*
X154968Y230864D01*
X154976Y230879D01*
X155041Y230976D01*
X155466Y231713D01*
X159050Y233782D01*
X162197Y233782D01*
X162345Y233800D01*
X162492Y233816D01*
X162502Y233820D01*
X162513Y233821D01*
X162651Y233876D01*
X162790Y233929D01*
X162802Y233936D01*
X162808Y233938D01*
X162820Y233947D01*
X162927Y234013D01*
X164882Y235387D01*
X164903Y235406D01*
X164928Y235421D01*
X165049Y235528D01*
X165435Y235914D01*
X165781Y236057D01*
X165833Y236086D01*
X165888Y236107D01*
X166026Y236191D01*
X166358Y236425D01*
X166419Y236418D01*
X166459Y236424D01*
X166500Y236422D01*
X166616Y236446D01*
X166734Y236463D01*
X166792Y236482D01*
X166812Y236487D01*
X166830Y236495D01*
X166886Y236515D01*
X167579Y236802D01*
X169899Y236802D01*
X172043Y235914D01*
X173684Y234273D01*
X174572Y232129D01*
X174572Y229809D01*
X173684Y227665D01*
X172043Y226024D01*
X169899Y225136D01*
X167579Y225136D01*
X166886Y225423D01*
X166772Y225454D01*
X166660Y225493D01*
X166619Y225496D01*
X166579Y225507D01*
X166461Y225509D01*
X166351Y225518D01*
X166026Y225746D01*
X165973Y225774D01*
X165926Y225810D01*
X165781Y225881D01*
X165435Y226024D01*
X165049Y226410D01*
X165026Y226428D01*
X165007Y226450D01*
X164882Y226551D01*
X164001Y227170D01*
X164000Y227170D01*
X162927Y227925D01*
X162795Y227995D01*
X162666Y228066D01*
X162656Y228069D01*
X162646Y228074D01*
X162501Y228109D01*
X162358Y228146D01*
X162344Y228147D01*
X162337Y228148D01*
X162322Y228148D01*
X162197Y228156D01*
X161119Y228156D01*
X161116Y228156D01*
X161114Y228156D01*
X160953Y228145D01*
X160739Y228117D01*
X160730Y228115D01*
X160721Y228115D01*
X160577Y228075D01*
X160431Y228036D01*
X160423Y228032D01*
X160415Y228029D01*
X160270Y227958D01*
X159900Y227744D01*
X159826Y227688D01*
X159747Y227640D01*
X159700Y227592D01*
X159646Y227552D01*
X159589Y227479D01*
X159524Y227413D01*
X159459Y227316D01*
X159449Y227302D01*
X159445Y227295D01*
X159435Y227279D01*
X159221Y226909D01*
X159217Y226900D01*
X159212Y226893D01*
X159156Y226753D01*
X159098Y226615D01*
X159096Y226606D01*
X159093Y226598D01*
X159062Y226440D01*
X159034Y226226D01*
X159034Y226223D01*
X159033Y226221D01*
X159023Y226060D01*
X159023Y216512D01*
X156261Y208012D01*
X151008Y200782D01*
X143778Y195529D01*
X135278Y192767D01*
X119380Y192767D01*
X119378Y192767D01*
X119375Y192767D01*
X119214Y192756D01*
X118956Y192722D01*
X118947Y192720D01*
X118938Y192720D01*
X118794Y192680D01*
X118648Y192642D01*
X118640Y192637D01*
X118631Y192635D01*
X118487Y192563D01*
X118040Y192305D01*
X117966Y192249D01*
X117887Y192201D01*
X117840Y192153D01*
X117786Y192113D01*
X117729Y192040D01*
X117664Y191974D01*
X117599Y191877D01*
X117589Y191863D01*
X117585Y191856D01*
X117575Y191840D01*
X117317Y191393D01*
X117313Y191384D01*
X117308Y191377D01*
X117252Y191238D01*
X117194Y191100D01*
X117192Y191091D01*
X117189Y191082D01*
X117158Y190924D01*
X117124Y190666D01*
X117124Y190663D01*
X117123Y190661D01*
X117113Y190500D01*
X117113Y180532D01*
X117131Y180384D01*
X117148Y180236D01*
X117151Y180227D01*
X117153Y180216D01*
X117207Y180078D01*
X117260Y179939D01*
X117267Y179927D01*
X117270Y179920D01*
X117278Y179909D01*
X117344Y179801D01*
X118718Y177847D01*
X118737Y177826D01*
X118752Y177801D01*
X118859Y177680D01*
X119290Y177249D01*
X119350Y177143D01*
X119357Y177136D01*
X119362Y177128D01*
X119468Y177007D01*
X119601Y176874D01*
X119602Y176871D01*
X119618Y176724D01*
X119622Y176714D01*
X119623Y176703D01*
X119677Y176565D01*
X119730Y176426D01*
X119737Y176414D01*
X119740Y176408D01*
X119748Y176396D01*
X119757Y176381D01*
X119749Y176310D01*
X119755Y176269D01*
X119753Y176229D01*
X119777Y176113D01*
X119794Y175995D01*
X119814Y175937D01*
X119818Y175917D01*
X119827Y175899D01*
X119846Y175843D01*
X120133Y175150D01*
X120133Y172830D01*
X119245Y170686D01*
X117604Y169045D01*
X115460Y168157D01*
X113140Y168157D01*
X110996Y169045D01*
X109341Y170701D01*
X109334Y170717D01*
X109282Y170789D01*
X109237Y170867D01*
X109189Y170917D01*
X109148Y170974D01*
X109078Y171031D01*
X109016Y171096D01*
X108956Y171132D01*
X108903Y171177D01*
X108821Y171215D01*
X108745Y171262D01*
X108678Y171283D01*
X108615Y171312D01*
X108527Y171329D01*
X108441Y171356D01*
X108371Y171359D01*
X108302Y171372D01*
X108213Y171366D01*
X108123Y171371D01*
X108055Y171357D01*
X107985Y171352D01*
X107900Y171325D01*
X107812Y171306D01*
X107749Y171276D01*
X107683Y171254D01*
X107607Y171206D01*
X107526Y171167D01*
X107473Y171121D01*
X107414Y171084D01*
X107352Y171019D01*
X107284Y170960D01*
X107244Y170903D01*
X107196Y170852D01*
X107153Y170774D01*
X107101Y170700D01*
X107076Y170635D01*
X107042Y170574D01*
X107021Y170493D01*
X107015Y170479D01*
X107013Y170469D01*
X106988Y170403D01*
X106980Y170334D01*
X106963Y170266D01*
X106957Y170177D01*
X106955Y170167D01*
X106956Y170156D01*
X106953Y170105D01*
X106953Y161290D01*
X106955Y161270D01*
X106959Y161166D01*
X107076Y159980D01*
X107099Y159876D01*
X107114Y159771D01*
X107141Y159691D01*
X107146Y159670D01*
X107153Y159656D01*
X107166Y159619D01*
X108074Y157428D01*
X108078Y157419D01*
X108081Y157411D01*
X108158Y157281D01*
X108231Y157151D01*
X108238Y157145D01*
X108242Y157137D01*
X108349Y157016D01*
X110026Y155339D01*
X110033Y155333D01*
X110039Y155326D01*
X110158Y155236D01*
X110277Y155144D01*
X110286Y155140D01*
X110293Y155135D01*
X110438Y155064D01*
X112629Y154156D01*
X112731Y154128D01*
X112831Y154092D01*
X112914Y154078D01*
X112935Y154072D01*
X112951Y154072D01*
X112990Y154066D01*
X114176Y153949D01*
X114195Y153949D01*
X114300Y153943D01*
X121728Y153943D01*
X121876Y153961D01*
X122024Y153978D01*
X122033Y153981D01*
X122044Y153983D01*
X122182Y154037D01*
X122321Y154090D01*
X122333Y154097D01*
X122340Y154100D01*
X122351Y154108D01*
X122458Y154174D01*
X124413Y155548D01*
X124434Y155567D01*
X124459Y155582D01*
X124580Y155689D01*
X124966Y156075D01*
X125312Y156218D01*
X125364Y156248D01*
X125419Y156269D01*
X125437Y156280D01*
X125442Y156281D01*
X125451Y156288D01*
X125557Y156353D01*
X125889Y156586D01*
X125950Y156579D01*
X125991Y156585D01*
X126031Y156583D01*
X126147Y156607D01*
X126265Y156624D01*
X126323Y156644D01*
X126343Y156648D01*
X126361Y156657D01*
X126417Y156676D01*
X127110Y156963D01*
X129430Y156963D01*
X131574Y156075D01*
X133215Y154434D01*
X134103Y152290D01*
X134103Y149970D01*
X133215Y147826D01*
X131574Y146185D01*
X129430Y145297D01*
X127110Y145297D01*
G37*
%LPD*%
%LPC*%
G36*
X138540Y98307D02*
X138540Y98307D01*
X136396Y99195D01*
X134755Y100836D01*
X133867Y102980D01*
X133867Y105300D01*
X134154Y105993D01*
X134185Y106107D01*
X134224Y106219D01*
X134227Y106260D01*
X134238Y106299D01*
X134240Y106418D01*
X134249Y106528D01*
X134477Y106853D01*
X134505Y106906D01*
X134541Y106953D01*
X134612Y107098D01*
X134755Y107444D01*
X135141Y107830D01*
X135159Y107853D01*
X135181Y107872D01*
X135282Y107997D01*
X135901Y108878D01*
X135902Y108878D01*
X136656Y109951D01*
X136726Y110083D01*
X136798Y110213D01*
X136800Y110223D01*
X136805Y110232D01*
X136840Y110377D01*
X136877Y110521D01*
X136878Y110535D01*
X136880Y110542D01*
X136879Y110556D01*
X136887Y110682D01*
X136887Y111760D01*
X136887Y111762D01*
X136887Y111765D01*
X136876Y111926D01*
X136799Y112513D01*
X136797Y112522D01*
X136797Y112531D01*
X136756Y112676D01*
X136718Y112820D01*
X136714Y112828D01*
X136711Y112837D01*
X136640Y112982D01*
X136053Y113998D01*
X135997Y114072D01*
X135949Y114151D01*
X135901Y114198D01*
X135861Y114252D01*
X135788Y114309D01*
X135722Y114374D01*
X135625Y114439D01*
X135611Y114449D01*
X135604Y114453D01*
X135588Y114463D01*
X134572Y115050D01*
X134563Y115054D01*
X134556Y115059D01*
X134417Y115115D01*
X134278Y115173D01*
X134269Y115175D01*
X134261Y115178D01*
X134103Y115209D01*
X133516Y115286D01*
X133513Y115286D01*
X133511Y115287D01*
X133350Y115297D01*
X48472Y115297D01*
X44171Y117079D01*
X40879Y120371D01*
X39097Y124672D01*
X39097Y285558D01*
X39079Y285706D01*
X39062Y285854D01*
X39059Y285863D01*
X39057Y285874D01*
X39003Y286012D01*
X38950Y286151D01*
X38943Y286163D01*
X38940Y286170D01*
X38932Y286181D01*
X38866Y286288D01*
X38112Y287362D01*
X38111Y287362D01*
X37492Y288243D01*
X37472Y288264D01*
X37458Y288289D01*
X37351Y288410D01*
X36965Y288796D01*
X36822Y289142D01*
X36792Y289194D01*
X36771Y289249D01*
X36687Y289387D01*
X36454Y289719D01*
X36461Y289780D01*
X36455Y289821D01*
X36457Y289861D01*
X36433Y289977D01*
X36416Y290095D01*
X36396Y290153D01*
X36392Y290173D01*
X36383Y290191D01*
X36364Y290247D01*
X36077Y290940D01*
X36077Y293260D01*
X36965Y295404D01*
X38606Y297045D01*
X40750Y297933D01*
X43070Y297933D01*
X45214Y297045D01*
X46855Y295404D01*
X47743Y293260D01*
X47743Y290940D01*
X47456Y290247D01*
X47425Y290133D01*
X47386Y290021D01*
X47383Y289980D01*
X47372Y289941D01*
X47370Y289822D01*
X47361Y289712D01*
X47133Y289387D01*
X47105Y289334D01*
X47069Y289287D01*
X46998Y289142D01*
X46855Y288796D01*
X46469Y288410D01*
X46451Y288387D01*
X46429Y288368D01*
X46328Y288243D01*
X44954Y286288D01*
X44946Y286275D01*
X44941Y286269D01*
X44927Y286238D01*
X44884Y286157D01*
X44812Y286027D01*
X44810Y286017D01*
X44805Y286007D01*
X44770Y285863D01*
X44733Y285719D01*
X44732Y285705D01*
X44730Y285698D01*
X44731Y285684D01*
X44723Y285558D01*
X44723Y127000D01*
X44725Y126980D01*
X44729Y126876D01*
X44821Y125938D01*
X44845Y125834D01*
X44860Y125729D01*
X44887Y125649D01*
X44892Y125628D01*
X44899Y125613D01*
X44912Y125576D01*
X45630Y123843D01*
X45634Y123835D01*
X45637Y123826D01*
X45713Y123697D01*
X45787Y123567D01*
X45794Y123560D01*
X45798Y123552D01*
X45905Y123431D01*
X47231Y122105D01*
X47239Y122099D01*
X47244Y122092D01*
X47364Y122002D01*
X47483Y121910D01*
X47491Y121906D01*
X47499Y121901D01*
X47643Y121830D01*
X49376Y121112D01*
X49479Y121084D01*
X49579Y121047D01*
X49662Y121034D01*
X49683Y121028D01*
X49699Y121028D01*
X49738Y121021D01*
X50676Y120929D01*
X50695Y120929D01*
X50800Y120923D01*
X135805Y120923D01*
X140058Y118468D01*
X142513Y114215D01*
X142513Y110682D01*
X142531Y110534D01*
X142548Y110386D01*
X142551Y110377D01*
X142553Y110366D01*
X142607Y110228D01*
X142660Y110089D01*
X142667Y110077D01*
X142670Y110070D01*
X142678Y110059D01*
X142744Y109951D01*
X144118Y107997D01*
X144137Y107976D01*
X144152Y107951D01*
X144259Y107830D01*
X144645Y107444D01*
X144788Y107098D01*
X144818Y107046D01*
X144839Y106990D01*
X144923Y106853D01*
X145156Y106521D01*
X145149Y106460D01*
X145155Y106419D01*
X145153Y106379D01*
X145177Y106263D01*
X145194Y106145D01*
X145214Y106087D01*
X145218Y106067D01*
X145227Y106049D01*
X145246Y105993D01*
X145533Y105300D01*
X145533Y102980D01*
X144645Y100836D01*
X143004Y99195D01*
X140860Y98307D01*
X138540Y98307D01*
G37*
%LPD*%
%LPC*%
G36*
X317353Y87865D02*
X317353Y87865D01*
X314265Y89144D01*
X311902Y91507D01*
X310623Y94595D01*
X310623Y97937D01*
X311902Y101025D01*
X314265Y103388D01*
X315392Y103854D01*
X315405Y103862D01*
X315420Y103866D01*
X315543Y103940D01*
X315668Y104012D01*
X315679Y104023D01*
X315692Y104030D01*
X315793Y104133D01*
X315896Y104233D01*
X315904Y104246D01*
X315915Y104257D01*
X315987Y104382D01*
X316062Y104504D01*
X316067Y104519D01*
X316075Y104532D01*
X316114Y104670D01*
X316156Y104808D01*
X316157Y104823D01*
X316161Y104838D01*
X316175Y104999D01*
X316192Y105758D01*
X316188Y105798D01*
X316191Y105837D01*
X316171Y105955D01*
X316159Y106075D01*
X316145Y106112D01*
X316139Y106151D01*
X316083Y106302D01*
X315245Y108186D01*
X315167Y108317D01*
X315121Y108394D01*
X314687Y109442D01*
X314682Y109450D01*
X314674Y109471D01*
X314489Y109889D01*
X314202Y110534D01*
X314207Y110615D01*
X314207Y112920D01*
X315095Y115064D01*
X316736Y116705D01*
X318880Y117593D01*
X321200Y117593D01*
X323344Y116705D01*
X324985Y115064D01*
X325873Y112920D01*
X325873Y110600D01*
X325003Y108500D01*
X324979Y108413D01*
X324280Y107744D01*
X324127Y107598D01*
X324122Y107591D01*
X324107Y107578D01*
X323289Y106760D01*
X323233Y106729D01*
X323228Y106725D01*
X323225Y106723D01*
X323220Y106717D01*
X323110Y106625D01*
X322358Y105906D01*
X322318Y105856D01*
X322270Y105813D01*
X322218Y105733D01*
X322157Y105659D01*
X322131Y105601D01*
X322096Y105548D01*
X322065Y105457D01*
X322024Y105370D01*
X322013Y105307D01*
X321992Y105247D01*
X321985Y105151D01*
X321968Y105057D01*
X321972Y104993D01*
X321967Y104930D01*
X321984Y104835D01*
X321990Y104740D01*
X322011Y104679D01*
X322022Y104616D01*
X322061Y104529D01*
X322091Y104438D01*
X322126Y104385D01*
X322152Y104326D01*
X322212Y104252D01*
X322264Y104171D01*
X322311Y104128D01*
X322351Y104078D01*
X322427Y104020D01*
X322498Y103955D01*
X322554Y103925D01*
X322605Y103887D01*
X322749Y103816D01*
X323783Y103388D01*
X326146Y101025D01*
X327425Y97937D01*
X327425Y94595D01*
X326146Y91507D01*
X323783Y89144D01*
X320695Y87865D01*
X317353Y87865D01*
G37*
%LPD*%
%LPC*%
G36*
X94799Y233679D02*
X94799Y233679D01*
X94799Y254681D01*
X108594Y254681D01*
X109241Y254508D01*
X109820Y254173D01*
X110293Y253700D01*
X110628Y253121D01*
X110801Y252474D01*
X110801Y233679D01*
X94799Y233679D01*
G37*
%LPD*%
%LPC*%
G36*
X94799Y207599D02*
X94799Y207599D01*
X94799Y228601D01*
X110801Y228601D01*
X110801Y209806D01*
X110628Y209159D01*
X110293Y208580D01*
X109820Y208107D01*
X109241Y207772D01*
X108594Y207599D01*
X94799Y207599D01*
G37*
%LPD*%
%LPC*%
G36*
X73719Y233679D02*
X73719Y233679D01*
X73719Y252474D01*
X73892Y253121D01*
X74227Y253700D01*
X74700Y254173D01*
X75279Y254508D01*
X75926Y254681D01*
X89721Y254681D01*
X89721Y233679D01*
X73719Y233679D01*
G37*
%LPD*%
%LPC*%
G36*
X75926Y207599D02*
X75926Y207599D01*
X75279Y207772D01*
X74700Y208107D01*
X74227Y208580D01*
X73892Y209159D01*
X73719Y209806D01*
X73719Y228601D01*
X89721Y228601D01*
X89721Y207599D01*
X75926Y207599D01*
G37*
%LPD*%
%LPC*%
G36*
X92259Y231139D02*
X92259Y231139D01*
X92259Y231141D01*
X92261Y231141D01*
X92261Y231139D01*
X92259Y231139D01*
G37*
%LPD*%
D10*
X334010Y388620D03*
X122936Y419100D03*
X113030Y403352D03*
X99822Y419862D03*
X83820Y403860D03*
X319024Y96266D03*
D11*
X385260Y231140D03*
X92260Y231140D03*
D12*
X143764Y364490D03*
X202692Y364744D03*
D13*
X149014Y364490D02*
X143764Y364490D01*
X149014Y364490D02*
X197448Y364490D01*
X202438Y364490D01*
X202469Y364492D01*
X202499Y364497D01*
X202528Y364507D01*
X202556Y364519D01*
X202582Y364535D01*
X202606Y364554D01*
X202628Y364576D01*
X202647Y364600D01*
X202663Y364626D01*
X202675Y364654D01*
X202685Y364683D01*
X202690Y364713D01*
X202692Y364744D01*
X207942Y364744D01*
D12*
X297688Y287020D03*
D13*
X274828Y364744D02*
X207942Y364744D01*
D12*
X293370Y167640D03*
D13*
X293370Y162390D01*
X293370Y154940D01*
X375920Y149860D02*
X376078Y149862D01*
X376237Y149868D01*
X376395Y149878D01*
X376552Y149892D01*
X376710Y149909D01*
X376866Y149931D01*
X377023Y149956D01*
X377178Y149986D01*
X377333Y150019D01*
X377487Y150056D01*
X377640Y150097D01*
X377792Y150142D01*
X377942Y150191D01*
X378092Y150243D01*
X378240Y150299D01*
X378387Y150359D01*
X378532Y150422D01*
X378675Y150489D01*
X378817Y150559D01*
X378957Y150633D01*
X379095Y150711D01*
X379231Y150792D01*
X379365Y150876D01*
X379497Y150963D01*
X379627Y151054D01*
X379754Y151148D01*
X379879Y151245D01*
X380002Y151346D01*
X380122Y151449D01*
X380239Y151555D01*
X380354Y151664D01*
X380466Y151776D01*
X380575Y151891D01*
X380681Y152008D01*
X380784Y152128D01*
X380885Y152251D01*
X380982Y152376D01*
X381076Y152503D01*
X381167Y152633D01*
X381254Y152765D01*
X381338Y152899D01*
X381419Y153035D01*
X381497Y153173D01*
X381571Y153313D01*
X381641Y153455D01*
X381708Y153598D01*
X381771Y153743D01*
X381831Y153890D01*
X381887Y154038D01*
X381939Y154188D01*
X381988Y154338D01*
X382033Y154490D01*
X382074Y154643D01*
X382111Y154797D01*
X382144Y154952D01*
X382174Y155107D01*
X382199Y155264D01*
X382221Y155420D01*
X382238Y155578D01*
X382252Y155735D01*
X382262Y155893D01*
X382268Y156052D01*
X382270Y156210D01*
X382270Y177630D01*
D12*
X382270Y182880D03*
D13*
X382270Y177630D01*
X375920Y149860D02*
X298450Y149860D01*
X298310Y149862D01*
X298170Y149868D01*
X298030Y149877D01*
X297891Y149891D01*
X297752Y149908D01*
X297614Y149929D01*
X297476Y149954D01*
X297339Y149983D01*
X297203Y150015D01*
X297068Y150052D01*
X296934Y150092D01*
X296801Y150135D01*
X296669Y150183D01*
X296538Y150233D01*
X296409Y150288D01*
X296282Y150346D01*
X296156Y150407D01*
X296032Y150472D01*
X295910Y150541D01*
X295790Y150612D01*
X295672Y150687D01*
X295555Y150765D01*
X295441Y150847D01*
X295330Y150931D01*
X295221Y151019D01*
X295114Y151109D01*
X295009Y151203D01*
X294908Y151299D01*
X294809Y151398D01*
X294713Y151499D01*
X294619Y151604D01*
X294529Y151711D01*
X294441Y151820D01*
X294357Y151931D01*
X294275Y152045D01*
X294197Y152162D01*
X294122Y152280D01*
X294051Y152400D01*
X293982Y152522D01*
X293917Y152646D01*
X293856Y152772D01*
X293798Y152899D01*
X293743Y153028D01*
X293693Y153159D01*
X293645Y153291D01*
X293602Y153424D01*
X293562Y153558D01*
X293525Y153693D01*
X293493Y153829D01*
X293464Y153966D01*
X293439Y154104D01*
X293418Y154242D01*
X293401Y154381D01*
X293387Y154520D01*
X293378Y154660D01*
X293372Y154800D01*
X293370Y154940D01*
D12*
X266446Y319024D03*
D13*
X266446Y324274D01*
X266446Y325882D01*
X272034Y331470D01*
X297180Y331470D01*
X297688Y330962D01*
X297688Y292270D02*
X297688Y287020D01*
X297688Y292270D02*
X297688Y330962D01*
X297688Y341884D01*
X274828Y364744D01*
D12*
X318262Y262382D03*
D13*
X323512Y262382D01*
X354330Y262382D01*
X354717Y262387D01*
X355103Y262401D01*
X355489Y262424D01*
X355874Y262457D01*
X356259Y262499D01*
X356642Y262550D01*
X357024Y262610D01*
X357404Y262680D01*
X357783Y262759D01*
X358160Y262847D01*
X358534Y262944D01*
X358906Y263050D01*
X359275Y263165D01*
X359641Y263289D01*
X360004Y263422D01*
X360364Y263563D01*
X360721Y263713D01*
X361073Y263872D01*
X361422Y264039D01*
X361767Y264215D01*
X362107Y264399D01*
X362442Y264591D01*
X362773Y264791D01*
X363099Y264999D01*
X363420Y265215D01*
X363736Y265438D01*
X364046Y265669D01*
X364350Y265908D01*
X364649Y266153D01*
X364941Y266406D01*
X365228Y266666D01*
X365508Y266933D01*
X365781Y267206D01*
X366048Y267486D01*
X366308Y267773D01*
X366561Y268065D01*
X366806Y268364D01*
X367045Y268668D01*
X367276Y268978D01*
X367499Y269294D01*
X367715Y269615D01*
X367923Y269941D01*
X368123Y270272D01*
X368315Y270607D01*
X368499Y270947D01*
X368675Y271292D01*
X368842Y271641D01*
X369001Y271993D01*
X369151Y272350D01*
X369292Y272710D01*
X369425Y273073D01*
X369549Y273439D01*
X369664Y273808D01*
X369770Y274180D01*
X369867Y274554D01*
X369955Y274931D01*
X370034Y275310D01*
X370104Y275690D01*
X370164Y276072D01*
X370215Y276455D01*
X370257Y276840D01*
X370290Y277225D01*
X370313Y277611D01*
X370327Y277997D01*
X370332Y278384D01*
X370840Y278384D01*
D12*
X370840Y278384D03*
D13*
X149014Y364490D02*
X144966Y366696D01*
X143764Y364490D01*
X144966Y362284D02*
X149014Y364490D01*
X144966Y362284D02*
X143764Y364490D01*
X197448Y364490D02*
X201598Y362483D01*
X202692Y364744D01*
X201385Y366889D02*
X197448Y364490D01*
X201385Y366889D02*
X202692Y364744D01*
X203894Y366950D02*
X207942Y364744D01*
X203894Y366950D02*
X202692Y364744D01*
X203894Y362538D02*
X207942Y364744D01*
X203894Y362538D02*
X202692Y364744D01*
X297688Y292270D02*
X295482Y288222D01*
X297688Y287020D01*
X299894Y288222D02*
X297688Y292270D01*
X299894Y288222D02*
X297688Y287020D01*
X295576Y166438D02*
X293370Y162390D01*
X295576Y166438D02*
X293370Y167640D01*
X291164Y166438D02*
X293370Y162390D01*
X291164Y166438D02*
X293370Y167640D01*
X382270Y177630D02*
X384476Y181678D01*
X382270Y182880D01*
X380064Y181678D02*
X382270Y177630D01*
X380064Y181678D02*
X382270Y182880D01*
X264240Y320226D02*
X266446Y324274D01*
X264240Y320226D02*
X266446Y319024D01*
X268652Y320226D02*
X266446Y324274D01*
X268652Y320226D02*
X266446Y319024D01*
X319464Y264588D02*
X323512Y262382D01*
X319464Y264588D02*
X318262Y262382D01*
X319464Y260176D02*
X323512Y262382D01*
X319464Y260176D02*
X318262Y262382D01*
X369505Y273306D02*
X372668Y276661D01*
X370840Y278384D01*
X368401Y277782D02*
X369505Y273306D01*
X368401Y277782D02*
X370840Y278384D01*
D12*
X50800Y259080D03*
D13*
X50800Y253830D01*
X50800Y237490D01*
X50802Y237332D01*
X50808Y237173D01*
X50818Y237015D01*
X50832Y236858D01*
X50849Y236700D01*
X50871Y236544D01*
X50896Y236387D01*
X50926Y236232D01*
X50959Y236077D01*
X50996Y235923D01*
X51037Y235770D01*
X51082Y235618D01*
X51131Y235468D01*
X51183Y235318D01*
X51239Y235170D01*
X51299Y235023D01*
X51362Y234878D01*
X51429Y234735D01*
X51499Y234593D01*
X51573Y234453D01*
X51651Y234315D01*
X51732Y234179D01*
X51816Y234045D01*
X51903Y233913D01*
X51994Y233783D01*
X52088Y233656D01*
X52185Y233531D01*
X52286Y233408D01*
X52389Y233288D01*
X52495Y233171D01*
X52604Y233056D01*
X52716Y232944D01*
X52831Y232835D01*
X52948Y232729D01*
X53068Y232626D01*
X53191Y232525D01*
X53316Y232428D01*
X53443Y232334D01*
X53573Y232243D01*
X53705Y232156D01*
X53839Y232072D01*
X53975Y231991D01*
X54113Y231913D01*
X54253Y231839D01*
X54395Y231769D01*
X54538Y231702D01*
X54683Y231639D01*
X54830Y231579D01*
X54978Y231523D01*
X55128Y231471D01*
X55278Y231422D01*
X55430Y231377D01*
X55583Y231336D01*
X55737Y231299D01*
X55892Y231266D01*
X56047Y231236D01*
X56204Y231211D01*
X56360Y231189D01*
X56518Y231172D01*
X56675Y231158D01*
X56833Y231148D01*
X56992Y231142D01*
X57150Y231140D01*
X92260Y231140D01*
D12*
X323850Y291084D03*
D13*
X323850Y285834D01*
X323850Y284226D01*
X323848Y284068D01*
X323842Y283909D01*
X323832Y283751D01*
X323818Y283594D01*
X323801Y283436D01*
X323779Y283280D01*
X323754Y283123D01*
X323724Y282968D01*
X323691Y282813D01*
X323654Y282659D01*
X323613Y282506D01*
X323568Y282354D01*
X323519Y282204D01*
X323467Y282054D01*
X323411Y281906D01*
X323351Y281759D01*
X323288Y281614D01*
X323221Y281471D01*
X323151Y281329D01*
X323077Y281189D01*
X322999Y281051D01*
X322918Y280915D01*
X322834Y280781D01*
X322747Y280649D01*
X322656Y280519D01*
X322562Y280392D01*
X322465Y280267D01*
X322364Y280144D01*
X322261Y280024D01*
X322155Y279907D01*
X322046Y279792D01*
X321934Y279680D01*
X321819Y279571D01*
X321702Y279465D01*
X321582Y279362D01*
X321459Y279261D01*
X321334Y279164D01*
X321207Y279070D01*
X321077Y278979D01*
X320945Y278892D01*
X320811Y278808D01*
X320675Y278727D01*
X320537Y278649D01*
X320397Y278575D01*
X320255Y278505D01*
X320112Y278438D01*
X319967Y278375D01*
X319820Y278315D01*
X319672Y278259D01*
X319522Y278207D01*
X319372Y278158D01*
X319220Y278113D01*
X319067Y278072D01*
X318913Y278035D01*
X318758Y278002D01*
X318603Y277972D01*
X318446Y277947D01*
X318290Y277925D01*
X318132Y277908D01*
X317975Y277894D01*
X317817Y277884D01*
X317658Y277878D01*
X317500Y277876D01*
X289306Y277876D02*
X289166Y277878D01*
X289026Y277884D01*
X288886Y277893D01*
X288747Y277907D01*
X288608Y277924D01*
X288470Y277945D01*
X288332Y277970D01*
X288195Y277999D01*
X288059Y278031D01*
X287924Y278068D01*
X287790Y278108D01*
X287657Y278151D01*
X287525Y278199D01*
X287394Y278249D01*
X287265Y278304D01*
X287138Y278362D01*
X287012Y278423D01*
X286888Y278488D01*
X286766Y278557D01*
X286646Y278628D01*
X286528Y278703D01*
X286411Y278781D01*
X286297Y278863D01*
X286186Y278947D01*
X286077Y279035D01*
X285970Y279125D01*
X285865Y279219D01*
X285764Y279315D01*
X285665Y279414D01*
X285569Y279515D01*
X285475Y279620D01*
X285385Y279727D01*
X285297Y279836D01*
X285213Y279947D01*
X285131Y280061D01*
X285053Y280178D01*
X284978Y280296D01*
X284907Y280416D01*
X284838Y280538D01*
X284773Y280662D01*
X284712Y280788D01*
X284654Y280915D01*
X284599Y281044D01*
X284549Y281175D01*
X284501Y281307D01*
X284458Y281440D01*
X284418Y281574D01*
X284381Y281709D01*
X284349Y281845D01*
X284320Y281982D01*
X284295Y282120D01*
X284274Y282258D01*
X284257Y282397D01*
X284243Y282536D01*
X284234Y282676D01*
X284228Y282816D01*
X284226Y282956D01*
X284226Y315304D01*
X284226Y320294D01*
X284228Y320325D01*
X284233Y320355D01*
X284243Y320384D01*
X284255Y320412D01*
X284271Y320438D01*
X284290Y320462D01*
X284312Y320484D01*
X284336Y320503D01*
X284362Y320519D01*
X284390Y320531D01*
X284419Y320541D01*
X284449Y320546D01*
X284480Y320548D01*
D12*
X284480Y320548D03*
D13*
X289306Y277876D02*
X317500Y277876D01*
D12*
X244856Y175270D03*
X411480Y133350D03*
D13*
X415192Y137062D01*
X418084Y139954D01*
X418084Y223096D01*
D12*
X418084Y228346D03*
D13*
X418084Y223096D01*
X413004Y281178D02*
X410464Y283718D01*
X410464Y283972D01*
D12*
X410464Y283972D03*
X203718Y293068D03*
X275198Y191209D03*
D13*
X414372Y232058D02*
X418084Y228346D01*
X414372Y232058D02*
X413004Y233426D01*
X413004Y279377D02*
X413004Y281178D01*
X413004Y279377D02*
X413004Y233426D01*
D12*
X120650Y90170D03*
D13*
X115400Y90170D01*
X36576Y90170D01*
X36300Y90173D01*
X36024Y90183D01*
X35748Y90200D01*
X35473Y90223D01*
X35198Y90253D01*
X34924Y90290D01*
X34652Y90333D01*
X34380Y90383D01*
X34110Y90439D01*
X33841Y90502D01*
X33573Y90571D01*
X33308Y90647D01*
X33044Y90729D01*
X32782Y90818D01*
X32523Y90913D01*
X32266Y91014D01*
X32011Y91121D01*
X31759Y91234D01*
X31510Y91354D01*
X31264Y91479D01*
X31021Y91611D01*
X30781Y91748D01*
X30545Y91891D01*
X30312Y92039D01*
X30083Y92193D01*
X29858Y92353D01*
X29636Y92518D01*
X29419Y92688D01*
X29205Y92864D01*
X28997Y93045D01*
X28792Y93230D01*
X28592Y93421D01*
X28397Y93616D01*
X28206Y93816D01*
X28021Y94021D01*
X27840Y94229D01*
X27664Y94443D01*
X27494Y94660D01*
X27329Y94882D01*
X27169Y95107D01*
X27015Y95336D01*
X26867Y95569D01*
X26724Y95805D01*
X26587Y96045D01*
X26455Y96288D01*
X26330Y96534D01*
X26210Y96783D01*
X26097Y97035D01*
X25990Y97290D01*
X25889Y97547D01*
X25794Y97806D01*
X25705Y98068D01*
X25623Y98332D01*
X25547Y98597D01*
X25478Y98865D01*
X25415Y99134D01*
X25359Y99404D01*
X25309Y99676D01*
X25266Y99948D01*
X25229Y100222D01*
X25199Y100497D01*
X25176Y100772D01*
X25159Y101048D01*
X25149Y101324D01*
X25146Y101600D01*
X25146Y106002D01*
X25146Y110236D01*
X25144Y110267D01*
X25139Y110297D01*
X25129Y110326D01*
X25117Y110354D01*
X25101Y110380D01*
X25082Y110404D01*
X25060Y110426D01*
X25036Y110445D01*
X25010Y110461D01*
X24982Y110473D01*
X24953Y110483D01*
X24923Y110488D01*
X24892Y110490D01*
X24892Y110998D01*
X24894Y111029D01*
X24899Y111059D01*
X24909Y111088D01*
X24921Y111116D01*
X24937Y111142D01*
X24956Y111166D01*
X24978Y111188D01*
X25002Y111207D01*
X25028Y111223D01*
X25056Y111235D01*
X25085Y111245D01*
X25115Y111250D01*
X25146Y111252D01*
D12*
X25146Y111252D03*
D13*
X244856Y170020D02*
X244856Y175270D01*
X244856Y170020D02*
X244856Y158242D01*
X234188Y147574D01*
D12*
X234188Y103646D03*
D13*
X234188Y108896D01*
X234188Y147574D01*
X244828Y175242D02*
X244856Y175270D01*
X244828Y175242D02*
X239606Y175242D01*
D12*
X147066Y290068D03*
D13*
X150066Y293068D01*
X151374Y293068D01*
X198468Y293068D01*
X305577Y131545D02*
X305577Y131485D01*
X275198Y185959D02*
X275198Y191209D01*
X275198Y185959D02*
X275198Y161864D01*
X305577Y131485D01*
X409675Y131545D02*
X411480Y133350D01*
X409675Y131545D02*
X406550Y131545D01*
X305577Y131545D01*
X53006Y257878D02*
X50800Y253830D01*
X53006Y257878D02*
X50800Y259080D01*
X48594Y257878D02*
X50800Y253830D01*
X48594Y257878D02*
X50800Y259080D01*
X323850Y285834D02*
X326056Y289882D01*
X323850Y291084D01*
X321644Y289882D02*
X323850Y285834D01*
X321644Y289882D02*
X323850Y291084D01*
X284226Y315304D02*
X286625Y319241D01*
X284480Y320548D01*
X282219Y319454D02*
X284226Y315304D01*
X282219Y319454D02*
X284480Y320548D01*
X247062Y174068D02*
X244856Y170020D01*
X247062Y174068D02*
X244856Y175270D01*
X242650Y174068D02*
X244856Y170020D01*
X243666Y173058D02*
X239606Y175242D01*
X243666Y173058D02*
X244856Y175270D01*
X243642Y177469D02*
X239606Y175242D01*
X243642Y177469D02*
X244856Y175270D01*
X410770Y135760D02*
X415192Y137062D01*
X410770Y135760D02*
X411480Y133350D01*
X413890Y132640D02*
X415192Y137062D01*
X413890Y132640D02*
X411480Y133350D01*
X411109Y130865D02*
X406550Y131545D01*
X411109Y130865D02*
X411480Y133350D01*
X409593Y135008D02*
X406550Y131545D01*
X409593Y135008D02*
X411480Y133350D01*
X418084Y223096D02*
X420290Y227144D01*
X418084Y228346D01*
X415878Y227144D02*
X418084Y223096D01*
X415878Y227144D02*
X418084Y228346D01*
X415674Y227636D02*
X414372Y232058D01*
X415674Y227636D02*
X418084Y228346D01*
X418794Y230756D02*
X414372Y232058D01*
X418794Y230756D02*
X418084Y228346D01*
X413004Y279377D02*
X412976Y283987D01*
X410464Y283972D01*
X409115Y281853D02*
X413004Y279377D01*
X409115Y281853D02*
X410464Y283972D01*
X203965Y292933D02*
X201178Y287818D01*
X203965Y292933D02*
X203718Y293068D01*
X199554Y290799D02*
X201178Y287818D01*
X199554Y290799D02*
X203718Y293068D01*
X202516Y290862D02*
X198468Y293068D01*
X202516Y290862D02*
X203718Y293068D01*
X202516Y295274D02*
X198468Y293068D01*
X202516Y295274D02*
X203718Y293068D01*
X277404Y190007D02*
X275198Y185959D01*
X277404Y190007D02*
X275198Y191209D01*
X272992Y190007D02*
X275198Y185959D01*
X272992Y190007D02*
X275198Y191209D01*
X119448Y87964D02*
X115400Y90170D01*
X119448Y87964D02*
X120650Y90170D01*
X119448Y92376D02*
X115400Y90170D01*
X119448Y92376D02*
X120650Y90170D01*
X27352Y110050D02*
X25146Y106002D01*
X27352Y110050D02*
X25146Y111252D01*
X22940Y110050D02*
X25146Y106002D01*
X22940Y110050D02*
X25146Y111252D01*
X231982Y104848D02*
X234188Y108896D01*
X231982Y104848D02*
X234188Y103646D01*
X236394Y104848D02*
X234188Y108896D01*
X236394Y104848D02*
X234188Y103646D01*
X151374Y293068D02*
X146792Y292565D01*
X147066Y290068D01*
X149313Y288945D02*
X151374Y293068D01*
X149313Y288945D02*
X147066Y290068D01*
D14*
X33020Y284480D03*
X50800Y299800D03*
X19050Y361950D03*
X19050Y330200D03*
X57150Y355600D03*
X57150Y330200D03*
X91440Y332740D03*
X93980Y314960D03*
X114300Y317500D03*
X139700Y317500D03*
X107950Y368300D03*
X71120Y299720D03*
X86360Y284480D03*
X19050Y298450D03*
X19050Y266700D03*
X33020Y266700D03*
X116840Y242570D03*
X133350Y241300D03*
X19050Y228600D03*
X33020Y229870D03*
X88900Y177800D03*
X57150Y177800D03*
X33020Y194310D03*
X19050Y196850D03*
X19050Y165100D03*
X50800Y226060D03*
X53340Y195580D03*
X19050Y133350D03*
X76200Y109220D03*
X57150Y107950D03*
X38100Y95250D03*
X19050Y88900D03*
X128270Y109220D03*
X16510Y57150D03*
X31750Y63500D03*
X69850Y50800D03*
X101600Y50800D03*
X133350Y50800D03*
X69850Y19050D03*
X101600Y19050D03*
X133350Y19050D03*
X165100Y19050D03*
X165100Y88900D03*
X165100Y57150D03*
X184150Y76200D03*
X215900Y76200D03*
X215900Y50800D03*
X184150Y50800D03*
X196850Y19050D03*
X228600Y19050D03*
X247650Y50800D03*
X247650Y82550D03*
X260350Y19050D03*
X292100Y19050D03*
X317500Y82550D03*
X330200Y63500D03*
X355600Y63500D03*
X330200Y19050D03*
X361950Y19050D03*
X393700Y19050D03*
X431800Y57150D03*
X431800Y88900D03*
X285750Y101600D03*
X304800Y107950D03*
X285750Y133350D03*
X311150Y133350D03*
X342900Y101600D03*
X374650Y107950D03*
X412400Y107950D03*
X431800Y120650D03*
X398780Y48260D03*
X434340Y162560D03*
X146050Y139700D03*
X152400Y156210D03*
X177800Y158750D03*
X196850Y177800D03*
X234950Y146050D03*
X279400Y171450D03*
X425450Y184150D03*
X393700Y184150D03*
X400050Y201850D03*
X425450Y215900D03*
X434800Y280400D03*
X434800Y304800D03*
X434800Y330200D03*
X379000Y342900D03*
X393700Y342900D03*
X400050Y304800D03*
X374650Y304800D03*
X355600Y330200D03*
X434800Y359950D03*
X342900Y292100D03*
X431800Y393700D03*
X393700Y406400D03*
X387350Y431800D03*
X355600Y431800D03*
X355600Y406400D03*
X323850Y431800D03*
X323850Y406400D03*
X304800Y431800D03*
X304800Y406400D03*
X317500Y387350D03*
X273050Y387350D03*
X254000Y406400D03*
X254000Y431800D03*
X222250Y431800D03*
X222250Y406400D03*
X190500Y431800D03*
X190500Y406400D03*
X184150Y374650D03*
X171450Y387350D03*
X152400Y400050D03*
X146050Y425450D03*
X135890Y411480D03*
X120650Y431800D03*
X123190Y392430D03*
X138430Y375920D03*
X88900Y431800D03*
X57150Y431800D03*
X50800Y400050D03*
X69850Y406400D03*
X63500Y381000D03*
X19050Y393700D03*
D15*
X319024Y106609D02*
X319024Y96266D01*
X319024Y106609D02*
X319024Y110744D01*
X319026Y110805D01*
X319031Y110866D01*
X319041Y110927D01*
X319054Y110987D01*
X319070Y111046D01*
X319090Y111104D01*
X319114Y111161D01*
X319140Y111216D01*
X319171Y111270D01*
X319204Y111321D01*
X319240Y111371D01*
X319280Y111418D01*
X319322Y111462D01*
X319366Y111504D01*
X319413Y111544D01*
X319463Y111580D01*
X319514Y111613D01*
X319568Y111644D01*
X319623Y111670D01*
X319680Y111694D01*
X319738Y111714D01*
X319797Y111730D01*
X319857Y111743D01*
X319918Y111753D01*
X319979Y111758D01*
X320040Y111760D01*
D12*
X320040Y111760D03*
D15*
X322127Y109578D02*
X319024Y106609D01*
X322127Y109578D02*
X320040Y111760D01*
X317280Y110534D02*
X319024Y106609D01*
X317280Y110534D02*
X320040Y111760D01*
D12*
X111760Y307340D03*
D15*
X117010Y307340D01*
D12*
X281178Y256794D03*
D15*
X246380Y307340D02*
X117010Y307340D01*
X275928Y256794D02*
X281178Y256794D01*
X275928Y256794D02*
X262890Y256794D01*
X262657Y256797D01*
X262424Y256805D01*
X262191Y256819D01*
X261958Y256839D01*
X261727Y256864D01*
X261495Y256895D01*
X261265Y256932D01*
X261036Y256974D01*
X260807Y257021D01*
X260580Y257074D01*
X260354Y257133D01*
X260130Y257197D01*
X259907Y257266D01*
X259686Y257341D01*
X259467Y257421D01*
X259250Y257507D01*
X259035Y257597D01*
X258823Y257693D01*
X258612Y257794D01*
X258404Y257900D01*
X258199Y258010D01*
X257997Y258126D01*
X257797Y258247D01*
X257601Y258372D01*
X257407Y258503D01*
X257217Y258637D01*
X257030Y258777D01*
X256846Y258921D01*
X256666Y259069D01*
X256490Y259221D01*
X256317Y259378D01*
X256148Y259539D01*
X255983Y259704D01*
X255822Y259873D01*
X255665Y260046D01*
X255513Y260222D01*
X255365Y260402D01*
X255221Y260586D01*
X255081Y260773D01*
X254947Y260963D01*
X254816Y261157D01*
X254691Y261353D01*
X254570Y261553D01*
X254454Y261755D01*
X254344Y261960D01*
X254238Y262168D01*
X254137Y262379D01*
X254041Y262591D01*
X253951Y262806D01*
X253865Y263023D01*
X253785Y263242D01*
X253710Y263463D01*
X253641Y263686D01*
X253577Y263910D01*
X253518Y264136D01*
X253465Y264363D01*
X253418Y264592D01*
X253376Y264821D01*
X253339Y265051D01*
X253308Y265283D01*
X253283Y265514D01*
X253263Y265747D01*
X253249Y265980D01*
X253241Y266213D01*
X253238Y266446D01*
X253238Y300482D01*
X253236Y300648D01*
X253230Y300813D01*
X253220Y300979D01*
X253206Y301144D01*
X253188Y301309D01*
X253166Y301473D01*
X253140Y301637D01*
X253110Y301800D01*
X253076Y301962D01*
X253039Y302123D01*
X252997Y302284D01*
X252952Y302443D01*
X252902Y302601D01*
X252849Y302758D01*
X252792Y302914D01*
X252732Y303068D01*
X252667Y303221D01*
X252599Y303372D01*
X252528Y303521D01*
X252452Y303669D01*
X252374Y303815D01*
X252291Y303959D01*
X252206Y304101D01*
X252117Y304240D01*
X252024Y304378D01*
X251928Y304513D01*
X251829Y304646D01*
X251727Y304776D01*
X251622Y304904D01*
X251513Y305030D01*
X251402Y305152D01*
X251288Y305272D01*
X251170Y305390D01*
X251050Y305504D01*
X250928Y305615D01*
X250802Y305724D01*
X250674Y305829D01*
X250544Y305931D01*
X250411Y306030D01*
X250276Y306126D01*
X250138Y306219D01*
X249999Y306308D01*
X249857Y306393D01*
X249713Y306476D01*
X249567Y306554D01*
X249419Y306630D01*
X249270Y306701D01*
X249119Y306769D01*
X248966Y306834D01*
X248812Y306894D01*
X248656Y306951D01*
X248499Y307004D01*
X248341Y307054D01*
X248182Y307099D01*
X248021Y307141D01*
X247860Y307178D01*
X247698Y307212D01*
X247535Y307242D01*
X247371Y307268D01*
X247207Y307290D01*
X247042Y307308D01*
X246877Y307322D01*
X246711Y307332D01*
X246546Y307338D01*
X246380Y307340D01*
X117010Y307340D02*
X113497Y309810D01*
X111760Y307340D01*
X113497Y304870D02*
X117010Y307340D01*
X113497Y304870D02*
X111760Y307340D01*
X275928Y256794D02*
X279441Y254324D01*
X281178Y256794D01*
X279441Y259264D02*
X275928Y256794D01*
X279441Y259264D02*
X281178Y256794D01*
D12*
X317500Y231140D03*
D15*
X322750Y231140D01*
X322750Y231140D01*
X325120Y231140D01*
X340360Y215900D02*
X345270Y215900D01*
D12*
X350520Y215900D03*
D15*
X345270Y215900D02*
X345270Y215900D01*
X350520Y215900D01*
X340360Y215900D02*
X325120Y231140D01*
X322750Y231140D02*
X319237Y233610D01*
X319237Y233610D01*
X322750Y231140D02*
X322750Y231140D01*
X319237Y228670D01*
X319237Y228670D01*
X322750Y231140D02*
X319237Y233610D01*
X319237Y233610D01*
X317500Y231140D01*
X319237Y228670D02*
X322750Y231140D01*
X319237Y228670D02*
X317500Y231140D01*
X319237Y233610D02*
X322750Y231140D01*
X319237Y233610D02*
X317500Y231140D01*
X319237Y228670D02*
X322750Y231140D01*
X319237Y228670D02*
X317500Y231140D01*
X345270Y215900D02*
X345270Y215900D01*
X348783Y213430D01*
X348783Y213430D01*
X345270Y215900D02*
X348783Y218370D01*
X348783Y218370D01*
X345270Y215900D02*
X348783Y213430D01*
X348783Y213430D01*
X350520Y215900D01*
X348783Y218370D02*
X345270Y215900D01*
X348783Y218370D02*
X350520Y215900D01*
X348783Y213430D02*
X345270Y215900D01*
X348783Y213430D02*
X350520Y215900D01*
X348783Y218370D02*
X345270Y215900D01*
X348783Y218370D02*
X350520Y215900D01*
D12*
X307340Y238760D03*
D15*
X308328Y239748D01*
X326672Y239748D02*
X339188Y227232D01*
D12*
X342900Y223520D03*
D15*
X339188Y227232D01*
X312496Y239748D02*
X308328Y239748D01*
X312496Y239748D02*
X326672Y239748D01*
X312496Y239748D02*
X308581Y241513D01*
X307340Y238760D01*
X309511Y236661D02*
X312496Y239748D01*
X309511Y236661D02*
X307340Y238760D01*
X339188Y227232D02*
X339925Y223002D01*
X342900Y223520D01*
X343418Y226495D02*
X339188Y227232D01*
X343418Y226495D02*
X342900Y223520D01*
D12*
X294640Y238760D03*
X342900Y208280D03*
D15*
X294640Y233510D02*
X294640Y238760D01*
X294640Y233510D02*
X294640Y222250D01*
X294642Y222128D01*
X294648Y222006D01*
X294658Y221884D01*
X294671Y221763D01*
X294689Y221642D01*
X294710Y221522D01*
X294736Y221402D01*
X294765Y221284D01*
X294797Y221166D01*
X294834Y221049D01*
X294874Y220934D01*
X294918Y220820D01*
X294966Y220708D01*
X295017Y220597D01*
X295072Y220488D01*
X295130Y220380D01*
X295192Y220275D01*
X295257Y220172D01*
X295325Y220070D01*
X295397Y219971D01*
X295471Y219875D01*
X295549Y219780D01*
X295630Y219689D01*
X295713Y219599D01*
X295799Y219513D01*
X295889Y219430D01*
X295980Y219349D01*
X296075Y219271D01*
X296171Y219197D01*
X296270Y219125D01*
X296372Y219057D01*
X296475Y218992D01*
X296580Y218930D01*
X296688Y218872D01*
X296797Y218817D01*
X296908Y218766D01*
X297020Y218718D01*
X297134Y218674D01*
X297249Y218634D01*
X297366Y218597D01*
X297484Y218565D01*
X297602Y218536D01*
X297722Y218510D01*
X297842Y218489D01*
X297963Y218471D01*
X298084Y218458D01*
X298206Y218448D01*
X298328Y218442D01*
X298450Y218440D01*
X325120Y218440D01*
X337650Y208280D02*
X342900Y208280D01*
X337650Y208280D02*
X332740Y208280D01*
X332618Y208282D01*
X332496Y208288D01*
X332374Y208298D01*
X332253Y208311D01*
X332132Y208329D01*
X332012Y208350D01*
X331892Y208376D01*
X331774Y208405D01*
X331656Y208437D01*
X331539Y208474D01*
X331424Y208514D01*
X331310Y208558D01*
X331198Y208606D01*
X331087Y208657D01*
X330978Y208712D01*
X330870Y208770D01*
X330765Y208832D01*
X330662Y208897D01*
X330560Y208965D01*
X330461Y209037D01*
X330365Y209111D01*
X330270Y209189D01*
X330179Y209270D01*
X330089Y209353D01*
X330003Y209439D01*
X329920Y209529D01*
X329839Y209620D01*
X329761Y209715D01*
X329687Y209811D01*
X329615Y209910D01*
X329547Y210012D01*
X329482Y210115D01*
X329420Y210220D01*
X329362Y210328D01*
X329307Y210437D01*
X329256Y210548D01*
X329208Y210660D01*
X329164Y210774D01*
X329124Y210889D01*
X329087Y211006D01*
X329055Y211124D01*
X329026Y211242D01*
X329000Y211362D01*
X328979Y211482D01*
X328961Y211603D01*
X328948Y211724D01*
X328938Y211846D01*
X328932Y211968D01*
X328930Y212090D01*
X328930Y214630D01*
X328928Y214752D01*
X328922Y214874D01*
X328912Y214996D01*
X328899Y215117D01*
X328881Y215238D01*
X328860Y215358D01*
X328834Y215478D01*
X328805Y215596D01*
X328773Y215714D01*
X328736Y215831D01*
X328696Y215946D01*
X328652Y216060D01*
X328604Y216172D01*
X328553Y216283D01*
X328498Y216392D01*
X328440Y216500D01*
X328378Y216605D01*
X328313Y216708D01*
X328245Y216810D01*
X328173Y216909D01*
X328099Y217005D01*
X328021Y217100D01*
X327940Y217191D01*
X327857Y217281D01*
X327771Y217367D01*
X327681Y217450D01*
X327590Y217531D01*
X327495Y217609D01*
X327399Y217683D01*
X327300Y217755D01*
X327198Y217823D01*
X327095Y217888D01*
X326990Y217950D01*
X326882Y218008D01*
X326773Y218063D01*
X326662Y218114D01*
X326550Y218162D01*
X326436Y218206D01*
X326321Y218246D01*
X326204Y218283D01*
X326086Y218315D01*
X325968Y218344D01*
X325848Y218370D01*
X325728Y218391D01*
X325607Y218409D01*
X325486Y218422D01*
X325364Y218432D01*
X325242Y218438D01*
X325120Y218440D01*
X297110Y237023D02*
X294640Y233510D01*
X297110Y237023D02*
X294640Y238760D01*
X292170Y237023D02*
X294640Y233510D01*
X292170Y237023D02*
X294640Y238760D01*
X337650Y208280D02*
X341163Y205810D01*
X342900Y208280D01*
X341163Y210750D02*
X337650Y208280D01*
X341163Y210750D02*
X342900Y208280D01*
D12*
X149860Y243840D03*
X128270Y151130D03*
D15*
X123020Y151130D01*
X114300Y151130D01*
X114054Y151133D01*
X113809Y151142D01*
X113564Y151157D01*
X113319Y151177D01*
X113075Y151204D01*
X112832Y151237D01*
X112589Y151275D01*
X112348Y151319D01*
X112108Y151369D01*
X111869Y151425D01*
X111631Y151487D01*
X111395Y151554D01*
X111160Y151627D01*
X110928Y151706D01*
X110697Y151790D01*
X110469Y151880D01*
X110242Y151975D01*
X110019Y152076D01*
X109797Y152182D01*
X109578Y152294D01*
X109362Y152410D01*
X109149Y152532D01*
X108939Y152659D01*
X108732Y152791D01*
X108528Y152928D01*
X108328Y153070D01*
X108131Y153217D01*
X107938Y153369D01*
X107748Y153525D01*
X107563Y153685D01*
X107381Y153850D01*
X107203Y154020D01*
X107030Y154193D01*
X106860Y154371D01*
X106695Y154553D01*
X106535Y154738D01*
X106379Y154928D01*
X106227Y155121D01*
X106080Y155318D01*
X105938Y155518D01*
X105801Y155722D01*
X105669Y155929D01*
X105542Y156139D01*
X105420Y156352D01*
X105304Y156568D01*
X105192Y156787D01*
X105086Y157009D01*
X104985Y157232D01*
X104890Y157459D01*
X104800Y157687D01*
X104716Y157918D01*
X104637Y158150D01*
X104564Y158385D01*
X104497Y158621D01*
X104435Y158859D01*
X104379Y159098D01*
X104329Y159338D01*
X104285Y159579D01*
X104247Y159822D01*
X104214Y160065D01*
X104187Y160309D01*
X104167Y160554D01*
X104152Y160799D01*
X104143Y161044D01*
X104140Y161290D01*
X104140Y195580D01*
X104142Y195720D01*
X104148Y195860D01*
X104157Y196000D01*
X104171Y196139D01*
X104188Y196278D01*
X104209Y196416D01*
X104234Y196554D01*
X104263Y196691D01*
X104295Y196827D01*
X104332Y196962D01*
X104372Y197096D01*
X104415Y197229D01*
X104463Y197361D01*
X104513Y197492D01*
X104568Y197621D01*
X104626Y197748D01*
X104687Y197874D01*
X104752Y197998D01*
X104821Y198120D01*
X104892Y198240D01*
X104967Y198358D01*
X105045Y198475D01*
X105127Y198589D01*
X105211Y198700D01*
X105299Y198809D01*
X105389Y198916D01*
X105483Y199021D01*
X105579Y199122D01*
X105678Y199221D01*
X105779Y199317D01*
X105884Y199411D01*
X105991Y199501D01*
X106100Y199589D01*
X106211Y199673D01*
X106325Y199755D01*
X106442Y199833D01*
X106560Y199908D01*
X106680Y199979D01*
X106802Y200048D01*
X106926Y200113D01*
X107052Y200174D01*
X107179Y200232D01*
X107308Y200287D01*
X107439Y200337D01*
X107571Y200385D01*
X107704Y200428D01*
X107838Y200468D01*
X107973Y200505D01*
X108109Y200537D01*
X108246Y200566D01*
X108384Y200591D01*
X108522Y200612D01*
X108661Y200629D01*
X108800Y200643D01*
X108940Y200652D01*
X109080Y200658D01*
X109220Y200660D01*
X130810Y200660D01*
X131270Y200666D01*
X131730Y200682D01*
X132190Y200710D01*
X132649Y200749D01*
X133106Y200799D01*
X133563Y200860D01*
X134017Y200932D01*
X134470Y201015D01*
X134921Y201109D01*
X135369Y201214D01*
X135815Y201329D01*
X136257Y201455D01*
X136697Y201592D01*
X137133Y201740D01*
X137565Y201898D01*
X137994Y202066D01*
X138418Y202245D01*
X138838Y202434D01*
X139253Y202633D01*
X139663Y202842D01*
X140068Y203061D01*
X140468Y203289D01*
X140862Y203528D01*
X141250Y203775D01*
X141632Y204032D01*
X142007Y204298D01*
X142376Y204573D01*
X142739Y204857D01*
X143094Y205150D01*
X143442Y205451D01*
X143783Y205760D01*
X144117Y206078D01*
X144442Y206403D01*
X144760Y206737D01*
X145069Y207078D01*
X145370Y207426D01*
X145663Y207781D01*
X145947Y208144D01*
X146222Y208513D01*
X146488Y208888D01*
X146745Y209270D01*
X146992Y209658D01*
X147231Y210052D01*
X147459Y210452D01*
X147678Y210857D01*
X147887Y211267D01*
X148086Y211682D01*
X148275Y212102D01*
X148454Y212526D01*
X148622Y212955D01*
X148780Y213387D01*
X148928Y213823D01*
X149065Y214263D01*
X149191Y214705D01*
X149306Y215151D01*
X149411Y215599D01*
X149505Y216050D01*
X149588Y216503D01*
X149660Y216957D01*
X149721Y217414D01*
X149771Y217871D01*
X149810Y218330D01*
X149838Y218790D01*
X149854Y219250D01*
X149860Y219710D01*
X149860Y238590D01*
X149860Y243840D01*
X152330Y242103D02*
X149860Y238590D01*
X152330Y242103D02*
X149860Y243840D01*
X147390Y242103D02*
X149860Y238590D01*
X147390Y242103D02*
X149860Y243840D01*
X123020Y151130D02*
X126533Y148660D01*
X128270Y151130D01*
X126533Y153600D02*
X123020Y151130D01*
X126533Y153600D02*
X128270Y151130D01*
D12*
X114300Y173990D03*
D15*
X114300Y179240D02*
X114300Y179240D01*
X114300Y173990D01*
X114300Y179240D02*
X114300Y190500D01*
X114302Y190640D01*
X114308Y190780D01*
X114317Y190920D01*
X114331Y191059D01*
X114348Y191198D01*
X114369Y191336D01*
X114394Y191474D01*
X114423Y191611D01*
X114455Y191747D01*
X114492Y191882D01*
X114532Y192016D01*
X114575Y192149D01*
X114623Y192281D01*
X114673Y192412D01*
X114728Y192541D01*
X114786Y192668D01*
X114847Y192794D01*
X114912Y192918D01*
X114981Y193040D01*
X115052Y193160D01*
X115127Y193278D01*
X115205Y193395D01*
X115287Y193509D01*
X115371Y193620D01*
X115459Y193729D01*
X115549Y193836D01*
X115643Y193941D01*
X115739Y194042D01*
X115838Y194141D01*
X115939Y194237D01*
X116044Y194331D01*
X116151Y194421D01*
X116260Y194509D01*
X116371Y194593D01*
X116485Y194675D01*
X116602Y194753D01*
X116720Y194828D01*
X116840Y194899D01*
X116962Y194968D01*
X117086Y195033D01*
X117212Y195094D01*
X117339Y195152D01*
X117468Y195207D01*
X117599Y195257D01*
X117731Y195305D01*
X117864Y195348D01*
X117998Y195388D01*
X118133Y195425D01*
X118269Y195457D01*
X118406Y195486D01*
X118544Y195511D01*
X118682Y195532D01*
X118821Y195549D01*
X118960Y195563D01*
X119100Y195572D01*
X119240Y195578D01*
X119380Y195580D01*
X130810Y195580D01*
X131424Y195587D01*
X132037Y195610D01*
X132650Y195647D01*
X133261Y195699D01*
X133872Y195765D01*
X134480Y195847D01*
X135086Y195943D01*
X135690Y196053D01*
X136291Y196178D01*
X136889Y196318D01*
X137483Y196472D01*
X138073Y196641D01*
X138659Y196823D01*
X139240Y197020D01*
X139817Y197231D01*
X140388Y197455D01*
X140954Y197693D01*
X141514Y197945D01*
X142067Y198211D01*
X142614Y198489D01*
X143154Y198781D01*
X143687Y199086D01*
X144212Y199404D01*
X144730Y199734D01*
X145239Y200076D01*
X145740Y200431D01*
X146232Y200798D01*
X146715Y201176D01*
X147189Y201566D01*
X147653Y201968D01*
X148108Y202380D01*
X148552Y202804D01*
X148986Y203238D01*
X149410Y203682D01*
X149822Y204137D01*
X150224Y204601D01*
X150614Y205075D01*
X150992Y205558D01*
X151359Y206050D01*
X151714Y206551D01*
X152056Y207060D01*
X152386Y207578D01*
X152704Y208103D01*
X153009Y208636D01*
X153301Y209176D01*
X153579Y209723D01*
X153845Y210276D01*
X154097Y210836D01*
X154335Y211402D01*
X154559Y211973D01*
X154770Y212550D01*
X154967Y213131D01*
X155149Y213717D01*
X155318Y214307D01*
X155472Y214901D01*
X155612Y215499D01*
X155737Y216100D01*
X155847Y216704D01*
X155943Y217310D01*
X156025Y217918D01*
X156091Y218529D01*
X156143Y219140D01*
X156180Y219753D01*
X156203Y220366D01*
X156210Y220980D01*
X156210Y226060D01*
X161119Y230969D02*
X163489Y230969D01*
D12*
X168739Y230969D03*
D15*
X163489Y230969D01*
X161119Y230969D02*
X160981Y230967D01*
X160844Y230961D01*
X160706Y230952D01*
X160569Y230938D01*
X160433Y230921D01*
X160297Y230900D01*
X160161Y230875D01*
X160027Y230846D01*
X159893Y230813D01*
X159760Y230777D01*
X159628Y230737D01*
X159498Y230694D01*
X159368Y230646D01*
X159240Y230595D01*
X159114Y230541D01*
X158989Y230483D01*
X158866Y230421D01*
X158744Y230356D01*
X158625Y230288D01*
X158507Y230217D01*
X158392Y230142D01*
X158278Y230064D01*
X158167Y229982D01*
X158058Y229898D01*
X157952Y229811D01*
X157848Y229720D01*
X157747Y229627D01*
X157648Y229531D01*
X157552Y229432D01*
X157459Y229331D01*
X157368Y229227D01*
X157281Y229121D01*
X157197Y229012D01*
X157115Y228901D01*
X157037Y228787D01*
X156962Y228672D01*
X156891Y228554D01*
X156823Y228435D01*
X156758Y228313D01*
X156696Y228190D01*
X156638Y228065D01*
X156584Y227939D01*
X156533Y227811D01*
X156485Y227681D01*
X156442Y227551D01*
X156402Y227419D01*
X156366Y227286D01*
X156333Y227152D01*
X156304Y227018D01*
X156279Y226882D01*
X156258Y226746D01*
X156241Y226610D01*
X156227Y226473D01*
X156218Y226335D01*
X156212Y226198D01*
X156210Y226060D01*
X114300Y179240D02*
X114300Y179240D01*
X111830Y175727D01*
X111830Y175727D01*
X114300Y179240D02*
X116770Y175727D01*
X116770Y175727D01*
X114300Y179240D02*
X111830Y175727D01*
X111830Y175727D01*
X114300Y173990D01*
X116770Y175727D02*
X114300Y179240D01*
X116770Y175727D02*
X114300Y173990D01*
X111830Y175727D02*
X114300Y179240D01*
X111830Y175727D02*
X114300Y173990D01*
X116770Y175727D02*
X114300Y179240D01*
X116770Y175727D02*
X114300Y173990D01*
X163489Y230969D02*
X167002Y228499D01*
X168739Y230969D01*
X167002Y233439D02*
X163489Y230969D01*
X167002Y233439D02*
X168739Y230969D01*
D12*
X146812Y326136D03*
X240284Y332112D03*
D15*
X235034Y332112D01*
X152788Y332112D01*
X150524Y329848D02*
X146812Y326136D01*
X150524Y329848D02*
X152788Y332112D01*
X150524Y329848D02*
X146294Y329111D01*
X146812Y326136D01*
X149787Y325618D02*
X150524Y329848D01*
X149787Y325618D02*
X146812Y326136D01*
X235034Y332112D02*
X238547Y329642D01*
X240284Y332112D01*
X238547Y334583D02*
X235034Y332112D01*
X238547Y334583D02*
X240284Y332112D01*
D12*
X92202Y345948D03*
X252222Y345694D03*
D15*
X246972Y345694D01*
X97446Y345694D01*
X92456Y345694D01*
X92202Y345948D01*
X94057Y348331D02*
X97446Y345694D01*
X94057Y348331D02*
X92202Y345948D01*
X93818Y343397D02*
X97446Y345694D01*
X93818Y343397D02*
X92202Y345948D01*
X246972Y345694D02*
X250485Y343224D01*
X252222Y345694D01*
X250485Y348164D02*
X246972Y345694D01*
X250485Y348164D02*
X252222Y345694D01*
D12*
X147320Y339090D03*
D15*
X152570Y339090D01*
D12*
X250190Y317500D03*
D15*
X245110Y339090D02*
X152570Y339090D01*
X250190Y334010D02*
X250190Y322750D01*
X250190Y317500D01*
X250190Y334010D02*
X250188Y334150D01*
X250182Y334290D01*
X250173Y334430D01*
X250159Y334569D01*
X250142Y334708D01*
X250121Y334846D01*
X250096Y334984D01*
X250067Y335121D01*
X250035Y335257D01*
X249998Y335392D01*
X249958Y335526D01*
X249915Y335659D01*
X249867Y335791D01*
X249817Y335922D01*
X249762Y336051D01*
X249704Y336178D01*
X249643Y336304D01*
X249578Y336428D01*
X249509Y336550D01*
X249438Y336670D01*
X249363Y336788D01*
X249285Y336905D01*
X249203Y337019D01*
X249119Y337130D01*
X249031Y337239D01*
X248941Y337346D01*
X248847Y337451D01*
X248751Y337552D01*
X248652Y337651D01*
X248551Y337747D01*
X248446Y337841D01*
X248339Y337931D01*
X248230Y338019D01*
X248119Y338103D01*
X248005Y338185D01*
X247888Y338263D01*
X247770Y338338D01*
X247650Y338409D01*
X247528Y338478D01*
X247404Y338543D01*
X247278Y338604D01*
X247151Y338662D01*
X247022Y338717D01*
X246891Y338767D01*
X246759Y338815D01*
X246626Y338858D01*
X246492Y338898D01*
X246357Y338935D01*
X246221Y338967D01*
X246084Y338996D01*
X245946Y339021D01*
X245808Y339042D01*
X245669Y339059D01*
X245530Y339073D01*
X245390Y339082D01*
X245250Y339088D01*
X245110Y339090D01*
X152570Y339090D02*
X149057Y341560D01*
X147320Y339090D01*
X149057Y336620D02*
X152570Y339090D01*
X149057Y336620D02*
X147320Y339090D01*
X247720Y319237D02*
X250190Y322750D01*
X247720Y319237D02*
X250190Y317500D01*
X252660Y319237D02*
X250190Y322750D01*
X252660Y319237D02*
X250190Y317500D01*
D12*
X236220Y220980D03*
X363220Y177800D03*
D15*
X357970Y177800D01*
X357970Y177800D01*
X259080Y217170D02*
X259078Y217292D01*
X259072Y217414D01*
X259062Y217536D01*
X259049Y217657D01*
X259031Y217778D01*
X259010Y217898D01*
X258984Y218018D01*
X258955Y218136D01*
X258923Y218254D01*
X258886Y218371D01*
X258846Y218486D01*
X258802Y218600D01*
X258754Y218712D01*
X258703Y218823D01*
X258648Y218932D01*
X258590Y219040D01*
X258528Y219145D01*
X258463Y219248D01*
X258395Y219350D01*
X258323Y219449D01*
X258249Y219545D01*
X258171Y219640D01*
X258090Y219731D01*
X258007Y219821D01*
X257921Y219907D01*
X257831Y219990D01*
X257740Y220071D01*
X257645Y220149D01*
X257549Y220223D01*
X257450Y220295D01*
X257348Y220363D01*
X257245Y220428D01*
X257140Y220490D01*
X257032Y220548D01*
X256923Y220603D01*
X256812Y220654D01*
X256700Y220702D01*
X256586Y220746D01*
X256471Y220786D01*
X256354Y220823D01*
X256236Y220855D01*
X256118Y220884D01*
X255998Y220910D01*
X255878Y220931D01*
X255757Y220949D01*
X255636Y220962D01*
X255514Y220972D01*
X255392Y220978D01*
X255270Y220980D01*
X259080Y217170D02*
X259080Y213360D01*
X259082Y213238D01*
X259088Y213116D01*
X259098Y212994D01*
X259111Y212873D01*
X259129Y212752D01*
X259150Y212632D01*
X259176Y212512D01*
X259205Y212394D01*
X259237Y212276D01*
X259274Y212159D01*
X259314Y212044D01*
X259358Y211930D01*
X259406Y211818D01*
X259457Y211707D01*
X259512Y211598D01*
X259570Y211490D01*
X259632Y211385D01*
X259697Y211282D01*
X259765Y211180D01*
X259837Y211081D01*
X259911Y210985D01*
X259989Y210890D01*
X260070Y210799D01*
X260153Y210709D01*
X260239Y210623D01*
X260329Y210540D01*
X260420Y210459D01*
X260515Y210381D01*
X260611Y210307D01*
X260710Y210235D01*
X260812Y210167D01*
X260915Y210102D01*
X261020Y210040D01*
X261128Y209982D01*
X261237Y209927D01*
X261348Y209876D01*
X261460Y209828D01*
X261574Y209784D01*
X261689Y209744D01*
X261806Y209707D01*
X261924Y209675D01*
X262042Y209646D01*
X262162Y209620D01*
X262282Y209599D01*
X262403Y209581D01*
X262524Y209568D01*
X262646Y209558D01*
X262768Y209552D01*
X262890Y209550D01*
X241470Y220980D02*
X236220Y220980D01*
X241470Y220980D02*
X255270Y220980D01*
X321310Y184150D02*
X321312Y183992D01*
X321318Y183833D01*
X321328Y183675D01*
X321342Y183518D01*
X321359Y183360D01*
X321381Y183204D01*
X321406Y183047D01*
X321436Y182892D01*
X321469Y182737D01*
X321506Y182583D01*
X321547Y182430D01*
X321592Y182278D01*
X321641Y182128D01*
X321693Y181978D01*
X321749Y181830D01*
X321809Y181683D01*
X321872Y181538D01*
X321939Y181395D01*
X322009Y181253D01*
X322083Y181113D01*
X322161Y180975D01*
X322242Y180839D01*
X322326Y180705D01*
X322413Y180573D01*
X322504Y180443D01*
X322598Y180316D01*
X322695Y180191D01*
X322796Y180068D01*
X322899Y179948D01*
X323005Y179831D01*
X323114Y179716D01*
X323226Y179604D01*
X323341Y179495D01*
X323458Y179389D01*
X323578Y179286D01*
X323701Y179185D01*
X323826Y179088D01*
X323953Y178994D01*
X324083Y178903D01*
X324215Y178816D01*
X324349Y178732D01*
X324485Y178651D01*
X324623Y178573D01*
X324763Y178499D01*
X324905Y178429D01*
X325048Y178362D01*
X325193Y178299D01*
X325340Y178239D01*
X325488Y178183D01*
X325638Y178131D01*
X325788Y178082D01*
X325940Y178037D01*
X326093Y177996D01*
X326247Y177959D01*
X326402Y177926D01*
X326557Y177896D01*
X326714Y177871D01*
X326870Y177849D01*
X327028Y177832D01*
X327185Y177818D01*
X327343Y177808D01*
X327502Y177802D01*
X327660Y177800D01*
X321310Y184150D02*
X321310Y201930D01*
X321308Y202114D01*
X321301Y202298D01*
X321290Y202482D01*
X321274Y202665D01*
X321254Y202848D01*
X321230Y203031D01*
X321201Y203213D01*
X321168Y203394D01*
X321130Y203574D01*
X321089Y203754D01*
X321042Y203932D01*
X320992Y204109D01*
X320937Y204285D01*
X320878Y204459D01*
X320815Y204632D01*
X320747Y204803D01*
X320676Y204973D01*
X320600Y205141D01*
X320521Y205307D01*
X320437Y205471D01*
X320350Y205633D01*
X320258Y205793D01*
X320163Y205951D01*
X320064Y206106D01*
X319961Y206259D01*
X319855Y206409D01*
X319745Y206557D01*
X319631Y206702D01*
X319514Y206844D01*
X319394Y206983D01*
X319270Y207119D01*
X319143Y207253D01*
X319013Y207383D01*
X318879Y207510D01*
X318743Y207634D01*
X318604Y207754D01*
X318462Y207871D01*
X318317Y207985D01*
X318169Y208095D01*
X318019Y208201D01*
X317866Y208304D01*
X317711Y208403D01*
X317553Y208498D01*
X317393Y208590D01*
X317231Y208677D01*
X317067Y208761D01*
X316901Y208840D01*
X316733Y208916D01*
X316563Y208987D01*
X316392Y209055D01*
X316219Y209118D01*
X316045Y209177D01*
X315869Y209232D01*
X315692Y209282D01*
X315514Y209329D01*
X315334Y209370D01*
X315154Y209408D01*
X314973Y209441D01*
X314791Y209470D01*
X314608Y209494D01*
X314425Y209514D01*
X314242Y209530D01*
X314058Y209541D01*
X313874Y209548D01*
X313690Y209550D01*
X262890Y209550D01*
X327660Y177800D02*
X357970Y177800D01*
X241470Y220980D02*
X237957Y223450D01*
X236220Y220980D01*
X237957Y218510D02*
X241470Y220980D01*
X237957Y218510D02*
X236220Y220980D01*
X357970Y177800D02*
X357970Y177800D01*
X361483Y175330D01*
X361483Y175330D01*
X357970Y177800D02*
X361483Y180270D01*
X361483Y180270D01*
X357970Y177800D02*
X361483Y175330D01*
X361483Y175330D01*
X363220Y177800D01*
X361483Y180270D02*
X357970Y177800D01*
X361483Y180270D02*
X363220Y177800D01*
X361483Y175330D02*
X357970Y177800D01*
X361483Y175330D02*
X363220Y177800D01*
X361483Y180270D02*
X357970Y177800D01*
X361483Y180270D02*
X363220Y177800D01*
D12*
X248910Y238760D03*
D15*
X254160Y238760D01*
X267970Y238760D01*
X268154Y238758D01*
X268338Y238751D01*
X268522Y238740D01*
X268705Y238724D01*
X268888Y238704D01*
X269071Y238680D01*
X269253Y238651D01*
X269434Y238618D01*
X269614Y238580D01*
X269794Y238539D01*
X269972Y238492D01*
X270149Y238442D01*
X270325Y238387D01*
X270499Y238328D01*
X270672Y238265D01*
X270843Y238197D01*
X271013Y238126D01*
X271181Y238050D01*
X271347Y237971D01*
X271511Y237887D01*
X271673Y237800D01*
X271833Y237708D01*
X271991Y237613D01*
X272146Y237514D01*
X272299Y237411D01*
X272449Y237305D01*
X272597Y237195D01*
X272742Y237081D01*
X272884Y236964D01*
X273023Y236844D01*
X273159Y236720D01*
X273293Y236593D01*
X273423Y236463D01*
X273550Y236329D01*
X273674Y236193D01*
X273794Y236054D01*
X273911Y235912D01*
X274025Y235767D01*
X274135Y235619D01*
X274241Y235469D01*
X274344Y235316D01*
X274443Y235161D01*
X274538Y235003D01*
X274630Y234843D01*
X274717Y234681D01*
X274801Y234517D01*
X274880Y234351D01*
X274956Y234183D01*
X275027Y234013D01*
X275095Y233842D01*
X275158Y233669D01*
X275217Y233495D01*
X275272Y233319D01*
X275322Y233142D01*
X275369Y232964D01*
X275410Y232784D01*
X275448Y232604D01*
X275481Y232423D01*
X275510Y232241D01*
X275534Y232058D01*
X275554Y231875D01*
X275570Y231692D01*
X275581Y231508D01*
X275588Y231324D01*
X275590Y231140D01*
X275590Y223520D01*
D12*
X346202Y191008D03*
D15*
X340952Y191008D01*
X330962Y191008D01*
X330829Y191010D01*
X330696Y191016D01*
X330564Y191025D01*
X330431Y191039D01*
X330299Y191056D01*
X330168Y191077D01*
X330037Y191102D01*
X329908Y191131D01*
X329779Y191164D01*
X329651Y191200D01*
X329524Y191240D01*
X329398Y191284D01*
X329274Y191331D01*
X329151Y191382D01*
X329030Y191436D01*
X328910Y191494D01*
X328792Y191556D01*
X328676Y191621D01*
X328562Y191689D01*
X328450Y191760D01*
X328340Y191835D01*
X328232Y191913D01*
X328126Y191994D01*
X328023Y192078D01*
X327923Y192165D01*
X327825Y192254D01*
X327729Y192347D01*
X327636Y192443D01*
X327547Y192541D01*
X327460Y192641D01*
X327376Y192744D01*
X327295Y192850D01*
X327217Y192958D01*
X327142Y193068D01*
X327071Y193180D01*
X327003Y193294D01*
X326938Y193410D01*
X326876Y193528D01*
X326818Y193648D01*
X326764Y193769D01*
X326713Y193892D01*
X326666Y194016D01*
X326622Y194142D01*
X326582Y194269D01*
X326546Y194397D01*
X326513Y194526D01*
X326484Y194655D01*
X326459Y194786D01*
X326438Y194917D01*
X326421Y195049D01*
X326407Y195182D01*
X326398Y195314D01*
X326392Y195447D01*
X326390Y195580D01*
X326390Y204470D01*
X326387Y204685D01*
X326380Y204900D01*
X326367Y205114D01*
X326348Y205328D01*
X326325Y205542D01*
X326297Y205755D01*
X326263Y205967D01*
X326224Y206178D01*
X326181Y206388D01*
X326132Y206598D01*
X326078Y206805D01*
X326019Y207012D01*
X325955Y207217D01*
X325886Y207421D01*
X325812Y207622D01*
X325734Y207822D01*
X325650Y208020D01*
X325562Y208216D01*
X325469Y208410D01*
X325372Y208601D01*
X325270Y208790D01*
X325163Y208977D01*
X325052Y209161D01*
X324936Y209342D01*
X324816Y209520D01*
X324692Y209695D01*
X324564Y209868D01*
X324431Y210037D01*
X324295Y210203D01*
X324154Y210365D01*
X324010Y210524D01*
X323862Y210680D01*
X323710Y210832D01*
X323554Y210980D01*
X323395Y211124D01*
X323233Y211265D01*
X323067Y211401D01*
X322898Y211534D01*
X322725Y211662D01*
X322550Y211786D01*
X322372Y211906D01*
X322191Y212022D01*
X322007Y212133D01*
X321820Y212240D01*
X321631Y212342D01*
X321440Y212439D01*
X321246Y212532D01*
X321050Y212620D01*
X320852Y212704D01*
X320652Y212782D01*
X320451Y212856D01*
X320247Y212925D01*
X320042Y212989D01*
X319835Y213048D01*
X319628Y213102D01*
X319418Y213151D01*
X319208Y213194D01*
X318997Y213233D01*
X318785Y213267D01*
X318572Y213295D01*
X318358Y213318D01*
X318144Y213337D01*
X317930Y213350D01*
X317715Y213357D01*
X317500Y213360D01*
X285750Y213360D01*
X285504Y213363D01*
X285259Y213372D01*
X285014Y213387D01*
X284769Y213407D01*
X284525Y213434D01*
X284282Y213467D01*
X284039Y213505D01*
X283798Y213549D01*
X283558Y213599D01*
X283319Y213655D01*
X283081Y213717D01*
X282845Y213784D01*
X282610Y213857D01*
X282378Y213936D01*
X282147Y214020D01*
X281919Y214110D01*
X281692Y214205D01*
X281469Y214306D01*
X281247Y214412D01*
X281028Y214524D01*
X280812Y214640D01*
X280599Y214762D01*
X280389Y214889D01*
X280182Y215021D01*
X279978Y215158D01*
X279778Y215300D01*
X279581Y215447D01*
X279388Y215599D01*
X279198Y215755D01*
X279013Y215915D01*
X278831Y216080D01*
X278653Y216250D01*
X278480Y216423D01*
X278310Y216601D01*
X278145Y216783D01*
X277985Y216968D01*
X277829Y217158D01*
X277677Y217351D01*
X277530Y217548D01*
X277388Y217748D01*
X277251Y217952D01*
X277119Y218159D01*
X276992Y218369D01*
X276870Y218582D01*
X276754Y218798D01*
X276642Y219017D01*
X276536Y219239D01*
X276435Y219462D01*
X276340Y219689D01*
X276250Y219917D01*
X276166Y220148D01*
X276087Y220380D01*
X276014Y220615D01*
X275947Y220851D01*
X275885Y221089D01*
X275829Y221328D01*
X275779Y221568D01*
X275735Y221809D01*
X275697Y222052D01*
X275664Y222295D01*
X275637Y222539D01*
X275617Y222784D01*
X275602Y223029D01*
X275593Y223274D01*
X275590Y223520D01*
X254160Y238760D02*
X250647Y241230D01*
X248910Y238760D01*
X250647Y236290D02*
X254160Y238760D01*
X250647Y236290D02*
X248910Y238760D01*
X340952Y191008D02*
X344465Y188538D01*
X346202Y191008D01*
X344465Y193478D02*
X340952Y191008D01*
X344465Y193478D02*
X346202Y191008D01*
D12*
X332486Y246380D03*
D15*
X337736Y246380D01*
X349250Y246380D01*
X349588Y246376D01*
X349925Y246364D01*
X350262Y246343D01*
X350598Y246315D01*
X350934Y246278D01*
X351269Y246233D01*
X351602Y246181D01*
X351934Y246120D01*
X352265Y246051D01*
X352593Y245974D01*
X352920Y245889D01*
X353245Y245797D01*
X353567Y245696D01*
X353887Y245588D01*
X354204Y245472D01*
X354518Y245349D01*
X354829Y245218D01*
X355137Y245079D01*
X355441Y244933D01*
X355742Y244780D01*
X356039Y244619D01*
X356332Y244452D01*
X356621Y244277D01*
X356906Y244095D01*
X357186Y243907D01*
X357461Y243712D01*
X357732Y243510D01*
X357998Y243302D01*
X358258Y243087D01*
X358514Y242867D01*
X358764Y242640D01*
X359008Y242407D01*
X359247Y242168D01*
X359480Y241924D01*
X359707Y241674D01*
X359927Y241418D01*
X360142Y241158D01*
X360350Y240892D01*
X360552Y240621D01*
X360747Y240346D01*
X360935Y240066D01*
X361117Y239781D01*
X361292Y239492D01*
X361459Y239199D01*
X361620Y238902D01*
X361773Y238601D01*
X361919Y238297D01*
X362058Y237989D01*
X362189Y237678D01*
X362312Y237364D01*
X362428Y237047D01*
X362536Y236727D01*
X362637Y236405D01*
X362729Y236080D01*
X362814Y235753D01*
X362891Y235425D01*
X362960Y235094D01*
X363021Y234762D01*
X363073Y234429D01*
X363118Y234094D01*
X363155Y233758D01*
X363183Y233422D01*
X363204Y233085D01*
X363216Y232748D01*
X363220Y232410D01*
X363220Y204640D01*
D12*
X363220Y199390D03*
D15*
X363220Y204640D01*
X337736Y246380D02*
X334223Y248850D01*
X332486Y246380D01*
X334223Y243910D02*
X337736Y246380D01*
X334223Y243910D02*
X332486Y246380D01*
X363220Y204640D02*
X360750Y201127D01*
X363220Y199390D01*
X365690Y201127D02*
X363220Y204640D01*
X365690Y201127D02*
X363220Y199390D01*
D12*
X246380Y213360D03*
X337820Y170180D03*
D15*
X320040Y170180D02*
X319918Y170182D01*
X319796Y170188D01*
X319674Y170198D01*
X319553Y170211D01*
X319432Y170229D01*
X319312Y170250D01*
X319192Y170276D01*
X319074Y170305D01*
X318956Y170337D01*
X318839Y170374D01*
X318724Y170414D01*
X318610Y170458D01*
X318498Y170506D01*
X318387Y170557D01*
X318278Y170612D01*
X318170Y170670D01*
X318065Y170732D01*
X317962Y170797D01*
X317860Y170865D01*
X317761Y170937D01*
X317665Y171011D01*
X317570Y171089D01*
X317479Y171170D01*
X317389Y171253D01*
X317303Y171339D01*
X317220Y171429D01*
X317139Y171520D01*
X317061Y171615D01*
X316987Y171711D01*
X316915Y171810D01*
X316847Y171912D01*
X316782Y172015D01*
X316720Y172120D01*
X316662Y172228D01*
X316607Y172337D01*
X316556Y172448D01*
X316508Y172560D01*
X316464Y172674D01*
X316424Y172789D01*
X316387Y172906D01*
X316355Y173024D01*
X316326Y173142D01*
X316300Y173262D01*
X316279Y173382D01*
X316261Y173503D01*
X316248Y173624D01*
X316238Y173746D01*
X316232Y173868D01*
X316230Y173990D01*
X316230Y194873D01*
X316227Y195112D01*
X316218Y195350D01*
X316204Y195589D01*
X316184Y195826D01*
X316158Y196064D01*
X316126Y196300D01*
X316089Y196536D01*
X316046Y196771D01*
X315997Y197005D01*
X315943Y197237D01*
X315883Y197468D01*
X315818Y197698D01*
X315746Y197926D01*
X315670Y198152D01*
X315588Y198376D01*
X315501Y198598D01*
X315408Y198818D01*
X315310Y199036D01*
X315207Y199251D01*
X315098Y199464D01*
X314985Y199674D01*
X314866Y199881D01*
X314743Y200086D01*
X314614Y200287D01*
X314481Y200485D01*
X314343Y200680D01*
X314201Y200871D01*
X314053Y201059D01*
X313902Y201243D01*
X313746Y201424D01*
X313585Y201601D01*
X313420Y201774D01*
X313252Y201942D01*
X313079Y202107D01*
X312902Y202268D01*
X312721Y202424D01*
X312537Y202575D01*
X312349Y202723D01*
X312158Y202865D01*
X311963Y203003D01*
X311765Y203136D01*
X311564Y203265D01*
X311359Y203388D01*
X311152Y203507D01*
X310942Y203620D01*
X310729Y203729D01*
X310514Y203832D01*
X310296Y203930D01*
X310076Y204023D01*
X309854Y204110D01*
X309630Y204192D01*
X309404Y204268D01*
X309176Y204340D01*
X308946Y204405D01*
X308715Y204465D01*
X308483Y204519D01*
X308249Y204568D01*
X308014Y204611D01*
X307778Y204648D01*
X307542Y204680D01*
X307304Y204706D01*
X307067Y204726D01*
X306828Y204740D01*
X306590Y204749D01*
X306351Y204752D01*
X332570Y170180D02*
X337820Y170180D01*
X332570Y170180D02*
X320040Y170180D01*
X246380Y208110D02*
X246380Y213360D01*
X246380Y208110D02*
X246380Y207010D01*
X246382Y206917D01*
X246388Y206824D01*
X246397Y206731D01*
X246411Y206638D01*
X246428Y206547D01*
X246449Y206456D01*
X246474Y206366D01*
X246502Y206277D01*
X246534Y206189D01*
X246570Y206103D01*
X246609Y206018D01*
X246652Y205935D01*
X246698Y205854D01*
X246748Y205775D01*
X246800Y205698D01*
X246856Y205623D01*
X246915Y205551D01*
X246977Y205481D01*
X247041Y205413D01*
X247109Y205349D01*
X247179Y205287D01*
X247251Y205228D01*
X247326Y205172D01*
X247403Y205120D01*
X247482Y205070D01*
X247563Y205024D01*
X247646Y204981D01*
X247731Y204942D01*
X247817Y204906D01*
X247905Y204874D01*
X247994Y204846D01*
X248084Y204821D01*
X248175Y204800D01*
X248266Y204783D01*
X248359Y204769D01*
X248452Y204760D01*
X248545Y204754D01*
X248638Y204752D01*
X306351Y204752D01*
X248850Y211623D02*
X246380Y208110D01*
X248850Y211623D02*
X246380Y213360D01*
X243910Y211623D02*
X246380Y208110D01*
X243910Y211623D02*
X246380Y213360D01*
X332570Y170180D02*
X336083Y167710D01*
X337820Y170180D01*
X336083Y172650D02*
X332570Y170180D01*
X336083Y172650D02*
X337820Y170180D01*
D12*
X261620Y198120D03*
D15*
X266870Y198120D01*
X266870Y198120D01*
X303530Y198120D01*
D12*
X330200Y160020D03*
D15*
X309880Y191770D02*
X309878Y191928D01*
X309872Y192087D01*
X309862Y192245D01*
X309848Y192402D01*
X309831Y192560D01*
X309809Y192716D01*
X309784Y192873D01*
X309754Y193028D01*
X309721Y193183D01*
X309684Y193337D01*
X309643Y193490D01*
X309598Y193642D01*
X309549Y193792D01*
X309497Y193942D01*
X309441Y194090D01*
X309381Y194237D01*
X309318Y194382D01*
X309251Y194525D01*
X309181Y194667D01*
X309107Y194807D01*
X309029Y194945D01*
X308948Y195081D01*
X308864Y195215D01*
X308777Y195347D01*
X308686Y195477D01*
X308592Y195604D01*
X308495Y195729D01*
X308394Y195852D01*
X308291Y195972D01*
X308185Y196089D01*
X308076Y196204D01*
X307964Y196316D01*
X307849Y196425D01*
X307732Y196531D01*
X307612Y196634D01*
X307489Y196735D01*
X307364Y196832D01*
X307237Y196926D01*
X307107Y197017D01*
X306975Y197104D01*
X306841Y197188D01*
X306705Y197269D01*
X306567Y197347D01*
X306427Y197421D01*
X306285Y197491D01*
X306142Y197558D01*
X305997Y197621D01*
X305850Y197681D01*
X305702Y197737D01*
X305552Y197789D01*
X305402Y197838D01*
X305250Y197883D01*
X305097Y197924D01*
X304943Y197961D01*
X304788Y197994D01*
X304633Y198024D01*
X304476Y198049D01*
X304320Y198071D01*
X304162Y198088D01*
X304005Y198102D01*
X303847Y198112D01*
X303688Y198118D01*
X303530Y198120D01*
X309880Y191770D02*
X309880Y162560D01*
X309882Y162460D01*
X309888Y162361D01*
X309898Y162261D01*
X309911Y162163D01*
X309929Y162064D01*
X309950Y161967D01*
X309975Y161871D01*
X310004Y161775D01*
X310037Y161681D01*
X310073Y161588D01*
X310113Y161497D01*
X310157Y161407D01*
X310204Y161319D01*
X310254Y161233D01*
X310308Y161149D01*
X310365Y161067D01*
X310425Y160988D01*
X310489Y160910D01*
X310555Y160836D01*
X310624Y160764D01*
X310696Y160695D01*
X310770Y160629D01*
X310848Y160565D01*
X310927Y160505D01*
X311009Y160448D01*
X311093Y160394D01*
X311179Y160344D01*
X311267Y160297D01*
X311357Y160253D01*
X311448Y160213D01*
X311541Y160177D01*
X311635Y160144D01*
X311731Y160115D01*
X311827Y160090D01*
X311924Y160069D01*
X312023Y160051D01*
X312121Y160038D01*
X312221Y160028D01*
X312320Y160022D01*
X312420Y160020D01*
X324950Y160020D01*
X330200Y160020D01*
X266870Y198120D02*
X263357Y200590D01*
X263357Y200590D01*
X266870Y198120D02*
X266870Y198120D01*
X263357Y195650D01*
X263357Y195650D01*
X266870Y198120D02*
X263357Y200590D01*
X263357Y200590D01*
X261620Y198120D01*
X263357Y195650D02*
X266870Y198120D01*
X263357Y195650D02*
X261620Y198120D01*
X263357Y200590D02*
X266870Y198120D01*
X263357Y200590D02*
X261620Y198120D01*
X263357Y195650D02*
X266870Y198120D01*
X263357Y195650D02*
X261620Y198120D01*
X324950Y160020D02*
X328463Y157550D01*
X330200Y160020D01*
X328463Y162490D02*
X324950Y160020D01*
X328463Y162490D02*
X330200Y160020D01*
D12*
X41910Y292100D03*
D15*
X41910Y286850D01*
X41910Y127000D01*
X41913Y126785D01*
X41920Y126570D01*
X41933Y126356D01*
X41952Y126142D01*
X41975Y125928D01*
X42003Y125715D01*
X42037Y125503D01*
X42076Y125292D01*
X42119Y125082D01*
X42168Y124872D01*
X42222Y124665D01*
X42281Y124458D01*
X42345Y124253D01*
X42414Y124049D01*
X42488Y123848D01*
X42566Y123648D01*
X42650Y123450D01*
X42738Y123254D01*
X42831Y123060D01*
X42928Y122869D01*
X43030Y122680D01*
X43137Y122493D01*
X43248Y122309D01*
X43364Y122128D01*
X43484Y121950D01*
X43608Y121775D01*
X43736Y121602D01*
X43869Y121433D01*
X44005Y121267D01*
X44146Y121105D01*
X44290Y120946D01*
X44438Y120790D01*
X44590Y120638D01*
X44746Y120490D01*
X44905Y120346D01*
X45067Y120205D01*
X45233Y120069D01*
X45402Y119936D01*
X45575Y119808D01*
X45750Y119684D01*
X45928Y119564D01*
X46109Y119448D01*
X46293Y119337D01*
X46480Y119230D01*
X46669Y119128D01*
X46860Y119031D01*
X47054Y118938D01*
X47250Y118850D01*
X47448Y118766D01*
X47648Y118688D01*
X47849Y118614D01*
X48053Y118545D01*
X48258Y118481D01*
X48465Y118422D01*
X48672Y118368D01*
X48882Y118319D01*
X49092Y118276D01*
X49303Y118237D01*
X49515Y118203D01*
X49728Y118175D01*
X49942Y118152D01*
X50156Y118133D01*
X50370Y118120D01*
X50585Y118113D01*
X50800Y118110D01*
X133350Y118110D01*
X139700Y111760D02*
X139700Y109390D01*
D12*
X139700Y104140D03*
D15*
X139700Y109390D01*
X139700Y111760D02*
X139698Y111918D01*
X139692Y112077D01*
X139682Y112235D01*
X139668Y112392D01*
X139651Y112550D01*
X139629Y112706D01*
X139604Y112863D01*
X139574Y113018D01*
X139541Y113173D01*
X139504Y113327D01*
X139463Y113480D01*
X139418Y113632D01*
X139369Y113782D01*
X139317Y113932D01*
X139261Y114080D01*
X139201Y114227D01*
X139138Y114372D01*
X139071Y114515D01*
X139001Y114657D01*
X138927Y114797D01*
X138849Y114935D01*
X138768Y115071D01*
X138684Y115205D01*
X138597Y115337D01*
X138506Y115467D01*
X138412Y115594D01*
X138315Y115719D01*
X138214Y115842D01*
X138111Y115962D01*
X138005Y116079D01*
X137896Y116194D01*
X137784Y116306D01*
X137669Y116415D01*
X137552Y116521D01*
X137432Y116624D01*
X137309Y116725D01*
X137184Y116822D01*
X137057Y116916D01*
X136927Y117007D01*
X136795Y117094D01*
X136661Y117178D01*
X136525Y117259D01*
X136387Y117337D01*
X136247Y117411D01*
X136105Y117481D01*
X135962Y117548D01*
X135817Y117611D01*
X135670Y117671D01*
X135522Y117727D01*
X135372Y117779D01*
X135222Y117828D01*
X135070Y117873D01*
X134917Y117914D01*
X134763Y117951D01*
X134608Y117984D01*
X134453Y118014D01*
X134296Y118039D01*
X134140Y118061D01*
X133982Y118078D01*
X133825Y118092D01*
X133667Y118102D01*
X133508Y118108D01*
X133350Y118110D01*
X41910Y286850D02*
X44380Y290363D01*
X41910Y292100D01*
X39440Y290363D02*
X41910Y286850D01*
X39440Y290363D02*
X41910Y292100D01*
X139700Y109390D02*
X137230Y105877D01*
X139700Y104140D01*
X142170Y105877D02*
X139700Y109390D01*
X142170Y105877D02*
X139700Y104140D01*
X242570Y247650D02*
X290684Y247650D01*
X242570Y247650D02*
X242412Y247648D01*
X242253Y247642D01*
X242095Y247632D01*
X241938Y247618D01*
X241780Y247601D01*
X241624Y247579D01*
X241467Y247554D01*
X241312Y247524D01*
X241157Y247491D01*
X241003Y247454D01*
X240850Y247413D01*
X240698Y247368D01*
X240548Y247319D01*
X240398Y247267D01*
X240250Y247211D01*
X240103Y247151D01*
X239958Y247088D01*
X239815Y247021D01*
X239673Y246951D01*
X239533Y246877D01*
X239395Y246799D01*
X239259Y246718D01*
X239125Y246634D01*
X238993Y246547D01*
X238863Y246456D01*
X238736Y246362D01*
X238611Y246265D01*
X238488Y246164D01*
X238368Y246061D01*
X238251Y245955D01*
X238136Y245846D01*
X238024Y245734D01*
X237915Y245619D01*
X237809Y245502D01*
X237706Y245382D01*
X237605Y245259D01*
X237508Y245134D01*
X237414Y245007D01*
X237323Y244877D01*
X237236Y244745D01*
X237152Y244611D01*
X237071Y244475D01*
X236993Y244337D01*
X236919Y244197D01*
X236849Y244055D01*
X236782Y243912D01*
X236719Y243767D01*
X236659Y243620D01*
X236603Y243472D01*
X236551Y243322D01*
X236502Y243172D01*
X236457Y243020D01*
X236416Y242867D01*
X236379Y242713D01*
X236346Y242558D01*
X236316Y242403D01*
X236291Y242246D01*
X236269Y242090D01*
X236252Y241932D01*
X236238Y241775D01*
X236228Y241617D01*
X236222Y241458D01*
X236220Y241300D01*
D12*
X236220Y241300D03*
D15*
X332382Y282346D02*
X332382Y387779D01*
X321660Y271624D02*
X304352Y271624D01*
X332382Y387779D02*
X334010Y388620D01*
X294494Y261766D02*
X294494Y251460D01*
X294494Y261766D02*
X294497Y262004D01*
X294506Y262242D01*
X294520Y262480D01*
X294540Y262717D01*
X294566Y262954D01*
X294597Y263190D01*
X294635Y263426D01*
X294678Y263660D01*
X294726Y263893D01*
X294780Y264125D01*
X294840Y264356D01*
X294906Y264585D01*
X294976Y264812D01*
X295053Y265038D01*
X295135Y265262D01*
X295222Y265483D01*
X295314Y265703D01*
X295412Y265920D01*
X295515Y266135D01*
X295623Y266347D01*
X295736Y266557D01*
X295855Y266764D01*
X295978Y266967D01*
X296106Y267168D01*
X296239Y267366D01*
X296377Y267560D01*
X296519Y267751D01*
X296666Y267939D01*
X296817Y268123D01*
X296973Y268303D01*
X297133Y268479D01*
X297298Y268652D01*
X297466Y268820D01*
X297639Y268985D01*
X297815Y269145D01*
X297995Y269301D01*
X298179Y269452D01*
X298367Y269599D01*
X298558Y269741D01*
X298752Y269879D01*
X298950Y270012D01*
X299151Y270140D01*
X299354Y270263D01*
X299561Y270382D01*
X299771Y270495D01*
X299983Y270603D01*
X300198Y270706D01*
X300415Y270804D01*
X300635Y270896D01*
X300856Y270983D01*
X301080Y271065D01*
X301306Y271142D01*
X301533Y271212D01*
X301762Y271278D01*
X301993Y271338D01*
X302225Y271392D01*
X302458Y271440D01*
X302692Y271483D01*
X302928Y271521D01*
X303164Y271552D01*
X303401Y271578D01*
X303638Y271598D01*
X303876Y271612D01*
X304114Y271621D01*
X304352Y271624D01*
X294494Y251460D02*
X294492Y251338D01*
X294486Y251216D01*
X294476Y251094D01*
X294463Y250973D01*
X294445Y250852D01*
X294424Y250732D01*
X294398Y250612D01*
X294369Y250494D01*
X294337Y250376D01*
X294300Y250259D01*
X294260Y250144D01*
X294216Y250030D01*
X294168Y249918D01*
X294117Y249807D01*
X294062Y249698D01*
X294004Y249590D01*
X293942Y249485D01*
X293877Y249382D01*
X293809Y249280D01*
X293737Y249181D01*
X293663Y249085D01*
X293585Y248990D01*
X293504Y248899D01*
X293421Y248809D01*
X293335Y248723D01*
X293245Y248640D01*
X293154Y248559D01*
X293059Y248481D01*
X292963Y248407D01*
X292864Y248335D01*
X292762Y248267D01*
X292659Y248202D01*
X292554Y248140D01*
X292446Y248082D01*
X292337Y248027D01*
X292226Y247976D01*
X292114Y247928D01*
X292000Y247884D01*
X291885Y247844D01*
X291768Y247807D01*
X291650Y247775D01*
X291532Y247746D01*
X291412Y247720D01*
X291292Y247699D01*
X291171Y247681D01*
X291050Y247668D01*
X290928Y247658D01*
X290806Y247652D01*
X290684Y247650D01*
X321660Y271624D02*
X321919Y271627D01*
X322178Y271637D01*
X322437Y271652D01*
X322695Y271674D01*
X322952Y271702D01*
X323209Y271737D01*
X323465Y271777D01*
X323720Y271824D01*
X323974Y271877D01*
X324226Y271936D01*
X324477Y272001D01*
X324726Y272072D01*
X324973Y272149D01*
X325219Y272232D01*
X325462Y272321D01*
X325703Y272416D01*
X325942Y272516D01*
X326178Y272622D01*
X326412Y272735D01*
X326643Y272852D01*
X326871Y272975D01*
X327096Y273104D01*
X327317Y273238D01*
X327536Y273377D01*
X327751Y273522D01*
X327962Y273672D01*
X328170Y273827D01*
X328374Y273986D01*
X328574Y274151D01*
X328770Y274320D01*
X328962Y274495D01*
X329149Y274673D01*
X329333Y274857D01*
X329511Y275044D01*
X329686Y275236D01*
X329855Y275432D01*
X330020Y275632D01*
X330179Y275836D01*
X330334Y276044D01*
X330484Y276255D01*
X330629Y276470D01*
X330768Y276689D01*
X330902Y276910D01*
X331031Y277135D01*
X331154Y277363D01*
X331271Y277594D01*
X331384Y277828D01*
X331490Y278064D01*
X331590Y278303D01*
X331685Y278544D01*
X331774Y278787D01*
X331857Y279033D01*
X331934Y279280D01*
X332005Y279529D01*
X332070Y279780D01*
X332129Y280032D01*
X332182Y280286D01*
X332229Y280541D01*
X332269Y280797D01*
X332304Y281054D01*
X332332Y281311D01*
X332354Y281569D01*
X332369Y281828D01*
X332379Y282087D01*
X332382Y282346D01*
X238390Y246080D02*
X234689Y243903D01*
X236220Y241300D01*
X239188Y241861D02*
X238390Y246080D01*
X239188Y241861D02*
X236220Y241300D01*
X139700Y419100D02*
X122936Y419100D01*
X139700Y419100D02*
X139822Y419098D01*
X139944Y419092D01*
X140066Y419082D01*
X140187Y419069D01*
X140308Y419051D01*
X140428Y419030D01*
X140548Y419004D01*
X140666Y418975D01*
X140784Y418943D01*
X140901Y418906D01*
X141016Y418866D01*
X141130Y418822D01*
X141242Y418774D01*
X141353Y418723D01*
X141462Y418668D01*
X141570Y418610D01*
X141675Y418548D01*
X141778Y418483D01*
X141880Y418415D01*
X141979Y418343D01*
X142075Y418269D01*
X142170Y418191D01*
X142261Y418110D01*
X142351Y418027D01*
X142437Y417941D01*
X142520Y417851D01*
X142601Y417760D01*
X142679Y417665D01*
X142753Y417569D01*
X142825Y417470D01*
X142893Y417368D01*
X142958Y417265D01*
X143020Y417160D01*
X143078Y417052D01*
X143133Y416943D01*
X143184Y416832D01*
X143232Y416720D01*
X143276Y416606D01*
X143316Y416491D01*
X143353Y416374D01*
X143385Y416256D01*
X143414Y416138D01*
X143440Y416018D01*
X143461Y415898D01*
X143479Y415777D01*
X143492Y415656D01*
X143502Y415534D01*
X143508Y415412D01*
X143510Y415290D01*
X143510Y393700D01*
X143512Y393560D01*
X143518Y393420D01*
X143527Y393280D01*
X143541Y393141D01*
X143558Y393002D01*
X143579Y392864D01*
X143604Y392726D01*
X143633Y392589D01*
X143665Y392453D01*
X143702Y392318D01*
X143742Y392184D01*
X143785Y392051D01*
X143833Y391919D01*
X143883Y391788D01*
X143938Y391659D01*
X143996Y391532D01*
X144057Y391406D01*
X144122Y391282D01*
X144191Y391160D01*
X144262Y391040D01*
X144337Y390922D01*
X144415Y390805D01*
X144497Y390691D01*
X144581Y390580D01*
X144669Y390471D01*
X144759Y390364D01*
X144853Y390259D01*
X144949Y390158D01*
X145048Y390059D01*
X145149Y389963D01*
X145254Y389869D01*
X145361Y389779D01*
X145470Y389691D01*
X145581Y389607D01*
X145695Y389525D01*
X145812Y389447D01*
X145930Y389372D01*
X146050Y389301D01*
X146172Y389232D01*
X146296Y389167D01*
X146422Y389106D01*
X146549Y389048D01*
X146678Y388993D01*
X146809Y388943D01*
X146941Y388895D01*
X147074Y388852D01*
X147208Y388812D01*
X147343Y388775D01*
X147479Y388743D01*
X147616Y388714D01*
X147754Y388689D01*
X147892Y388668D01*
X148031Y388651D01*
X148170Y388637D01*
X148310Y388628D01*
X148450Y388622D01*
X148590Y388620D01*
X149690Y388620D01*
D12*
X154940Y388620D03*
D15*
X149690Y388620D01*
X153203Y386150D01*
X154940Y388620D01*
X153203Y391090D02*
X149690Y388620D01*
X153203Y391090D02*
X154940Y388620D01*
X124979Y300216D02*
X119729Y300216D01*
X124979Y300216D02*
X220484Y300216D01*
X83045Y300216D02*
X83045Y300497D01*
X79476Y304066D01*
X75335Y308207D01*
X75335Y395208D01*
X82202Y402075D01*
X83820Y403860D01*
D12*
X248393Y257328D03*
X119729Y300216D03*
X83045Y300216D03*
D15*
X220484Y300216D02*
X220741Y300213D01*
X220999Y300204D01*
X221256Y300188D01*
X221512Y300166D01*
X221768Y300138D01*
X222024Y300104D01*
X222278Y300064D01*
X222531Y300017D01*
X222783Y299965D01*
X223034Y299906D01*
X223283Y299842D01*
X223531Y299771D01*
X223777Y299694D01*
X224021Y299612D01*
X224263Y299524D01*
X224502Y299429D01*
X224740Y299329D01*
X224974Y299224D01*
X225207Y299112D01*
X225436Y298995D01*
X225663Y298873D01*
X225886Y298745D01*
X226107Y298612D01*
X226324Y298473D01*
X226537Y298330D01*
X226747Y298181D01*
X226954Y298027D01*
X227157Y297868D01*
X227355Y297705D01*
X227550Y297536D01*
X227741Y297363D01*
X227927Y297185D01*
X228109Y297003D01*
X228287Y296817D01*
X228460Y296626D01*
X228629Y296431D01*
X228792Y296233D01*
X228951Y296030D01*
X229105Y295823D01*
X229254Y295613D01*
X229397Y295400D01*
X229536Y295183D01*
X229669Y294962D01*
X229797Y294739D01*
X229919Y294512D01*
X230036Y294283D01*
X230148Y294050D01*
X230253Y293816D01*
X230353Y293578D01*
X230448Y293339D01*
X230536Y293097D01*
X230618Y292853D01*
X230695Y292607D01*
X230766Y292359D01*
X230830Y292110D01*
X230889Y291859D01*
X230941Y291607D01*
X230988Y291354D01*
X231028Y291100D01*
X231062Y290844D01*
X231090Y290588D01*
X231112Y290332D01*
X231128Y290075D01*
X231137Y289817D01*
X231140Y289560D01*
X231140Y266700D01*
X243143Y257328D02*
X248393Y257328D01*
X243143Y257328D02*
X240512Y257328D01*
X240286Y257331D01*
X240059Y257339D01*
X239833Y257353D01*
X239607Y257372D01*
X239382Y257396D01*
X239158Y257426D01*
X238934Y257462D01*
X238711Y257503D01*
X238490Y257549D01*
X238269Y257600D01*
X238050Y257657D01*
X237832Y257719D01*
X237616Y257787D01*
X237401Y257859D01*
X237189Y257937D01*
X236978Y258020D01*
X236769Y258108D01*
X236563Y258201D01*
X236358Y258299D01*
X236157Y258402D01*
X235957Y258509D01*
X235761Y258622D01*
X235567Y258739D01*
X235376Y258861D01*
X235188Y258987D01*
X235003Y259118D01*
X234822Y259253D01*
X234643Y259393D01*
X234469Y259537D01*
X234297Y259685D01*
X234130Y259837D01*
X233966Y259993D01*
X233805Y260154D01*
X233649Y260318D01*
X233497Y260485D01*
X233349Y260657D01*
X233205Y260831D01*
X233065Y261010D01*
X232930Y261191D01*
X232799Y261376D01*
X232673Y261564D01*
X232551Y261755D01*
X232434Y261949D01*
X232321Y262145D01*
X232214Y262345D01*
X232111Y262546D01*
X232013Y262751D01*
X231920Y262957D01*
X231832Y263166D01*
X231749Y263377D01*
X231671Y263589D01*
X231599Y263804D01*
X231531Y264020D01*
X231469Y264238D01*
X231412Y264457D01*
X231361Y264678D01*
X231315Y264899D01*
X231274Y265122D01*
X231238Y265346D01*
X231208Y265570D01*
X231184Y265795D01*
X231165Y266021D01*
X231151Y266247D01*
X231143Y266474D01*
X231140Y266700D01*
X243143Y257328D02*
X246656Y254858D01*
X248393Y257328D01*
X246656Y259798D02*
X243143Y257328D01*
X246656Y259798D02*
X248393Y257328D01*
X124979Y300216D02*
X121466Y302686D01*
X119729Y300216D01*
X121466Y297746D02*
X124979Y300216D01*
X121466Y297746D02*
X119729Y300216D01*
X80052Y299811D02*
X79476Y304066D01*
X80052Y299811D02*
X83045Y300216D01*
X83676Y303169D02*
X79476Y304066D01*
X83676Y303169D02*
X83045Y300216D01*
D12*
X360680Y302260D03*
D13*
X364392Y298548D01*
X385260Y277680D01*
X385260Y231140D01*
X364392Y298548D02*
X363090Y302970D01*
X360680Y302260D01*
X359970Y299850D02*
X364392Y298548D01*
X359970Y299850D02*
X360680Y302260D01*
D12*
X203708Y239268D03*
D15*
X213868Y239268D01*
X214034Y239266D01*
X214199Y239260D01*
X214365Y239250D01*
X214530Y239236D01*
X214695Y239218D01*
X214859Y239196D01*
X215023Y239170D01*
X215186Y239140D01*
X215348Y239106D01*
X215509Y239069D01*
X215670Y239027D01*
X215829Y238982D01*
X215987Y238932D01*
X216144Y238879D01*
X216300Y238822D01*
X216454Y238762D01*
X216607Y238697D01*
X216758Y238629D01*
X216907Y238558D01*
X217055Y238482D01*
X217201Y238404D01*
X217345Y238321D01*
X217487Y238236D01*
X217626Y238147D01*
X217764Y238054D01*
X217899Y237958D01*
X218032Y237859D01*
X218162Y237757D01*
X218290Y237652D01*
X218416Y237543D01*
X218538Y237432D01*
X218658Y237318D01*
X218776Y237200D01*
X218890Y237080D01*
X219001Y236958D01*
X219110Y236832D01*
X219215Y236704D01*
X219317Y236574D01*
X219416Y236441D01*
X219512Y236306D01*
X219605Y236168D01*
X219694Y236029D01*
X219779Y235887D01*
X219862Y235743D01*
X219940Y235597D01*
X220016Y235449D01*
X220087Y235300D01*
X220155Y235149D01*
X220220Y234996D01*
X220280Y234842D01*
X220337Y234686D01*
X220390Y234529D01*
X220440Y234371D01*
X220485Y234212D01*
X220527Y234051D01*
X220564Y233890D01*
X220598Y233728D01*
X220628Y233565D01*
X220654Y233401D01*
X220676Y233237D01*
X220694Y233072D01*
X220708Y232907D01*
X220718Y232741D01*
X220724Y232576D01*
X220726Y232410D01*
X220726Y196088D01*
X220728Y195885D01*
X220736Y195683D01*
X220748Y195481D01*
X220765Y195279D01*
X220787Y195078D01*
X220814Y194877D01*
X220846Y194677D01*
X220882Y194478D01*
X220923Y194279D01*
X220970Y194082D01*
X221020Y193886D01*
X221076Y193691D01*
X221136Y193498D01*
X221201Y193306D01*
X221271Y193116D01*
X221345Y192927D01*
X221423Y192741D01*
X221507Y192556D01*
X221594Y192373D01*
X221686Y192193D01*
X221782Y192014D01*
X221883Y191839D01*
X221988Y191665D01*
X222097Y191495D01*
X222210Y191326D01*
X222327Y191161D01*
X222448Y190999D01*
X222573Y190839D01*
X222702Y190683D01*
X222834Y190530D01*
X222970Y190380D01*
X223110Y190233D01*
X223253Y190090D01*
X223400Y189950D01*
X223550Y189814D01*
X223703Y189682D01*
X223859Y189553D01*
X224019Y189428D01*
X224181Y189307D01*
X224346Y189190D01*
X224515Y189077D01*
X224685Y188968D01*
X224859Y188863D01*
X225034Y188762D01*
X225213Y188666D01*
X225393Y188574D01*
X225576Y188487D01*
X225761Y188403D01*
X225947Y188325D01*
X226136Y188251D01*
X226326Y188181D01*
X226518Y188116D01*
X226711Y188056D01*
X226906Y188000D01*
X227102Y187950D01*
X227299Y187903D01*
X227498Y187862D01*
X227697Y187826D01*
X227897Y187794D01*
X228098Y187767D01*
X228299Y187745D01*
X228501Y187728D01*
X228703Y187716D01*
X228905Y187708D01*
X229108Y187706D01*
X258572Y187706D01*
X258811Y187703D01*
X259051Y187694D01*
X259290Y187680D01*
X259528Y187660D01*
X259766Y187634D01*
X260003Y187602D01*
X260240Y187565D01*
X260475Y187521D01*
X260710Y187473D01*
X260943Y187418D01*
X261174Y187358D01*
X261405Y187292D01*
X261633Y187221D01*
X261860Y187144D01*
X262085Y187062D01*
X262308Y186975D01*
X262528Y186882D01*
X262746Y186783D01*
X262962Y186680D01*
X263176Y186571D01*
X263386Y186458D01*
X263594Y186339D01*
X263799Y186215D01*
X264001Y186086D01*
X264199Y185952D01*
X264395Y185814D01*
X264587Y185671D01*
X264775Y185523D01*
X264960Y185371D01*
X265141Y185215D01*
X265318Y185054D01*
X265491Y184889D01*
X265661Y184719D01*
X265826Y184546D01*
X265987Y184369D01*
X266143Y184188D01*
X266295Y184003D01*
X266443Y183815D01*
X266586Y183623D01*
X266724Y183427D01*
X266858Y183229D01*
X266987Y183027D01*
X267111Y182822D01*
X267230Y182614D01*
X267343Y182404D01*
X267452Y182190D01*
X267555Y181974D01*
X267654Y181756D01*
X267747Y181536D01*
X267834Y181313D01*
X267916Y181088D01*
X267993Y180861D01*
X268064Y180633D01*
X268130Y180402D01*
X268190Y180171D01*
X268245Y179938D01*
X268293Y179703D01*
X268337Y179468D01*
X268374Y179231D01*
X268406Y178994D01*
X268432Y178756D01*
X268452Y178518D01*
X268466Y178279D01*
X268475Y178039D01*
X268478Y177800D01*
X268478Y100330D01*
X268480Y100152D01*
X268487Y99974D01*
X268497Y99796D01*
X268512Y99619D01*
X268532Y99442D01*
X268555Y99266D01*
X268583Y99090D01*
X268615Y98915D01*
X268652Y98741D01*
X268692Y98567D01*
X268737Y98395D01*
X268786Y98224D01*
X268839Y98054D01*
X268896Y97885D01*
X268957Y97718D01*
X269022Y97552D01*
X269091Y97388D01*
X269164Y97226D01*
X269241Y97065D01*
X269322Y96907D01*
X269406Y96750D01*
X269495Y96596D01*
X269587Y96443D01*
X269683Y96293D01*
X269782Y96146D01*
X269885Y96000D01*
X269991Y95858D01*
X270101Y95718D01*
X270214Y95580D01*
X270330Y95445D01*
X270450Y95314D01*
X270573Y95185D01*
X270699Y95059D01*
X270828Y94936D01*
X270959Y94816D01*
X271094Y94700D01*
X271232Y94587D01*
X271372Y94477D01*
X271514Y94371D01*
X271660Y94268D01*
X271807Y94169D01*
X271957Y94073D01*
X272110Y93981D01*
X272264Y93892D01*
X272421Y93808D01*
X272579Y93727D01*
X272740Y93650D01*
X272902Y93577D01*
X273066Y93508D01*
X273232Y93443D01*
X273399Y93382D01*
X273568Y93325D01*
X273738Y93272D01*
X273909Y93223D01*
X274081Y93178D01*
X274255Y93138D01*
X274429Y93101D01*
X274604Y93069D01*
X274780Y93041D01*
X274956Y93018D01*
X275133Y92998D01*
X275310Y92983D01*
X275488Y92973D01*
X275666Y92966D01*
X275844Y92964D01*
X285242Y92964D01*
X285408Y92962D01*
X285573Y92956D01*
X285739Y92946D01*
X285904Y92932D01*
X286069Y92914D01*
X286233Y92892D01*
X286397Y92866D01*
X286560Y92836D01*
X286722Y92802D01*
X286883Y92765D01*
X287044Y92723D01*
X287203Y92678D01*
X287361Y92628D01*
X287518Y92575D01*
X287674Y92518D01*
X287828Y92458D01*
X287981Y92393D01*
X288132Y92325D01*
X288281Y92254D01*
X288429Y92178D01*
X288575Y92100D01*
X288719Y92017D01*
X288861Y91932D01*
X289000Y91843D01*
X289138Y91750D01*
X289273Y91654D01*
X289406Y91555D01*
X289536Y91453D01*
X289664Y91348D01*
X289790Y91239D01*
X289912Y91128D01*
X290032Y91014D01*
X290150Y90896D01*
X290264Y90776D01*
X290375Y90654D01*
X290484Y90528D01*
X290589Y90400D01*
X290691Y90270D01*
X290790Y90137D01*
X290886Y90002D01*
X290979Y89864D01*
X291068Y89725D01*
X291153Y89583D01*
X291236Y89439D01*
X291314Y89293D01*
X291390Y89145D01*
X291461Y88996D01*
X291529Y88845D01*
X291594Y88692D01*
X291654Y88538D01*
X291711Y88382D01*
X291764Y88225D01*
X291814Y88067D01*
X291859Y87908D01*
X291901Y87747D01*
X291938Y87586D01*
X291972Y87424D01*
X292002Y87261D01*
X292028Y87097D01*
X292050Y86933D01*
X292068Y86768D01*
X292082Y86603D01*
X292092Y86437D01*
X292098Y86272D01*
X292100Y86106D01*
X292100Y83730D01*
X292100Y78740D01*
X292102Y78709D01*
X292107Y78679D01*
X292117Y78650D01*
X292129Y78622D01*
X292145Y78596D01*
X292164Y78572D01*
X292186Y78550D01*
X292210Y78531D01*
X292236Y78515D01*
X292264Y78503D01*
X292293Y78493D01*
X292323Y78488D01*
X292354Y78486D01*
D12*
X292354Y78486D03*
D15*
X208952Y239013D02*
X205563Y241651D01*
X203708Y239268D01*
X205323Y236716D02*
X208952Y239013D01*
X205323Y236716D02*
X203708Y239268D01*
X292100Y83730D02*
X289803Y80102D01*
X292354Y78486D01*
X294737Y80341D02*
X292100Y83730D01*
X294737Y80341D02*
X292354Y78486D01*
X264195Y342993D02*
X264195Y351005D01*
X264195Y342993D02*
X264195Y337743D01*
X264195Y351005D02*
X257800Y357400D01*
X133553Y357400D01*
X114368Y376585D01*
X114368Y402075D01*
X113030Y403352D01*
D12*
X264195Y337743D03*
D15*
X261725Y339480D02*
X264195Y342993D01*
X261725Y339480D02*
X264195Y337743D01*
X266665Y339480D02*
X264195Y342993D01*
X266665Y339480D02*
X264195Y337743D01*
X182836Y234007D02*
X182836Y205956D01*
X182836Y200706D01*
X182836Y234007D02*
X134762Y282082D01*
X83989Y389566D02*
X98285Y403862D01*
X98285Y418158D01*
X99822Y419862D01*
D12*
X182836Y200706D03*
D15*
X114300Y281940D02*
X83989Y312251D01*
X114300Y281940D02*
X134620Y281940D01*
X134762Y282082D01*
X83989Y312251D02*
X83989Y389566D01*
X182836Y205956D02*
X180366Y202443D01*
X182836Y200706D01*
X185306Y202443D02*
X182836Y205956D01*
X185306Y202443D02*
X182836Y200706D01*
M02*
