G04 EAGLE Gerber RS-274X export*
G75*
%MOMM*%
%FSLAX34Y34*%
%LPD*%
%IN*%
%IPPOS*%
%AMOC8*
5,1,8,0,0,1.08239X$1,22.5*%
G01*
%ADD10C,0.254000*%


D10*
X0Y10000D02*
X38Y9128D01*
X152Y8264D01*
X341Y7412D01*
X603Y6580D01*
X937Y5774D01*
X1340Y5000D01*
X1808Y4264D01*
X2340Y3572D01*
X2929Y2929D01*
X3572Y2340D01*
X4264Y1808D01*
X5000Y1340D01*
X5774Y937D01*
X6580Y603D01*
X7412Y341D01*
X8264Y152D01*
X9128Y38D01*
X10000Y0D01*
X440000Y0D01*
X440872Y38D01*
X441736Y152D01*
X442588Y341D01*
X443420Y603D01*
X444226Y937D01*
X445000Y1340D01*
X445736Y1808D01*
X446428Y2340D01*
X447071Y2929D01*
X447660Y3572D01*
X448192Y4264D01*
X448660Y5000D01*
X449063Y5774D01*
X449397Y6580D01*
X449659Y7412D01*
X449848Y8264D01*
X449962Y9128D01*
X450000Y10000D01*
X450000Y440000D01*
X449962Y440872D01*
X449848Y441736D01*
X449659Y442588D01*
X449397Y443420D01*
X449063Y444226D01*
X448660Y445000D01*
X448192Y445736D01*
X447660Y446428D01*
X447071Y447071D01*
X446428Y447660D01*
X445736Y448192D01*
X445000Y448660D01*
X444226Y449063D01*
X443420Y449397D01*
X442588Y449659D01*
X441736Y449848D01*
X440872Y449962D01*
X440000Y450000D01*
X10000Y450000D01*
X9128Y449962D01*
X8264Y449848D01*
X7412Y449659D01*
X6580Y449397D01*
X5774Y449063D01*
X5000Y448660D01*
X4264Y448192D01*
X3572Y447660D01*
X2929Y447071D01*
X2340Y446428D01*
X1808Y445736D01*
X1340Y445000D01*
X937Y444226D01*
X603Y443420D01*
X341Y442588D01*
X152Y441736D01*
X38Y440872D01*
X0Y440000D01*
X0Y10000D01*
X42000Y29529D02*
X41926Y28588D01*
X41779Y27657D01*
X41558Y26740D01*
X41267Y25843D01*
X40906Y24972D01*
X40478Y24132D01*
X39985Y23328D01*
X39431Y22565D01*
X38819Y21848D01*
X38152Y21181D01*
X37435Y20569D01*
X36672Y20015D01*
X35868Y19522D01*
X35028Y19094D01*
X34157Y18733D01*
X33260Y18442D01*
X32343Y18222D01*
X31412Y18074D01*
X30471Y18000D01*
X29529Y18000D01*
X28588Y18074D01*
X27657Y18222D01*
X26740Y18442D01*
X25843Y18733D01*
X24972Y19094D01*
X24132Y19522D01*
X23328Y20015D01*
X22565Y20569D01*
X21848Y21181D01*
X21181Y21848D01*
X20569Y22565D01*
X20015Y23328D01*
X19522Y24132D01*
X19094Y24972D01*
X18733Y25843D01*
X18442Y26740D01*
X18222Y27657D01*
X18074Y28588D01*
X18000Y29529D01*
X18000Y30471D01*
X18074Y31412D01*
X18222Y32343D01*
X18442Y33260D01*
X18733Y34157D01*
X19094Y35028D01*
X19522Y35868D01*
X20015Y36672D01*
X20569Y37435D01*
X21181Y38152D01*
X21848Y38819D01*
X22565Y39431D01*
X23328Y39985D01*
X24132Y40478D01*
X24972Y40906D01*
X25843Y41267D01*
X26740Y41558D01*
X27657Y41779D01*
X28588Y41926D01*
X29529Y42000D01*
X30471Y42000D01*
X31412Y41926D01*
X32343Y41779D01*
X33260Y41558D01*
X34157Y41267D01*
X35028Y40906D01*
X35868Y40478D01*
X36672Y39985D01*
X37435Y39431D01*
X38152Y38819D01*
X38819Y38152D01*
X39431Y37435D01*
X39985Y36672D01*
X40478Y35868D01*
X40906Y35028D01*
X41267Y34157D01*
X41558Y33260D01*
X41779Y32343D01*
X41926Y31412D01*
X42000Y30471D01*
X42000Y29529D01*
X432000Y29529D02*
X431926Y28588D01*
X431779Y27657D01*
X431558Y26740D01*
X431267Y25843D01*
X430906Y24972D01*
X430478Y24132D01*
X429985Y23328D01*
X429431Y22565D01*
X428819Y21848D01*
X428152Y21181D01*
X427435Y20569D01*
X426672Y20015D01*
X425868Y19522D01*
X425028Y19094D01*
X424157Y18733D01*
X423260Y18442D01*
X422343Y18222D01*
X421412Y18074D01*
X420471Y18000D01*
X419529Y18000D01*
X418588Y18074D01*
X417657Y18222D01*
X416740Y18442D01*
X415843Y18733D01*
X414972Y19094D01*
X414132Y19522D01*
X413328Y20015D01*
X412565Y20569D01*
X411848Y21181D01*
X411181Y21848D01*
X410569Y22565D01*
X410015Y23328D01*
X409522Y24132D01*
X409094Y24972D01*
X408733Y25843D01*
X408442Y26740D01*
X408222Y27657D01*
X408074Y28588D01*
X408000Y29529D01*
X408000Y30471D01*
X408074Y31412D01*
X408222Y32343D01*
X408442Y33260D01*
X408733Y34157D01*
X409094Y35028D01*
X409522Y35868D01*
X410015Y36672D01*
X410569Y37435D01*
X411181Y38152D01*
X411848Y38819D01*
X412565Y39431D01*
X413328Y39985D01*
X414132Y40478D01*
X414972Y40906D01*
X415843Y41267D01*
X416740Y41558D01*
X417657Y41779D01*
X418588Y41926D01*
X419529Y42000D01*
X420471Y42000D01*
X421412Y41926D01*
X422343Y41779D01*
X423260Y41558D01*
X424157Y41267D01*
X425028Y40906D01*
X425868Y40478D01*
X426672Y39985D01*
X427435Y39431D01*
X428152Y38819D01*
X428819Y38152D01*
X429431Y37435D01*
X429985Y36672D01*
X430478Y35868D01*
X430906Y35028D01*
X431267Y34157D01*
X431558Y33260D01*
X431779Y32343D01*
X431926Y31412D01*
X432000Y30471D01*
X432000Y29529D01*
X42000Y419529D02*
X41926Y418588D01*
X41779Y417657D01*
X41558Y416740D01*
X41267Y415843D01*
X40906Y414972D01*
X40478Y414132D01*
X39985Y413328D01*
X39431Y412565D01*
X38819Y411848D01*
X38152Y411181D01*
X37435Y410569D01*
X36672Y410015D01*
X35868Y409522D01*
X35028Y409094D01*
X34157Y408733D01*
X33260Y408442D01*
X32343Y408222D01*
X31412Y408074D01*
X30471Y408000D01*
X29529Y408000D01*
X28588Y408074D01*
X27657Y408222D01*
X26740Y408442D01*
X25843Y408733D01*
X24972Y409094D01*
X24132Y409522D01*
X23328Y410015D01*
X22565Y410569D01*
X21848Y411181D01*
X21181Y411848D01*
X20569Y412565D01*
X20015Y413328D01*
X19522Y414132D01*
X19094Y414972D01*
X18733Y415843D01*
X18442Y416740D01*
X18222Y417657D01*
X18074Y418588D01*
X18000Y419529D01*
X18000Y420471D01*
X18074Y421412D01*
X18222Y422343D01*
X18442Y423260D01*
X18733Y424157D01*
X19094Y425028D01*
X19522Y425868D01*
X20015Y426672D01*
X20569Y427435D01*
X21181Y428152D01*
X21848Y428819D01*
X22565Y429431D01*
X23328Y429985D01*
X24132Y430478D01*
X24972Y430906D01*
X25843Y431267D01*
X26740Y431558D01*
X27657Y431779D01*
X28588Y431926D01*
X29529Y432000D01*
X30471Y432000D01*
X31412Y431926D01*
X32343Y431779D01*
X33260Y431558D01*
X34157Y431267D01*
X35028Y430906D01*
X35868Y430478D01*
X36672Y429985D01*
X37435Y429431D01*
X38152Y428819D01*
X38819Y428152D01*
X39431Y427435D01*
X39985Y426672D01*
X40478Y425868D01*
X40906Y425028D01*
X41267Y424157D01*
X41558Y423260D01*
X41779Y422343D01*
X41926Y421412D01*
X42000Y420471D01*
X42000Y419529D01*
X432000Y419529D02*
X431926Y418588D01*
X431779Y417657D01*
X431558Y416740D01*
X431267Y415843D01*
X430906Y414972D01*
X430478Y414132D01*
X429985Y413328D01*
X429431Y412565D01*
X428819Y411848D01*
X428152Y411181D01*
X427435Y410569D01*
X426672Y410015D01*
X425868Y409522D01*
X425028Y409094D01*
X424157Y408733D01*
X423260Y408442D01*
X422343Y408222D01*
X421412Y408074D01*
X420471Y408000D01*
X419529Y408000D01*
X418588Y408074D01*
X417657Y408222D01*
X416740Y408442D01*
X415843Y408733D01*
X414972Y409094D01*
X414132Y409522D01*
X413328Y410015D01*
X412565Y410569D01*
X411848Y411181D01*
X411181Y411848D01*
X410569Y412565D01*
X410015Y413328D01*
X409522Y414132D01*
X409094Y414972D01*
X408733Y415843D01*
X408442Y416740D01*
X408222Y417657D01*
X408074Y418588D01*
X408000Y419529D01*
X408000Y420471D01*
X408074Y421412D01*
X408222Y422343D01*
X408442Y423260D01*
X408733Y424157D01*
X409094Y425028D01*
X409522Y425868D01*
X410015Y426672D01*
X410569Y427435D01*
X411181Y428152D01*
X411848Y428819D01*
X412565Y429431D01*
X413328Y429985D01*
X414132Y430478D01*
X414972Y430906D01*
X415843Y431267D01*
X416740Y431558D01*
X417657Y431779D01*
X418588Y431926D01*
X419529Y432000D01*
X420471Y432000D01*
X421412Y431926D01*
X422343Y431779D01*
X423260Y431558D01*
X424157Y431267D01*
X425028Y430906D01*
X425868Y430478D01*
X426672Y429985D01*
X427435Y429431D01*
X428152Y428819D01*
X428819Y428152D01*
X429431Y427435D01*
X429985Y426672D01*
X430478Y425868D01*
X430906Y425028D01*
X431267Y424157D01*
X431558Y423260D01*
X431779Y422343D01*
X431926Y421412D01*
X432000Y420471D01*
X432000Y419529D01*
M02*
