G04 EAGLE Gerber RS-274X export*
G75*
%MOMM*%
%FSLAX34Y34*%
%LPD*%
%INSilkscreen Top*%
%IPPOS*%
%AMOC8*
5,1,8,0,0,1.08239X$1,22.5*%
G01*
%ADD10C,0.127000*%
%ADD11C,0.101600*%
%ADD12C,0.076200*%
%ADD13C,0.200000*%
%ADD14C,0.300000*%
%ADD15C,0.254000*%
%ADD16C,0.203200*%
%ADD17C,0.050800*%

G36*
X263068Y440086D02*
X263068Y440086D01*
X263077Y440085D01*
X263209Y440106D01*
X263342Y440125D01*
X263349Y440128D01*
X263358Y440129D01*
X263479Y440186D01*
X263601Y440241D01*
X263607Y440246D01*
X263615Y440250D01*
X263716Y440338D01*
X263818Y440425D01*
X263823Y440432D01*
X263829Y440437D01*
X263901Y440550D01*
X263976Y440661D01*
X263978Y440669D01*
X263983Y440676D01*
X264021Y440805D01*
X264061Y440932D01*
X264062Y440941D01*
X264064Y440949D01*
X264065Y441083D01*
X264069Y441216D01*
X264066Y441225D01*
X264067Y441233D01*
X264051Y441284D01*
X263997Y441491D01*
X263977Y441524D01*
X263968Y441554D01*
X261968Y445554D01*
X261911Y445636D01*
X261862Y445723D01*
X261831Y445753D01*
X261807Y445788D01*
X261729Y445851D01*
X261658Y445921D01*
X261620Y445941D01*
X261587Y445968D01*
X261495Y446007D01*
X261407Y446054D01*
X261365Y446063D01*
X261325Y446080D01*
X261226Y446092D01*
X261129Y446113D01*
X261086Y446110D01*
X261043Y446115D01*
X260945Y446100D01*
X260845Y446092D01*
X260805Y446077D01*
X260762Y446071D01*
X260672Y446028D01*
X260579Y445994D01*
X260544Y445968D01*
X260505Y445950D01*
X260430Y445884D01*
X260350Y445825D01*
X260327Y445794D01*
X260291Y445763D01*
X260194Y445611D01*
X260152Y445554D01*
X258152Y441554D01*
X258149Y441546D01*
X258145Y441539D01*
X258104Y441411D01*
X258062Y441284D01*
X258061Y441276D01*
X258059Y441268D01*
X258055Y441133D01*
X258050Y441000D01*
X258052Y440992D01*
X258051Y440984D01*
X258085Y440854D01*
X258117Y440724D01*
X258121Y440717D01*
X258123Y440709D01*
X258191Y440594D01*
X258258Y440477D01*
X258264Y440472D01*
X258269Y440464D01*
X258366Y440372D01*
X258462Y440280D01*
X258470Y440276D01*
X258476Y440270D01*
X258595Y440209D01*
X258713Y440146D01*
X258721Y440144D01*
X258729Y440140D01*
X258781Y440132D01*
X258991Y440087D01*
X259029Y440090D01*
X259060Y440085D01*
X263060Y440085D01*
X263068Y440086D01*
G37*
D10*
X139700Y195580D02*
X157480Y195580D01*
X157480Y162560D01*
X139700Y162560D01*
X139700Y195580D01*
D11*
X151892Y150989D02*
X151892Y149408D01*
X151890Y149330D01*
X151884Y149253D01*
X151875Y149176D01*
X151862Y149100D01*
X151845Y149024D01*
X151824Y148949D01*
X151800Y148876D01*
X151772Y148803D01*
X151740Y148732D01*
X151705Y148663D01*
X151667Y148596D01*
X151626Y148530D01*
X151581Y148467D01*
X151533Y148406D01*
X151483Y148347D01*
X151429Y148291D01*
X151373Y148237D01*
X151314Y148187D01*
X151253Y148139D01*
X151190Y148094D01*
X151124Y148053D01*
X151057Y148015D01*
X150988Y147980D01*
X150917Y147948D01*
X150844Y147920D01*
X150771Y147896D01*
X150696Y147875D01*
X150620Y147858D01*
X150544Y147845D01*
X150467Y147836D01*
X150390Y147830D01*
X150312Y147828D01*
X146360Y147828D01*
X146282Y147830D01*
X146205Y147836D01*
X146128Y147845D01*
X146052Y147858D01*
X145976Y147875D01*
X145901Y147896D01*
X145827Y147920D01*
X145755Y147948D01*
X145684Y147980D01*
X145615Y148015D01*
X145547Y148053D01*
X145482Y148094D01*
X145418Y148139D01*
X145357Y148187D01*
X145298Y148238D01*
X145242Y148291D01*
X145189Y148347D01*
X145138Y148406D01*
X145090Y148467D01*
X145045Y148531D01*
X145004Y148596D01*
X144966Y148664D01*
X144931Y148733D01*
X144899Y148804D01*
X144871Y148876D01*
X144847Y148950D01*
X144826Y149025D01*
X144809Y149101D01*
X144796Y149177D01*
X144787Y149254D01*
X144781Y149331D01*
X144779Y149409D01*
X144780Y149408D02*
X144780Y150989D01*
X146360Y153951D02*
X144780Y155927D01*
X151892Y155927D01*
X151892Y157902D02*
X151892Y153951D01*
D10*
X200660Y109220D02*
X200660Y81280D01*
X200660Y109220D02*
X213360Y109220D01*
X213360Y81280D01*
X200660Y81280D01*
D11*
X197612Y84808D02*
X197612Y86558D01*
X197612Y84808D02*
X197610Y84727D01*
X197605Y84647D01*
X197595Y84566D01*
X197582Y84486D01*
X197566Y84407D01*
X197545Y84329D01*
X197521Y84252D01*
X197494Y84176D01*
X197463Y84101D01*
X197429Y84028D01*
X197391Y83956D01*
X197350Y83887D01*
X197306Y83819D01*
X197259Y83753D01*
X197208Y83690D01*
X197155Y83629D01*
X197099Y83571D01*
X197041Y83515D01*
X196980Y83462D01*
X196917Y83411D01*
X196851Y83364D01*
X196783Y83320D01*
X196714Y83279D01*
X196642Y83241D01*
X196569Y83207D01*
X196494Y83176D01*
X196418Y83149D01*
X196341Y83125D01*
X196263Y83104D01*
X196184Y83088D01*
X196104Y83075D01*
X196023Y83065D01*
X195943Y83060D01*
X195862Y83058D01*
X191488Y83058D01*
X191405Y83060D01*
X191322Y83066D01*
X191239Y83076D01*
X191157Y83090D01*
X191075Y83107D01*
X190995Y83129D01*
X190916Y83154D01*
X190838Y83183D01*
X190761Y83216D01*
X190686Y83253D01*
X190613Y83292D01*
X190542Y83336D01*
X190473Y83382D01*
X190406Y83432D01*
X190342Y83485D01*
X190280Y83541D01*
X190221Y83600D01*
X190165Y83662D01*
X190112Y83726D01*
X190063Y83793D01*
X190016Y83862D01*
X189972Y83933D01*
X189933Y84006D01*
X189896Y84081D01*
X189863Y84158D01*
X189834Y84236D01*
X189809Y84315D01*
X189787Y84395D01*
X189770Y84477D01*
X189756Y84559D01*
X189746Y84642D01*
X189740Y84725D01*
X189738Y84808D01*
X189738Y86558D01*
X191488Y89754D02*
X189738Y91941D01*
X197612Y91941D01*
X197612Y89754D02*
X197612Y94128D01*
X193675Y97754D02*
X193520Y97756D01*
X193365Y97761D01*
X193211Y97771D01*
X193056Y97784D01*
X192902Y97800D01*
X192749Y97820D01*
X192596Y97844D01*
X192443Y97872D01*
X192291Y97903D01*
X192141Y97938D01*
X191990Y97976D01*
X191841Y98018D01*
X191693Y98064D01*
X191546Y98113D01*
X191401Y98166D01*
X191256Y98222D01*
X191113Y98281D01*
X190972Y98344D01*
X190832Y98410D01*
X190832Y98411D02*
X190759Y98437D01*
X190688Y98468D01*
X190619Y98501D01*
X190551Y98538D01*
X190485Y98578D01*
X190421Y98621D01*
X190359Y98667D01*
X190299Y98716D01*
X190242Y98768D01*
X190187Y98823D01*
X190135Y98880D01*
X190086Y98939D01*
X190040Y99001D01*
X189996Y99065D01*
X189956Y99131D01*
X189919Y99199D01*
X189885Y99268D01*
X189855Y99339D01*
X189827Y99411D01*
X189804Y99485D01*
X189784Y99559D01*
X189767Y99635D01*
X189755Y99711D01*
X189745Y99788D01*
X189740Y99865D01*
X189738Y99942D01*
X189740Y100019D01*
X189745Y100096D01*
X189755Y100173D01*
X189767Y100249D01*
X189784Y100324D01*
X189804Y100399D01*
X189827Y100472D01*
X189854Y100545D01*
X189885Y100616D01*
X189919Y100685D01*
X189956Y100753D01*
X189996Y100819D01*
X190039Y100882D01*
X190086Y100944D01*
X190135Y101004D01*
X190187Y101061D01*
X190242Y101115D01*
X190299Y101167D01*
X190359Y101216D01*
X190420Y101262D01*
X190484Y101305D01*
X190550Y101345D01*
X190618Y101382D01*
X190688Y101416D01*
X190759Y101446D01*
X190831Y101473D01*
X190831Y101474D02*
X190971Y101540D01*
X191113Y101603D01*
X191256Y101662D01*
X191401Y101718D01*
X191546Y101771D01*
X191693Y101820D01*
X191841Y101866D01*
X191990Y101908D01*
X192140Y101946D01*
X192291Y101981D01*
X192443Y102012D01*
X192596Y102040D01*
X192749Y102064D01*
X192902Y102084D01*
X193056Y102100D01*
X193211Y102113D01*
X193365Y102123D01*
X193520Y102128D01*
X193675Y102130D01*
X193675Y97755D02*
X193830Y97757D01*
X193985Y97762D01*
X194139Y97772D01*
X194294Y97785D01*
X194448Y97801D01*
X194601Y97821D01*
X194754Y97845D01*
X194907Y97873D01*
X195059Y97904D01*
X195209Y97939D01*
X195360Y97977D01*
X195509Y98019D01*
X195657Y98065D01*
X195804Y98114D01*
X195949Y98167D01*
X196094Y98223D01*
X196237Y98282D01*
X196378Y98345D01*
X196518Y98411D01*
X196591Y98437D01*
X196662Y98468D01*
X196731Y98501D01*
X196799Y98538D01*
X196865Y98578D01*
X196929Y98621D01*
X196991Y98667D01*
X197051Y98716D01*
X197108Y98768D01*
X197163Y98823D01*
X197215Y98880D01*
X197264Y98939D01*
X197310Y99001D01*
X197354Y99065D01*
X197394Y99131D01*
X197431Y99199D01*
X197465Y99268D01*
X197495Y99339D01*
X197523Y99411D01*
X197546Y99485D01*
X197566Y99559D01*
X197583Y99635D01*
X197595Y99711D01*
X197605Y99788D01*
X197610Y99865D01*
X197612Y99942D01*
X196519Y101474D02*
X196379Y101540D01*
X196237Y101603D01*
X196094Y101662D01*
X195949Y101718D01*
X195804Y101771D01*
X195657Y101820D01*
X195509Y101866D01*
X195360Y101908D01*
X195210Y101946D01*
X195059Y101981D01*
X194907Y102012D01*
X194754Y102040D01*
X194601Y102064D01*
X194448Y102084D01*
X194294Y102100D01*
X194139Y102113D01*
X193985Y102123D01*
X193830Y102128D01*
X193675Y102130D01*
X196519Y101473D02*
X196592Y101447D01*
X196663Y101416D01*
X196732Y101383D01*
X196800Y101346D01*
X196866Y101306D01*
X196930Y101263D01*
X196992Y101217D01*
X197052Y101168D01*
X197109Y101116D01*
X197164Y101061D01*
X197216Y101004D01*
X197265Y100945D01*
X197311Y100883D01*
X197355Y100819D01*
X197395Y100753D01*
X197432Y100685D01*
X197466Y100616D01*
X197496Y100545D01*
X197524Y100473D01*
X197547Y100399D01*
X197567Y100325D01*
X197584Y100249D01*
X197596Y100173D01*
X197606Y100096D01*
X197611Y100019D01*
X197613Y99942D01*
X195862Y98192D02*
X191488Y101692D01*
D10*
X293370Y180340D02*
X293370Y208280D01*
X293370Y180340D02*
X280670Y180340D01*
X280670Y208280D01*
X293370Y208280D01*
D12*
X290449Y162405D02*
X290449Y160768D01*
X290447Y160690D01*
X290442Y160612D01*
X290432Y160535D01*
X290419Y160458D01*
X290403Y160382D01*
X290383Y160307D01*
X290359Y160233D01*
X290332Y160160D01*
X290301Y160088D01*
X290267Y160018D01*
X290230Y159950D01*
X290189Y159883D01*
X290145Y159818D01*
X290099Y159756D01*
X290049Y159696D01*
X289997Y159638D01*
X289942Y159583D01*
X289884Y159531D01*
X289824Y159481D01*
X289762Y159435D01*
X289697Y159391D01*
X289631Y159350D01*
X289562Y159313D01*
X289492Y159279D01*
X289420Y159248D01*
X289347Y159221D01*
X289273Y159197D01*
X289198Y159177D01*
X289122Y159161D01*
X289045Y159148D01*
X288968Y159138D01*
X288890Y159133D01*
X288812Y159131D01*
X284720Y159131D01*
X284640Y159133D01*
X284560Y159139D01*
X284480Y159149D01*
X284401Y159162D01*
X284322Y159180D01*
X284245Y159201D01*
X284169Y159227D01*
X284094Y159256D01*
X284020Y159288D01*
X283948Y159324D01*
X283878Y159364D01*
X283811Y159407D01*
X283745Y159453D01*
X283682Y159503D01*
X283621Y159555D01*
X283562Y159610D01*
X283507Y159669D01*
X283455Y159729D01*
X283405Y159793D01*
X283359Y159858D01*
X283316Y159926D01*
X283276Y159996D01*
X283240Y160068D01*
X283208Y160142D01*
X283179Y160216D01*
X283154Y160293D01*
X283132Y160370D01*
X283114Y160449D01*
X283101Y160528D01*
X283091Y160607D01*
X283085Y160688D01*
X283083Y160768D01*
X283083Y162405D01*
X284720Y165250D02*
X283083Y167296D01*
X290449Y167296D01*
X290449Y165250D02*
X290449Y169342D01*
X284720Y172565D02*
X283083Y174611D01*
X290449Y174611D01*
X290449Y172565D02*
X290449Y176658D01*
D10*
X297180Y176530D02*
X314960Y176530D01*
X297180Y176530D02*
X297180Y209550D01*
X314960Y209550D01*
X314960Y176530D01*
D12*
X309499Y214108D02*
X309499Y215745D01*
X309499Y214108D02*
X309497Y214030D01*
X309492Y213952D01*
X309482Y213875D01*
X309469Y213798D01*
X309453Y213722D01*
X309433Y213647D01*
X309409Y213573D01*
X309382Y213500D01*
X309351Y213428D01*
X309317Y213358D01*
X309280Y213290D01*
X309239Y213223D01*
X309195Y213158D01*
X309149Y213096D01*
X309099Y213036D01*
X309047Y212978D01*
X308992Y212923D01*
X308934Y212871D01*
X308874Y212821D01*
X308812Y212775D01*
X308747Y212731D01*
X308681Y212690D01*
X308612Y212653D01*
X308542Y212619D01*
X308470Y212588D01*
X308397Y212561D01*
X308323Y212537D01*
X308248Y212517D01*
X308172Y212501D01*
X308095Y212488D01*
X308018Y212478D01*
X307940Y212473D01*
X307862Y212471D01*
X303770Y212471D01*
X303690Y212473D01*
X303610Y212479D01*
X303530Y212489D01*
X303451Y212502D01*
X303372Y212520D01*
X303295Y212541D01*
X303219Y212567D01*
X303144Y212596D01*
X303070Y212628D01*
X302998Y212664D01*
X302928Y212704D01*
X302861Y212747D01*
X302795Y212793D01*
X302732Y212843D01*
X302671Y212895D01*
X302612Y212950D01*
X302557Y213009D01*
X302505Y213069D01*
X302455Y213133D01*
X302409Y213198D01*
X302366Y213266D01*
X302326Y213336D01*
X302290Y213408D01*
X302258Y213482D01*
X302229Y213556D01*
X302204Y213633D01*
X302182Y213710D01*
X302164Y213789D01*
X302151Y213868D01*
X302141Y213947D01*
X302135Y214028D01*
X302133Y214108D01*
X302133Y215745D01*
X303770Y218590D02*
X302133Y220636D01*
X309499Y220636D01*
X309499Y218590D02*
X309499Y222682D01*
X303975Y229998D02*
X303890Y229996D01*
X303805Y229990D01*
X303721Y229980D01*
X303637Y229967D01*
X303553Y229949D01*
X303471Y229928D01*
X303390Y229903D01*
X303310Y229874D01*
X303231Y229841D01*
X303154Y229805D01*
X303079Y229765D01*
X303005Y229722D01*
X302934Y229676D01*
X302865Y229626D01*
X302798Y229573D01*
X302734Y229517D01*
X302673Y229458D01*
X302614Y229397D01*
X302558Y229333D01*
X302505Y229266D01*
X302455Y229197D01*
X302409Y229126D01*
X302366Y229052D01*
X302326Y228977D01*
X302290Y228900D01*
X302257Y228821D01*
X302228Y228741D01*
X302203Y228660D01*
X302182Y228578D01*
X302164Y228494D01*
X302151Y228410D01*
X302141Y228326D01*
X302135Y228241D01*
X302133Y228156D01*
X302135Y228060D01*
X302141Y227964D01*
X302151Y227869D01*
X302164Y227774D01*
X302182Y227679D01*
X302203Y227586D01*
X302228Y227493D01*
X302257Y227402D01*
X302289Y227311D01*
X302325Y227222D01*
X302365Y227135D01*
X302408Y227049D01*
X302454Y226965D01*
X302504Y226883D01*
X302558Y226803D01*
X302614Y226726D01*
X302674Y226651D01*
X302736Y226578D01*
X302802Y226508D01*
X302870Y226440D01*
X302941Y226375D01*
X303014Y226314D01*
X303090Y226255D01*
X303169Y226199D01*
X303249Y226147D01*
X303332Y226098D01*
X303416Y226052D01*
X303502Y226010D01*
X303590Y225972D01*
X303679Y225937D01*
X303770Y225905D01*
X305407Y229384D02*
X305348Y229444D01*
X305286Y229501D01*
X305222Y229556D01*
X305155Y229607D01*
X305086Y229656D01*
X305016Y229702D01*
X304943Y229745D01*
X304869Y229785D01*
X304793Y229821D01*
X304715Y229854D01*
X304636Y229884D01*
X304556Y229911D01*
X304475Y229934D01*
X304393Y229953D01*
X304311Y229969D01*
X304227Y229982D01*
X304143Y229991D01*
X304059Y229996D01*
X303975Y229998D01*
X305407Y229384D02*
X309499Y225905D01*
X309499Y229998D01*
D10*
X326390Y74930D02*
X354330Y74930D01*
X326390Y74930D02*
X326390Y87630D01*
X354330Y87630D01*
X354330Y74930D01*
D11*
X358091Y76708D02*
X359840Y76708D01*
X358091Y76708D02*
X358010Y76710D01*
X357930Y76715D01*
X357849Y76725D01*
X357769Y76738D01*
X357690Y76754D01*
X357612Y76775D01*
X357535Y76799D01*
X357459Y76826D01*
X357384Y76857D01*
X357311Y76891D01*
X357239Y76929D01*
X357170Y76970D01*
X357102Y77014D01*
X357036Y77061D01*
X356973Y77112D01*
X356912Y77165D01*
X356854Y77221D01*
X356798Y77279D01*
X356745Y77340D01*
X356694Y77403D01*
X356647Y77469D01*
X356603Y77537D01*
X356562Y77606D01*
X356524Y77678D01*
X356490Y77751D01*
X356459Y77826D01*
X356432Y77902D01*
X356408Y77979D01*
X356387Y78057D01*
X356371Y78136D01*
X356358Y78216D01*
X356348Y78297D01*
X356343Y78377D01*
X356341Y78458D01*
X356341Y82832D01*
X356343Y82915D01*
X356349Y82998D01*
X356359Y83081D01*
X356373Y83163D01*
X356390Y83245D01*
X356412Y83325D01*
X356437Y83404D01*
X356466Y83482D01*
X356499Y83559D01*
X356536Y83634D01*
X356575Y83707D01*
X356619Y83778D01*
X356665Y83847D01*
X356715Y83914D01*
X356768Y83978D01*
X356824Y84040D01*
X356883Y84099D01*
X356945Y84155D01*
X357009Y84208D01*
X357076Y84257D01*
X357145Y84304D01*
X357216Y84348D01*
X357289Y84387D01*
X357364Y84424D01*
X357441Y84457D01*
X357519Y84486D01*
X357598Y84511D01*
X357678Y84533D01*
X357760Y84550D01*
X357842Y84564D01*
X357925Y84574D01*
X358008Y84580D01*
X358091Y84582D01*
X359840Y84582D01*
X363037Y82832D02*
X365224Y84582D01*
X365224Y76708D01*
X363037Y76708D02*
X367411Y76708D01*
X371038Y76708D02*
X373225Y76708D01*
X373318Y76710D01*
X373410Y76716D01*
X373503Y76726D01*
X373595Y76739D01*
X373686Y76757D01*
X373776Y76779D01*
X373865Y76804D01*
X373954Y76833D01*
X374040Y76866D01*
X374126Y76902D01*
X374210Y76942D01*
X374292Y76986D01*
X374372Y77033D01*
X374450Y77083D01*
X374525Y77137D01*
X374599Y77193D01*
X374670Y77253D01*
X374738Y77316D01*
X374804Y77382D01*
X374867Y77450D01*
X374927Y77521D01*
X374983Y77595D01*
X375037Y77670D01*
X375087Y77748D01*
X375134Y77828D01*
X375178Y77910D01*
X375218Y77994D01*
X375254Y78080D01*
X375287Y78166D01*
X375316Y78255D01*
X375341Y78344D01*
X375363Y78434D01*
X375381Y78525D01*
X375394Y78617D01*
X375404Y78710D01*
X375410Y78802D01*
X375412Y78895D01*
X375410Y78988D01*
X375404Y79080D01*
X375394Y79173D01*
X375381Y79265D01*
X375363Y79356D01*
X375341Y79446D01*
X375316Y79535D01*
X375287Y79624D01*
X375254Y79710D01*
X375218Y79796D01*
X375178Y79880D01*
X375134Y79962D01*
X375087Y80042D01*
X375037Y80120D01*
X374983Y80195D01*
X374927Y80269D01*
X374867Y80340D01*
X374804Y80408D01*
X374738Y80474D01*
X374670Y80537D01*
X374599Y80597D01*
X374525Y80653D01*
X374450Y80707D01*
X374372Y80757D01*
X374292Y80804D01*
X374210Y80848D01*
X374126Y80888D01*
X374040Y80924D01*
X373954Y80957D01*
X373865Y80986D01*
X373776Y81011D01*
X373686Y81033D01*
X373595Y81051D01*
X373503Y81064D01*
X373410Y81074D01*
X373318Y81080D01*
X373225Y81082D01*
X373662Y84582D02*
X371038Y84582D01*
X373662Y84582D02*
X373744Y84580D01*
X373826Y84574D01*
X373907Y84565D01*
X373988Y84551D01*
X374069Y84534D01*
X374148Y84513D01*
X374226Y84489D01*
X374303Y84460D01*
X374379Y84428D01*
X374453Y84393D01*
X374525Y84354D01*
X374596Y84312D01*
X374664Y84267D01*
X374730Y84218D01*
X374794Y84167D01*
X374855Y84112D01*
X374914Y84055D01*
X374970Y83995D01*
X375023Y83932D01*
X375073Y83867D01*
X375120Y83800D01*
X375164Y83731D01*
X375204Y83659D01*
X375241Y83586D01*
X375275Y83511D01*
X375305Y83435D01*
X375331Y83357D01*
X375354Y83278D01*
X375373Y83199D01*
X375388Y83118D01*
X375400Y83037D01*
X375408Y82955D01*
X375412Y82873D01*
X375412Y82791D01*
X375408Y82709D01*
X375400Y82627D01*
X375388Y82546D01*
X375373Y82465D01*
X375354Y82386D01*
X375331Y82307D01*
X375305Y82229D01*
X375275Y82153D01*
X375241Y82078D01*
X375204Y82005D01*
X375164Y81933D01*
X375120Y81864D01*
X375073Y81797D01*
X375023Y81732D01*
X374970Y81669D01*
X374914Y81609D01*
X374855Y81552D01*
X374794Y81497D01*
X374730Y81446D01*
X374664Y81397D01*
X374596Y81352D01*
X374525Y81310D01*
X374453Y81271D01*
X374379Y81236D01*
X374303Y81204D01*
X374226Y81175D01*
X374148Y81151D01*
X374069Y81130D01*
X373988Y81113D01*
X373907Y81099D01*
X373826Y81090D01*
X373744Y81084D01*
X373662Y81082D01*
X371912Y81082D01*
D10*
X391668Y245872D02*
X391668Y273812D01*
X404368Y273812D01*
X404368Y245872D01*
X391668Y245872D01*
D12*
X401447Y227937D02*
X401447Y226300D01*
X401445Y226222D01*
X401440Y226144D01*
X401430Y226067D01*
X401417Y225990D01*
X401401Y225914D01*
X401381Y225839D01*
X401357Y225765D01*
X401330Y225692D01*
X401299Y225620D01*
X401265Y225550D01*
X401228Y225482D01*
X401187Y225415D01*
X401143Y225350D01*
X401097Y225288D01*
X401047Y225228D01*
X400995Y225170D01*
X400940Y225115D01*
X400882Y225063D01*
X400822Y225013D01*
X400760Y224967D01*
X400695Y224923D01*
X400629Y224882D01*
X400560Y224845D01*
X400490Y224811D01*
X400418Y224780D01*
X400345Y224753D01*
X400271Y224729D01*
X400196Y224709D01*
X400120Y224693D01*
X400043Y224680D01*
X399966Y224670D01*
X399888Y224665D01*
X399810Y224663D01*
X395718Y224663D01*
X395638Y224665D01*
X395558Y224671D01*
X395478Y224681D01*
X395399Y224694D01*
X395320Y224712D01*
X395243Y224733D01*
X395167Y224759D01*
X395092Y224788D01*
X395018Y224820D01*
X394946Y224856D01*
X394876Y224896D01*
X394809Y224939D01*
X394743Y224985D01*
X394680Y225035D01*
X394619Y225087D01*
X394560Y225142D01*
X394505Y225201D01*
X394453Y225261D01*
X394403Y225325D01*
X394357Y225390D01*
X394314Y225458D01*
X394274Y225528D01*
X394238Y225600D01*
X394206Y225674D01*
X394177Y225748D01*
X394152Y225825D01*
X394130Y225902D01*
X394112Y225981D01*
X394099Y226060D01*
X394089Y226139D01*
X394083Y226220D01*
X394081Y226300D01*
X394081Y227937D01*
X395718Y230782D02*
X394081Y232828D01*
X401447Y232828D01*
X401447Y230782D02*
X401447Y234874D01*
X399810Y238097D02*
X394081Y239734D01*
X399810Y238097D02*
X399810Y242190D01*
X398173Y240962D02*
X401447Y240962D01*
D10*
X44450Y157480D02*
X44450Y129540D01*
X31750Y129540D01*
X31750Y157480D01*
X44450Y157480D01*
D11*
X41402Y109418D02*
X41402Y107668D01*
X41400Y107587D01*
X41395Y107507D01*
X41385Y107426D01*
X41372Y107346D01*
X41356Y107267D01*
X41335Y107189D01*
X41311Y107112D01*
X41284Y107036D01*
X41253Y106961D01*
X41219Y106888D01*
X41181Y106816D01*
X41140Y106747D01*
X41096Y106679D01*
X41049Y106613D01*
X40998Y106550D01*
X40945Y106489D01*
X40889Y106431D01*
X40831Y106375D01*
X40770Y106322D01*
X40707Y106271D01*
X40641Y106224D01*
X40573Y106180D01*
X40504Y106139D01*
X40432Y106101D01*
X40359Y106067D01*
X40284Y106036D01*
X40208Y106009D01*
X40131Y105985D01*
X40053Y105964D01*
X39974Y105948D01*
X39894Y105935D01*
X39813Y105925D01*
X39733Y105920D01*
X39652Y105918D01*
X35278Y105918D01*
X35195Y105920D01*
X35112Y105926D01*
X35029Y105936D01*
X34947Y105950D01*
X34865Y105967D01*
X34785Y105989D01*
X34706Y106014D01*
X34628Y106043D01*
X34551Y106076D01*
X34476Y106113D01*
X34403Y106152D01*
X34332Y106196D01*
X34263Y106242D01*
X34196Y106292D01*
X34132Y106345D01*
X34070Y106401D01*
X34011Y106460D01*
X33955Y106522D01*
X33902Y106586D01*
X33853Y106653D01*
X33806Y106722D01*
X33762Y106793D01*
X33723Y106866D01*
X33686Y106941D01*
X33653Y107018D01*
X33624Y107096D01*
X33599Y107175D01*
X33577Y107255D01*
X33560Y107337D01*
X33546Y107419D01*
X33536Y107502D01*
X33530Y107585D01*
X33528Y107668D01*
X33528Y109418D01*
X35278Y112614D02*
X33528Y114801D01*
X41402Y114801D01*
X41402Y112614D02*
X41402Y116988D01*
X37028Y120615D02*
X37028Y123239D01*
X37027Y123239D02*
X37029Y123320D01*
X37034Y123400D01*
X37044Y123481D01*
X37057Y123561D01*
X37073Y123640D01*
X37094Y123718D01*
X37118Y123795D01*
X37145Y123871D01*
X37176Y123946D01*
X37210Y124019D01*
X37248Y124091D01*
X37289Y124160D01*
X37333Y124228D01*
X37380Y124294D01*
X37431Y124357D01*
X37484Y124418D01*
X37540Y124476D01*
X37598Y124532D01*
X37659Y124585D01*
X37722Y124636D01*
X37788Y124683D01*
X37856Y124727D01*
X37925Y124768D01*
X37997Y124806D01*
X38070Y124840D01*
X38145Y124871D01*
X38221Y124898D01*
X38298Y124922D01*
X38376Y124943D01*
X38455Y124959D01*
X38535Y124972D01*
X38616Y124982D01*
X38696Y124987D01*
X38777Y124989D01*
X39215Y124989D01*
X39308Y124987D01*
X39400Y124981D01*
X39493Y124971D01*
X39585Y124958D01*
X39676Y124940D01*
X39766Y124918D01*
X39855Y124893D01*
X39944Y124864D01*
X40030Y124831D01*
X40116Y124795D01*
X40200Y124755D01*
X40282Y124711D01*
X40362Y124664D01*
X40440Y124614D01*
X40515Y124560D01*
X40589Y124504D01*
X40660Y124444D01*
X40728Y124381D01*
X40794Y124315D01*
X40857Y124247D01*
X40917Y124176D01*
X40973Y124102D01*
X41027Y124027D01*
X41077Y123949D01*
X41124Y123869D01*
X41168Y123787D01*
X41208Y123703D01*
X41244Y123617D01*
X41277Y123531D01*
X41306Y123442D01*
X41331Y123353D01*
X41353Y123263D01*
X41371Y123172D01*
X41384Y123080D01*
X41394Y122987D01*
X41400Y122895D01*
X41402Y122802D01*
X41400Y122709D01*
X41394Y122617D01*
X41384Y122524D01*
X41371Y122432D01*
X41353Y122341D01*
X41331Y122251D01*
X41306Y122162D01*
X41277Y122073D01*
X41244Y121987D01*
X41208Y121901D01*
X41168Y121817D01*
X41124Y121735D01*
X41077Y121655D01*
X41027Y121577D01*
X40973Y121502D01*
X40917Y121428D01*
X40857Y121357D01*
X40794Y121289D01*
X40728Y121223D01*
X40660Y121160D01*
X40589Y121100D01*
X40515Y121044D01*
X40440Y120990D01*
X40362Y120940D01*
X40282Y120893D01*
X40200Y120849D01*
X40116Y120809D01*
X40030Y120773D01*
X39944Y120740D01*
X39855Y120711D01*
X39766Y120686D01*
X39676Y120664D01*
X39585Y120646D01*
X39493Y120633D01*
X39400Y120623D01*
X39308Y120617D01*
X39215Y120615D01*
X37028Y120615D01*
X37028Y120614D02*
X36911Y120616D01*
X36794Y120622D01*
X36678Y120632D01*
X36561Y120645D01*
X36446Y120663D01*
X36331Y120684D01*
X36217Y120709D01*
X36103Y120738D01*
X35991Y120771D01*
X35880Y120808D01*
X35770Y120848D01*
X35662Y120892D01*
X35555Y120939D01*
X35449Y120990D01*
X35346Y121045D01*
X35244Y121103D01*
X35145Y121164D01*
X35047Y121228D01*
X34952Y121296D01*
X34859Y121367D01*
X34768Y121441D01*
X34680Y121518D01*
X34595Y121598D01*
X34512Y121681D01*
X34432Y121766D01*
X34355Y121854D01*
X34281Y121945D01*
X34210Y122038D01*
X34142Y122133D01*
X34078Y122231D01*
X34017Y122330D01*
X33959Y122432D01*
X33904Y122535D01*
X33853Y122641D01*
X33806Y122748D01*
X33762Y122856D01*
X33722Y122966D01*
X33685Y123077D01*
X33652Y123189D01*
X33623Y123303D01*
X33598Y123417D01*
X33577Y123532D01*
X33559Y123647D01*
X33546Y123764D01*
X33536Y123880D01*
X33530Y123997D01*
X33528Y124114D01*
D10*
X86360Y389890D02*
X114300Y389890D01*
X114300Y377190D01*
X86360Y377190D01*
X86360Y389890D01*
D11*
X92258Y392938D02*
X93839Y392938D01*
X92258Y392938D02*
X92180Y392940D01*
X92103Y392946D01*
X92026Y392955D01*
X91950Y392968D01*
X91874Y392985D01*
X91799Y393006D01*
X91726Y393030D01*
X91653Y393058D01*
X91582Y393090D01*
X91513Y393125D01*
X91446Y393163D01*
X91380Y393204D01*
X91317Y393249D01*
X91256Y393297D01*
X91197Y393347D01*
X91141Y393401D01*
X91087Y393457D01*
X91037Y393516D01*
X90989Y393577D01*
X90944Y393640D01*
X90903Y393706D01*
X90865Y393773D01*
X90830Y393842D01*
X90798Y393913D01*
X90770Y393986D01*
X90746Y394059D01*
X90725Y394134D01*
X90708Y394210D01*
X90695Y394286D01*
X90686Y394363D01*
X90680Y394440D01*
X90678Y394518D01*
X90678Y398470D01*
X90680Y398548D01*
X90686Y398625D01*
X90695Y398702D01*
X90708Y398778D01*
X90725Y398854D01*
X90746Y398929D01*
X90770Y399002D01*
X90798Y399075D01*
X90830Y399146D01*
X90865Y399215D01*
X90903Y399282D01*
X90944Y399348D01*
X90989Y399411D01*
X91037Y399472D01*
X91087Y399531D01*
X91141Y399587D01*
X91197Y399641D01*
X91256Y399691D01*
X91317Y399739D01*
X91380Y399784D01*
X91446Y399825D01*
X91513Y399863D01*
X91582Y399898D01*
X91653Y399930D01*
X91726Y399958D01*
X91799Y399982D01*
X91874Y400003D01*
X91950Y400020D01*
X92026Y400033D01*
X92103Y400042D01*
X92180Y400048D01*
X92258Y400050D01*
X93839Y400050D01*
X96801Y398470D02*
X98777Y400050D01*
X98777Y392938D01*
X100752Y392938D02*
X96801Y392938D01*
X104116Y399260D02*
X104116Y400050D01*
X108068Y400050D01*
X106092Y392938D01*
D10*
X162560Y194310D02*
X162560Y166370D01*
X162560Y194310D02*
X175260Y194310D01*
X175260Y166370D01*
X162560Y166370D01*
D11*
X172212Y153529D02*
X172212Y151948D01*
X172210Y151870D01*
X172204Y151793D01*
X172195Y151716D01*
X172182Y151640D01*
X172165Y151564D01*
X172144Y151489D01*
X172120Y151416D01*
X172092Y151343D01*
X172060Y151272D01*
X172025Y151203D01*
X171987Y151136D01*
X171946Y151070D01*
X171901Y151007D01*
X171853Y150946D01*
X171803Y150887D01*
X171749Y150831D01*
X171693Y150777D01*
X171634Y150727D01*
X171573Y150679D01*
X171510Y150634D01*
X171444Y150593D01*
X171377Y150555D01*
X171308Y150520D01*
X171237Y150488D01*
X171164Y150460D01*
X171091Y150436D01*
X171016Y150415D01*
X170940Y150398D01*
X170864Y150385D01*
X170787Y150376D01*
X170710Y150370D01*
X170632Y150368D01*
X166680Y150368D01*
X166602Y150370D01*
X166525Y150376D01*
X166448Y150385D01*
X166372Y150398D01*
X166296Y150415D01*
X166221Y150436D01*
X166147Y150460D01*
X166075Y150488D01*
X166004Y150520D01*
X165935Y150555D01*
X165867Y150593D01*
X165802Y150634D01*
X165738Y150679D01*
X165677Y150727D01*
X165618Y150778D01*
X165562Y150831D01*
X165509Y150887D01*
X165458Y150946D01*
X165410Y151007D01*
X165365Y151071D01*
X165324Y151136D01*
X165286Y151204D01*
X165251Y151273D01*
X165219Y151344D01*
X165191Y151416D01*
X165167Y151490D01*
X165146Y151565D01*
X165129Y151641D01*
X165116Y151717D01*
X165107Y151794D01*
X165101Y151871D01*
X165099Y151949D01*
X165100Y151948D02*
X165100Y153529D01*
X165100Y158664D02*
X165102Y158746D01*
X165108Y158828D01*
X165117Y158910D01*
X165130Y158991D01*
X165147Y159071D01*
X165168Y159151D01*
X165192Y159229D01*
X165220Y159306D01*
X165251Y159382D01*
X165286Y159457D01*
X165325Y159529D01*
X165366Y159600D01*
X165411Y159669D01*
X165459Y159735D01*
X165510Y159800D01*
X165564Y159862D01*
X165621Y159921D01*
X165680Y159978D01*
X165742Y160032D01*
X165807Y160083D01*
X165873Y160131D01*
X165942Y160176D01*
X166013Y160217D01*
X166085Y160256D01*
X166160Y160291D01*
X166236Y160322D01*
X166313Y160350D01*
X166391Y160374D01*
X166471Y160395D01*
X166551Y160412D01*
X166632Y160425D01*
X166714Y160434D01*
X166796Y160440D01*
X166878Y160442D01*
X165100Y158664D02*
X165102Y158571D01*
X165108Y158479D01*
X165117Y158387D01*
X165130Y158295D01*
X165147Y158204D01*
X165167Y158114D01*
X165191Y158024D01*
X165219Y157936D01*
X165251Y157848D01*
X165285Y157763D01*
X165324Y157678D01*
X165365Y157596D01*
X165410Y157515D01*
X165459Y157435D01*
X165510Y157358D01*
X165564Y157283D01*
X165622Y157211D01*
X165682Y157140D01*
X165746Y157073D01*
X165811Y157008D01*
X165880Y156945D01*
X165951Y156886D01*
X166024Y156829D01*
X166100Y156775D01*
X166177Y156725D01*
X166257Y156677D01*
X166339Y156633D01*
X166422Y156593D01*
X166507Y156555D01*
X166593Y156521D01*
X166680Y156491D01*
X168261Y159850D02*
X168200Y159911D01*
X168137Y159969D01*
X168071Y160024D01*
X168003Y160077D01*
X167932Y160126D01*
X167860Y160171D01*
X167785Y160214D01*
X167709Y160253D01*
X167630Y160289D01*
X167551Y160321D01*
X167470Y160349D01*
X167387Y160374D01*
X167304Y160395D01*
X167220Y160412D01*
X167135Y160426D01*
X167050Y160435D01*
X166964Y160441D01*
X166878Y160443D01*
X168261Y159850D02*
X172212Y156491D01*
X172212Y160442D01*
D10*
X200660Y313690D02*
X200660Y331470D01*
X200660Y313690D02*
X167640Y313690D01*
X167640Y331470D01*
X200660Y331470D01*
D11*
X181808Y334518D02*
X180058Y334518D01*
X179977Y334520D01*
X179897Y334525D01*
X179816Y334535D01*
X179736Y334548D01*
X179657Y334564D01*
X179579Y334585D01*
X179502Y334609D01*
X179426Y334636D01*
X179351Y334667D01*
X179278Y334701D01*
X179206Y334739D01*
X179137Y334780D01*
X179069Y334824D01*
X179003Y334871D01*
X178940Y334922D01*
X178879Y334975D01*
X178821Y335031D01*
X178765Y335089D01*
X178712Y335150D01*
X178661Y335213D01*
X178614Y335279D01*
X178570Y335347D01*
X178529Y335416D01*
X178491Y335488D01*
X178457Y335561D01*
X178426Y335636D01*
X178399Y335712D01*
X178375Y335789D01*
X178354Y335867D01*
X178338Y335946D01*
X178325Y336026D01*
X178315Y336107D01*
X178310Y336187D01*
X178308Y336268D01*
X178308Y340642D01*
X178310Y340725D01*
X178316Y340808D01*
X178326Y340891D01*
X178340Y340973D01*
X178357Y341055D01*
X178379Y341135D01*
X178404Y341214D01*
X178433Y341292D01*
X178466Y341369D01*
X178503Y341444D01*
X178542Y341517D01*
X178586Y341588D01*
X178632Y341657D01*
X178682Y341724D01*
X178735Y341788D01*
X178791Y341850D01*
X178850Y341909D01*
X178912Y341965D01*
X178976Y342018D01*
X179043Y342067D01*
X179112Y342114D01*
X179183Y342158D01*
X179256Y342197D01*
X179331Y342234D01*
X179408Y342267D01*
X179486Y342296D01*
X179565Y342321D01*
X179645Y342343D01*
X179727Y342360D01*
X179809Y342374D01*
X179892Y342384D01*
X179975Y342390D01*
X180058Y342392D01*
X181808Y342392D01*
X185004Y334518D02*
X187191Y334518D01*
X187284Y334520D01*
X187376Y334526D01*
X187469Y334536D01*
X187561Y334549D01*
X187652Y334567D01*
X187742Y334589D01*
X187831Y334614D01*
X187920Y334643D01*
X188006Y334676D01*
X188092Y334712D01*
X188176Y334752D01*
X188258Y334796D01*
X188338Y334843D01*
X188416Y334893D01*
X188491Y334947D01*
X188565Y335003D01*
X188636Y335063D01*
X188704Y335126D01*
X188770Y335192D01*
X188833Y335260D01*
X188893Y335331D01*
X188949Y335405D01*
X189003Y335480D01*
X189053Y335558D01*
X189100Y335638D01*
X189144Y335720D01*
X189184Y335804D01*
X189220Y335890D01*
X189253Y335976D01*
X189282Y336065D01*
X189307Y336154D01*
X189329Y336244D01*
X189347Y336335D01*
X189360Y336427D01*
X189370Y336520D01*
X189376Y336612D01*
X189378Y336705D01*
X189376Y336798D01*
X189370Y336890D01*
X189360Y336983D01*
X189347Y337075D01*
X189329Y337166D01*
X189307Y337256D01*
X189282Y337345D01*
X189253Y337434D01*
X189220Y337520D01*
X189184Y337606D01*
X189144Y337690D01*
X189100Y337772D01*
X189053Y337852D01*
X189003Y337930D01*
X188949Y338005D01*
X188893Y338079D01*
X188833Y338150D01*
X188770Y338218D01*
X188704Y338284D01*
X188636Y338347D01*
X188565Y338407D01*
X188491Y338463D01*
X188416Y338517D01*
X188338Y338567D01*
X188258Y338614D01*
X188176Y338658D01*
X188092Y338698D01*
X188006Y338734D01*
X187920Y338767D01*
X187831Y338796D01*
X187742Y338821D01*
X187652Y338843D01*
X187561Y338861D01*
X187469Y338874D01*
X187376Y338884D01*
X187284Y338890D01*
X187191Y338892D01*
X187628Y342392D02*
X185004Y342392D01*
X187628Y342392D02*
X187710Y342390D01*
X187792Y342384D01*
X187873Y342375D01*
X187954Y342361D01*
X188035Y342344D01*
X188114Y342323D01*
X188192Y342299D01*
X188269Y342270D01*
X188345Y342238D01*
X188419Y342203D01*
X188491Y342164D01*
X188562Y342122D01*
X188630Y342077D01*
X188696Y342028D01*
X188760Y341977D01*
X188821Y341922D01*
X188880Y341865D01*
X188936Y341805D01*
X188989Y341742D01*
X189039Y341677D01*
X189086Y341610D01*
X189130Y341541D01*
X189170Y341469D01*
X189207Y341396D01*
X189241Y341321D01*
X189271Y341245D01*
X189297Y341167D01*
X189320Y341088D01*
X189339Y341009D01*
X189354Y340928D01*
X189366Y340847D01*
X189374Y340765D01*
X189378Y340683D01*
X189378Y340601D01*
X189374Y340519D01*
X189366Y340437D01*
X189354Y340356D01*
X189339Y340275D01*
X189320Y340196D01*
X189297Y340117D01*
X189271Y340039D01*
X189241Y339963D01*
X189207Y339888D01*
X189170Y339815D01*
X189130Y339743D01*
X189086Y339674D01*
X189039Y339607D01*
X188989Y339542D01*
X188936Y339479D01*
X188880Y339419D01*
X188821Y339362D01*
X188760Y339307D01*
X188696Y339256D01*
X188630Y339207D01*
X188562Y339162D01*
X188491Y339120D01*
X188419Y339081D01*
X188345Y339046D01*
X188269Y339014D01*
X188192Y338985D01*
X188114Y338961D01*
X188035Y338940D01*
X187954Y338923D01*
X187873Y338909D01*
X187792Y338900D01*
X187710Y338894D01*
X187628Y338892D01*
X185879Y338892D01*
D10*
X393700Y179070D02*
X393700Y151130D01*
X393700Y179070D02*
X406400Y179070D01*
X406400Y151130D01*
X393700Y151130D01*
D12*
X417449Y160768D02*
X417449Y162405D01*
X417449Y160768D02*
X417447Y160690D01*
X417442Y160612D01*
X417432Y160535D01*
X417419Y160458D01*
X417403Y160382D01*
X417383Y160307D01*
X417359Y160233D01*
X417332Y160160D01*
X417301Y160088D01*
X417267Y160018D01*
X417230Y159950D01*
X417189Y159883D01*
X417145Y159818D01*
X417099Y159756D01*
X417049Y159696D01*
X416997Y159638D01*
X416942Y159583D01*
X416884Y159531D01*
X416824Y159481D01*
X416762Y159435D01*
X416697Y159391D01*
X416631Y159350D01*
X416562Y159313D01*
X416492Y159279D01*
X416420Y159248D01*
X416347Y159221D01*
X416273Y159197D01*
X416198Y159177D01*
X416122Y159161D01*
X416045Y159148D01*
X415968Y159138D01*
X415890Y159133D01*
X415812Y159131D01*
X411720Y159131D01*
X411640Y159133D01*
X411560Y159139D01*
X411480Y159149D01*
X411401Y159162D01*
X411322Y159180D01*
X411245Y159201D01*
X411169Y159227D01*
X411094Y159256D01*
X411020Y159288D01*
X410948Y159324D01*
X410878Y159364D01*
X410811Y159407D01*
X410745Y159453D01*
X410682Y159503D01*
X410621Y159555D01*
X410562Y159610D01*
X410507Y159669D01*
X410455Y159729D01*
X410405Y159793D01*
X410359Y159858D01*
X410316Y159926D01*
X410276Y159996D01*
X410240Y160068D01*
X410208Y160142D01*
X410179Y160216D01*
X410154Y160293D01*
X410132Y160370D01*
X410114Y160449D01*
X410101Y160528D01*
X410091Y160607D01*
X410085Y160688D01*
X410083Y160768D01*
X410083Y162405D01*
X410083Y166887D02*
X415812Y165250D01*
X415812Y169342D01*
X414175Y168115D02*
X417449Y168115D01*
D10*
X406400Y139700D02*
X406400Y111760D01*
X393700Y111760D01*
X393700Y139700D01*
X406400Y139700D01*
D12*
X418719Y124305D02*
X418719Y122668D01*
X418717Y122590D01*
X418712Y122512D01*
X418702Y122435D01*
X418689Y122358D01*
X418673Y122282D01*
X418653Y122207D01*
X418629Y122133D01*
X418602Y122060D01*
X418571Y121988D01*
X418537Y121918D01*
X418500Y121850D01*
X418459Y121783D01*
X418415Y121718D01*
X418369Y121656D01*
X418319Y121596D01*
X418267Y121538D01*
X418212Y121483D01*
X418154Y121431D01*
X418094Y121381D01*
X418032Y121335D01*
X417967Y121291D01*
X417901Y121250D01*
X417832Y121213D01*
X417762Y121179D01*
X417690Y121148D01*
X417617Y121121D01*
X417543Y121097D01*
X417468Y121077D01*
X417392Y121061D01*
X417315Y121048D01*
X417238Y121038D01*
X417160Y121033D01*
X417082Y121031D01*
X412990Y121031D01*
X412910Y121033D01*
X412830Y121039D01*
X412750Y121049D01*
X412671Y121062D01*
X412592Y121080D01*
X412515Y121101D01*
X412439Y121127D01*
X412364Y121156D01*
X412290Y121188D01*
X412218Y121224D01*
X412148Y121264D01*
X412081Y121307D01*
X412015Y121353D01*
X411952Y121403D01*
X411891Y121455D01*
X411832Y121510D01*
X411777Y121569D01*
X411725Y121629D01*
X411675Y121693D01*
X411629Y121758D01*
X411586Y121826D01*
X411546Y121896D01*
X411510Y121968D01*
X411478Y122042D01*
X411449Y122116D01*
X411424Y122193D01*
X411402Y122270D01*
X411384Y122349D01*
X411371Y122428D01*
X411361Y122507D01*
X411355Y122588D01*
X411353Y122668D01*
X411353Y124305D01*
X418719Y127150D02*
X418719Y129605D01*
X418717Y129683D01*
X418712Y129761D01*
X418702Y129838D01*
X418689Y129915D01*
X418673Y129991D01*
X418653Y130066D01*
X418629Y130140D01*
X418602Y130213D01*
X418571Y130285D01*
X418537Y130355D01*
X418500Y130424D01*
X418459Y130490D01*
X418415Y130555D01*
X418369Y130617D01*
X418319Y130677D01*
X418267Y130735D01*
X418212Y130790D01*
X418154Y130842D01*
X418094Y130892D01*
X418032Y130938D01*
X417967Y130982D01*
X417901Y131023D01*
X417832Y131060D01*
X417762Y131094D01*
X417690Y131125D01*
X417617Y131152D01*
X417543Y131176D01*
X417468Y131196D01*
X417392Y131212D01*
X417315Y131225D01*
X417238Y131235D01*
X417160Y131240D01*
X417082Y131242D01*
X416264Y131242D01*
X416184Y131240D01*
X416104Y131234D01*
X416024Y131224D01*
X415945Y131211D01*
X415866Y131193D01*
X415789Y131172D01*
X415713Y131146D01*
X415638Y131117D01*
X415564Y131085D01*
X415492Y131049D01*
X415422Y131009D01*
X415355Y130966D01*
X415289Y130920D01*
X415226Y130870D01*
X415165Y130818D01*
X415106Y130763D01*
X415051Y130704D01*
X414999Y130644D01*
X414949Y130580D01*
X414903Y130514D01*
X414860Y130447D01*
X414820Y130377D01*
X414784Y130305D01*
X414752Y130231D01*
X414723Y130157D01*
X414697Y130080D01*
X414676Y130003D01*
X414658Y129924D01*
X414645Y129845D01*
X414635Y129765D01*
X414629Y129685D01*
X414627Y129605D01*
X414627Y127150D01*
X411353Y127150D01*
X411353Y131242D01*
D10*
X353060Y270510D02*
X325120Y270510D01*
X325120Y283210D01*
X353060Y283210D01*
X353060Y270510D01*
D11*
X312618Y273558D02*
X310868Y273558D01*
X310787Y273560D01*
X310707Y273565D01*
X310626Y273575D01*
X310546Y273588D01*
X310467Y273604D01*
X310389Y273625D01*
X310312Y273649D01*
X310236Y273676D01*
X310161Y273707D01*
X310088Y273741D01*
X310016Y273779D01*
X309947Y273820D01*
X309879Y273864D01*
X309813Y273911D01*
X309750Y273962D01*
X309689Y274015D01*
X309631Y274071D01*
X309575Y274129D01*
X309522Y274190D01*
X309471Y274253D01*
X309424Y274319D01*
X309380Y274387D01*
X309339Y274456D01*
X309301Y274528D01*
X309267Y274601D01*
X309236Y274676D01*
X309209Y274752D01*
X309185Y274829D01*
X309164Y274907D01*
X309148Y274986D01*
X309135Y275066D01*
X309125Y275147D01*
X309120Y275227D01*
X309118Y275308D01*
X309118Y279682D01*
X309120Y279765D01*
X309126Y279848D01*
X309136Y279931D01*
X309150Y280013D01*
X309167Y280095D01*
X309189Y280175D01*
X309214Y280254D01*
X309243Y280332D01*
X309276Y280409D01*
X309313Y280484D01*
X309352Y280557D01*
X309396Y280628D01*
X309442Y280697D01*
X309492Y280764D01*
X309545Y280828D01*
X309601Y280890D01*
X309660Y280949D01*
X309722Y281005D01*
X309786Y281058D01*
X309853Y281107D01*
X309922Y281154D01*
X309993Y281198D01*
X310066Y281237D01*
X310141Y281274D01*
X310218Y281307D01*
X310296Y281336D01*
X310375Y281361D01*
X310455Y281383D01*
X310537Y281400D01*
X310619Y281414D01*
X310702Y281424D01*
X310785Y281430D01*
X310868Y281432D01*
X312618Y281432D01*
X315814Y277932D02*
X318438Y277932D01*
X318438Y277933D02*
X318519Y277931D01*
X318599Y277926D01*
X318680Y277916D01*
X318760Y277903D01*
X318839Y277887D01*
X318917Y277866D01*
X318994Y277842D01*
X319070Y277815D01*
X319145Y277784D01*
X319218Y277750D01*
X319290Y277712D01*
X319359Y277671D01*
X319427Y277627D01*
X319493Y277580D01*
X319556Y277529D01*
X319617Y277476D01*
X319675Y277420D01*
X319731Y277362D01*
X319784Y277301D01*
X319835Y277238D01*
X319882Y277172D01*
X319926Y277104D01*
X319967Y277035D01*
X320005Y276963D01*
X320039Y276890D01*
X320070Y276815D01*
X320097Y276739D01*
X320121Y276662D01*
X320142Y276584D01*
X320158Y276505D01*
X320171Y276425D01*
X320181Y276344D01*
X320186Y276264D01*
X320188Y276183D01*
X320188Y275745D01*
X320186Y275652D01*
X320180Y275560D01*
X320170Y275467D01*
X320157Y275375D01*
X320139Y275284D01*
X320117Y275194D01*
X320092Y275105D01*
X320063Y275016D01*
X320030Y274930D01*
X319994Y274844D01*
X319954Y274760D01*
X319910Y274678D01*
X319863Y274598D01*
X319813Y274520D01*
X319759Y274445D01*
X319703Y274371D01*
X319643Y274300D01*
X319580Y274232D01*
X319514Y274166D01*
X319446Y274103D01*
X319375Y274043D01*
X319301Y273987D01*
X319226Y273933D01*
X319148Y273883D01*
X319068Y273836D01*
X318986Y273792D01*
X318902Y273752D01*
X318816Y273716D01*
X318730Y273683D01*
X318641Y273654D01*
X318552Y273629D01*
X318462Y273607D01*
X318371Y273589D01*
X318279Y273576D01*
X318186Y273566D01*
X318094Y273560D01*
X318001Y273558D01*
X317908Y273560D01*
X317816Y273566D01*
X317723Y273576D01*
X317631Y273589D01*
X317540Y273607D01*
X317450Y273629D01*
X317361Y273654D01*
X317272Y273683D01*
X317186Y273716D01*
X317100Y273752D01*
X317016Y273792D01*
X316934Y273836D01*
X316854Y273883D01*
X316776Y273933D01*
X316701Y273987D01*
X316627Y274043D01*
X316556Y274103D01*
X316488Y274166D01*
X316422Y274232D01*
X316359Y274300D01*
X316299Y274371D01*
X316243Y274445D01*
X316189Y274520D01*
X316139Y274598D01*
X316092Y274678D01*
X316048Y274760D01*
X316008Y274844D01*
X315972Y274930D01*
X315939Y275016D01*
X315910Y275105D01*
X315885Y275194D01*
X315863Y275284D01*
X315845Y275375D01*
X315832Y275467D01*
X315822Y275560D01*
X315816Y275652D01*
X315814Y275745D01*
X315814Y277932D01*
X315813Y277932D02*
X315815Y278049D01*
X315821Y278166D01*
X315831Y278282D01*
X315844Y278399D01*
X315862Y278514D01*
X315883Y278629D01*
X315908Y278743D01*
X315937Y278857D01*
X315970Y278969D01*
X316007Y279080D01*
X316047Y279190D01*
X316091Y279298D01*
X316138Y279405D01*
X316189Y279511D01*
X316244Y279614D01*
X316302Y279716D01*
X316363Y279815D01*
X316427Y279913D01*
X316495Y280008D01*
X316566Y280101D01*
X316640Y280192D01*
X316717Y280280D01*
X316797Y280365D01*
X316880Y280448D01*
X316965Y280528D01*
X317053Y280605D01*
X317144Y280679D01*
X317237Y280750D01*
X317332Y280818D01*
X317430Y280882D01*
X317529Y280943D01*
X317631Y281001D01*
X317734Y281056D01*
X317840Y281107D01*
X317947Y281154D01*
X318055Y281198D01*
X318165Y281238D01*
X318276Y281275D01*
X318388Y281308D01*
X318502Y281337D01*
X318616Y281362D01*
X318731Y281383D01*
X318846Y281401D01*
X318963Y281414D01*
X319079Y281424D01*
X319196Y281430D01*
X319313Y281432D01*
D10*
X193040Y309880D02*
X165100Y309880D01*
X193040Y309880D02*
X193040Y297180D01*
X165100Y297180D01*
X165100Y309880D01*
D12*
X154785Y300101D02*
X153148Y300101D01*
X153070Y300103D01*
X152992Y300108D01*
X152915Y300118D01*
X152838Y300131D01*
X152762Y300147D01*
X152687Y300167D01*
X152613Y300191D01*
X152540Y300218D01*
X152468Y300249D01*
X152398Y300283D01*
X152330Y300320D01*
X152263Y300361D01*
X152198Y300405D01*
X152136Y300451D01*
X152076Y300501D01*
X152018Y300553D01*
X151963Y300608D01*
X151911Y300666D01*
X151861Y300726D01*
X151815Y300788D01*
X151771Y300853D01*
X151730Y300920D01*
X151693Y300988D01*
X151659Y301058D01*
X151628Y301130D01*
X151601Y301203D01*
X151577Y301277D01*
X151557Y301352D01*
X151541Y301428D01*
X151528Y301505D01*
X151518Y301582D01*
X151513Y301660D01*
X151511Y301738D01*
X151511Y305830D01*
X151513Y305910D01*
X151519Y305990D01*
X151529Y306070D01*
X151542Y306149D01*
X151560Y306228D01*
X151581Y306305D01*
X151607Y306381D01*
X151636Y306456D01*
X151668Y306530D01*
X151704Y306602D01*
X151744Y306672D01*
X151787Y306739D01*
X151833Y306805D01*
X151883Y306868D01*
X151935Y306929D01*
X151990Y306988D01*
X152049Y307043D01*
X152109Y307095D01*
X152173Y307145D01*
X152239Y307191D01*
X152306Y307234D01*
X152376Y307274D01*
X152448Y307310D01*
X152522Y307342D01*
X152596Y307371D01*
X152673Y307397D01*
X152750Y307418D01*
X152829Y307436D01*
X152908Y307449D01*
X152988Y307459D01*
X153068Y307465D01*
X153148Y307467D01*
X154785Y307467D01*
X157630Y302147D02*
X157632Y302236D01*
X157638Y302325D01*
X157648Y302414D01*
X157661Y302502D01*
X157678Y302590D01*
X157700Y302677D01*
X157725Y302762D01*
X157753Y302847D01*
X157786Y302930D01*
X157822Y303012D01*
X157861Y303092D01*
X157904Y303170D01*
X157950Y303246D01*
X158000Y303321D01*
X158053Y303393D01*
X158109Y303462D01*
X158168Y303529D01*
X158229Y303594D01*
X158294Y303655D01*
X158361Y303714D01*
X158430Y303770D01*
X158502Y303823D01*
X158577Y303873D01*
X158653Y303919D01*
X158731Y303962D01*
X158811Y304001D01*
X158893Y304037D01*
X158976Y304070D01*
X159061Y304098D01*
X159146Y304123D01*
X159233Y304145D01*
X159321Y304162D01*
X159409Y304175D01*
X159498Y304185D01*
X159587Y304191D01*
X159676Y304193D01*
X159765Y304191D01*
X159854Y304185D01*
X159943Y304175D01*
X160031Y304162D01*
X160119Y304145D01*
X160206Y304123D01*
X160291Y304098D01*
X160376Y304070D01*
X160459Y304037D01*
X160541Y304001D01*
X160621Y303962D01*
X160699Y303919D01*
X160775Y303873D01*
X160850Y303823D01*
X160922Y303770D01*
X160991Y303714D01*
X161058Y303655D01*
X161123Y303594D01*
X161184Y303529D01*
X161243Y303462D01*
X161299Y303393D01*
X161352Y303321D01*
X161402Y303246D01*
X161448Y303170D01*
X161491Y303092D01*
X161530Y303012D01*
X161566Y302930D01*
X161599Y302847D01*
X161627Y302762D01*
X161652Y302677D01*
X161674Y302590D01*
X161691Y302502D01*
X161704Y302414D01*
X161714Y302325D01*
X161720Y302236D01*
X161722Y302147D01*
X161720Y302058D01*
X161714Y301969D01*
X161704Y301880D01*
X161691Y301792D01*
X161674Y301704D01*
X161652Y301617D01*
X161627Y301532D01*
X161599Y301447D01*
X161566Y301364D01*
X161530Y301282D01*
X161491Y301202D01*
X161448Y301124D01*
X161402Y301048D01*
X161352Y300973D01*
X161299Y300901D01*
X161243Y300832D01*
X161184Y300765D01*
X161123Y300700D01*
X161058Y300639D01*
X160991Y300580D01*
X160922Y300524D01*
X160850Y300471D01*
X160775Y300421D01*
X160699Y300375D01*
X160621Y300332D01*
X160541Y300293D01*
X160459Y300257D01*
X160376Y300224D01*
X160291Y300196D01*
X160206Y300171D01*
X160119Y300149D01*
X160031Y300132D01*
X159943Y300119D01*
X159854Y300109D01*
X159765Y300103D01*
X159676Y300101D01*
X159587Y300103D01*
X159498Y300109D01*
X159409Y300119D01*
X159321Y300132D01*
X159233Y300149D01*
X159146Y300171D01*
X159061Y300196D01*
X158976Y300224D01*
X158893Y300257D01*
X158811Y300293D01*
X158731Y300332D01*
X158653Y300375D01*
X158577Y300421D01*
X158502Y300471D01*
X158430Y300524D01*
X158361Y300580D01*
X158294Y300639D01*
X158229Y300700D01*
X158168Y300765D01*
X158109Y300832D01*
X158053Y300901D01*
X158000Y300973D01*
X157950Y301048D01*
X157904Y301124D01*
X157861Y301202D01*
X157822Y301282D01*
X157786Y301364D01*
X157753Y301447D01*
X157725Y301532D01*
X157700Y301617D01*
X157678Y301704D01*
X157661Y301792D01*
X157648Y301880D01*
X157638Y301969D01*
X157632Y302058D01*
X157630Y302147D01*
X158039Y305830D02*
X158041Y305909D01*
X158047Y305988D01*
X158056Y306067D01*
X158069Y306145D01*
X158087Y306222D01*
X158107Y306298D01*
X158132Y306373D01*
X158160Y306447D01*
X158191Y306520D01*
X158227Y306591D01*
X158265Y306660D01*
X158307Y306727D01*
X158352Y306792D01*
X158400Y306855D01*
X158451Y306916D01*
X158505Y306973D01*
X158561Y307029D01*
X158620Y307081D01*
X158682Y307131D01*
X158746Y307177D01*
X158812Y307221D01*
X158880Y307261D01*
X158950Y307297D01*
X159022Y307331D01*
X159096Y307361D01*
X159170Y307387D01*
X159246Y307410D01*
X159323Y307428D01*
X159400Y307444D01*
X159479Y307455D01*
X159557Y307463D01*
X159636Y307467D01*
X159716Y307467D01*
X159795Y307463D01*
X159873Y307455D01*
X159952Y307444D01*
X160029Y307428D01*
X160106Y307410D01*
X160182Y307387D01*
X160256Y307361D01*
X160330Y307331D01*
X160402Y307297D01*
X160472Y307261D01*
X160540Y307221D01*
X160606Y307177D01*
X160670Y307131D01*
X160732Y307081D01*
X160791Y307029D01*
X160847Y306973D01*
X160901Y306916D01*
X160952Y306855D01*
X161000Y306792D01*
X161045Y306727D01*
X161087Y306660D01*
X161125Y306591D01*
X161161Y306520D01*
X161192Y306447D01*
X161220Y306373D01*
X161245Y306298D01*
X161265Y306222D01*
X161283Y306145D01*
X161296Y306067D01*
X161305Y305988D01*
X161311Y305909D01*
X161313Y305830D01*
X161311Y305751D01*
X161305Y305672D01*
X161296Y305593D01*
X161283Y305515D01*
X161265Y305438D01*
X161245Y305362D01*
X161220Y305287D01*
X161192Y305213D01*
X161161Y305140D01*
X161125Y305069D01*
X161087Y305000D01*
X161045Y304933D01*
X161000Y304868D01*
X160952Y304805D01*
X160901Y304744D01*
X160847Y304687D01*
X160791Y304631D01*
X160732Y304579D01*
X160670Y304529D01*
X160606Y304483D01*
X160540Y304439D01*
X160472Y304399D01*
X160402Y304363D01*
X160330Y304329D01*
X160256Y304299D01*
X160182Y304273D01*
X160106Y304250D01*
X160029Y304232D01*
X159952Y304216D01*
X159873Y304205D01*
X159795Y304197D01*
X159716Y304193D01*
X159636Y304193D01*
X159557Y304197D01*
X159479Y304205D01*
X159400Y304216D01*
X159323Y304232D01*
X159246Y304250D01*
X159170Y304273D01*
X159096Y304299D01*
X159022Y304329D01*
X158950Y304363D01*
X158880Y304399D01*
X158812Y304439D01*
X158746Y304483D01*
X158682Y304529D01*
X158620Y304579D01*
X158561Y304631D01*
X158505Y304687D01*
X158451Y304744D01*
X158400Y304805D01*
X158352Y304868D01*
X158307Y304933D01*
X158265Y305000D01*
X158227Y305069D01*
X158191Y305140D01*
X158160Y305213D01*
X158132Y305287D01*
X158107Y305362D01*
X158087Y305438D01*
X158069Y305515D01*
X158056Y305593D01*
X158047Y305672D01*
X158041Y305751D01*
X158039Y305830D01*
D10*
X175260Y109220D02*
X175260Y81280D01*
X175260Y109220D02*
X187960Y109220D01*
X187960Y81280D01*
X175260Y81280D01*
D11*
X172212Y84808D02*
X172212Y86558D01*
X172212Y84808D02*
X172210Y84727D01*
X172205Y84647D01*
X172195Y84566D01*
X172182Y84486D01*
X172166Y84407D01*
X172145Y84329D01*
X172121Y84252D01*
X172094Y84176D01*
X172063Y84101D01*
X172029Y84028D01*
X171991Y83956D01*
X171950Y83887D01*
X171906Y83819D01*
X171859Y83753D01*
X171808Y83690D01*
X171755Y83629D01*
X171699Y83571D01*
X171641Y83515D01*
X171580Y83462D01*
X171517Y83411D01*
X171451Y83364D01*
X171383Y83320D01*
X171314Y83279D01*
X171242Y83241D01*
X171169Y83207D01*
X171094Y83176D01*
X171018Y83149D01*
X170941Y83125D01*
X170863Y83104D01*
X170784Y83088D01*
X170704Y83075D01*
X170623Y83065D01*
X170543Y83060D01*
X170462Y83058D01*
X166088Y83058D01*
X166005Y83060D01*
X165922Y83066D01*
X165839Y83076D01*
X165757Y83090D01*
X165675Y83107D01*
X165595Y83129D01*
X165516Y83154D01*
X165438Y83183D01*
X165361Y83216D01*
X165286Y83253D01*
X165213Y83292D01*
X165142Y83336D01*
X165073Y83382D01*
X165006Y83432D01*
X164942Y83485D01*
X164880Y83541D01*
X164821Y83600D01*
X164765Y83662D01*
X164712Y83726D01*
X164663Y83793D01*
X164616Y83862D01*
X164572Y83933D01*
X164533Y84006D01*
X164496Y84081D01*
X164463Y84158D01*
X164434Y84236D01*
X164409Y84315D01*
X164387Y84395D01*
X164370Y84477D01*
X164356Y84559D01*
X164346Y84642D01*
X164340Y84725D01*
X164338Y84808D01*
X164338Y86558D01*
X168712Y91503D02*
X168712Y94128D01*
X168713Y91503D02*
X168711Y91422D01*
X168706Y91342D01*
X168696Y91261D01*
X168683Y91181D01*
X168667Y91102D01*
X168646Y91024D01*
X168622Y90947D01*
X168595Y90871D01*
X168564Y90796D01*
X168530Y90723D01*
X168492Y90651D01*
X168451Y90582D01*
X168407Y90514D01*
X168360Y90448D01*
X168309Y90385D01*
X168256Y90324D01*
X168200Y90266D01*
X168142Y90210D01*
X168081Y90157D01*
X168018Y90106D01*
X167952Y90059D01*
X167884Y90015D01*
X167815Y89974D01*
X167743Y89936D01*
X167670Y89902D01*
X167595Y89871D01*
X167519Y89844D01*
X167442Y89820D01*
X167364Y89799D01*
X167285Y89783D01*
X167205Y89770D01*
X167124Y89760D01*
X167044Y89755D01*
X166963Y89753D01*
X166963Y89754D02*
X166525Y89754D01*
X166432Y89756D01*
X166340Y89762D01*
X166247Y89772D01*
X166155Y89785D01*
X166064Y89803D01*
X165974Y89825D01*
X165885Y89850D01*
X165796Y89879D01*
X165710Y89912D01*
X165624Y89948D01*
X165540Y89988D01*
X165458Y90032D01*
X165378Y90079D01*
X165300Y90129D01*
X165225Y90183D01*
X165151Y90239D01*
X165080Y90299D01*
X165012Y90362D01*
X164946Y90428D01*
X164883Y90496D01*
X164823Y90567D01*
X164767Y90641D01*
X164713Y90716D01*
X164663Y90794D01*
X164616Y90874D01*
X164572Y90956D01*
X164532Y91040D01*
X164496Y91126D01*
X164463Y91212D01*
X164434Y91301D01*
X164409Y91390D01*
X164387Y91480D01*
X164369Y91571D01*
X164356Y91663D01*
X164346Y91756D01*
X164340Y91848D01*
X164338Y91941D01*
X164340Y92034D01*
X164346Y92126D01*
X164356Y92219D01*
X164369Y92311D01*
X164387Y92402D01*
X164409Y92492D01*
X164434Y92581D01*
X164463Y92670D01*
X164496Y92756D01*
X164532Y92842D01*
X164572Y92926D01*
X164616Y93008D01*
X164663Y93088D01*
X164713Y93166D01*
X164767Y93241D01*
X164823Y93315D01*
X164883Y93386D01*
X164946Y93454D01*
X165012Y93520D01*
X165080Y93583D01*
X165151Y93643D01*
X165225Y93699D01*
X165300Y93753D01*
X165378Y93803D01*
X165458Y93850D01*
X165540Y93894D01*
X165624Y93934D01*
X165710Y93970D01*
X165796Y94003D01*
X165885Y94032D01*
X165974Y94057D01*
X166064Y94079D01*
X166155Y94097D01*
X166247Y94110D01*
X166340Y94120D01*
X166432Y94126D01*
X166525Y94128D01*
X168712Y94128D01*
X168712Y94129D02*
X168829Y94127D01*
X168946Y94121D01*
X169062Y94111D01*
X169179Y94098D01*
X169294Y94080D01*
X169409Y94059D01*
X169523Y94034D01*
X169637Y94005D01*
X169749Y93972D01*
X169860Y93935D01*
X169970Y93895D01*
X170078Y93851D01*
X170185Y93804D01*
X170291Y93753D01*
X170394Y93698D01*
X170496Y93640D01*
X170595Y93579D01*
X170693Y93515D01*
X170788Y93447D01*
X170881Y93376D01*
X170972Y93302D01*
X171060Y93225D01*
X171145Y93145D01*
X171228Y93062D01*
X171308Y92977D01*
X171385Y92889D01*
X171459Y92798D01*
X171530Y92705D01*
X171598Y92610D01*
X171662Y92512D01*
X171723Y92413D01*
X171781Y92311D01*
X171836Y92208D01*
X171887Y92102D01*
X171934Y91995D01*
X171978Y91887D01*
X172018Y91777D01*
X172055Y91666D01*
X172088Y91554D01*
X172117Y91440D01*
X172142Y91326D01*
X172163Y91211D01*
X172181Y91095D01*
X172194Y90979D01*
X172204Y90863D01*
X172210Y90746D01*
X172212Y90629D01*
D10*
X73025Y74930D02*
X46355Y74930D01*
X73025Y74930D02*
X73025Y62230D01*
X46355Y62230D01*
X46355Y74930D01*
X58420Y72390D02*
X58420Y64770D01*
X59690Y66675D01*
X60960Y68580D01*
X59690Y70485D01*
X58420Y72390D01*
X59055Y71120D02*
X59055Y66040D01*
X59690Y66675D02*
X59690Y70485D01*
D11*
X53848Y57912D02*
X53848Y50038D01*
X53848Y57912D02*
X56035Y57912D01*
X56128Y57910D01*
X56220Y57904D01*
X56313Y57894D01*
X56405Y57881D01*
X56496Y57863D01*
X56586Y57841D01*
X56675Y57816D01*
X56764Y57787D01*
X56850Y57754D01*
X56936Y57718D01*
X57020Y57678D01*
X57102Y57634D01*
X57182Y57587D01*
X57260Y57537D01*
X57335Y57483D01*
X57409Y57427D01*
X57480Y57367D01*
X57548Y57304D01*
X57614Y57238D01*
X57677Y57170D01*
X57737Y57099D01*
X57793Y57025D01*
X57847Y56950D01*
X57897Y56872D01*
X57944Y56792D01*
X57988Y56710D01*
X58028Y56626D01*
X58064Y56540D01*
X58097Y56454D01*
X58126Y56365D01*
X58151Y56276D01*
X58173Y56186D01*
X58191Y56095D01*
X58204Y56003D01*
X58214Y55910D01*
X58220Y55818D01*
X58222Y55725D01*
X58222Y52225D01*
X58220Y52132D01*
X58214Y52040D01*
X58204Y51947D01*
X58191Y51855D01*
X58173Y51764D01*
X58151Y51674D01*
X58126Y51585D01*
X58097Y51496D01*
X58064Y51410D01*
X58028Y51324D01*
X57988Y51240D01*
X57944Y51158D01*
X57897Y51078D01*
X57847Y51000D01*
X57793Y50925D01*
X57737Y50851D01*
X57677Y50780D01*
X57614Y50712D01*
X57548Y50646D01*
X57480Y50583D01*
X57409Y50523D01*
X57335Y50467D01*
X57260Y50413D01*
X57182Y50363D01*
X57102Y50316D01*
X57020Y50272D01*
X56936Y50232D01*
X56850Y50196D01*
X56764Y50163D01*
X56675Y50134D01*
X56586Y50109D01*
X56496Y50087D01*
X56405Y50069D01*
X56313Y50056D01*
X56221Y50046D01*
X56128Y50040D01*
X56035Y50038D01*
X53848Y50038D01*
X62116Y56162D02*
X64303Y57912D01*
X64303Y50038D01*
X62116Y50038D02*
X66490Y50038D01*
D13*
X81480Y169370D02*
X81482Y169433D01*
X81488Y169495D01*
X81498Y169557D01*
X81511Y169619D01*
X81529Y169679D01*
X81550Y169738D01*
X81575Y169796D01*
X81604Y169852D01*
X81636Y169906D01*
X81671Y169958D01*
X81709Y170007D01*
X81751Y170055D01*
X81795Y170099D01*
X81843Y170141D01*
X81892Y170179D01*
X81944Y170214D01*
X81998Y170246D01*
X82054Y170275D01*
X82112Y170300D01*
X82171Y170321D01*
X82231Y170339D01*
X82293Y170352D01*
X82355Y170362D01*
X82417Y170368D01*
X82480Y170370D01*
X82543Y170368D01*
X82605Y170362D01*
X82667Y170352D01*
X82729Y170339D01*
X82789Y170321D01*
X82848Y170300D01*
X82906Y170275D01*
X82962Y170246D01*
X83016Y170214D01*
X83068Y170179D01*
X83117Y170141D01*
X83165Y170099D01*
X83209Y170055D01*
X83251Y170007D01*
X83289Y169958D01*
X83324Y169906D01*
X83356Y169852D01*
X83385Y169796D01*
X83410Y169738D01*
X83431Y169679D01*
X83449Y169619D01*
X83462Y169557D01*
X83472Y169495D01*
X83478Y169433D01*
X83480Y169370D01*
X83478Y169307D01*
X83472Y169245D01*
X83462Y169183D01*
X83449Y169121D01*
X83431Y169061D01*
X83410Y169002D01*
X83385Y168944D01*
X83356Y168888D01*
X83324Y168834D01*
X83289Y168782D01*
X83251Y168733D01*
X83209Y168685D01*
X83165Y168641D01*
X83117Y168599D01*
X83068Y168561D01*
X83016Y168526D01*
X82962Y168494D01*
X82906Y168465D01*
X82848Y168440D01*
X82789Y168419D01*
X82729Y168401D01*
X82667Y168388D01*
X82605Y168378D01*
X82543Y168372D01*
X82480Y168370D01*
X82417Y168372D01*
X82355Y168378D01*
X82293Y168388D01*
X82231Y168401D01*
X82171Y168419D01*
X82112Y168440D01*
X82054Y168465D01*
X81998Y168494D01*
X81944Y168526D01*
X81892Y168561D01*
X81843Y168599D01*
X81795Y168641D01*
X81751Y168685D01*
X81709Y168733D01*
X81671Y168782D01*
X81636Y168834D01*
X81604Y168888D01*
X81575Y168944D01*
X81550Y169002D01*
X81529Y169061D01*
X81511Y169121D01*
X81498Y169183D01*
X81488Y169245D01*
X81482Y169307D01*
X81480Y169370D01*
D10*
X83280Y161770D02*
X83280Y131770D01*
X53280Y131770D02*
X53280Y161770D01*
D12*
X47851Y164734D02*
X40485Y164734D01*
X47851Y163916D02*
X47851Y165553D01*
X40485Y165553D02*
X40485Y163916D01*
X47851Y170154D02*
X47851Y171791D01*
X47851Y170154D02*
X47849Y170076D01*
X47844Y169998D01*
X47834Y169921D01*
X47821Y169844D01*
X47805Y169768D01*
X47785Y169693D01*
X47761Y169619D01*
X47734Y169546D01*
X47703Y169474D01*
X47669Y169404D01*
X47632Y169336D01*
X47591Y169269D01*
X47547Y169204D01*
X47501Y169142D01*
X47451Y169082D01*
X47399Y169024D01*
X47344Y168969D01*
X47286Y168917D01*
X47226Y168867D01*
X47164Y168821D01*
X47099Y168777D01*
X47033Y168736D01*
X46964Y168699D01*
X46894Y168665D01*
X46822Y168634D01*
X46749Y168607D01*
X46675Y168583D01*
X46600Y168563D01*
X46524Y168547D01*
X46447Y168534D01*
X46370Y168524D01*
X46292Y168519D01*
X46214Y168517D01*
X42122Y168517D01*
X42042Y168519D01*
X41962Y168525D01*
X41882Y168535D01*
X41803Y168548D01*
X41724Y168566D01*
X41647Y168587D01*
X41571Y168613D01*
X41496Y168642D01*
X41422Y168674D01*
X41350Y168710D01*
X41280Y168750D01*
X41213Y168793D01*
X41147Y168839D01*
X41084Y168889D01*
X41023Y168941D01*
X40964Y168996D01*
X40909Y169055D01*
X40857Y169115D01*
X40807Y169179D01*
X40761Y169244D01*
X40718Y169312D01*
X40678Y169382D01*
X40642Y169454D01*
X40610Y169528D01*
X40581Y169602D01*
X40556Y169679D01*
X40534Y169756D01*
X40516Y169835D01*
X40503Y169914D01*
X40493Y169993D01*
X40487Y170074D01*
X40485Y170154D01*
X40485Y171791D01*
X40485Y176273D02*
X46214Y174636D01*
X46214Y178729D01*
X44577Y177501D02*
X47851Y177501D01*
D10*
X46990Y93980D02*
X74930Y93980D01*
X74930Y81280D01*
X46990Y81280D01*
X46990Y93980D01*
D11*
X55118Y98298D02*
X55118Y106172D01*
X57305Y106172D01*
X57398Y106170D01*
X57490Y106164D01*
X57583Y106154D01*
X57675Y106141D01*
X57766Y106123D01*
X57856Y106101D01*
X57945Y106076D01*
X58034Y106047D01*
X58120Y106014D01*
X58206Y105978D01*
X58290Y105938D01*
X58372Y105894D01*
X58452Y105847D01*
X58530Y105797D01*
X58605Y105743D01*
X58679Y105687D01*
X58750Y105627D01*
X58818Y105564D01*
X58884Y105498D01*
X58947Y105430D01*
X59007Y105359D01*
X59063Y105285D01*
X59117Y105210D01*
X59167Y105132D01*
X59214Y105052D01*
X59258Y104970D01*
X59298Y104886D01*
X59334Y104800D01*
X59367Y104714D01*
X59396Y104625D01*
X59421Y104536D01*
X59443Y104446D01*
X59461Y104355D01*
X59474Y104263D01*
X59484Y104170D01*
X59490Y104078D01*
X59492Y103985D01*
X59490Y103892D01*
X59484Y103800D01*
X59474Y103707D01*
X59461Y103615D01*
X59443Y103524D01*
X59421Y103434D01*
X59396Y103345D01*
X59367Y103256D01*
X59334Y103170D01*
X59298Y103084D01*
X59258Y103000D01*
X59214Y102918D01*
X59167Y102838D01*
X59117Y102760D01*
X59063Y102685D01*
X59007Y102611D01*
X58947Y102540D01*
X58884Y102472D01*
X58818Y102406D01*
X58750Y102343D01*
X58679Y102283D01*
X58605Y102227D01*
X58530Y102173D01*
X58452Y102123D01*
X58372Y102076D01*
X58290Y102032D01*
X58206Y101992D01*
X58120Y101956D01*
X58034Y101923D01*
X57945Y101894D01*
X57856Y101869D01*
X57766Y101847D01*
X57675Y101829D01*
X57583Y101816D01*
X57490Y101806D01*
X57398Y101800D01*
X57305Y101798D01*
X55118Y101798D01*
X57743Y101798D02*
X59492Y98298D01*
X63056Y104422D02*
X65244Y106172D01*
X65244Y98298D01*
X67431Y98298D02*
X63056Y98298D01*
D10*
X90170Y138430D02*
X118110Y138430D01*
X118110Y125730D01*
X90170Y125730D01*
X90170Y138430D01*
D11*
X123069Y136652D02*
X123069Y128778D01*
X123069Y136652D02*
X125256Y136652D01*
X125349Y136650D01*
X125441Y136644D01*
X125534Y136634D01*
X125626Y136621D01*
X125717Y136603D01*
X125807Y136581D01*
X125896Y136556D01*
X125985Y136527D01*
X126071Y136494D01*
X126157Y136458D01*
X126241Y136418D01*
X126323Y136374D01*
X126403Y136327D01*
X126481Y136277D01*
X126556Y136223D01*
X126630Y136167D01*
X126701Y136107D01*
X126769Y136044D01*
X126835Y135978D01*
X126898Y135910D01*
X126958Y135839D01*
X127014Y135765D01*
X127068Y135690D01*
X127118Y135612D01*
X127165Y135532D01*
X127209Y135450D01*
X127249Y135366D01*
X127285Y135280D01*
X127318Y135194D01*
X127347Y135105D01*
X127372Y135016D01*
X127394Y134926D01*
X127412Y134835D01*
X127425Y134743D01*
X127435Y134650D01*
X127441Y134558D01*
X127443Y134465D01*
X127441Y134372D01*
X127435Y134280D01*
X127425Y134187D01*
X127412Y134095D01*
X127394Y134004D01*
X127372Y133914D01*
X127347Y133825D01*
X127318Y133736D01*
X127285Y133650D01*
X127249Y133564D01*
X127209Y133480D01*
X127165Y133398D01*
X127118Y133318D01*
X127068Y133240D01*
X127014Y133165D01*
X126958Y133091D01*
X126898Y133020D01*
X126835Y132952D01*
X126769Y132886D01*
X126701Y132823D01*
X126630Y132763D01*
X126556Y132707D01*
X126481Y132653D01*
X126403Y132603D01*
X126323Y132556D01*
X126241Y132512D01*
X126157Y132472D01*
X126071Y132436D01*
X125985Y132403D01*
X125896Y132374D01*
X125807Y132349D01*
X125717Y132327D01*
X125626Y132309D01*
X125534Y132296D01*
X125441Y132286D01*
X125349Y132280D01*
X125256Y132278D01*
X123069Y132278D01*
X125694Y132278D02*
X127444Y128778D01*
X133414Y136653D02*
X133500Y136651D01*
X133586Y136646D01*
X133671Y136636D01*
X133756Y136623D01*
X133840Y136606D01*
X133924Y136586D01*
X134006Y136562D01*
X134087Y136534D01*
X134168Y136503D01*
X134246Y136469D01*
X134323Y136431D01*
X134399Y136389D01*
X134472Y136345D01*
X134543Y136297D01*
X134613Y136246D01*
X134680Y136192D01*
X134744Y136136D01*
X134806Y136076D01*
X134866Y136014D01*
X134922Y135950D01*
X134976Y135883D01*
X135027Y135813D01*
X135075Y135742D01*
X135119Y135669D01*
X135161Y135593D01*
X135199Y135516D01*
X135233Y135438D01*
X135264Y135357D01*
X135292Y135276D01*
X135316Y135194D01*
X135336Y135110D01*
X135353Y135026D01*
X135366Y134941D01*
X135376Y134856D01*
X135381Y134770D01*
X135383Y134684D01*
X133414Y136652D02*
X133315Y136650D01*
X133215Y136644D01*
X133117Y136634D01*
X133018Y136621D01*
X132920Y136603D01*
X132823Y136582D01*
X132727Y136557D01*
X132632Y136528D01*
X132538Y136495D01*
X132445Y136459D01*
X132354Y136419D01*
X132265Y136376D01*
X132177Y136329D01*
X132092Y136279D01*
X132008Y136225D01*
X131927Y136168D01*
X131847Y136108D01*
X131771Y136045D01*
X131696Y135979D01*
X131625Y135910D01*
X131556Y135839D01*
X131490Y135764D01*
X131427Y135687D01*
X131367Y135608D01*
X131310Y135526D01*
X131257Y135443D01*
X131206Y135357D01*
X131160Y135269D01*
X131116Y135180D01*
X131077Y135089D01*
X131041Y134996D01*
X131008Y134902D01*
X134726Y133153D02*
X134790Y133217D01*
X134851Y133283D01*
X134909Y133352D01*
X134964Y133423D01*
X135017Y133496D01*
X135066Y133572D01*
X135111Y133649D01*
X135154Y133729D01*
X135193Y133810D01*
X135228Y133893D01*
X135260Y133977D01*
X135289Y134063D01*
X135313Y134149D01*
X135334Y134237D01*
X135351Y134325D01*
X135365Y134414D01*
X135374Y134504D01*
X135380Y134594D01*
X135382Y134684D01*
X134726Y133152D02*
X131008Y128778D01*
X135382Y128778D01*
D10*
X119380Y162560D02*
X91440Y162560D01*
X119380Y162560D02*
X119380Y149860D01*
X91440Y149860D01*
X91440Y162560D01*
D11*
X111639Y145542D02*
X111639Y137668D01*
X111639Y145542D02*
X113826Y145542D01*
X113919Y145540D01*
X114011Y145534D01*
X114104Y145524D01*
X114196Y145511D01*
X114287Y145493D01*
X114377Y145471D01*
X114466Y145446D01*
X114555Y145417D01*
X114641Y145384D01*
X114727Y145348D01*
X114811Y145308D01*
X114893Y145264D01*
X114973Y145217D01*
X115051Y145167D01*
X115126Y145113D01*
X115200Y145057D01*
X115271Y144997D01*
X115339Y144934D01*
X115405Y144868D01*
X115468Y144800D01*
X115528Y144729D01*
X115584Y144655D01*
X115638Y144580D01*
X115688Y144502D01*
X115735Y144422D01*
X115779Y144340D01*
X115819Y144256D01*
X115855Y144170D01*
X115888Y144084D01*
X115917Y143995D01*
X115942Y143906D01*
X115964Y143816D01*
X115982Y143725D01*
X115995Y143633D01*
X116005Y143540D01*
X116011Y143448D01*
X116013Y143355D01*
X116011Y143262D01*
X116005Y143170D01*
X115995Y143077D01*
X115982Y142985D01*
X115964Y142894D01*
X115942Y142804D01*
X115917Y142715D01*
X115888Y142626D01*
X115855Y142540D01*
X115819Y142454D01*
X115779Y142370D01*
X115735Y142288D01*
X115688Y142208D01*
X115638Y142130D01*
X115584Y142055D01*
X115528Y141981D01*
X115468Y141910D01*
X115405Y141842D01*
X115339Y141776D01*
X115271Y141713D01*
X115200Y141653D01*
X115126Y141597D01*
X115051Y141543D01*
X114973Y141493D01*
X114893Y141446D01*
X114811Y141402D01*
X114727Y141362D01*
X114641Y141326D01*
X114555Y141293D01*
X114466Y141264D01*
X114377Y141239D01*
X114287Y141217D01*
X114196Y141199D01*
X114104Y141186D01*
X114011Y141176D01*
X113919Y141170D01*
X113826Y141168D01*
X111639Y141168D01*
X114264Y141168D02*
X116014Y137668D01*
X119578Y137668D02*
X121765Y137668D01*
X121858Y137670D01*
X121950Y137676D01*
X122043Y137686D01*
X122135Y137699D01*
X122226Y137717D01*
X122316Y137739D01*
X122405Y137764D01*
X122494Y137793D01*
X122580Y137826D01*
X122666Y137862D01*
X122750Y137902D01*
X122832Y137946D01*
X122912Y137993D01*
X122990Y138043D01*
X123065Y138097D01*
X123139Y138153D01*
X123210Y138213D01*
X123278Y138276D01*
X123344Y138342D01*
X123407Y138410D01*
X123467Y138481D01*
X123523Y138555D01*
X123577Y138630D01*
X123627Y138708D01*
X123674Y138788D01*
X123718Y138870D01*
X123758Y138954D01*
X123794Y139040D01*
X123827Y139126D01*
X123856Y139215D01*
X123881Y139304D01*
X123903Y139394D01*
X123921Y139485D01*
X123934Y139577D01*
X123944Y139670D01*
X123950Y139762D01*
X123952Y139855D01*
X123950Y139948D01*
X123944Y140040D01*
X123934Y140133D01*
X123921Y140225D01*
X123903Y140316D01*
X123881Y140406D01*
X123856Y140495D01*
X123827Y140584D01*
X123794Y140670D01*
X123758Y140756D01*
X123718Y140840D01*
X123674Y140922D01*
X123627Y141002D01*
X123577Y141080D01*
X123523Y141155D01*
X123467Y141229D01*
X123407Y141300D01*
X123344Y141368D01*
X123278Y141434D01*
X123210Y141497D01*
X123139Y141557D01*
X123065Y141613D01*
X122990Y141667D01*
X122912Y141717D01*
X122832Y141764D01*
X122750Y141808D01*
X122666Y141848D01*
X122580Y141884D01*
X122494Y141917D01*
X122405Y141946D01*
X122316Y141971D01*
X122226Y141993D01*
X122135Y142011D01*
X122043Y142024D01*
X121950Y142034D01*
X121858Y142040D01*
X121765Y142042D01*
X122202Y145542D02*
X119578Y145542D01*
X122202Y145542D02*
X122284Y145540D01*
X122366Y145534D01*
X122447Y145525D01*
X122528Y145511D01*
X122609Y145494D01*
X122688Y145473D01*
X122766Y145449D01*
X122843Y145420D01*
X122919Y145388D01*
X122993Y145353D01*
X123065Y145314D01*
X123136Y145272D01*
X123204Y145227D01*
X123270Y145178D01*
X123334Y145127D01*
X123395Y145072D01*
X123454Y145015D01*
X123510Y144955D01*
X123563Y144892D01*
X123613Y144827D01*
X123660Y144760D01*
X123704Y144691D01*
X123744Y144619D01*
X123781Y144546D01*
X123815Y144471D01*
X123845Y144395D01*
X123871Y144317D01*
X123894Y144238D01*
X123913Y144159D01*
X123928Y144078D01*
X123940Y143997D01*
X123948Y143915D01*
X123952Y143833D01*
X123952Y143751D01*
X123948Y143669D01*
X123940Y143587D01*
X123928Y143506D01*
X123913Y143425D01*
X123894Y143346D01*
X123871Y143267D01*
X123845Y143189D01*
X123815Y143113D01*
X123781Y143038D01*
X123744Y142965D01*
X123704Y142893D01*
X123660Y142824D01*
X123613Y142757D01*
X123563Y142692D01*
X123510Y142629D01*
X123454Y142569D01*
X123395Y142512D01*
X123334Y142457D01*
X123270Y142406D01*
X123204Y142357D01*
X123136Y142312D01*
X123065Y142270D01*
X122993Y142231D01*
X122919Y142196D01*
X122843Y142164D01*
X122766Y142135D01*
X122688Y142111D01*
X122609Y142090D01*
X122528Y142073D01*
X122447Y142059D01*
X122366Y142050D01*
X122284Y142044D01*
X122202Y142042D01*
X120452Y142042D01*
D10*
X350320Y27140D02*
X374320Y27140D01*
X374320Y59140D02*
X350320Y59140D01*
X341320Y47140D02*
X341320Y39140D01*
X383320Y39140D02*
X383320Y47140D01*
X358320Y54140D02*
X358079Y54113D01*
X357838Y54080D01*
X357598Y54041D01*
X357360Y53997D01*
X357122Y53947D01*
X356886Y53891D01*
X356651Y53829D01*
X356417Y53762D01*
X356186Y53689D01*
X355956Y53610D01*
X355728Y53526D01*
X355502Y53437D01*
X355279Y53342D01*
X355058Y53241D01*
X354839Y53136D01*
X354623Y53025D01*
X354410Y52909D01*
X354199Y52787D01*
X353992Y52661D01*
X353787Y52530D01*
X353586Y52394D01*
X353388Y52253D01*
X353194Y52107D01*
X353003Y51957D01*
X352816Y51802D01*
X352633Y51642D01*
X352454Y51479D01*
X352278Y51311D01*
X352107Y51138D01*
X351940Y50962D01*
X351777Y50782D01*
X351619Y50598D01*
X351465Y50410D01*
X351316Y50218D01*
X351172Y50023D01*
X351032Y49824D01*
X350897Y49622D01*
X350767Y49417D01*
X350642Y49209D01*
X350522Y48998D01*
X350407Y48784D01*
X350298Y48567D01*
X350193Y48348D01*
X350094Y48126D01*
X350001Y47902D01*
X349912Y47676D01*
X349830Y47447D01*
X349753Y47217D01*
X349681Y46985D01*
X349615Y46751D01*
X349555Y46516D01*
X349500Y46279D01*
X349451Y46041D01*
X349408Y45802D01*
X349371Y45562D01*
X349340Y45321D01*
X349314Y45080D01*
X349294Y44838D01*
X349280Y44595D01*
X349272Y44353D01*
X349270Y44110D01*
X349274Y43867D01*
X349283Y43624D01*
X349299Y43382D01*
X349320Y43140D01*
X358320Y54140D02*
X366320Y54140D01*
X366561Y54113D01*
X366802Y54080D01*
X367042Y54041D01*
X367280Y53997D01*
X367518Y53947D01*
X367754Y53891D01*
X367989Y53829D01*
X368223Y53762D01*
X368454Y53689D01*
X368684Y53610D01*
X368912Y53526D01*
X369138Y53437D01*
X369361Y53342D01*
X369582Y53241D01*
X369801Y53136D01*
X370017Y53025D01*
X370230Y52909D01*
X370441Y52787D01*
X370648Y52661D01*
X370853Y52530D01*
X371054Y52394D01*
X371252Y52253D01*
X371446Y52107D01*
X371637Y51957D01*
X371824Y51802D01*
X372007Y51642D01*
X372186Y51479D01*
X372362Y51311D01*
X372533Y51138D01*
X372700Y50962D01*
X372863Y50782D01*
X373021Y50598D01*
X373175Y50410D01*
X373324Y50218D01*
X373468Y50023D01*
X373608Y49824D01*
X373743Y49622D01*
X373873Y49417D01*
X373998Y49209D01*
X374118Y48998D01*
X374233Y48784D01*
X374342Y48567D01*
X374447Y48348D01*
X374546Y48126D01*
X374639Y47902D01*
X374728Y47676D01*
X374810Y47447D01*
X374887Y47217D01*
X374959Y46985D01*
X375025Y46751D01*
X375085Y46516D01*
X375140Y46279D01*
X375189Y46041D01*
X375232Y45802D01*
X375269Y45562D01*
X375300Y45321D01*
X375326Y45080D01*
X375346Y44838D01*
X375360Y44595D01*
X375368Y44353D01*
X375370Y44110D01*
X375366Y43867D01*
X375357Y43624D01*
X375341Y43382D01*
X375320Y43140D01*
X375341Y42898D01*
X375357Y42656D01*
X375366Y42413D01*
X375370Y42170D01*
X375368Y41927D01*
X375360Y41685D01*
X375346Y41442D01*
X375326Y41200D01*
X375300Y40959D01*
X375269Y40718D01*
X375232Y40478D01*
X375189Y40239D01*
X375140Y40001D01*
X375085Y39764D01*
X375025Y39529D01*
X374959Y39295D01*
X374887Y39063D01*
X374810Y38833D01*
X374728Y38604D01*
X374639Y38378D01*
X374546Y38154D01*
X374447Y37932D01*
X374342Y37713D01*
X374233Y37496D01*
X374118Y37282D01*
X373998Y37071D01*
X373873Y36863D01*
X373743Y36658D01*
X373608Y36456D01*
X373468Y36257D01*
X373324Y36062D01*
X373175Y35870D01*
X373021Y35682D01*
X372863Y35498D01*
X372700Y35318D01*
X372533Y35142D01*
X372362Y34969D01*
X372186Y34801D01*
X372007Y34638D01*
X371824Y34478D01*
X371637Y34323D01*
X371446Y34173D01*
X371252Y34027D01*
X371054Y33886D01*
X370853Y33750D01*
X370648Y33619D01*
X370441Y33493D01*
X370230Y33371D01*
X370017Y33255D01*
X369801Y33144D01*
X369582Y33039D01*
X369361Y32938D01*
X369138Y32843D01*
X368912Y32754D01*
X368684Y32670D01*
X368454Y32591D01*
X368223Y32518D01*
X367989Y32451D01*
X367754Y32389D01*
X367518Y32333D01*
X367280Y32283D01*
X367042Y32239D01*
X366802Y32200D01*
X366561Y32167D01*
X366320Y32140D01*
X358320Y32140D01*
X358079Y32167D01*
X357838Y32200D01*
X357598Y32239D01*
X357360Y32283D01*
X357122Y32333D01*
X356886Y32389D01*
X356651Y32451D01*
X356417Y32518D01*
X356186Y32591D01*
X355956Y32670D01*
X355728Y32754D01*
X355502Y32843D01*
X355279Y32938D01*
X355058Y33039D01*
X354839Y33144D01*
X354623Y33255D01*
X354410Y33371D01*
X354199Y33493D01*
X353992Y33619D01*
X353787Y33750D01*
X353586Y33886D01*
X353388Y34027D01*
X353194Y34173D01*
X353003Y34323D01*
X352816Y34478D01*
X352633Y34638D01*
X352454Y34801D01*
X352278Y34969D01*
X352107Y35142D01*
X351940Y35318D01*
X351777Y35498D01*
X351619Y35682D01*
X351465Y35870D01*
X351316Y36062D01*
X351172Y36257D01*
X351032Y36456D01*
X350897Y36658D01*
X350767Y36863D01*
X350642Y37071D01*
X350522Y37282D01*
X350407Y37496D01*
X350298Y37713D01*
X350193Y37932D01*
X350094Y38154D01*
X350001Y38378D01*
X349912Y38604D01*
X349830Y38833D01*
X349753Y39063D01*
X349681Y39295D01*
X349615Y39529D01*
X349555Y39764D01*
X349500Y40001D01*
X349451Y40239D01*
X349408Y40478D01*
X349371Y40718D01*
X349340Y40959D01*
X349314Y41200D01*
X349294Y41442D01*
X349280Y41685D01*
X349272Y41927D01*
X349270Y42170D01*
X349274Y42413D01*
X349283Y42656D01*
X349299Y42898D01*
X349320Y43140D01*
D11*
X358629Y18478D02*
X358627Y18400D01*
X358621Y18323D01*
X358612Y18246D01*
X358599Y18170D01*
X358582Y18094D01*
X358561Y18019D01*
X358537Y17946D01*
X358509Y17873D01*
X358477Y17802D01*
X358442Y17733D01*
X358404Y17666D01*
X358363Y17600D01*
X358318Y17537D01*
X358270Y17476D01*
X358220Y17417D01*
X358166Y17361D01*
X358110Y17307D01*
X358051Y17257D01*
X357990Y17209D01*
X357927Y17164D01*
X357861Y17123D01*
X357794Y17085D01*
X357725Y17050D01*
X357654Y17018D01*
X357581Y16990D01*
X357508Y16966D01*
X357433Y16945D01*
X357357Y16928D01*
X357281Y16915D01*
X357204Y16906D01*
X357127Y16900D01*
X357049Y16898D01*
X356934Y16900D01*
X356820Y16906D01*
X356706Y16916D01*
X356592Y16929D01*
X356479Y16947D01*
X356366Y16969D01*
X356254Y16994D01*
X356144Y17023D01*
X356034Y17056D01*
X355925Y17093D01*
X355818Y17133D01*
X355712Y17177D01*
X355608Y17225D01*
X355505Y17276D01*
X355405Y17331D01*
X355306Y17389D01*
X355209Y17451D01*
X355115Y17515D01*
X355022Y17583D01*
X354932Y17655D01*
X354845Y17729D01*
X354760Y17806D01*
X354678Y17886D01*
X354876Y22430D02*
X354878Y22508D01*
X354884Y22585D01*
X354893Y22662D01*
X354906Y22738D01*
X354923Y22814D01*
X354944Y22889D01*
X354968Y22962D01*
X354996Y23035D01*
X355028Y23106D01*
X355063Y23175D01*
X355101Y23242D01*
X355142Y23308D01*
X355187Y23371D01*
X355235Y23432D01*
X355285Y23491D01*
X355339Y23547D01*
X355395Y23601D01*
X355454Y23651D01*
X355515Y23699D01*
X355578Y23744D01*
X355644Y23785D01*
X355711Y23823D01*
X355780Y23858D01*
X355851Y23890D01*
X355924Y23918D01*
X355997Y23942D01*
X356072Y23963D01*
X356148Y23980D01*
X356224Y23993D01*
X356301Y24002D01*
X356379Y24008D01*
X356456Y24010D01*
X356562Y24008D01*
X356668Y24002D01*
X356773Y23993D01*
X356878Y23980D01*
X356983Y23963D01*
X357087Y23942D01*
X357190Y23918D01*
X357292Y23890D01*
X357393Y23858D01*
X357493Y23823D01*
X357591Y23784D01*
X357689Y23741D01*
X357784Y23696D01*
X357878Y23647D01*
X357970Y23594D01*
X358060Y23538D01*
X358148Y23479D01*
X358234Y23417D01*
X355666Y21047D02*
X355599Y21089D01*
X355534Y21134D01*
X355471Y21183D01*
X355410Y21234D01*
X355353Y21289D01*
X355298Y21346D01*
X355245Y21406D01*
X355196Y21468D01*
X355150Y21533D01*
X355108Y21599D01*
X355068Y21668D01*
X355032Y21739D01*
X355000Y21812D01*
X354971Y21886D01*
X354946Y21961D01*
X354925Y22037D01*
X354907Y22115D01*
X354894Y22193D01*
X354884Y22272D01*
X354878Y22351D01*
X354876Y22430D01*
X357839Y19861D02*
X357906Y19819D01*
X357971Y19774D01*
X358034Y19725D01*
X358095Y19674D01*
X358152Y19619D01*
X358207Y19562D01*
X358260Y19502D01*
X358309Y19440D01*
X358355Y19375D01*
X358397Y19309D01*
X358437Y19240D01*
X358473Y19169D01*
X358505Y19096D01*
X358534Y19022D01*
X358559Y18947D01*
X358580Y18871D01*
X358598Y18793D01*
X358611Y18715D01*
X358621Y18636D01*
X358627Y18557D01*
X358629Y18478D01*
X357839Y19861D02*
X355666Y21047D01*
X361539Y24010D02*
X363120Y16898D01*
X364700Y21639D01*
X366281Y16898D01*
X367861Y24010D01*
X371015Y22430D02*
X372991Y24010D01*
X372991Y16898D01*
X374966Y16898D02*
X371015Y16898D01*
D10*
X121600Y370640D02*
X81600Y370640D01*
X81600Y320240D02*
X121600Y320240D01*
D14*
X59252Y365210D02*
X59254Y365276D01*
X59260Y365342D01*
X59270Y365408D01*
X59283Y365473D01*
X59301Y365537D01*
X59322Y365599D01*
X59347Y365661D01*
X59375Y365721D01*
X59407Y365779D01*
X59443Y365835D01*
X59481Y365888D01*
X59523Y365940D01*
X59568Y365989D01*
X59615Y366035D01*
X59666Y366078D01*
X59718Y366118D01*
X59773Y366155D01*
X59830Y366189D01*
X59889Y366219D01*
X59950Y366246D01*
X60012Y366269D01*
X60075Y366288D01*
X60140Y366304D01*
X60205Y366316D01*
X60271Y366324D01*
X60337Y366328D01*
X60403Y366328D01*
X60469Y366324D01*
X60535Y366316D01*
X60600Y366304D01*
X60665Y366288D01*
X60728Y366269D01*
X60790Y366246D01*
X60851Y366219D01*
X60910Y366189D01*
X60967Y366155D01*
X61022Y366118D01*
X61074Y366078D01*
X61125Y366035D01*
X61172Y365989D01*
X61217Y365940D01*
X61259Y365888D01*
X61297Y365835D01*
X61333Y365779D01*
X61365Y365721D01*
X61393Y365661D01*
X61418Y365599D01*
X61439Y365537D01*
X61457Y365473D01*
X61470Y365408D01*
X61480Y365342D01*
X61486Y365276D01*
X61488Y365210D01*
X61486Y365144D01*
X61480Y365078D01*
X61470Y365012D01*
X61457Y364947D01*
X61439Y364883D01*
X61418Y364821D01*
X61393Y364759D01*
X61365Y364699D01*
X61333Y364641D01*
X61297Y364585D01*
X61259Y364532D01*
X61217Y364480D01*
X61172Y364431D01*
X61125Y364385D01*
X61074Y364342D01*
X61022Y364302D01*
X60967Y364265D01*
X60910Y364231D01*
X60851Y364201D01*
X60790Y364174D01*
X60728Y364151D01*
X60665Y364132D01*
X60600Y364116D01*
X60535Y364104D01*
X60469Y364096D01*
X60403Y364092D01*
X60337Y364092D01*
X60271Y364096D01*
X60205Y364104D01*
X60140Y364116D01*
X60075Y364132D01*
X60012Y364151D01*
X59950Y364174D01*
X59889Y364201D01*
X59830Y364231D01*
X59773Y364265D01*
X59718Y364302D01*
X59666Y364342D01*
X59615Y364385D01*
X59568Y364431D01*
X59523Y364480D01*
X59481Y364532D01*
X59443Y364585D01*
X59407Y364641D01*
X59375Y364699D01*
X59347Y364759D01*
X59322Y364821D01*
X59301Y364883D01*
X59283Y364947D01*
X59270Y365012D01*
X59260Y365078D01*
X59254Y365144D01*
X59252Y365210D01*
D12*
X49385Y376366D02*
X49385Y383732D01*
X48567Y376366D02*
X50203Y376366D01*
X50203Y383732D02*
X48567Y383732D01*
X54805Y376366D02*
X56442Y376366D01*
X54805Y376365D02*
X54727Y376367D01*
X54649Y376372D01*
X54572Y376382D01*
X54495Y376395D01*
X54419Y376411D01*
X54344Y376431D01*
X54270Y376455D01*
X54197Y376482D01*
X54125Y376513D01*
X54055Y376547D01*
X53987Y376584D01*
X53920Y376625D01*
X53855Y376669D01*
X53793Y376715D01*
X53733Y376765D01*
X53675Y376817D01*
X53620Y376872D01*
X53568Y376930D01*
X53518Y376990D01*
X53472Y377052D01*
X53428Y377117D01*
X53387Y377184D01*
X53350Y377252D01*
X53316Y377322D01*
X53285Y377394D01*
X53258Y377467D01*
X53234Y377541D01*
X53214Y377616D01*
X53198Y377692D01*
X53185Y377769D01*
X53175Y377846D01*
X53170Y377924D01*
X53168Y378002D01*
X53168Y382095D01*
X53170Y382175D01*
X53176Y382255D01*
X53186Y382335D01*
X53199Y382414D01*
X53217Y382493D01*
X53238Y382570D01*
X53264Y382646D01*
X53293Y382721D01*
X53325Y382795D01*
X53361Y382867D01*
X53401Y382937D01*
X53444Y383004D01*
X53490Y383070D01*
X53540Y383133D01*
X53592Y383194D01*
X53647Y383253D01*
X53706Y383308D01*
X53766Y383360D01*
X53830Y383410D01*
X53896Y383456D01*
X53963Y383499D01*
X54033Y383539D01*
X54105Y383575D01*
X54179Y383607D01*
X54253Y383636D01*
X54330Y383662D01*
X54407Y383683D01*
X54486Y383701D01*
X54565Y383714D01*
X54645Y383724D01*
X54725Y383730D01*
X54805Y383732D01*
X56442Y383732D01*
X59287Y380458D02*
X61742Y380458D01*
X61820Y380456D01*
X61898Y380451D01*
X61975Y380441D01*
X62052Y380428D01*
X62128Y380412D01*
X62203Y380392D01*
X62277Y380368D01*
X62350Y380341D01*
X62422Y380310D01*
X62492Y380276D01*
X62561Y380239D01*
X62627Y380198D01*
X62692Y380154D01*
X62754Y380108D01*
X62814Y380058D01*
X62872Y380006D01*
X62927Y379951D01*
X62979Y379893D01*
X63029Y379833D01*
X63075Y379771D01*
X63119Y379706D01*
X63160Y379640D01*
X63197Y379571D01*
X63231Y379501D01*
X63262Y379429D01*
X63289Y379356D01*
X63313Y379282D01*
X63333Y379207D01*
X63349Y379131D01*
X63362Y379054D01*
X63372Y378977D01*
X63377Y378899D01*
X63379Y378821D01*
X63379Y378412D01*
X63377Y378323D01*
X63371Y378234D01*
X63361Y378145D01*
X63348Y378057D01*
X63331Y377969D01*
X63309Y377882D01*
X63284Y377797D01*
X63256Y377712D01*
X63223Y377629D01*
X63187Y377547D01*
X63148Y377467D01*
X63105Y377389D01*
X63059Y377313D01*
X63009Y377238D01*
X62956Y377166D01*
X62900Y377097D01*
X62841Y377030D01*
X62780Y376965D01*
X62715Y376904D01*
X62648Y376845D01*
X62579Y376789D01*
X62507Y376736D01*
X62432Y376686D01*
X62356Y376640D01*
X62278Y376597D01*
X62198Y376558D01*
X62116Y376522D01*
X62033Y376489D01*
X61948Y376461D01*
X61863Y376436D01*
X61776Y376414D01*
X61688Y376397D01*
X61600Y376384D01*
X61511Y376374D01*
X61422Y376368D01*
X61333Y376366D01*
X61244Y376368D01*
X61155Y376374D01*
X61066Y376384D01*
X60978Y376397D01*
X60890Y376414D01*
X60803Y376436D01*
X60718Y376461D01*
X60633Y376489D01*
X60550Y376522D01*
X60468Y376558D01*
X60388Y376597D01*
X60310Y376640D01*
X60234Y376686D01*
X60159Y376736D01*
X60087Y376789D01*
X60018Y376845D01*
X59951Y376904D01*
X59886Y376965D01*
X59825Y377030D01*
X59766Y377097D01*
X59710Y377166D01*
X59657Y377238D01*
X59607Y377313D01*
X59561Y377389D01*
X59518Y377467D01*
X59479Y377547D01*
X59443Y377629D01*
X59410Y377712D01*
X59382Y377797D01*
X59357Y377882D01*
X59335Y377969D01*
X59318Y378057D01*
X59305Y378145D01*
X59295Y378234D01*
X59289Y378323D01*
X59287Y378412D01*
X59287Y380458D01*
X59289Y380572D01*
X59295Y380686D01*
X59305Y380800D01*
X59319Y380914D01*
X59337Y381027D01*
X59359Y381139D01*
X59384Y381250D01*
X59414Y381360D01*
X59447Y381470D01*
X59484Y381578D01*
X59525Y381684D01*
X59570Y381790D01*
X59618Y381893D01*
X59670Y381995D01*
X59726Y382095D01*
X59784Y382193D01*
X59847Y382289D01*
X59912Y382382D01*
X59981Y382474D01*
X60053Y382562D01*
X60128Y382649D01*
X60206Y382732D01*
X60287Y382813D01*
X60370Y382891D01*
X60457Y382966D01*
X60545Y383038D01*
X60637Y383107D01*
X60730Y383172D01*
X60826Y383234D01*
X60924Y383293D01*
X61024Y383349D01*
X61126Y383401D01*
X61229Y383449D01*
X61335Y383494D01*
X61441Y383535D01*
X61549Y383572D01*
X61659Y383605D01*
X61769Y383635D01*
X61880Y383660D01*
X61992Y383682D01*
X62105Y383700D01*
X62219Y383714D01*
X62333Y383724D01*
X62447Y383730D01*
X62561Y383732D01*
D15*
X382168Y113820D02*
X382170Y113939D01*
X382176Y114059D01*
X382186Y114178D01*
X382200Y114296D01*
X382218Y114414D01*
X382239Y114532D01*
X382265Y114648D01*
X382294Y114764D01*
X382328Y114879D01*
X382365Y114992D01*
X382406Y115104D01*
X382450Y115215D01*
X382498Y115325D01*
X382550Y115432D01*
X382605Y115538D01*
X382664Y115642D01*
X382727Y115744D01*
X382792Y115843D01*
X382861Y115941D01*
X382933Y116036D01*
X383008Y116129D01*
X383087Y116219D01*
X383168Y116307D01*
X383252Y116391D01*
X383339Y116473D01*
X383428Y116552D01*
X383520Y116628D01*
X383615Y116701D01*
X383712Y116771D01*
X383811Y116837D01*
X383913Y116900D01*
X384016Y116960D01*
X384121Y117016D01*
X384228Y117069D01*
X384337Y117118D01*
X384448Y117164D01*
X384560Y117205D01*
X384673Y117243D01*
X384787Y117278D01*
X384903Y117308D01*
X385019Y117335D01*
X385136Y117357D01*
X385254Y117376D01*
X385373Y117391D01*
X385492Y117402D01*
X385611Y117409D01*
X385730Y117412D01*
X385850Y117411D01*
X385969Y117406D01*
X386088Y117397D01*
X386207Y117384D01*
X386325Y117367D01*
X386442Y117347D01*
X386559Y117322D01*
X386675Y117293D01*
X386790Y117261D01*
X386904Y117225D01*
X387017Y117185D01*
X387128Y117141D01*
X387237Y117094D01*
X387345Y117043D01*
X387452Y116989D01*
X387556Y116931D01*
X387658Y116869D01*
X387759Y116805D01*
X387857Y116736D01*
X387953Y116665D01*
X388046Y116591D01*
X388137Y116513D01*
X388225Y116433D01*
X388310Y116349D01*
X388393Y116263D01*
X388473Y116174D01*
X388550Y116083D01*
X388623Y115989D01*
X388694Y115892D01*
X388761Y115794D01*
X388825Y115693D01*
X388886Y115590D01*
X388943Y115485D01*
X388996Y115379D01*
X389046Y115270D01*
X389093Y115160D01*
X389135Y115049D01*
X389174Y114936D01*
X389210Y114822D01*
X389241Y114706D01*
X389268Y114590D01*
X389292Y114473D01*
X389312Y114355D01*
X389328Y114237D01*
X389340Y114118D01*
X389348Y113999D01*
X389352Y113880D01*
X389352Y113760D01*
X389348Y113641D01*
X389340Y113522D01*
X389328Y113403D01*
X389312Y113285D01*
X389292Y113167D01*
X389268Y113050D01*
X389241Y112934D01*
X389210Y112818D01*
X389174Y112704D01*
X389135Y112591D01*
X389093Y112480D01*
X389046Y112370D01*
X388996Y112261D01*
X388943Y112155D01*
X388886Y112050D01*
X388825Y111947D01*
X388761Y111846D01*
X388694Y111748D01*
X388623Y111651D01*
X388550Y111557D01*
X388473Y111466D01*
X388393Y111377D01*
X388310Y111291D01*
X388225Y111207D01*
X388137Y111127D01*
X388046Y111049D01*
X387953Y110975D01*
X387857Y110904D01*
X387759Y110835D01*
X387658Y110771D01*
X387556Y110709D01*
X387452Y110651D01*
X387345Y110597D01*
X387237Y110546D01*
X387128Y110499D01*
X387017Y110455D01*
X386904Y110415D01*
X386790Y110379D01*
X386675Y110347D01*
X386559Y110318D01*
X386442Y110293D01*
X386325Y110273D01*
X386207Y110256D01*
X386088Y110243D01*
X385969Y110234D01*
X385850Y110229D01*
X385730Y110228D01*
X385611Y110231D01*
X385492Y110238D01*
X385373Y110249D01*
X385254Y110264D01*
X385136Y110283D01*
X385019Y110305D01*
X384903Y110332D01*
X384787Y110362D01*
X384673Y110397D01*
X384560Y110435D01*
X384448Y110476D01*
X384337Y110522D01*
X384228Y110571D01*
X384121Y110624D01*
X384016Y110680D01*
X383913Y110740D01*
X383811Y110803D01*
X383712Y110869D01*
X383615Y110939D01*
X383520Y111012D01*
X383428Y111088D01*
X383339Y111167D01*
X383252Y111249D01*
X383168Y111333D01*
X383087Y111421D01*
X383008Y111511D01*
X382933Y111604D01*
X382861Y111699D01*
X382792Y111797D01*
X382727Y111896D01*
X382664Y111998D01*
X382605Y112102D01*
X382550Y112208D01*
X382498Y112315D01*
X382450Y112425D01*
X382406Y112536D01*
X382365Y112648D01*
X382328Y112761D01*
X382294Y112876D01*
X382265Y112992D01*
X382239Y113108D01*
X382218Y113226D01*
X382200Y113344D01*
X382186Y113462D01*
X382176Y113581D01*
X382170Y113701D01*
X382168Y113820D01*
D12*
X356018Y115093D02*
X356018Y107727D01*
X355200Y107727D02*
X356837Y107727D01*
X356837Y115093D02*
X355200Y115093D01*
X361438Y107727D02*
X363075Y107727D01*
X361438Y107727D02*
X361360Y107729D01*
X361282Y107734D01*
X361205Y107744D01*
X361128Y107757D01*
X361052Y107773D01*
X360977Y107793D01*
X360903Y107817D01*
X360830Y107844D01*
X360758Y107875D01*
X360688Y107909D01*
X360620Y107946D01*
X360553Y107987D01*
X360488Y108031D01*
X360426Y108077D01*
X360366Y108127D01*
X360308Y108179D01*
X360253Y108234D01*
X360201Y108292D01*
X360151Y108352D01*
X360105Y108414D01*
X360061Y108479D01*
X360020Y108546D01*
X359983Y108614D01*
X359949Y108684D01*
X359918Y108756D01*
X359891Y108829D01*
X359867Y108903D01*
X359847Y108978D01*
X359831Y109054D01*
X359818Y109131D01*
X359808Y109208D01*
X359803Y109286D01*
X359801Y109364D01*
X359801Y113456D01*
X359803Y113536D01*
X359809Y113616D01*
X359819Y113696D01*
X359832Y113775D01*
X359850Y113854D01*
X359871Y113931D01*
X359897Y114007D01*
X359926Y114082D01*
X359958Y114156D01*
X359994Y114228D01*
X360034Y114298D01*
X360077Y114365D01*
X360123Y114431D01*
X360173Y114494D01*
X360225Y114555D01*
X360280Y114614D01*
X360339Y114669D01*
X360399Y114721D01*
X360463Y114771D01*
X360529Y114817D01*
X360596Y114860D01*
X360666Y114900D01*
X360738Y114936D01*
X360812Y114968D01*
X360886Y114997D01*
X360963Y115023D01*
X361040Y115044D01*
X361119Y115062D01*
X361198Y115075D01*
X361278Y115085D01*
X361358Y115091D01*
X361438Y115093D01*
X363075Y115093D01*
X368171Y115093D02*
X368256Y115091D01*
X368341Y115085D01*
X368425Y115075D01*
X368509Y115062D01*
X368593Y115044D01*
X368675Y115023D01*
X368756Y114998D01*
X368836Y114969D01*
X368915Y114936D01*
X368992Y114900D01*
X369067Y114860D01*
X369141Y114817D01*
X369212Y114771D01*
X369281Y114721D01*
X369348Y114668D01*
X369412Y114612D01*
X369473Y114553D01*
X369532Y114492D01*
X369588Y114428D01*
X369641Y114361D01*
X369691Y114292D01*
X369737Y114221D01*
X369780Y114147D01*
X369820Y114072D01*
X369856Y113995D01*
X369889Y113916D01*
X369918Y113836D01*
X369943Y113755D01*
X369964Y113673D01*
X369982Y113589D01*
X369995Y113505D01*
X370005Y113421D01*
X370011Y113336D01*
X370013Y113251D01*
X368171Y115093D02*
X368075Y115091D01*
X367979Y115085D01*
X367884Y115075D01*
X367789Y115062D01*
X367694Y115044D01*
X367601Y115023D01*
X367508Y114998D01*
X367417Y114969D01*
X367326Y114937D01*
X367237Y114901D01*
X367150Y114861D01*
X367064Y114818D01*
X366980Y114772D01*
X366898Y114722D01*
X366818Y114668D01*
X366741Y114612D01*
X366666Y114552D01*
X366593Y114490D01*
X366523Y114424D01*
X366455Y114356D01*
X366390Y114285D01*
X366329Y114212D01*
X366270Y114136D01*
X366214Y114057D01*
X366162Y113977D01*
X366113Y113894D01*
X366067Y113810D01*
X366025Y113724D01*
X365987Y113636D01*
X365952Y113547D01*
X365920Y113456D01*
X369399Y111819D02*
X369459Y111878D01*
X369516Y111940D01*
X369571Y112004D01*
X369622Y112071D01*
X369671Y112140D01*
X369717Y112210D01*
X369760Y112283D01*
X369800Y112357D01*
X369836Y112433D01*
X369869Y112511D01*
X369899Y112590D01*
X369926Y112670D01*
X369949Y112751D01*
X369968Y112833D01*
X369984Y112915D01*
X369997Y112999D01*
X370006Y113083D01*
X370011Y113167D01*
X370013Y113251D01*
X369399Y111819D02*
X365920Y107727D01*
X370013Y107727D01*
D10*
X351680Y263190D02*
X345180Y263190D01*
X371680Y263190D02*
X378180Y263190D01*
X351680Y232190D02*
X345180Y232190D01*
X371680Y232190D02*
X378180Y232190D01*
D13*
X338680Y259690D02*
X338682Y259753D01*
X338688Y259815D01*
X338698Y259877D01*
X338711Y259939D01*
X338729Y259999D01*
X338750Y260058D01*
X338775Y260116D01*
X338804Y260172D01*
X338836Y260226D01*
X338871Y260278D01*
X338909Y260327D01*
X338951Y260375D01*
X338995Y260419D01*
X339043Y260461D01*
X339092Y260499D01*
X339144Y260534D01*
X339198Y260566D01*
X339254Y260595D01*
X339312Y260620D01*
X339371Y260641D01*
X339431Y260659D01*
X339493Y260672D01*
X339555Y260682D01*
X339617Y260688D01*
X339680Y260690D01*
X339743Y260688D01*
X339805Y260682D01*
X339867Y260672D01*
X339929Y260659D01*
X339989Y260641D01*
X340048Y260620D01*
X340106Y260595D01*
X340162Y260566D01*
X340216Y260534D01*
X340268Y260499D01*
X340317Y260461D01*
X340365Y260419D01*
X340409Y260375D01*
X340451Y260327D01*
X340489Y260278D01*
X340524Y260226D01*
X340556Y260172D01*
X340585Y260116D01*
X340610Y260058D01*
X340631Y259999D01*
X340649Y259939D01*
X340662Y259877D01*
X340672Y259815D01*
X340678Y259753D01*
X340680Y259690D01*
X340678Y259627D01*
X340672Y259565D01*
X340662Y259503D01*
X340649Y259441D01*
X340631Y259381D01*
X340610Y259322D01*
X340585Y259264D01*
X340556Y259208D01*
X340524Y259154D01*
X340489Y259102D01*
X340451Y259053D01*
X340409Y259005D01*
X340365Y258961D01*
X340317Y258919D01*
X340268Y258881D01*
X340216Y258846D01*
X340162Y258814D01*
X340106Y258785D01*
X340048Y258760D01*
X339989Y258739D01*
X339929Y258721D01*
X339867Y258708D01*
X339805Y258698D01*
X339743Y258692D01*
X339680Y258690D01*
X339617Y258692D01*
X339555Y258698D01*
X339493Y258708D01*
X339431Y258721D01*
X339371Y258739D01*
X339312Y258760D01*
X339254Y258785D01*
X339198Y258814D01*
X339144Y258846D01*
X339092Y258881D01*
X339043Y258919D01*
X338995Y258961D01*
X338951Y259005D01*
X338909Y259053D01*
X338871Y259102D01*
X338836Y259154D01*
X338804Y259208D01*
X338775Y259264D01*
X338750Y259322D01*
X338729Y259381D01*
X338711Y259441D01*
X338698Y259503D01*
X338688Y259565D01*
X338682Y259627D01*
X338680Y259690D01*
D12*
X360349Y269511D02*
X360349Y276877D01*
X359531Y269511D02*
X361168Y269511D01*
X361168Y276877D02*
X359531Y276877D01*
X365769Y269511D02*
X367406Y269511D01*
X365769Y269511D02*
X365691Y269513D01*
X365613Y269518D01*
X365536Y269528D01*
X365459Y269541D01*
X365383Y269557D01*
X365308Y269577D01*
X365234Y269601D01*
X365161Y269628D01*
X365089Y269659D01*
X365019Y269693D01*
X364951Y269730D01*
X364884Y269771D01*
X364819Y269815D01*
X364757Y269861D01*
X364697Y269911D01*
X364639Y269963D01*
X364584Y270018D01*
X364532Y270076D01*
X364482Y270136D01*
X364436Y270198D01*
X364392Y270263D01*
X364351Y270330D01*
X364314Y270398D01*
X364280Y270468D01*
X364249Y270540D01*
X364222Y270613D01*
X364198Y270687D01*
X364178Y270762D01*
X364162Y270838D01*
X364149Y270915D01*
X364139Y270992D01*
X364134Y271070D01*
X364132Y271148D01*
X364132Y275240D01*
X364134Y275320D01*
X364140Y275400D01*
X364150Y275480D01*
X364163Y275559D01*
X364181Y275638D01*
X364202Y275715D01*
X364228Y275791D01*
X364257Y275866D01*
X364289Y275940D01*
X364325Y276012D01*
X364365Y276082D01*
X364408Y276149D01*
X364454Y276215D01*
X364504Y276278D01*
X364556Y276339D01*
X364611Y276398D01*
X364670Y276453D01*
X364730Y276505D01*
X364794Y276555D01*
X364860Y276601D01*
X364927Y276644D01*
X364997Y276684D01*
X365069Y276720D01*
X365143Y276752D01*
X365217Y276781D01*
X365294Y276807D01*
X365371Y276828D01*
X365450Y276846D01*
X365529Y276859D01*
X365609Y276869D01*
X365689Y276875D01*
X365769Y276877D01*
X367406Y276877D01*
X370251Y269511D02*
X372298Y269511D01*
X372387Y269513D01*
X372476Y269519D01*
X372565Y269529D01*
X372653Y269542D01*
X372741Y269559D01*
X372828Y269581D01*
X372913Y269606D01*
X372998Y269634D01*
X373081Y269667D01*
X373163Y269703D01*
X373243Y269742D01*
X373321Y269785D01*
X373397Y269831D01*
X373472Y269881D01*
X373544Y269934D01*
X373613Y269990D01*
X373680Y270049D01*
X373745Y270110D01*
X373806Y270175D01*
X373865Y270242D01*
X373921Y270311D01*
X373974Y270383D01*
X374024Y270458D01*
X374070Y270534D01*
X374113Y270612D01*
X374152Y270692D01*
X374188Y270774D01*
X374221Y270857D01*
X374249Y270942D01*
X374274Y271027D01*
X374296Y271114D01*
X374313Y271202D01*
X374326Y271290D01*
X374336Y271379D01*
X374342Y271468D01*
X374344Y271557D01*
X374342Y271646D01*
X374336Y271735D01*
X374326Y271824D01*
X374313Y271912D01*
X374296Y272000D01*
X374274Y272087D01*
X374249Y272172D01*
X374221Y272257D01*
X374188Y272340D01*
X374152Y272422D01*
X374113Y272502D01*
X374070Y272580D01*
X374024Y272656D01*
X373974Y272731D01*
X373921Y272803D01*
X373865Y272872D01*
X373806Y272939D01*
X373745Y273004D01*
X373680Y273065D01*
X373613Y273124D01*
X373544Y273180D01*
X373472Y273233D01*
X373397Y273283D01*
X373321Y273329D01*
X373243Y273372D01*
X373163Y273411D01*
X373081Y273447D01*
X372998Y273480D01*
X372913Y273508D01*
X372828Y273533D01*
X372741Y273555D01*
X372653Y273572D01*
X372565Y273585D01*
X372476Y273595D01*
X372387Y273601D01*
X372298Y273603D01*
X372707Y276877D02*
X370251Y276877D01*
X372707Y276877D02*
X372786Y276875D01*
X372865Y276869D01*
X372944Y276860D01*
X373022Y276847D01*
X373099Y276829D01*
X373175Y276809D01*
X373250Y276784D01*
X373324Y276756D01*
X373397Y276725D01*
X373468Y276689D01*
X373537Y276651D01*
X373604Y276609D01*
X373669Y276564D01*
X373732Y276516D01*
X373793Y276465D01*
X373850Y276411D01*
X373906Y276355D01*
X373958Y276296D01*
X374008Y276234D01*
X374054Y276170D01*
X374098Y276104D01*
X374138Y276036D01*
X374174Y275966D01*
X374208Y275894D01*
X374238Y275820D01*
X374264Y275746D01*
X374287Y275670D01*
X374305Y275593D01*
X374321Y275516D01*
X374332Y275437D01*
X374340Y275359D01*
X374344Y275280D01*
X374344Y275200D01*
X374340Y275121D01*
X374332Y275043D01*
X374321Y274964D01*
X374305Y274887D01*
X374287Y274810D01*
X374264Y274734D01*
X374238Y274660D01*
X374208Y274586D01*
X374174Y274514D01*
X374138Y274444D01*
X374098Y274376D01*
X374054Y274310D01*
X374008Y274246D01*
X373958Y274184D01*
X373906Y274125D01*
X373850Y274069D01*
X373793Y274015D01*
X373732Y273964D01*
X373669Y273916D01*
X373604Y273871D01*
X373537Y273829D01*
X373468Y273791D01*
X373397Y273755D01*
X373324Y273724D01*
X373250Y273696D01*
X373175Y273671D01*
X373099Y273651D01*
X373022Y273633D01*
X372944Y273620D01*
X372865Y273611D01*
X372786Y273605D01*
X372707Y273603D01*
X371070Y273603D01*
D10*
X219140Y119910D02*
X219140Y115910D01*
X219140Y143910D02*
X219140Y147910D01*
X169140Y147910D01*
X169140Y143910D01*
X169140Y119910D02*
X169140Y115910D01*
X219140Y115910D01*
X196680Y121750D02*
X196680Y142070D01*
X191600Y142070D01*
X191600Y121750D01*
X196680Y121750D01*
X200490Y119210D02*
X200490Y131910D01*
X200490Y144610D01*
X187790Y131910D02*
X187790Y119210D01*
X187790Y131910D02*
X187790Y144610D01*
X200490Y131910D02*
X205570Y131910D01*
X187790Y131910D02*
X182710Y131910D01*
D11*
X217818Y112352D02*
X212569Y104478D01*
X217818Y104478D02*
X212569Y112352D01*
X221008Y110602D02*
X223195Y112352D01*
X223195Y104478D01*
X221008Y104478D02*
X225382Y104478D01*
D15*
X189900Y270200D02*
X192650Y272950D01*
X254650Y272950D01*
X257400Y270200D01*
X257400Y208200D01*
X254650Y205450D01*
X192650Y205450D01*
X189900Y208200D01*
X189900Y270200D01*
X197650Y219200D02*
X197652Y219354D01*
X197658Y219509D01*
X197668Y219663D01*
X197682Y219817D01*
X197700Y219970D01*
X197721Y220123D01*
X197747Y220276D01*
X197777Y220427D01*
X197810Y220578D01*
X197848Y220728D01*
X197889Y220877D01*
X197934Y221025D01*
X197983Y221171D01*
X198036Y221317D01*
X198092Y221460D01*
X198152Y221603D01*
X198216Y221743D01*
X198283Y221883D01*
X198354Y222020D01*
X198428Y222155D01*
X198506Y222289D01*
X198587Y222420D01*
X198672Y222549D01*
X198760Y222677D01*
X198851Y222801D01*
X198945Y222924D01*
X199043Y223044D01*
X199143Y223161D01*
X199247Y223276D01*
X199353Y223388D01*
X199462Y223497D01*
X199574Y223603D01*
X199689Y223707D01*
X199806Y223807D01*
X199926Y223905D01*
X200049Y223999D01*
X200173Y224090D01*
X200301Y224178D01*
X200430Y224263D01*
X200561Y224344D01*
X200695Y224422D01*
X200830Y224496D01*
X200967Y224567D01*
X201107Y224634D01*
X201247Y224698D01*
X201390Y224758D01*
X201533Y224814D01*
X201679Y224867D01*
X201825Y224916D01*
X201973Y224961D01*
X202122Y225002D01*
X202272Y225040D01*
X202423Y225073D01*
X202574Y225103D01*
X202727Y225129D01*
X202880Y225150D01*
X203033Y225168D01*
X203187Y225182D01*
X203341Y225192D01*
X203496Y225198D01*
X203650Y225200D01*
X203804Y225198D01*
X203959Y225192D01*
X204113Y225182D01*
X204267Y225168D01*
X204420Y225150D01*
X204573Y225129D01*
X204726Y225103D01*
X204877Y225073D01*
X205028Y225040D01*
X205178Y225002D01*
X205327Y224961D01*
X205475Y224916D01*
X205621Y224867D01*
X205767Y224814D01*
X205910Y224758D01*
X206053Y224698D01*
X206193Y224634D01*
X206333Y224567D01*
X206470Y224496D01*
X206605Y224422D01*
X206739Y224344D01*
X206870Y224263D01*
X206999Y224178D01*
X207127Y224090D01*
X207251Y223999D01*
X207374Y223905D01*
X207494Y223807D01*
X207611Y223707D01*
X207726Y223603D01*
X207838Y223497D01*
X207947Y223388D01*
X208053Y223276D01*
X208157Y223161D01*
X208257Y223044D01*
X208355Y222924D01*
X208449Y222801D01*
X208540Y222677D01*
X208628Y222549D01*
X208713Y222420D01*
X208794Y222289D01*
X208872Y222155D01*
X208946Y222020D01*
X209017Y221883D01*
X209084Y221743D01*
X209148Y221603D01*
X209208Y221460D01*
X209264Y221317D01*
X209317Y221171D01*
X209366Y221025D01*
X209411Y220877D01*
X209452Y220728D01*
X209490Y220578D01*
X209523Y220427D01*
X209553Y220276D01*
X209579Y220123D01*
X209600Y219970D01*
X209618Y219817D01*
X209632Y219663D01*
X209642Y219509D01*
X209648Y219354D01*
X209650Y219200D01*
X209648Y219046D01*
X209642Y218891D01*
X209632Y218737D01*
X209618Y218583D01*
X209600Y218430D01*
X209579Y218277D01*
X209553Y218124D01*
X209523Y217973D01*
X209490Y217822D01*
X209452Y217672D01*
X209411Y217523D01*
X209366Y217375D01*
X209317Y217229D01*
X209264Y217083D01*
X209208Y216940D01*
X209148Y216797D01*
X209084Y216657D01*
X209017Y216517D01*
X208946Y216380D01*
X208872Y216245D01*
X208794Y216111D01*
X208713Y215980D01*
X208628Y215851D01*
X208540Y215723D01*
X208449Y215599D01*
X208355Y215476D01*
X208257Y215356D01*
X208157Y215239D01*
X208053Y215124D01*
X207947Y215012D01*
X207838Y214903D01*
X207726Y214797D01*
X207611Y214693D01*
X207494Y214593D01*
X207374Y214495D01*
X207251Y214401D01*
X207127Y214310D01*
X206999Y214222D01*
X206870Y214137D01*
X206739Y214056D01*
X206605Y213978D01*
X206470Y213904D01*
X206333Y213833D01*
X206193Y213766D01*
X206053Y213702D01*
X205910Y213642D01*
X205767Y213586D01*
X205621Y213533D01*
X205475Y213484D01*
X205327Y213439D01*
X205178Y213398D01*
X205028Y213360D01*
X204877Y213327D01*
X204726Y213297D01*
X204573Y213271D01*
X204420Y213250D01*
X204267Y213232D01*
X204113Y213218D01*
X203959Y213208D01*
X203804Y213202D01*
X203650Y213200D01*
X203496Y213202D01*
X203341Y213208D01*
X203187Y213218D01*
X203033Y213232D01*
X202880Y213250D01*
X202727Y213271D01*
X202574Y213297D01*
X202423Y213327D01*
X202272Y213360D01*
X202122Y213398D01*
X201973Y213439D01*
X201825Y213484D01*
X201679Y213533D01*
X201533Y213586D01*
X201390Y213642D01*
X201247Y213702D01*
X201107Y213766D01*
X200967Y213833D01*
X200830Y213904D01*
X200695Y213978D01*
X200561Y214056D01*
X200430Y214137D01*
X200301Y214222D01*
X200173Y214310D01*
X200049Y214401D01*
X199926Y214495D01*
X199806Y214593D01*
X199689Y214693D01*
X199574Y214797D01*
X199462Y214903D01*
X199353Y215012D01*
X199247Y215124D01*
X199143Y215239D01*
X199043Y215356D01*
X198945Y215476D01*
X198851Y215599D01*
X198760Y215723D01*
X198672Y215851D01*
X198587Y215980D01*
X198506Y216111D01*
X198428Y216245D01*
X198354Y216380D01*
X198283Y216517D01*
X198216Y216657D01*
X198152Y216797D01*
X198092Y216940D01*
X198036Y217083D01*
X197983Y217229D01*
X197934Y217375D01*
X197889Y217523D01*
X197848Y217672D01*
X197810Y217822D01*
X197777Y217973D01*
X197747Y218124D01*
X197721Y218277D01*
X197700Y218430D01*
X197682Y218583D01*
X197668Y218737D01*
X197658Y218891D01*
X197652Y219046D01*
X197650Y219200D01*
D12*
X176589Y276411D02*
X176589Y283777D01*
X175771Y276411D02*
X177408Y276411D01*
X177408Y283777D02*
X175771Y283777D01*
X182009Y276411D02*
X183646Y276411D01*
X182009Y276411D02*
X181931Y276413D01*
X181853Y276418D01*
X181776Y276428D01*
X181699Y276441D01*
X181623Y276457D01*
X181548Y276477D01*
X181474Y276501D01*
X181401Y276528D01*
X181329Y276559D01*
X181259Y276593D01*
X181191Y276630D01*
X181124Y276671D01*
X181059Y276715D01*
X180997Y276761D01*
X180937Y276811D01*
X180879Y276863D01*
X180824Y276918D01*
X180772Y276976D01*
X180722Y277036D01*
X180676Y277098D01*
X180632Y277163D01*
X180591Y277230D01*
X180554Y277298D01*
X180520Y277368D01*
X180489Y277440D01*
X180462Y277513D01*
X180438Y277587D01*
X180418Y277662D01*
X180402Y277738D01*
X180389Y277815D01*
X180379Y277892D01*
X180374Y277970D01*
X180372Y278048D01*
X180372Y282140D01*
X180374Y282220D01*
X180380Y282300D01*
X180390Y282380D01*
X180403Y282459D01*
X180421Y282538D01*
X180442Y282615D01*
X180468Y282691D01*
X180497Y282766D01*
X180529Y282840D01*
X180565Y282912D01*
X180605Y282982D01*
X180648Y283049D01*
X180694Y283115D01*
X180744Y283178D01*
X180796Y283239D01*
X180851Y283298D01*
X180910Y283353D01*
X180970Y283405D01*
X181034Y283455D01*
X181100Y283501D01*
X181167Y283544D01*
X181237Y283584D01*
X181309Y283620D01*
X181383Y283652D01*
X181457Y283681D01*
X181534Y283707D01*
X181611Y283728D01*
X181690Y283746D01*
X181769Y283759D01*
X181849Y283769D01*
X181929Y283775D01*
X182009Y283777D01*
X183646Y283777D01*
X186491Y282140D02*
X188538Y283777D01*
X188538Y276411D01*
X190584Y276411D02*
X186491Y276411D01*
D10*
X158710Y233980D02*
X158710Y206040D01*
X146010Y206040D01*
X146010Y233980D01*
X158710Y233980D01*
D11*
X156170Y241793D02*
X156170Y243373D01*
X156170Y241793D02*
X156168Y241715D01*
X156162Y241638D01*
X156153Y241561D01*
X156140Y241485D01*
X156123Y241409D01*
X156102Y241334D01*
X156078Y241261D01*
X156050Y241188D01*
X156018Y241117D01*
X155983Y241048D01*
X155945Y240981D01*
X155904Y240915D01*
X155859Y240852D01*
X155811Y240791D01*
X155761Y240732D01*
X155707Y240676D01*
X155651Y240622D01*
X155592Y240572D01*
X155531Y240524D01*
X155468Y240479D01*
X155402Y240438D01*
X155335Y240400D01*
X155266Y240365D01*
X155195Y240333D01*
X155122Y240305D01*
X155049Y240281D01*
X154974Y240260D01*
X154898Y240243D01*
X154822Y240230D01*
X154745Y240221D01*
X154668Y240215D01*
X154590Y240213D01*
X154590Y240212D02*
X150638Y240212D01*
X150560Y240214D01*
X150483Y240220D01*
X150406Y240229D01*
X150330Y240242D01*
X150254Y240259D01*
X150179Y240280D01*
X150105Y240304D01*
X150033Y240332D01*
X149962Y240364D01*
X149893Y240399D01*
X149825Y240437D01*
X149760Y240478D01*
X149696Y240523D01*
X149635Y240571D01*
X149576Y240622D01*
X149520Y240675D01*
X149467Y240731D01*
X149416Y240790D01*
X149368Y240851D01*
X149323Y240915D01*
X149282Y240980D01*
X149244Y241048D01*
X149209Y241117D01*
X149177Y241188D01*
X149149Y241260D01*
X149125Y241334D01*
X149104Y241409D01*
X149087Y241485D01*
X149074Y241561D01*
X149065Y241638D01*
X149059Y241715D01*
X149057Y241793D01*
X149058Y241793D02*
X149058Y243373D01*
X150638Y246336D02*
X149058Y248311D01*
X156170Y248311D01*
X156170Y246336D02*
X156170Y250287D01*
X154194Y253650D02*
X154107Y253652D01*
X154019Y253658D01*
X153932Y253667D01*
X153846Y253681D01*
X153760Y253698D01*
X153676Y253719D01*
X153592Y253744D01*
X153509Y253773D01*
X153428Y253805D01*
X153348Y253840D01*
X153270Y253879D01*
X153193Y253922D01*
X153119Y253968D01*
X153047Y254017D01*
X152977Y254069D01*
X152909Y254125D01*
X152844Y254183D01*
X152781Y254244D01*
X152722Y254308D01*
X152665Y254375D01*
X152611Y254443D01*
X152560Y254515D01*
X152513Y254588D01*
X152468Y254663D01*
X152427Y254741D01*
X152390Y254820D01*
X152356Y254900D01*
X152326Y254982D01*
X152299Y255065D01*
X152276Y255150D01*
X152257Y255235D01*
X152242Y255321D01*
X152230Y255408D01*
X152222Y255495D01*
X152218Y255582D01*
X152218Y255670D01*
X152222Y255757D01*
X152230Y255844D01*
X152242Y255931D01*
X152257Y256017D01*
X152276Y256102D01*
X152299Y256187D01*
X152326Y256270D01*
X152356Y256352D01*
X152390Y256432D01*
X152427Y256511D01*
X152468Y256589D01*
X152513Y256664D01*
X152560Y256737D01*
X152611Y256809D01*
X152665Y256877D01*
X152722Y256944D01*
X152781Y257008D01*
X152844Y257069D01*
X152909Y257127D01*
X152977Y257183D01*
X153047Y257235D01*
X153119Y257284D01*
X153193Y257330D01*
X153270Y257373D01*
X153348Y257412D01*
X153428Y257447D01*
X153509Y257479D01*
X153592Y257508D01*
X153676Y257533D01*
X153760Y257554D01*
X153846Y257571D01*
X153932Y257585D01*
X154019Y257594D01*
X154107Y257600D01*
X154194Y257602D01*
X154281Y257600D01*
X154369Y257594D01*
X154456Y257585D01*
X154542Y257571D01*
X154628Y257554D01*
X154712Y257533D01*
X154796Y257508D01*
X154879Y257479D01*
X154960Y257447D01*
X155040Y257412D01*
X155118Y257373D01*
X155195Y257330D01*
X155269Y257284D01*
X155341Y257235D01*
X155411Y257183D01*
X155479Y257127D01*
X155544Y257069D01*
X155607Y257008D01*
X155666Y256944D01*
X155723Y256877D01*
X155777Y256809D01*
X155828Y256737D01*
X155875Y256664D01*
X155920Y256589D01*
X155961Y256511D01*
X155998Y256432D01*
X156032Y256352D01*
X156062Y256270D01*
X156089Y256187D01*
X156112Y256102D01*
X156131Y256017D01*
X156146Y255931D01*
X156158Y255844D01*
X156166Y255757D01*
X156170Y255670D01*
X156170Y255582D01*
X156166Y255495D01*
X156158Y255408D01*
X156146Y255321D01*
X156131Y255235D01*
X156112Y255150D01*
X156089Y255065D01*
X156062Y254982D01*
X156032Y254900D01*
X155998Y254820D01*
X155961Y254741D01*
X155920Y254663D01*
X155875Y254588D01*
X155828Y254515D01*
X155777Y254443D01*
X155723Y254375D01*
X155666Y254308D01*
X155607Y254244D01*
X155544Y254183D01*
X155479Y254125D01*
X155411Y254069D01*
X155341Y254017D01*
X155269Y253968D01*
X155195Y253922D01*
X155118Y253879D01*
X155040Y253840D01*
X154960Y253805D01*
X154879Y253773D01*
X154796Y253744D01*
X154712Y253719D01*
X154628Y253698D01*
X154542Y253681D01*
X154456Y253667D01*
X154369Y253658D01*
X154281Y253652D01*
X154194Y253650D01*
X150638Y254046D02*
X150559Y254048D01*
X150481Y254054D01*
X150403Y254064D01*
X150325Y254077D01*
X150248Y254095D01*
X150172Y254116D01*
X150098Y254141D01*
X150024Y254170D01*
X149952Y254202D01*
X149882Y254238D01*
X149814Y254278D01*
X149748Y254321D01*
X149684Y254367D01*
X149622Y254416D01*
X149563Y254468D01*
X149507Y254523D01*
X149453Y254581D01*
X149403Y254641D01*
X149355Y254704D01*
X149311Y254769D01*
X149270Y254836D01*
X149232Y254905D01*
X149198Y254976D01*
X149167Y255049D01*
X149140Y255123D01*
X149117Y255198D01*
X149098Y255274D01*
X149082Y255352D01*
X149070Y255430D01*
X149062Y255508D01*
X149058Y255587D01*
X149058Y255665D01*
X149062Y255744D01*
X149070Y255822D01*
X149082Y255900D01*
X149098Y255978D01*
X149117Y256054D01*
X149140Y256129D01*
X149167Y256203D01*
X149198Y256276D01*
X149232Y256347D01*
X149270Y256416D01*
X149311Y256483D01*
X149355Y256548D01*
X149403Y256611D01*
X149453Y256671D01*
X149507Y256729D01*
X149563Y256784D01*
X149622Y256836D01*
X149684Y256885D01*
X149748Y256931D01*
X149814Y256974D01*
X149882Y257014D01*
X149952Y257050D01*
X150024Y257082D01*
X150098Y257111D01*
X150172Y257136D01*
X150248Y257157D01*
X150325Y257175D01*
X150403Y257188D01*
X150481Y257198D01*
X150559Y257204D01*
X150638Y257206D01*
X150717Y257204D01*
X150795Y257198D01*
X150873Y257188D01*
X150951Y257175D01*
X151028Y257157D01*
X151104Y257136D01*
X151178Y257111D01*
X151252Y257082D01*
X151324Y257050D01*
X151394Y257014D01*
X151462Y256974D01*
X151528Y256931D01*
X151592Y256885D01*
X151654Y256836D01*
X151713Y256784D01*
X151769Y256729D01*
X151823Y256671D01*
X151873Y256611D01*
X151921Y256548D01*
X151965Y256483D01*
X152006Y256416D01*
X152044Y256347D01*
X152078Y256276D01*
X152109Y256203D01*
X152136Y256129D01*
X152159Y256054D01*
X152178Y255978D01*
X152194Y255900D01*
X152206Y255822D01*
X152214Y255744D01*
X152218Y255665D01*
X152218Y255587D01*
X152214Y255508D01*
X152206Y255430D01*
X152194Y255352D01*
X152178Y255274D01*
X152159Y255198D01*
X152136Y255123D01*
X152109Y255049D01*
X152078Y254976D01*
X152044Y254905D01*
X152006Y254836D01*
X151965Y254769D01*
X151921Y254704D01*
X151873Y254641D01*
X151823Y254581D01*
X151769Y254523D01*
X151713Y254468D01*
X151654Y254416D01*
X151592Y254367D01*
X151528Y254321D01*
X151462Y254278D01*
X151394Y254238D01*
X151324Y254202D01*
X151252Y254170D01*
X151178Y254141D01*
X151104Y254116D01*
X151028Y254095D01*
X150951Y254077D01*
X150873Y254064D01*
X150795Y254054D01*
X150717Y254048D01*
X150638Y254046D01*
D10*
X139500Y203350D02*
X121720Y203350D01*
X121720Y236370D01*
X139500Y236370D01*
X139500Y203350D01*
D11*
X134420Y242913D02*
X134420Y244493D01*
X134420Y242913D02*
X134418Y242835D01*
X134412Y242758D01*
X134403Y242681D01*
X134390Y242605D01*
X134373Y242529D01*
X134352Y242454D01*
X134328Y242381D01*
X134300Y242308D01*
X134268Y242237D01*
X134233Y242168D01*
X134195Y242101D01*
X134154Y242035D01*
X134109Y241972D01*
X134061Y241911D01*
X134011Y241852D01*
X133957Y241796D01*
X133901Y241742D01*
X133842Y241692D01*
X133781Y241644D01*
X133718Y241599D01*
X133652Y241558D01*
X133585Y241520D01*
X133516Y241485D01*
X133445Y241453D01*
X133372Y241425D01*
X133299Y241401D01*
X133224Y241380D01*
X133148Y241363D01*
X133072Y241350D01*
X132995Y241341D01*
X132918Y241335D01*
X132840Y241333D01*
X132840Y241332D02*
X128888Y241332D01*
X128810Y241334D01*
X128733Y241340D01*
X128656Y241349D01*
X128580Y241362D01*
X128504Y241379D01*
X128429Y241400D01*
X128355Y241424D01*
X128283Y241452D01*
X128212Y241484D01*
X128143Y241519D01*
X128075Y241557D01*
X128010Y241598D01*
X127946Y241643D01*
X127885Y241691D01*
X127826Y241742D01*
X127770Y241795D01*
X127717Y241851D01*
X127666Y241910D01*
X127618Y241971D01*
X127573Y242035D01*
X127532Y242100D01*
X127494Y242168D01*
X127459Y242237D01*
X127427Y242308D01*
X127399Y242380D01*
X127375Y242454D01*
X127354Y242529D01*
X127337Y242605D01*
X127324Y242681D01*
X127315Y242758D01*
X127309Y242835D01*
X127307Y242913D01*
X127308Y242913D02*
X127308Y244493D01*
X128888Y247456D02*
X127308Y249431D01*
X134420Y249431D01*
X134420Y247456D02*
X134420Y251407D01*
X131259Y256351D02*
X131259Y258722D01*
X131259Y256351D02*
X131257Y256273D01*
X131251Y256196D01*
X131242Y256119D01*
X131229Y256043D01*
X131212Y255967D01*
X131191Y255892D01*
X131167Y255819D01*
X131139Y255746D01*
X131107Y255675D01*
X131072Y255606D01*
X131034Y255539D01*
X130993Y255473D01*
X130948Y255410D01*
X130900Y255349D01*
X130850Y255290D01*
X130796Y255234D01*
X130740Y255180D01*
X130681Y255130D01*
X130620Y255082D01*
X130557Y255037D01*
X130491Y254996D01*
X130424Y254958D01*
X130355Y254923D01*
X130284Y254891D01*
X130211Y254863D01*
X130138Y254839D01*
X130063Y254818D01*
X129987Y254801D01*
X129911Y254788D01*
X129834Y254779D01*
X129757Y254773D01*
X129679Y254771D01*
X129284Y254771D01*
X129284Y254770D02*
X129197Y254772D01*
X129109Y254778D01*
X129022Y254787D01*
X128936Y254801D01*
X128850Y254818D01*
X128766Y254839D01*
X128682Y254864D01*
X128599Y254893D01*
X128518Y254925D01*
X128438Y254960D01*
X128360Y254999D01*
X128283Y255042D01*
X128209Y255088D01*
X128137Y255137D01*
X128067Y255189D01*
X127999Y255245D01*
X127934Y255303D01*
X127871Y255364D01*
X127812Y255428D01*
X127755Y255495D01*
X127701Y255563D01*
X127650Y255635D01*
X127603Y255708D01*
X127558Y255783D01*
X127517Y255861D01*
X127480Y255940D01*
X127446Y256020D01*
X127416Y256102D01*
X127389Y256185D01*
X127366Y256270D01*
X127347Y256355D01*
X127332Y256441D01*
X127320Y256528D01*
X127312Y256615D01*
X127308Y256702D01*
X127308Y256790D01*
X127312Y256877D01*
X127320Y256964D01*
X127332Y257051D01*
X127347Y257137D01*
X127366Y257222D01*
X127389Y257307D01*
X127416Y257390D01*
X127446Y257472D01*
X127480Y257552D01*
X127517Y257631D01*
X127558Y257709D01*
X127603Y257784D01*
X127650Y257857D01*
X127701Y257929D01*
X127755Y257997D01*
X127812Y258064D01*
X127871Y258128D01*
X127934Y258189D01*
X127999Y258247D01*
X128067Y258303D01*
X128137Y258355D01*
X128209Y258404D01*
X128283Y258450D01*
X128360Y258493D01*
X128438Y258532D01*
X128518Y258567D01*
X128599Y258599D01*
X128682Y258628D01*
X128766Y258653D01*
X128850Y258674D01*
X128936Y258691D01*
X129022Y258705D01*
X129109Y258714D01*
X129197Y258720D01*
X129284Y258722D01*
X131259Y258722D01*
X131369Y258720D01*
X131480Y258714D01*
X131589Y258705D01*
X131699Y258691D01*
X131808Y258674D01*
X131916Y258653D01*
X132024Y258628D01*
X132130Y258600D01*
X132236Y258567D01*
X132340Y258531D01*
X132443Y258492D01*
X132545Y258449D01*
X132645Y258402D01*
X132743Y258352D01*
X132840Y258299D01*
X132934Y258242D01*
X133027Y258182D01*
X133117Y258118D01*
X133205Y258052D01*
X133291Y257982D01*
X133374Y257910D01*
X133455Y257835D01*
X133533Y257757D01*
X133608Y257676D01*
X133680Y257593D01*
X133750Y257507D01*
X133816Y257419D01*
X133880Y257329D01*
X133940Y257236D01*
X133997Y257142D01*
X134050Y257045D01*
X134100Y256947D01*
X134147Y256847D01*
X134190Y256745D01*
X134229Y256642D01*
X134265Y256538D01*
X134298Y256432D01*
X134326Y256326D01*
X134351Y256218D01*
X134372Y256110D01*
X134389Y256001D01*
X134403Y255891D01*
X134412Y255782D01*
X134418Y255671D01*
X134420Y255561D01*
D10*
X257210Y132880D02*
X261210Y132880D01*
X257210Y132880D01*
X257210Y144880D02*
X261210Y144880D01*
D11*
X264939Y129482D02*
X267564Y125764D01*
X270188Y129482D01*
X267564Y125764D02*
X267564Y121608D01*
X275784Y129483D02*
X275870Y129481D01*
X275956Y129476D01*
X276041Y129466D01*
X276126Y129453D01*
X276210Y129436D01*
X276294Y129416D01*
X276376Y129392D01*
X276457Y129364D01*
X276538Y129333D01*
X276616Y129299D01*
X276693Y129261D01*
X276769Y129219D01*
X276842Y129175D01*
X276913Y129127D01*
X276983Y129076D01*
X277050Y129022D01*
X277114Y128966D01*
X277176Y128906D01*
X277236Y128844D01*
X277292Y128780D01*
X277346Y128713D01*
X277397Y128643D01*
X277445Y128572D01*
X277489Y128499D01*
X277531Y128423D01*
X277569Y128346D01*
X277603Y128268D01*
X277634Y128187D01*
X277662Y128106D01*
X277686Y128024D01*
X277706Y127940D01*
X277723Y127856D01*
X277736Y127771D01*
X277746Y127686D01*
X277751Y127600D01*
X277753Y127514D01*
X275784Y129482D02*
X275685Y129480D01*
X275585Y129474D01*
X275487Y129464D01*
X275388Y129451D01*
X275290Y129433D01*
X275193Y129412D01*
X275097Y129387D01*
X275002Y129358D01*
X274908Y129325D01*
X274815Y129289D01*
X274724Y129249D01*
X274635Y129206D01*
X274547Y129159D01*
X274462Y129109D01*
X274378Y129055D01*
X274297Y128998D01*
X274217Y128938D01*
X274141Y128875D01*
X274066Y128809D01*
X273995Y128740D01*
X273926Y128669D01*
X273860Y128594D01*
X273797Y128517D01*
X273737Y128438D01*
X273680Y128356D01*
X273627Y128273D01*
X273576Y128187D01*
X273530Y128099D01*
X273486Y128010D01*
X273447Y127919D01*
X273411Y127826D01*
X273378Y127732D01*
X277096Y125983D02*
X277160Y126047D01*
X277221Y126113D01*
X277279Y126182D01*
X277334Y126253D01*
X277387Y126326D01*
X277436Y126402D01*
X277481Y126479D01*
X277524Y126559D01*
X277563Y126640D01*
X277598Y126723D01*
X277630Y126807D01*
X277659Y126893D01*
X277683Y126979D01*
X277704Y127067D01*
X277721Y127155D01*
X277735Y127244D01*
X277744Y127334D01*
X277750Y127424D01*
X277752Y127514D01*
X277096Y125982D02*
X273378Y121608D01*
X277752Y121608D01*
D10*
X256030Y126360D02*
X256030Y98420D01*
X243330Y98420D01*
X243330Y126360D01*
X256030Y126360D01*
D11*
X253490Y79873D02*
X253490Y78293D01*
X253488Y78215D01*
X253482Y78138D01*
X253473Y78061D01*
X253460Y77985D01*
X253443Y77909D01*
X253422Y77834D01*
X253398Y77761D01*
X253370Y77688D01*
X253338Y77617D01*
X253303Y77548D01*
X253265Y77481D01*
X253224Y77415D01*
X253179Y77352D01*
X253131Y77291D01*
X253081Y77232D01*
X253027Y77176D01*
X252971Y77122D01*
X252912Y77072D01*
X252851Y77024D01*
X252788Y76979D01*
X252722Y76938D01*
X252655Y76900D01*
X252586Y76865D01*
X252515Y76833D01*
X252442Y76805D01*
X252369Y76781D01*
X252294Y76760D01*
X252218Y76743D01*
X252142Y76730D01*
X252065Y76721D01*
X251988Y76715D01*
X251910Y76713D01*
X251910Y76712D02*
X247958Y76712D01*
X247880Y76714D01*
X247803Y76720D01*
X247726Y76729D01*
X247650Y76742D01*
X247574Y76759D01*
X247499Y76780D01*
X247425Y76804D01*
X247353Y76832D01*
X247282Y76864D01*
X247213Y76899D01*
X247145Y76937D01*
X247080Y76978D01*
X247016Y77023D01*
X246955Y77071D01*
X246896Y77122D01*
X246840Y77175D01*
X246787Y77231D01*
X246736Y77290D01*
X246688Y77351D01*
X246643Y77415D01*
X246602Y77480D01*
X246564Y77548D01*
X246529Y77617D01*
X246497Y77688D01*
X246469Y77760D01*
X246445Y77834D01*
X246424Y77909D01*
X246407Y77985D01*
X246394Y78061D01*
X246385Y78138D01*
X246379Y78215D01*
X246377Y78293D01*
X246378Y78293D02*
X246378Y79873D01*
X246378Y85009D02*
X246380Y85091D01*
X246386Y85173D01*
X246395Y85255D01*
X246408Y85336D01*
X246425Y85416D01*
X246446Y85496D01*
X246470Y85574D01*
X246498Y85651D01*
X246529Y85727D01*
X246564Y85802D01*
X246603Y85874D01*
X246644Y85945D01*
X246689Y86014D01*
X246737Y86080D01*
X246788Y86145D01*
X246842Y86207D01*
X246899Y86266D01*
X246958Y86323D01*
X247020Y86377D01*
X247085Y86428D01*
X247151Y86476D01*
X247220Y86521D01*
X247291Y86562D01*
X247363Y86601D01*
X247438Y86636D01*
X247514Y86667D01*
X247591Y86695D01*
X247669Y86719D01*
X247749Y86740D01*
X247829Y86757D01*
X247910Y86770D01*
X247992Y86779D01*
X248074Y86785D01*
X248156Y86787D01*
X246378Y85009D02*
X246380Y84916D01*
X246386Y84824D01*
X246395Y84732D01*
X246408Y84640D01*
X246425Y84549D01*
X246445Y84459D01*
X246469Y84369D01*
X246497Y84281D01*
X246529Y84193D01*
X246563Y84108D01*
X246602Y84023D01*
X246643Y83941D01*
X246688Y83860D01*
X246737Y83780D01*
X246788Y83703D01*
X246842Y83628D01*
X246900Y83556D01*
X246960Y83485D01*
X247024Y83418D01*
X247089Y83353D01*
X247158Y83290D01*
X247229Y83231D01*
X247302Y83174D01*
X247378Y83120D01*
X247455Y83070D01*
X247535Y83022D01*
X247617Y82978D01*
X247700Y82938D01*
X247785Y82900D01*
X247871Y82866D01*
X247958Y82836D01*
X249539Y86194D02*
X249478Y86255D01*
X249415Y86313D01*
X249349Y86368D01*
X249281Y86421D01*
X249210Y86470D01*
X249138Y86515D01*
X249063Y86558D01*
X248987Y86597D01*
X248908Y86633D01*
X248829Y86665D01*
X248748Y86693D01*
X248665Y86718D01*
X248582Y86739D01*
X248498Y86756D01*
X248413Y86770D01*
X248328Y86779D01*
X248242Y86785D01*
X248156Y86787D01*
X249539Y86194D02*
X253490Y82836D01*
X253490Y86787D01*
X249934Y90151D02*
X249786Y90153D01*
X249639Y90158D01*
X249491Y90168D01*
X249344Y90181D01*
X249197Y90197D01*
X249051Y90218D01*
X248906Y90242D01*
X248760Y90270D01*
X248616Y90301D01*
X248473Y90336D01*
X248330Y90375D01*
X248189Y90417D01*
X248048Y90463D01*
X247909Y90512D01*
X247771Y90565D01*
X247634Y90621D01*
X247499Y90681D01*
X247366Y90744D01*
X247366Y90743D02*
X247295Y90769D01*
X247226Y90799D01*
X247158Y90833D01*
X247092Y90870D01*
X247028Y90910D01*
X246966Y90954D01*
X246907Y91000D01*
X246850Y91050D01*
X246796Y91103D01*
X246744Y91158D01*
X246696Y91216D01*
X246650Y91276D01*
X246608Y91339D01*
X246569Y91404D01*
X246533Y91470D01*
X246501Y91539D01*
X246473Y91608D01*
X246448Y91680D01*
X246427Y91752D01*
X246409Y91826D01*
X246396Y91900D01*
X246386Y91975D01*
X246380Y92050D01*
X246378Y92126D01*
X246380Y92202D01*
X246386Y92277D01*
X246396Y92352D01*
X246409Y92426D01*
X246427Y92500D01*
X246448Y92572D01*
X246473Y92644D01*
X246501Y92713D01*
X246533Y92782D01*
X246569Y92848D01*
X246608Y92913D01*
X246650Y92976D01*
X246696Y93036D01*
X246744Y93094D01*
X246796Y93149D01*
X246850Y93202D01*
X246907Y93252D01*
X246966Y93298D01*
X247028Y93342D01*
X247092Y93382D01*
X247158Y93419D01*
X247226Y93453D01*
X247295Y93483D01*
X247366Y93509D01*
X247499Y93572D01*
X247634Y93632D01*
X247771Y93688D01*
X247909Y93741D01*
X248048Y93790D01*
X248189Y93836D01*
X248330Y93878D01*
X248473Y93917D01*
X248616Y93952D01*
X248760Y93983D01*
X248906Y94011D01*
X249051Y94035D01*
X249197Y94056D01*
X249344Y94072D01*
X249491Y94085D01*
X249639Y94095D01*
X249786Y94100D01*
X249934Y94102D01*
X249934Y90151D02*
X250082Y90153D01*
X250229Y90158D01*
X250377Y90168D01*
X250524Y90181D01*
X250671Y90197D01*
X250817Y90218D01*
X250962Y90242D01*
X251108Y90270D01*
X251252Y90301D01*
X251395Y90336D01*
X251538Y90375D01*
X251679Y90417D01*
X251820Y90463D01*
X251959Y90512D01*
X252097Y90565D01*
X252234Y90621D01*
X252369Y90681D01*
X252502Y90744D01*
X252502Y90743D02*
X252573Y90769D01*
X252642Y90799D01*
X252710Y90833D01*
X252776Y90870D01*
X252840Y90910D01*
X252902Y90954D01*
X252961Y91000D01*
X253018Y91050D01*
X253072Y91103D01*
X253124Y91158D01*
X253172Y91216D01*
X253218Y91276D01*
X253260Y91339D01*
X253299Y91404D01*
X253335Y91470D01*
X253367Y91539D01*
X253395Y91609D01*
X253420Y91680D01*
X253441Y91752D01*
X253459Y91826D01*
X253472Y91900D01*
X253482Y91975D01*
X253488Y92050D01*
X253490Y92126D01*
X252502Y93509D02*
X252369Y93572D01*
X252234Y93632D01*
X252097Y93688D01*
X251959Y93741D01*
X251820Y93790D01*
X251679Y93836D01*
X251538Y93878D01*
X251395Y93917D01*
X251252Y93952D01*
X251108Y93983D01*
X250962Y94011D01*
X250817Y94035D01*
X250671Y94056D01*
X250524Y94072D01*
X250377Y94085D01*
X250229Y94095D01*
X250082Y94100D01*
X249934Y94102D01*
X252502Y93509D02*
X252573Y93483D01*
X252642Y93453D01*
X252710Y93419D01*
X252776Y93382D01*
X252840Y93342D01*
X252902Y93298D01*
X252961Y93252D01*
X253018Y93202D01*
X253072Y93149D01*
X253124Y93094D01*
X253172Y93036D01*
X253218Y92976D01*
X253260Y92913D01*
X253299Y92848D01*
X253335Y92782D01*
X253367Y92713D01*
X253395Y92643D01*
X253420Y92572D01*
X253441Y92500D01*
X253459Y92426D01*
X253472Y92352D01*
X253482Y92277D01*
X253488Y92202D01*
X253490Y92126D01*
X251910Y90546D02*
X247958Y93707D01*
D10*
X278420Y98420D02*
X278420Y126360D01*
X278420Y98420D02*
X265720Y98420D01*
X265720Y126360D01*
X278420Y126360D01*
D11*
X275372Y80499D02*
X275372Y78918D01*
X275370Y78840D01*
X275364Y78763D01*
X275355Y78686D01*
X275342Y78610D01*
X275325Y78534D01*
X275304Y78459D01*
X275280Y78386D01*
X275252Y78313D01*
X275220Y78242D01*
X275185Y78173D01*
X275147Y78106D01*
X275106Y78040D01*
X275061Y77977D01*
X275013Y77916D01*
X274963Y77857D01*
X274909Y77801D01*
X274853Y77747D01*
X274794Y77697D01*
X274733Y77649D01*
X274670Y77604D01*
X274604Y77563D01*
X274537Y77525D01*
X274468Y77490D01*
X274397Y77458D01*
X274324Y77430D01*
X274251Y77406D01*
X274176Y77385D01*
X274100Y77368D01*
X274024Y77355D01*
X273947Y77346D01*
X273870Y77340D01*
X273792Y77338D01*
X269840Y77338D01*
X269762Y77340D01*
X269685Y77346D01*
X269608Y77355D01*
X269532Y77368D01*
X269456Y77385D01*
X269381Y77406D01*
X269307Y77430D01*
X269235Y77458D01*
X269164Y77490D01*
X269095Y77525D01*
X269027Y77563D01*
X268962Y77604D01*
X268898Y77649D01*
X268837Y77697D01*
X268778Y77748D01*
X268722Y77801D01*
X268669Y77857D01*
X268618Y77916D01*
X268570Y77977D01*
X268525Y78041D01*
X268484Y78106D01*
X268446Y78174D01*
X268411Y78243D01*
X268379Y78314D01*
X268351Y78386D01*
X268327Y78460D01*
X268306Y78535D01*
X268289Y78611D01*
X268276Y78687D01*
X268267Y78764D01*
X268261Y78841D01*
X268259Y78919D01*
X268260Y78918D02*
X268260Y80499D01*
X268260Y85634D02*
X268262Y85716D01*
X268268Y85798D01*
X268277Y85880D01*
X268290Y85961D01*
X268307Y86041D01*
X268328Y86121D01*
X268352Y86199D01*
X268380Y86276D01*
X268411Y86352D01*
X268446Y86427D01*
X268485Y86499D01*
X268526Y86570D01*
X268571Y86639D01*
X268619Y86705D01*
X268670Y86770D01*
X268724Y86832D01*
X268781Y86891D01*
X268840Y86948D01*
X268902Y87002D01*
X268967Y87053D01*
X269033Y87101D01*
X269102Y87146D01*
X269173Y87187D01*
X269245Y87226D01*
X269320Y87261D01*
X269396Y87292D01*
X269473Y87320D01*
X269551Y87344D01*
X269631Y87365D01*
X269711Y87382D01*
X269792Y87395D01*
X269874Y87404D01*
X269956Y87410D01*
X270038Y87412D01*
X268260Y85634D02*
X268262Y85541D01*
X268268Y85449D01*
X268277Y85357D01*
X268290Y85265D01*
X268307Y85174D01*
X268327Y85084D01*
X268351Y84994D01*
X268379Y84906D01*
X268411Y84818D01*
X268445Y84733D01*
X268484Y84648D01*
X268525Y84566D01*
X268570Y84485D01*
X268619Y84405D01*
X268670Y84328D01*
X268724Y84253D01*
X268782Y84181D01*
X268842Y84110D01*
X268906Y84043D01*
X268971Y83978D01*
X269040Y83915D01*
X269111Y83856D01*
X269184Y83799D01*
X269260Y83745D01*
X269337Y83695D01*
X269417Y83647D01*
X269499Y83603D01*
X269582Y83563D01*
X269667Y83525D01*
X269753Y83491D01*
X269840Y83461D01*
X271421Y86820D02*
X271360Y86881D01*
X271297Y86939D01*
X271231Y86994D01*
X271163Y87047D01*
X271092Y87096D01*
X271020Y87141D01*
X270945Y87184D01*
X270869Y87223D01*
X270790Y87259D01*
X270711Y87291D01*
X270630Y87319D01*
X270547Y87344D01*
X270464Y87365D01*
X270380Y87382D01*
X270295Y87396D01*
X270210Y87405D01*
X270124Y87411D01*
X270038Y87413D01*
X271421Y86820D02*
X275372Y83461D01*
X275372Y87412D01*
X269840Y90776D02*
X268260Y92752D01*
X275372Y92752D01*
X275372Y90776D02*
X275372Y94728D01*
D10*
X127000Y85090D02*
X127000Y57150D01*
X114300Y57150D01*
X114300Y85090D01*
X127000Y85090D01*
D12*
X125349Y42291D02*
X117983Y42291D01*
X117983Y44337D01*
X117985Y44426D01*
X117991Y44515D01*
X118001Y44604D01*
X118014Y44692D01*
X118031Y44780D01*
X118053Y44867D01*
X118078Y44952D01*
X118106Y45037D01*
X118139Y45120D01*
X118175Y45202D01*
X118214Y45282D01*
X118257Y45360D01*
X118303Y45436D01*
X118353Y45511D01*
X118406Y45583D01*
X118462Y45652D01*
X118521Y45719D01*
X118582Y45784D01*
X118647Y45845D01*
X118714Y45904D01*
X118783Y45960D01*
X118855Y46013D01*
X118930Y46063D01*
X119006Y46109D01*
X119084Y46152D01*
X119164Y46191D01*
X119246Y46227D01*
X119329Y46260D01*
X119414Y46288D01*
X119499Y46313D01*
X119586Y46335D01*
X119674Y46352D01*
X119762Y46365D01*
X119851Y46375D01*
X119940Y46381D01*
X120029Y46383D01*
X120118Y46381D01*
X120207Y46375D01*
X120296Y46365D01*
X120384Y46352D01*
X120472Y46335D01*
X120559Y46313D01*
X120644Y46288D01*
X120729Y46260D01*
X120812Y46227D01*
X120894Y46191D01*
X120974Y46152D01*
X121052Y46109D01*
X121128Y46063D01*
X121203Y46013D01*
X121275Y45960D01*
X121344Y45904D01*
X121411Y45845D01*
X121476Y45784D01*
X121537Y45719D01*
X121596Y45652D01*
X121652Y45583D01*
X121705Y45511D01*
X121755Y45436D01*
X121801Y45360D01*
X121844Y45282D01*
X121883Y45202D01*
X121919Y45120D01*
X121952Y45037D01*
X121980Y44952D01*
X122005Y44867D01*
X122027Y44780D01*
X122044Y44692D01*
X122057Y44604D01*
X122067Y44515D01*
X122073Y44426D01*
X122075Y44337D01*
X122075Y42291D01*
X122075Y44746D02*
X125349Y46383D01*
X123712Y49555D02*
X117983Y51192D01*
X123712Y49555D02*
X123712Y53647D01*
X122075Y52420D02*
X125349Y52420D01*
D10*
X146050Y57150D02*
X146050Y85090D01*
X146050Y57150D02*
X133350Y57150D01*
X133350Y85090D01*
X146050Y85090D01*
D12*
X144399Y42291D02*
X137033Y42291D01*
X137033Y44337D01*
X137035Y44426D01*
X137041Y44515D01*
X137051Y44604D01*
X137064Y44692D01*
X137081Y44780D01*
X137103Y44867D01*
X137128Y44952D01*
X137156Y45037D01*
X137189Y45120D01*
X137225Y45202D01*
X137264Y45282D01*
X137307Y45360D01*
X137353Y45436D01*
X137403Y45511D01*
X137456Y45583D01*
X137512Y45652D01*
X137571Y45719D01*
X137632Y45784D01*
X137697Y45845D01*
X137764Y45904D01*
X137833Y45960D01*
X137905Y46013D01*
X137980Y46063D01*
X138056Y46109D01*
X138134Y46152D01*
X138214Y46191D01*
X138296Y46227D01*
X138379Y46260D01*
X138464Y46288D01*
X138549Y46313D01*
X138636Y46335D01*
X138724Y46352D01*
X138812Y46365D01*
X138901Y46375D01*
X138990Y46381D01*
X139079Y46383D01*
X139168Y46381D01*
X139257Y46375D01*
X139346Y46365D01*
X139434Y46352D01*
X139522Y46335D01*
X139609Y46313D01*
X139694Y46288D01*
X139779Y46260D01*
X139862Y46227D01*
X139944Y46191D01*
X140024Y46152D01*
X140102Y46109D01*
X140178Y46063D01*
X140253Y46013D01*
X140325Y45960D01*
X140394Y45904D01*
X140461Y45845D01*
X140526Y45784D01*
X140587Y45719D01*
X140646Y45652D01*
X140702Y45583D01*
X140755Y45511D01*
X140805Y45436D01*
X140851Y45360D01*
X140894Y45282D01*
X140933Y45202D01*
X140969Y45120D01*
X141002Y45037D01*
X141030Y44952D01*
X141055Y44867D01*
X141077Y44780D01*
X141094Y44692D01*
X141107Y44604D01*
X141117Y44515D01*
X141123Y44426D01*
X141125Y44337D01*
X141125Y42291D01*
X141125Y44746D02*
X144399Y46383D01*
X144399Y49555D02*
X144399Y52010D01*
X144397Y52088D01*
X144392Y52166D01*
X144382Y52243D01*
X144369Y52320D01*
X144353Y52396D01*
X144333Y52471D01*
X144309Y52545D01*
X144282Y52618D01*
X144251Y52690D01*
X144217Y52760D01*
X144180Y52829D01*
X144139Y52895D01*
X144095Y52960D01*
X144049Y53022D01*
X143999Y53082D01*
X143947Y53140D01*
X143892Y53195D01*
X143834Y53247D01*
X143774Y53297D01*
X143712Y53343D01*
X143647Y53387D01*
X143581Y53428D01*
X143512Y53465D01*
X143442Y53499D01*
X143370Y53530D01*
X143297Y53557D01*
X143223Y53581D01*
X143148Y53601D01*
X143072Y53617D01*
X142995Y53630D01*
X142918Y53640D01*
X142840Y53645D01*
X142762Y53647D01*
X141944Y53647D01*
X141864Y53645D01*
X141784Y53639D01*
X141704Y53629D01*
X141625Y53616D01*
X141546Y53598D01*
X141469Y53577D01*
X141393Y53551D01*
X141318Y53522D01*
X141244Y53490D01*
X141172Y53454D01*
X141102Y53414D01*
X141035Y53371D01*
X140969Y53325D01*
X140906Y53275D01*
X140845Y53223D01*
X140786Y53168D01*
X140731Y53109D01*
X140679Y53049D01*
X140629Y52985D01*
X140583Y52919D01*
X140540Y52852D01*
X140500Y52782D01*
X140464Y52710D01*
X140432Y52636D01*
X140403Y52562D01*
X140377Y52485D01*
X140356Y52408D01*
X140338Y52329D01*
X140325Y52250D01*
X140315Y52170D01*
X140309Y52090D01*
X140307Y52010D01*
X140307Y49555D01*
X137033Y49555D01*
X137033Y53647D01*
D16*
X99354Y77804D02*
X91146Y77804D01*
X99354Y77804D02*
X99354Y59356D01*
X91146Y59356D01*
X91146Y77804D01*
D11*
X92391Y45809D02*
X99503Y45809D01*
X92391Y43834D02*
X92391Y47785D01*
X92391Y50965D02*
X99503Y50965D01*
X92391Y50965D02*
X92391Y52941D01*
X92393Y53028D01*
X92399Y53116D01*
X92408Y53203D01*
X92422Y53289D01*
X92439Y53375D01*
X92460Y53459D01*
X92485Y53543D01*
X92514Y53626D01*
X92546Y53707D01*
X92581Y53787D01*
X92620Y53865D01*
X92663Y53942D01*
X92709Y54016D01*
X92758Y54088D01*
X92810Y54158D01*
X92866Y54226D01*
X92924Y54291D01*
X92985Y54354D01*
X93049Y54413D01*
X93116Y54470D01*
X93184Y54524D01*
X93256Y54575D01*
X93329Y54622D01*
X93404Y54667D01*
X93482Y54708D01*
X93561Y54745D01*
X93641Y54779D01*
X93723Y54809D01*
X93806Y54836D01*
X93891Y54859D01*
X93976Y54878D01*
X94062Y54893D01*
X94149Y54905D01*
X94236Y54913D01*
X94323Y54917D01*
X94411Y54917D01*
X94498Y54913D01*
X94585Y54905D01*
X94672Y54893D01*
X94758Y54878D01*
X94843Y54859D01*
X94928Y54836D01*
X95011Y54809D01*
X95093Y54779D01*
X95173Y54745D01*
X95252Y54708D01*
X95330Y54667D01*
X95405Y54622D01*
X95478Y54575D01*
X95550Y54524D01*
X95618Y54470D01*
X95685Y54413D01*
X95749Y54354D01*
X95810Y54291D01*
X95868Y54226D01*
X95924Y54158D01*
X95976Y54088D01*
X96025Y54016D01*
X96071Y53942D01*
X96114Y53865D01*
X96153Y53787D01*
X96188Y53707D01*
X96220Y53626D01*
X96249Y53543D01*
X96274Y53459D01*
X96295Y53375D01*
X96312Y53289D01*
X96326Y53203D01*
X96335Y53116D01*
X96341Y53028D01*
X96343Y52941D01*
X96342Y52941D02*
X96342Y50965D01*
X96342Y53336D02*
X99503Y54916D01*
X92391Y60393D02*
X92393Y60475D01*
X92399Y60557D01*
X92408Y60639D01*
X92421Y60720D01*
X92438Y60800D01*
X92459Y60880D01*
X92483Y60958D01*
X92511Y61035D01*
X92542Y61111D01*
X92577Y61186D01*
X92616Y61258D01*
X92657Y61329D01*
X92702Y61398D01*
X92750Y61464D01*
X92801Y61529D01*
X92855Y61591D01*
X92912Y61650D01*
X92971Y61707D01*
X93033Y61761D01*
X93098Y61812D01*
X93164Y61860D01*
X93233Y61905D01*
X93304Y61946D01*
X93376Y61985D01*
X93451Y62020D01*
X93527Y62051D01*
X93604Y62079D01*
X93682Y62103D01*
X93762Y62124D01*
X93842Y62141D01*
X93923Y62154D01*
X94005Y62163D01*
X94087Y62169D01*
X94169Y62171D01*
X92391Y60393D02*
X92393Y60300D01*
X92399Y60208D01*
X92408Y60116D01*
X92421Y60024D01*
X92438Y59933D01*
X92458Y59843D01*
X92482Y59753D01*
X92510Y59665D01*
X92542Y59577D01*
X92576Y59492D01*
X92615Y59407D01*
X92656Y59325D01*
X92701Y59244D01*
X92750Y59164D01*
X92801Y59087D01*
X92855Y59012D01*
X92913Y58940D01*
X92973Y58869D01*
X93037Y58802D01*
X93102Y58737D01*
X93171Y58674D01*
X93242Y58615D01*
X93315Y58558D01*
X93391Y58504D01*
X93468Y58454D01*
X93548Y58406D01*
X93630Y58362D01*
X93713Y58322D01*
X93798Y58284D01*
X93884Y58250D01*
X93971Y58220D01*
X95552Y61578D02*
X95491Y61639D01*
X95428Y61697D01*
X95362Y61752D01*
X95294Y61805D01*
X95223Y61854D01*
X95151Y61899D01*
X95076Y61942D01*
X95000Y61981D01*
X94921Y62017D01*
X94842Y62049D01*
X94761Y62077D01*
X94678Y62102D01*
X94595Y62123D01*
X94511Y62140D01*
X94426Y62154D01*
X94341Y62163D01*
X94255Y62169D01*
X94169Y62171D01*
X95552Y61579D02*
X99503Y58220D01*
X99503Y62171D01*
D16*
X280060Y438100D02*
X283060Y438100D01*
X280060Y438100D02*
X280060Y441100D01*
X283060Y441100D01*
X283060Y448100D01*
X169060Y448100D02*
X169060Y441100D01*
X172060Y441100D01*
X172060Y438100D01*
X169060Y438100D01*
X172060Y438100D02*
X280060Y438100D01*
X283060Y448100D02*
X169060Y448100D01*
X283060Y404100D02*
X283060Y394100D01*
X266060Y394100D01*
X169060Y394100D02*
X169060Y404100D01*
X169060Y394100D02*
X186060Y394100D01*
X283060Y434100D02*
X283060Y438100D01*
X169060Y438100D02*
X169060Y434100D01*
D12*
X289726Y390723D02*
X291363Y390723D01*
X289726Y390723D02*
X289648Y390725D01*
X289570Y390730D01*
X289493Y390740D01*
X289416Y390753D01*
X289340Y390769D01*
X289265Y390789D01*
X289191Y390813D01*
X289118Y390840D01*
X289046Y390871D01*
X288976Y390905D01*
X288908Y390942D01*
X288841Y390983D01*
X288776Y391027D01*
X288714Y391073D01*
X288654Y391123D01*
X288596Y391175D01*
X288541Y391230D01*
X288489Y391288D01*
X288439Y391348D01*
X288393Y391410D01*
X288349Y391475D01*
X288308Y391542D01*
X288271Y391610D01*
X288237Y391680D01*
X288206Y391752D01*
X288179Y391825D01*
X288155Y391899D01*
X288135Y391974D01*
X288119Y392050D01*
X288106Y392127D01*
X288096Y392204D01*
X288091Y392282D01*
X288089Y392360D01*
X288089Y396452D01*
X288091Y396532D01*
X288097Y396612D01*
X288107Y396692D01*
X288120Y396771D01*
X288138Y396850D01*
X288159Y396927D01*
X288185Y397003D01*
X288214Y397078D01*
X288246Y397152D01*
X288282Y397224D01*
X288322Y397294D01*
X288365Y397361D01*
X288411Y397427D01*
X288461Y397490D01*
X288513Y397551D01*
X288568Y397610D01*
X288627Y397665D01*
X288687Y397717D01*
X288751Y397767D01*
X288817Y397813D01*
X288884Y397856D01*
X288954Y397896D01*
X289026Y397932D01*
X289100Y397964D01*
X289174Y397993D01*
X289251Y398019D01*
X289328Y398040D01*
X289407Y398058D01*
X289486Y398071D01*
X289566Y398081D01*
X289646Y398087D01*
X289726Y398089D01*
X291363Y398089D01*
X294452Y398089D02*
X294452Y390723D01*
X298544Y390723D02*
X294452Y398089D01*
X298544Y398089D02*
X298544Y390723D01*
X302011Y396452D02*
X304057Y398089D01*
X304057Y390723D01*
X302011Y390723D02*
X306103Y390723D01*
D10*
X409194Y275336D02*
X426974Y275336D01*
X426974Y242316D01*
X409194Y242316D01*
X409194Y275336D01*
D12*
X421513Y223111D02*
X421513Y221474D01*
X421511Y221396D01*
X421506Y221318D01*
X421496Y221241D01*
X421483Y221164D01*
X421467Y221088D01*
X421447Y221013D01*
X421423Y220939D01*
X421396Y220866D01*
X421365Y220794D01*
X421331Y220724D01*
X421294Y220656D01*
X421253Y220589D01*
X421209Y220524D01*
X421163Y220462D01*
X421113Y220402D01*
X421061Y220344D01*
X421006Y220289D01*
X420948Y220237D01*
X420888Y220187D01*
X420826Y220141D01*
X420761Y220097D01*
X420695Y220056D01*
X420626Y220019D01*
X420556Y219985D01*
X420484Y219954D01*
X420411Y219927D01*
X420337Y219903D01*
X420262Y219883D01*
X420186Y219867D01*
X420109Y219854D01*
X420032Y219844D01*
X419954Y219839D01*
X419876Y219837D01*
X415784Y219837D01*
X415704Y219839D01*
X415624Y219845D01*
X415544Y219855D01*
X415465Y219868D01*
X415386Y219886D01*
X415309Y219907D01*
X415233Y219933D01*
X415158Y219962D01*
X415084Y219994D01*
X415012Y220030D01*
X414942Y220070D01*
X414875Y220113D01*
X414809Y220159D01*
X414746Y220209D01*
X414685Y220261D01*
X414626Y220316D01*
X414571Y220375D01*
X414519Y220435D01*
X414469Y220499D01*
X414423Y220564D01*
X414380Y220632D01*
X414340Y220702D01*
X414304Y220774D01*
X414272Y220848D01*
X414243Y220922D01*
X414218Y220999D01*
X414196Y221076D01*
X414178Y221155D01*
X414165Y221234D01*
X414155Y221313D01*
X414149Y221394D01*
X414147Y221474D01*
X414147Y223111D01*
X414147Y228207D02*
X414149Y228292D01*
X414155Y228377D01*
X414165Y228461D01*
X414178Y228545D01*
X414196Y228629D01*
X414217Y228711D01*
X414242Y228792D01*
X414271Y228872D01*
X414304Y228951D01*
X414340Y229028D01*
X414380Y229103D01*
X414423Y229177D01*
X414469Y229248D01*
X414519Y229317D01*
X414572Y229384D01*
X414628Y229448D01*
X414687Y229509D01*
X414748Y229568D01*
X414812Y229624D01*
X414879Y229677D01*
X414948Y229727D01*
X415019Y229773D01*
X415093Y229816D01*
X415168Y229856D01*
X415245Y229892D01*
X415324Y229925D01*
X415404Y229954D01*
X415485Y229979D01*
X415567Y230000D01*
X415651Y230018D01*
X415735Y230031D01*
X415819Y230041D01*
X415904Y230047D01*
X415989Y230049D01*
X414147Y228207D02*
X414149Y228111D01*
X414155Y228015D01*
X414165Y227920D01*
X414178Y227825D01*
X414196Y227730D01*
X414217Y227637D01*
X414242Y227544D01*
X414271Y227453D01*
X414303Y227362D01*
X414339Y227273D01*
X414379Y227186D01*
X414422Y227100D01*
X414468Y227016D01*
X414518Y226934D01*
X414572Y226854D01*
X414628Y226777D01*
X414688Y226702D01*
X414750Y226629D01*
X414816Y226559D01*
X414884Y226491D01*
X414955Y226426D01*
X415028Y226365D01*
X415104Y226306D01*
X415183Y226250D01*
X415263Y226198D01*
X415346Y226149D01*
X415430Y226103D01*
X415516Y226061D01*
X415604Y226023D01*
X415693Y225988D01*
X415784Y225956D01*
X417421Y229434D02*
X417362Y229494D01*
X417300Y229551D01*
X417236Y229606D01*
X417169Y229657D01*
X417100Y229706D01*
X417030Y229752D01*
X416957Y229795D01*
X416883Y229835D01*
X416807Y229871D01*
X416729Y229904D01*
X416650Y229934D01*
X416570Y229961D01*
X416489Y229984D01*
X416407Y230003D01*
X416325Y230019D01*
X416241Y230032D01*
X416157Y230041D01*
X416073Y230046D01*
X415989Y230048D01*
X417421Y229434D02*
X421513Y225956D01*
X421513Y230048D01*
X415989Y237364D02*
X415904Y237362D01*
X415819Y237356D01*
X415735Y237346D01*
X415651Y237333D01*
X415567Y237315D01*
X415485Y237294D01*
X415404Y237269D01*
X415324Y237240D01*
X415245Y237207D01*
X415168Y237171D01*
X415093Y237131D01*
X415019Y237088D01*
X414948Y237042D01*
X414879Y236992D01*
X414812Y236939D01*
X414748Y236883D01*
X414687Y236824D01*
X414628Y236763D01*
X414572Y236699D01*
X414519Y236632D01*
X414469Y236563D01*
X414423Y236492D01*
X414380Y236418D01*
X414340Y236343D01*
X414304Y236266D01*
X414271Y236187D01*
X414242Y236107D01*
X414217Y236026D01*
X414196Y235944D01*
X414178Y235860D01*
X414165Y235776D01*
X414155Y235692D01*
X414149Y235607D01*
X414147Y235522D01*
X414149Y235426D01*
X414155Y235330D01*
X414165Y235235D01*
X414178Y235140D01*
X414196Y235045D01*
X414217Y234952D01*
X414242Y234859D01*
X414271Y234768D01*
X414303Y234677D01*
X414339Y234588D01*
X414379Y234501D01*
X414422Y234415D01*
X414468Y234331D01*
X414518Y234249D01*
X414572Y234169D01*
X414628Y234092D01*
X414688Y234017D01*
X414750Y233944D01*
X414816Y233874D01*
X414884Y233806D01*
X414955Y233741D01*
X415028Y233680D01*
X415104Y233621D01*
X415183Y233565D01*
X415263Y233513D01*
X415346Y233464D01*
X415430Y233418D01*
X415516Y233376D01*
X415604Y233338D01*
X415693Y233303D01*
X415784Y233271D01*
X417421Y236750D02*
X417362Y236810D01*
X417300Y236867D01*
X417236Y236922D01*
X417169Y236973D01*
X417100Y237022D01*
X417030Y237068D01*
X416957Y237111D01*
X416883Y237151D01*
X416807Y237187D01*
X416729Y237220D01*
X416650Y237250D01*
X416570Y237277D01*
X416489Y237300D01*
X416407Y237319D01*
X416325Y237335D01*
X416241Y237348D01*
X416157Y237357D01*
X416073Y237362D01*
X415989Y237364D01*
X417421Y236750D02*
X421513Y233271D01*
X421513Y237364D01*
D17*
X142776Y284734D02*
X142776Y290322D01*
X141224Y290322D02*
X144328Y290322D01*
X146610Y290322D02*
X146610Y284734D01*
X146610Y290322D02*
X148163Y290322D01*
X148240Y290320D01*
X148318Y290314D01*
X148394Y290305D01*
X148471Y290291D01*
X148546Y290274D01*
X148620Y290253D01*
X148694Y290228D01*
X148766Y290200D01*
X148836Y290168D01*
X148905Y290133D01*
X148972Y290094D01*
X149037Y290052D01*
X149100Y290007D01*
X149161Y289959D01*
X149219Y289908D01*
X149274Y289854D01*
X149327Y289797D01*
X149376Y289738D01*
X149423Y289676D01*
X149467Y289612D01*
X149507Y289546D01*
X149544Y289478D01*
X149578Y289408D01*
X149608Y289337D01*
X149634Y289264D01*
X149657Y289190D01*
X149676Y289115D01*
X149691Y289040D01*
X149703Y288963D01*
X149711Y288886D01*
X149715Y288809D01*
X149715Y288731D01*
X149711Y288654D01*
X149703Y288577D01*
X149691Y288500D01*
X149676Y288425D01*
X149657Y288350D01*
X149634Y288276D01*
X149608Y288203D01*
X149578Y288132D01*
X149544Y288062D01*
X149507Y287994D01*
X149467Y287928D01*
X149423Y287864D01*
X149376Y287802D01*
X149327Y287743D01*
X149274Y287686D01*
X149219Y287632D01*
X149161Y287581D01*
X149100Y287533D01*
X149037Y287488D01*
X148972Y287446D01*
X148905Y287407D01*
X148836Y287372D01*
X148766Y287340D01*
X148694Y287312D01*
X148620Y287287D01*
X148546Y287266D01*
X148471Y287249D01*
X148394Y287235D01*
X148318Y287226D01*
X148240Y287220D01*
X148163Y287218D01*
X146610Y287218D01*
X151831Y289080D02*
X153383Y290322D01*
X153383Y284734D01*
X151831Y284734D02*
X154935Y284734D01*
X135156Y275082D02*
X135156Y269494D01*
X133604Y275082D02*
X136708Y275082D01*
X138990Y275082D02*
X138990Y269494D01*
X138990Y275082D02*
X140543Y275082D01*
X140620Y275080D01*
X140698Y275074D01*
X140774Y275065D01*
X140851Y275051D01*
X140926Y275034D01*
X141000Y275013D01*
X141074Y274988D01*
X141146Y274960D01*
X141216Y274928D01*
X141285Y274893D01*
X141352Y274854D01*
X141417Y274812D01*
X141480Y274767D01*
X141541Y274719D01*
X141599Y274668D01*
X141654Y274614D01*
X141707Y274557D01*
X141756Y274498D01*
X141803Y274436D01*
X141847Y274372D01*
X141887Y274306D01*
X141924Y274238D01*
X141958Y274168D01*
X141988Y274097D01*
X142014Y274024D01*
X142037Y273950D01*
X142056Y273875D01*
X142071Y273800D01*
X142083Y273723D01*
X142091Y273646D01*
X142095Y273569D01*
X142095Y273491D01*
X142091Y273414D01*
X142083Y273337D01*
X142071Y273260D01*
X142056Y273185D01*
X142037Y273110D01*
X142014Y273036D01*
X141988Y272963D01*
X141958Y272892D01*
X141924Y272822D01*
X141887Y272754D01*
X141847Y272688D01*
X141803Y272624D01*
X141756Y272562D01*
X141707Y272503D01*
X141654Y272446D01*
X141599Y272392D01*
X141541Y272341D01*
X141480Y272293D01*
X141417Y272248D01*
X141352Y272206D01*
X141285Y272167D01*
X141216Y272132D01*
X141146Y272100D01*
X141074Y272072D01*
X141000Y272047D01*
X140926Y272026D01*
X140851Y272009D01*
X140774Y271995D01*
X140698Y271986D01*
X140620Y271980D01*
X140543Y271978D01*
X138990Y271978D01*
X145918Y275082D02*
X145991Y275080D01*
X146064Y275074D01*
X146137Y275065D01*
X146208Y275051D01*
X146280Y275034D01*
X146350Y275014D01*
X146419Y274989D01*
X146486Y274961D01*
X146552Y274930D01*
X146617Y274895D01*
X146679Y274857D01*
X146739Y274815D01*
X146797Y274771D01*
X146853Y274723D01*
X146906Y274673D01*
X146956Y274620D01*
X147004Y274564D01*
X147048Y274506D01*
X147090Y274446D01*
X147128Y274384D01*
X147163Y274319D01*
X147194Y274253D01*
X147222Y274186D01*
X147247Y274117D01*
X147267Y274047D01*
X147284Y273975D01*
X147298Y273904D01*
X147307Y273831D01*
X147313Y273758D01*
X147315Y273685D01*
X145918Y275082D02*
X145834Y275080D01*
X145751Y275074D01*
X145668Y275065D01*
X145586Y275051D01*
X145504Y275034D01*
X145423Y275012D01*
X145343Y274987D01*
X145265Y274959D01*
X145187Y274927D01*
X145112Y274891D01*
X145038Y274852D01*
X144966Y274809D01*
X144896Y274763D01*
X144829Y274714D01*
X144763Y274661D01*
X144701Y274606D01*
X144641Y274548D01*
X144583Y274487D01*
X144529Y274424D01*
X144477Y274358D01*
X144429Y274290D01*
X144384Y274219D01*
X144342Y274147D01*
X144304Y274072D01*
X144269Y273996D01*
X144238Y273919D01*
X144210Y273840D01*
X146849Y272599D02*
X146903Y272652D01*
X146954Y272709D01*
X147002Y272768D01*
X147047Y272829D01*
X147088Y272892D01*
X147127Y272958D01*
X147162Y273025D01*
X147194Y273094D01*
X147222Y273165D01*
X147246Y273236D01*
X147267Y273309D01*
X147284Y273383D01*
X147298Y273458D01*
X147307Y273533D01*
X147313Y273609D01*
X147315Y273685D01*
X146850Y272598D02*
X144211Y269494D01*
X147315Y269494D01*
D10*
X93740Y223320D02*
X63740Y223320D01*
X63740Y198320D02*
X93740Y198320D01*
X93740Y220820D02*
X93740Y222820D01*
X93740Y200820D02*
X93740Y198820D01*
X63740Y198820D02*
X63740Y200820D01*
D11*
X78314Y188200D02*
X78392Y188202D01*
X78469Y188208D01*
X78546Y188217D01*
X78622Y188230D01*
X78698Y188247D01*
X78773Y188268D01*
X78846Y188292D01*
X78919Y188320D01*
X78990Y188352D01*
X79059Y188387D01*
X79126Y188425D01*
X79192Y188466D01*
X79255Y188511D01*
X79316Y188559D01*
X79375Y188609D01*
X79431Y188663D01*
X79485Y188719D01*
X79535Y188778D01*
X79583Y188839D01*
X79628Y188902D01*
X79669Y188968D01*
X79707Y189035D01*
X79742Y189104D01*
X79774Y189175D01*
X79802Y189248D01*
X79826Y189321D01*
X79847Y189396D01*
X79864Y189472D01*
X79877Y189548D01*
X79886Y189625D01*
X79892Y189702D01*
X79894Y189780D01*
X78314Y188200D02*
X78199Y188202D01*
X78085Y188208D01*
X77971Y188218D01*
X77857Y188231D01*
X77744Y188249D01*
X77631Y188271D01*
X77519Y188296D01*
X77409Y188325D01*
X77299Y188358D01*
X77190Y188395D01*
X77083Y188435D01*
X76977Y188479D01*
X76873Y188527D01*
X76770Y188578D01*
X76670Y188633D01*
X76571Y188691D01*
X76474Y188753D01*
X76380Y188817D01*
X76287Y188885D01*
X76197Y188957D01*
X76110Y189031D01*
X76025Y189108D01*
X75943Y189188D01*
X76142Y193732D02*
X76144Y193810D01*
X76150Y193887D01*
X76159Y193964D01*
X76172Y194040D01*
X76189Y194116D01*
X76210Y194191D01*
X76234Y194264D01*
X76262Y194337D01*
X76294Y194408D01*
X76329Y194477D01*
X76367Y194544D01*
X76408Y194610D01*
X76453Y194673D01*
X76501Y194734D01*
X76551Y194793D01*
X76605Y194849D01*
X76661Y194903D01*
X76720Y194953D01*
X76781Y195001D01*
X76844Y195046D01*
X76910Y195087D01*
X76977Y195125D01*
X77046Y195160D01*
X77117Y195192D01*
X77190Y195220D01*
X77263Y195244D01*
X77338Y195265D01*
X77414Y195282D01*
X77490Y195295D01*
X77567Y195304D01*
X77645Y195310D01*
X77722Y195312D01*
X77828Y195310D01*
X77934Y195304D01*
X78039Y195295D01*
X78144Y195282D01*
X78249Y195265D01*
X78353Y195244D01*
X78456Y195220D01*
X78558Y195192D01*
X78659Y195160D01*
X78759Y195125D01*
X78857Y195086D01*
X78955Y195043D01*
X79050Y194998D01*
X79144Y194949D01*
X79236Y194896D01*
X79326Y194840D01*
X79414Y194781D01*
X79500Y194719D01*
X76931Y192349D02*
X76864Y192391D01*
X76799Y192436D01*
X76736Y192485D01*
X76675Y192536D01*
X76618Y192591D01*
X76563Y192648D01*
X76510Y192708D01*
X76461Y192770D01*
X76415Y192835D01*
X76373Y192901D01*
X76333Y192970D01*
X76297Y193041D01*
X76265Y193114D01*
X76236Y193188D01*
X76211Y193263D01*
X76190Y193339D01*
X76172Y193417D01*
X76159Y193495D01*
X76149Y193574D01*
X76143Y193653D01*
X76141Y193732D01*
X79105Y191163D02*
X79172Y191121D01*
X79237Y191076D01*
X79300Y191027D01*
X79361Y190976D01*
X79418Y190921D01*
X79473Y190864D01*
X79526Y190804D01*
X79575Y190742D01*
X79621Y190677D01*
X79663Y190611D01*
X79703Y190542D01*
X79739Y190471D01*
X79771Y190398D01*
X79800Y190324D01*
X79825Y190249D01*
X79846Y190173D01*
X79864Y190095D01*
X79877Y190017D01*
X79887Y189938D01*
X79893Y189859D01*
X79895Y189780D01*
X79105Y191163D02*
X76931Y192349D01*
X82805Y195312D02*
X84385Y188200D01*
X85966Y192941D01*
X87546Y188200D01*
X89127Y195312D01*
X94454Y195312D02*
X94536Y195310D01*
X94618Y195304D01*
X94700Y195295D01*
X94781Y195282D01*
X94861Y195265D01*
X94941Y195244D01*
X95019Y195220D01*
X95096Y195192D01*
X95172Y195161D01*
X95247Y195126D01*
X95319Y195087D01*
X95390Y195046D01*
X95459Y195001D01*
X95525Y194953D01*
X95590Y194902D01*
X95652Y194848D01*
X95711Y194791D01*
X95768Y194732D01*
X95822Y194670D01*
X95873Y194605D01*
X95921Y194539D01*
X95966Y194470D01*
X96007Y194399D01*
X96046Y194327D01*
X96081Y194252D01*
X96112Y194176D01*
X96140Y194099D01*
X96164Y194021D01*
X96185Y193941D01*
X96202Y193861D01*
X96215Y193780D01*
X96224Y193698D01*
X96230Y193616D01*
X96232Y193534D01*
X94454Y195312D02*
X94361Y195310D01*
X94269Y195304D01*
X94177Y195295D01*
X94085Y195282D01*
X93994Y195265D01*
X93904Y195245D01*
X93814Y195221D01*
X93726Y195193D01*
X93638Y195161D01*
X93553Y195127D01*
X93468Y195088D01*
X93386Y195047D01*
X93305Y195002D01*
X93225Y194953D01*
X93148Y194902D01*
X93073Y194848D01*
X93001Y194790D01*
X92931Y194730D01*
X92863Y194666D01*
X92798Y194601D01*
X92735Y194532D01*
X92676Y194461D01*
X92619Y194388D01*
X92565Y194312D01*
X92515Y194235D01*
X92467Y194155D01*
X92423Y194074D01*
X92383Y193990D01*
X92345Y193906D01*
X92311Y193819D01*
X92281Y193732D01*
X95639Y192151D02*
X95700Y192212D01*
X95758Y192275D01*
X95813Y192341D01*
X95866Y192409D01*
X95915Y192480D01*
X95960Y192552D01*
X96003Y192627D01*
X96042Y192703D01*
X96078Y192782D01*
X96110Y192861D01*
X96138Y192942D01*
X96163Y193025D01*
X96184Y193108D01*
X96201Y193192D01*
X96215Y193277D01*
X96224Y193362D01*
X96230Y193448D01*
X96232Y193534D01*
X95639Y192151D02*
X92281Y188200D01*
X96232Y188200D01*
D10*
X77470Y234950D02*
X49530Y234950D01*
X49530Y247650D01*
X77470Y247650D01*
X77470Y234950D01*
D11*
X44958Y251968D02*
X44958Y259842D01*
X47145Y259842D01*
X47238Y259840D01*
X47330Y259834D01*
X47423Y259824D01*
X47515Y259811D01*
X47606Y259793D01*
X47696Y259771D01*
X47785Y259746D01*
X47874Y259717D01*
X47960Y259684D01*
X48046Y259648D01*
X48130Y259608D01*
X48212Y259564D01*
X48292Y259517D01*
X48370Y259467D01*
X48445Y259413D01*
X48519Y259357D01*
X48590Y259297D01*
X48658Y259234D01*
X48724Y259168D01*
X48787Y259100D01*
X48847Y259029D01*
X48903Y258955D01*
X48957Y258880D01*
X49007Y258802D01*
X49054Y258722D01*
X49098Y258640D01*
X49138Y258556D01*
X49174Y258470D01*
X49207Y258384D01*
X49236Y258295D01*
X49261Y258206D01*
X49283Y258116D01*
X49301Y258025D01*
X49314Y257933D01*
X49324Y257840D01*
X49330Y257748D01*
X49332Y257655D01*
X49330Y257562D01*
X49324Y257470D01*
X49314Y257377D01*
X49301Y257285D01*
X49283Y257194D01*
X49261Y257104D01*
X49236Y257015D01*
X49207Y256926D01*
X49174Y256840D01*
X49138Y256754D01*
X49098Y256670D01*
X49054Y256588D01*
X49007Y256508D01*
X48957Y256430D01*
X48903Y256355D01*
X48847Y256281D01*
X48787Y256210D01*
X48724Y256142D01*
X48658Y256076D01*
X48590Y256013D01*
X48519Y255953D01*
X48445Y255897D01*
X48370Y255843D01*
X48292Y255793D01*
X48212Y255746D01*
X48130Y255702D01*
X48046Y255662D01*
X47960Y255626D01*
X47874Y255593D01*
X47785Y255564D01*
X47696Y255539D01*
X47606Y255517D01*
X47515Y255499D01*
X47423Y255486D01*
X47330Y255476D01*
X47238Y255470D01*
X47145Y255468D01*
X44958Y255468D01*
X47583Y255468D02*
X49332Y251968D01*
X52896Y256342D02*
X55521Y256342D01*
X55521Y256343D02*
X55602Y256341D01*
X55682Y256336D01*
X55763Y256326D01*
X55843Y256313D01*
X55922Y256297D01*
X56000Y256276D01*
X56077Y256252D01*
X56153Y256225D01*
X56228Y256194D01*
X56301Y256160D01*
X56373Y256122D01*
X56442Y256081D01*
X56510Y256037D01*
X56576Y255990D01*
X56639Y255939D01*
X56700Y255886D01*
X56758Y255830D01*
X56814Y255772D01*
X56867Y255711D01*
X56918Y255648D01*
X56965Y255582D01*
X57009Y255514D01*
X57050Y255445D01*
X57088Y255373D01*
X57122Y255300D01*
X57153Y255225D01*
X57180Y255149D01*
X57204Y255072D01*
X57225Y254994D01*
X57241Y254915D01*
X57254Y254835D01*
X57264Y254754D01*
X57269Y254674D01*
X57271Y254593D01*
X57271Y254155D01*
X57269Y254062D01*
X57263Y253970D01*
X57253Y253877D01*
X57240Y253785D01*
X57222Y253694D01*
X57200Y253604D01*
X57175Y253515D01*
X57146Y253426D01*
X57113Y253340D01*
X57077Y253254D01*
X57037Y253170D01*
X56993Y253088D01*
X56946Y253008D01*
X56896Y252930D01*
X56842Y252855D01*
X56786Y252781D01*
X56726Y252710D01*
X56663Y252642D01*
X56597Y252576D01*
X56529Y252513D01*
X56458Y252453D01*
X56384Y252397D01*
X56309Y252343D01*
X56231Y252293D01*
X56151Y252246D01*
X56069Y252202D01*
X55985Y252162D01*
X55899Y252126D01*
X55813Y252093D01*
X55724Y252064D01*
X55635Y252039D01*
X55545Y252017D01*
X55454Y251999D01*
X55362Y251986D01*
X55269Y251976D01*
X55177Y251970D01*
X55084Y251968D01*
X54991Y251970D01*
X54899Y251976D01*
X54806Y251986D01*
X54714Y251999D01*
X54623Y252017D01*
X54533Y252039D01*
X54444Y252064D01*
X54355Y252093D01*
X54269Y252126D01*
X54183Y252162D01*
X54099Y252202D01*
X54017Y252246D01*
X53937Y252293D01*
X53859Y252343D01*
X53784Y252397D01*
X53710Y252453D01*
X53639Y252513D01*
X53571Y252576D01*
X53505Y252642D01*
X53442Y252710D01*
X53382Y252781D01*
X53326Y252855D01*
X53272Y252930D01*
X53222Y253008D01*
X53175Y253088D01*
X53131Y253170D01*
X53091Y253254D01*
X53055Y253340D01*
X53022Y253426D01*
X52993Y253515D01*
X52968Y253604D01*
X52946Y253694D01*
X52928Y253785D01*
X52915Y253877D01*
X52905Y253970D01*
X52899Y254062D01*
X52897Y254155D01*
X52896Y254155D02*
X52896Y256342D01*
X52898Y256459D01*
X52904Y256576D01*
X52914Y256692D01*
X52927Y256809D01*
X52945Y256924D01*
X52966Y257039D01*
X52991Y257153D01*
X53020Y257267D01*
X53053Y257379D01*
X53090Y257490D01*
X53130Y257600D01*
X53174Y257708D01*
X53221Y257815D01*
X53272Y257921D01*
X53327Y258024D01*
X53385Y258126D01*
X53446Y258225D01*
X53510Y258323D01*
X53578Y258418D01*
X53649Y258511D01*
X53723Y258602D01*
X53800Y258690D01*
X53880Y258775D01*
X53963Y258858D01*
X54048Y258938D01*
X54136Y259015D01*
X54227Y259089D01*
X54320Y259160D01*
X54415Y259228D01*
X54513Y259292D01*
X54612Y259353D01*
X54714Y259411D01*
X54817Y259466D01*
X54923Y259517D01*
X55030Y259564D01*
X55138Y259608D01*
X55248Y259648D01*
X55359Y259685D01*
X55471Y259718D01*
X55585Y259747D01*
X55699Y259772D01*
X55814Y259793D01*
X55929Y259811D01*
X56046Y259824D01*
X56162Y259834D01*
X56279Y259840D01*
X56396Y259842D01*
D10*
X76360Y258660D02*
X76360Y269660D01*
X96360Y269660D02*
X96360Y258660D01*
D12*
X102799Y262001D02*
X102799Y269367D01*
X101981Y262001D02*
X103618Y262001D01*
X103618Y269367D02*
X101981Y269367D01*
X108219Y262001D02*
X109856Y262001D01*
X108219Y262001D02*
X108141Y262003D01*
X108063Y262008D01*
X107986Y262018D01*
X107909Y262031D01*
X107833Y262047D01*
X107758Y262067D01*
X107684Y262091D01*
X107611Y262118D01*
X107539Y262149D01*
X107469Y262183D01*
X107401Y262220D01*
X107334Y262261D01*
X107269Y262305D01*
X107207Y262351D01*
X107147Y262401D01*
X107089Y262453D01*
X107034Y262508D01*
X106982Y262566D01*
X106932Y262626D01*
X106886Y262688D01*
X106842Y262753D01*
X106801Y262820D01*
X106764Y262888D01*
X106730Y262958D01*
X106699Y263030D01*
X106672Y263103D01*
X106648Y263177D01*
X106628Y263252D01*
X106612Y263328D01*
X106599Y263405D01*
X106589Y263482D01*
X106584Y263560D01*
X106582Y263638D01*
X106582Y267730D01*
X106584Y267810D01*
X106590Y267890D01*
X106600Y267970D01*
X106613Y268049D01*
X106631Y268128D01*
X106652Y268205D01*
X106678Y268281D01*
X106707Y268356D01*
X106739Y268430D01*
X106775Y268502D01*
X106815Y268572D01*
X106858Y268639D01*
X106904Y268705D01*
X106954Y268768D01*
X107006Y268829D01*
X107061Y268888D01*
X107120Y268943D01*
X107180Y268995D01*
X107244Y269045D01*
X107310Y269091D01*
X107377Y269134D01*
X107447Y269174D01*
X107519Y269210D01*
X107593Y269242D01*
X107667Y269271D01*
X107744Y269297D01*
X107821Y269318D01*
X107900Y269336D01*
X107979Y269349D01*
X108059Y269359D01*
X108139Y269365D01*
X108219Y269367D01*
X109856Y269367D01*
X112701Y269367D02*
X112701Y268549D01*
X112701Y269367D02*
X116794Y269367D01*
X114748Y262001D01*
D10*
X57150Y252730D02*
X57150Y280670D01*
X69850Y280670D01*
X69850Y252730D01*
X57150Y252730D01*
D11*
X66802Y286738D02*
X66802Y288488D01*
X66802Y286738D02*
X66800Y286657D01*
X66795Y286577D01*
X66785Y286496D01*
X66772Y286416D01*
X66756Y286337D01*
X66735Y286259D01*
X66711Y286182D01*
X66684Y286106D01*
X66653Y286031D01*
X66619Y285958D01*
X66581Y285886D01*
X66540Y285817D01*
X66496Y285749D01*
X66449Y285683D01*
X66398Y285620D01*
X66345Y285559D01*
X66289Y285501D01*
X66231Y285445D01*
X66170Y285392D01*
X66107Y285341D01*
X66041Y285294D01*
X65973Y285250D01*
X65904Y285209D01*
X65832Y285171D01*
X65759Y285137D01*
X65684Y285106D01*
X65608Y285079D01*
X65531Y285055D01*
X65453Y285034D01*
X65374Y285018D01*
X65294Y285005D01*
X65213Y284995D01*
X65133Y284990D01*
X65052Y284988D01*
X60678Y284988D01*
X60595Y284990D01*
X60512Y284996D01*
X60429Y285006D01*
X60347Y285020D01*
X60265Y285037D01*
X60185Y285059D01*
X60106Y285084D01*
X60028Y285113D01*
X59951Y285146D01*
X59876Y285183D01*
X59803Y285222D01*
X59732Y285266D01*
X59663Y285312D01*
X59596Y285362D01*
X59532Y285415D01*
X59470Y285471D01*
X59411Y285530D01*
X59355Y285592D01*
X59302Y285656D01*
X59253Y285723D01*
X59206Y285792D01*
X59162Y285863D01*
X59123Y285936D01*
X59086Y286011D01*
X59053Y286088D01*
X59024Y286166D01*
X58999Y286245D01*
X58977Y286325D01*
X58960Y286407D01*
X58946Y286489D01*
X58936Y286572D01*
X58930Y286655D01*
X58928Y286738D01*
X58928Y288488D01*
X58928Y294090D02*
X58930Y294176D01*
X58935Y294262D01*
X58945Y294347D01*
X58958Y294432D01*
X58975Y294516D01*
X58995Y294600D01*
X59019Y294682D01*
X59047Y294763D01*
X59078Y294844D01*
X59112Y294922D01*
X59150Y294999D01*
X59192Y295075D01*
X59236Y295148D01*
X59284Y295219D01*
X59335Y295289D01*
X59389Y295356D01*
X59445Y295420D01*
X59505Y295482D01*
X59567Y295542D01*
X59631Y295598D01*
X59698Y295652D01*
X59768Y295703D01*
X59839Y295751D01*
X59913Y295795D01*
X59988Y295837D01*
X60065Y295875D01*
X60143Y295909D01*
X60224Y295940D01*
X60305Y295968D01*
X60387Y295992D01*
X60471Y296012D01*
X60555Y296029D01*
X60640Y296042D01*
X60725Y296052D01*
X60811Y296057D01*
X60897Y296059D01*
X58928Y294090D02*
X58930Y293991D01*
X58936Y293891D01*
X58946Y293793D01*
X58959Y293694D01*
X58977Y293596D01*
X58998Y293499D01*
X59023Y293403D01*
X59052Y293308D01*
X59085Y293214D01*
X59121Y293121D01*
X59161Y293030D01*
X59204Y292941D01*
X59251Y292853D01*
X59301Y292768D01*
X59355Y292684D01*
X59412Y292602D01*
X59472Y292523D01*
X59535Y292446D01*
X59601Y292372D01*
X59670Y292301D01*
X59741Y292232D01*
X59816Y292166D01*
X59893Y292103D01*
X59972Y292043D01*
X60054Y291986D01*
X60137Y291933D01*
X60223Y291882D01*
X60311Y291836D01*
X60400Y291792D01*
X60491Y291753D01*
X60584Y291716D01*
X60678Y291684D01*
X62428Y295402D02*
X62364Y295466D01*
X62298Y295527D01*
X62229Y295585D01*
X62158Y295640D01*
X62085Y295693D01*
X62009Y295742D01*
X61932Y295787D01*
X61852Y295830D01*
X61771Y295869D01*
X61688Y295904D01*
X61604Y295936D01*
X61518Y295965D01*
X61432Y295989D01*
X61344Y296010D01*
X61256Y296027D01*
X61167Y296041D01*
X61077Y296050D01*
X60987Y296056D01*
X60897Y296058D01*
X62428Y295402D02*
X66802Y291684D01*
X66802Y296058D01*
X66802Y299685D02*
X66802Y301872D01*
X66800Y301965D01*
X66794Y302057D01*
X66784Y302150D01*
X66771Y302242D01*
X66753Y302333D01*
X66731Y302423D01*
X66706Y302512D01*
X66677Y302601D01*
X66644Y302687D01*
X66608Y302773D01*
X66568Y302857D01*
X66524Y302939D01*
X66477Y303019D01*
X66427Y303097D01*
X66373Y303172D01*
X66317Y303246D01*
X66257Y303317D01*
X66194Y303385D01*
X66128Y303451D01*
X66060Y303514D01*
X65989Y303574D01*
X65915Y303630D01*
X65840Y303684D01*
X65762Y303734D01*
X65682Y303781D01*
X65600Y303825D01*
X65516Y303865D01*
X65430Y303901D01*
X65344Y303934D01*
X65255Y303963D01*
X65166Y303988D01*
X65076Y304010D01*
X64985Y304028D01*
X64893Y304041D01*
X64800Y304051D01*
X64708Y304057D01*
X64615Y304059D01*
X64522Y304057D01*
X64430Y304051D01*
X64337Y304041D01*
X64245Y304028D01*
X64154Y304010D01*
X64064Y303988D01*
X63975Y303963D01*
X63886Y303934D01*
X63800Y303901D01*
X63714Y303865D01*
X63630Y303825D01*
X63548Y303781D01*
X63468Y303734D01*
X63390Y303684D01*
X63315Y303630D01*
X63241Y303574D01*
X63170Y303514D01*
X63102Y303451D01*
X63036Y303385D01*
X62973Y303317D01*
X62913Y303246D01*
X62857Y303172D01*
X62803Y303097D01*
X62753Y303019D01*
X62706Y302939D01*
X62662Y302857D01*
X62622Y302773D01*
X62586Y302687D01*
X62553Y302601D01*
X62524Y302512D01*
X62499Y302423D01*
X62477Y302333D01*
X62459Y302242D01*
X62446Y302150D01*
X62436Y302057D01*
X62430Y301965D01*
X62428Y301872D01*
X58928Y302309D02*
X58928Y299685D01*
X58928Y302309D02*
X58930Y302391D01*
X58936Y302473D01*
X58945Y302554D01*
X58959Y302635D01*
X58976Y302716D01*
X58997Y302795D01*
X59021Y302873D01*
X59050Y302950D01*
X59082Y303026D01*
X59117Y303100D01*
X59156Y303172D01*
X59198Y303243D01*
X59243Y303311D01*
X59292Y303377D01*
X59343Y303441D01*
X59398Y303502D01*
X59455Y303561D01*
X59515Y303617D01*
X59578Y303670D01*
X59643Y303720D01*
X59710Y303767D01*
X59779Y303811D01*
X59851Y303851D01*
X59924Y303888D01*
X59999Y303922D01*
X60075Y303952D01*
X60153Y303978D01*
X60232Y304001D01*
X60311Y304020D01*
X60392Y304035D01*
X60473Y304047D01*
X60555Y304055D01*
X60637Y304059D01*
X60719Y304059D01*
X60801Y304055D01*
X60883Y304047D01*
X60964Y304035D01*
X61045Y304020D01*
X61124Y304001D01*
X61203Y303978D01*
X61281Y303952D01*
X61357Y303922D01*
X61432Y303888D01*
X61505Y303851D01*
X61577Y303811D01*
X61646Y303767D01*
X61713Y303720D01*
X61778Y303670D01*
X61841Y303617D01*
X61901Y303561D01*
X61958Y303502D01*
X62013Y303441D01*
X62064Y303377D01*
X62113Y303311D01*
X62158Y303243D01*
X62200Y303172D01*
X62239Y303100D01*
X62274Y303026D01*
X62306Y302950D01*
X62335Y302873D01*
X62359Y302795D01*
X62380Y302716D01*
X62397Y302635D01*
X62411Y302554D01*
X62420Y302473D01*
X62426Y302391D01*
X62428Y302309D01*
X62428Y300560D01*
D10*
X299810Y339030D02*
X317410Y339030D01*
X317410Y369630D02*
X299810Y369630D01*
D13*
X331529Y343830D02*
X331531Y343909D01*
X331537Y343989D01*
X331547Y344068D01*
X331561Y344146D01*
X331579Y344223D01*
X331600Y344300D01*
X331626Y344375D01*
X331655Y344449D01*
X331688Y344521D01*
X331725Y344592D01*
X331765Y344660D01*
X331808Y344727D01*
X331855Y344791D01*
X331905Y344853D01*
X331958Y344912D01*
X332013Y344969D01*
X332072Y345022D01*
X332133Y345073D01*
X332197Y345121D01*
X332263Y345165D01*
X332331Y345206D01*
X332401Y345243D01*
X332473Y345277D01*
X332547Y345307D01*
X332621Y345334D01*
X332698Y345356D01*
X332775Y345375D01*
X332853Y345390D01*
X332932Y345401D01*
X333011Y345408D01*
X333090Y345411D01*
X333170Y345410D01*
X333249Y345405D01*
X333328Y345396D01*
X333406Y345383D01*
X333484Y345366D01*
X333561Y345345D01*
X333636Y345321D01*
X333710Y345293D01*
X333783Y345261D01*
X333854Y345225D01*
X333923Y345186D01*
X333990Y345143D01*
X334055Y345097D01*
X334118Y345048D01*
X334178Y344996D01*
X334235Y344941D01*
X334289Y344883D01*
X334341Y344822D01*
X334389Y344759D01*
X334434Y344694D01*
X334476Y344626D01*
X334514Y344557D01*
X334549Y344485D01*
X334580Y344412D01*
X334607Y344337D01*
X334631Y344262D01*
X334651Y344185D01*
X334667Y344107D01*
X334679Y344028D01*
X334687Y343949D01*
X334691Y343870D01*
X334691Y343790D01*
X334687Y343711D01*
X334679Y343632D01*
X334667Y343553D01*
X334651Y343475D01*
X334631Y343398D01*
X334607Y343323D01*
X334580Y343248D01*
X334549Y343175D01*
X334514Y343103D01*
X334476Y343034D01*
X334434Y342966D01*
X334389Y342901D01*
X334341Y342838D01*
X334289Y342777D01*
X334235Y342719D01*
X334178Y342664D01*
X334118Y342612D01*
X334055Y342563D01*
X333990Y342517D01*
X333923Y342474D01*
X333854Y342435D01*
X333783Y342399D01*
X333710Y342367D01*
X333636Y342339D01*
X333561Y342315D01*
X333484Y342294D01*
X333406Y342277D01*
X333328Y342264D01*
X333249Y342255D01*
X333170Y342250D01*
X333090Y342249D01*
X333011Y342252D01*
X332932Y342259D01*
X332853Y342270D01*
X332775Y342285D01*
X332698Y342304D01*
X332621Y342326D01*
X332547Y342353D01*
X332473Y342383D01*
X332401Y342417D01*
X332331Y342454D01*
X332263Y342495D01*
X332197Y342539D01*
X332133Y342587D01*
X332072Y342638D01*
X332013Y342691D01*
X331958Y342748D01*
X331905Y342807D01*
X331855Y342869D01*
X331808Y342933D01*
X331765Y343000D01*
X331725Y343068D01*
X331688Y343139D01*
X331655Y343211D01*
X331626Y343285D01*
X331600Y343360D01*
X331579Y343437D01*
X331561Y343514D01*
X331547Y343592D01*
X331537Y343671D01*
X331531Y343751D01*
X331529Y343830D01*
D12*
X310687Y333416D02*
X310687Y324002D01*
X309641Y324002D02*
X311733Y324002D01*
X311733Y333416D02*
X309641Y333416D01*
X317465Y324002D02*
X319557Y324002D01*
X317465Y324002D02*
X317376Y324004D01*
X317288Y324010D01*
X317199Y324019D01*
X317111Y324032D01*
X317024Y324049D01*
X316938Y324070D01*
X316852Y324094D01*
X316768Y324122D01*
X316685Y324153D01*
X316603Y324188D01*
X316523Y324226D01*
X316445Y324268D01*
X316368Y324313D01*
X316294Y324361D01*
X316221Y324412D01*
X316151Y324466D01*
X316083Y324524D01*
X316017Y324584D01*
X315955Y324646D01*
X315895Y324712D01*
X315837Y324780D01*
X315783Y324850D01*
X315732Y324923D01*
X315684Y324997D01*
X315639Y325074D01*
X315597Y325152D01*
X315559Y325232D01*
X315524Y325314D01*
X315493Y325397D01*
X315465Y325481D01*
X315441Y325567D01*
X315420Y325653D01*
X315403Y325740D01*
X315390Y325828D01*
X315381Y325917D01*
X315375Y326005D01*
X315373Y326094D01*
X315373Y331324D01*
X315375Y331415D01*
X315381Y331506D01*
X315391Y331597D01*
X315405Y331687D01*
X315423Y331777D01*
X315444Y331865D01*
X315470Y331953D01*
X315499Y332039D01*
X315532Y332125D01*
X315569Y332208D01*
X315609Y332290D01*
X315653Y332370D01*
X315701Y332448D01*
X315751Y332524D01*
X315805Y332598D01*
X315862Y332669D01*
X315923Y332737D01*
X315986Y332803D01*
X316052Y332866D01*
X316120Y332927D01*
X316191Y332984D01*
X316265Y333038D01*
X316341Y333088D01*
X316419Y333136D01*
X316499Y333180D01*
X316581Y333220D01*
X316664Y333257D01*
X316749Y333290D01*
X316836Y333319D01*
X316924Y333345D01*
X317012Y333366D01*
X317102Y333384D01*
X317192Y333398D01*
X317283Y333408D01*
X317374Y333414D01*
X317465Y333416D01*
X319557Y333416D01*
X323031Y326617D02*
X323033Y326718D01*
X323039Y326820D01*
X323049Y326921D01*
X323062Y327021D01*
X323080Y327121D01*
X323101Y327220D01*
X323127Y327318D01*
X323156Y327415D01*
X323189Y327511D01*
X323225Y327606D01*
X323265Y327699D01*
X323309Y327791D01*
X323356Y327880D01*
X323407Y327968D01*
X323461Y328054D01*
X323519Y328138D01*
X323579Y328219D01*
X323643Y328298D01*
X323709Y328374D01*
X323779Y328448D01*
X323851Y328519D01*
X323927Y328587D01*
X324004Y328652D01*
X324084Y328715D01*
X324167Y328774D01*
X324252Y328829D01*
X324339Y328882D01*
X324427Y328931D01*
X324518Y328976D01*
X324610Y329018D01*
X324704Y329056D01*
X324799Y329091D01*
X324896Y329122D01*
X324994Y329149D01*
X325092Y329173D01*
X325192Y329192D01*
X325292Y329208D01*
X325393Y329220D01*
X325494Y329228D01*
X325595Y329232D01*
X325697Y329232D01*
X325798Y329228D01*
X325899Y329220D01*
X326000Y329208D01*
X326100Y329192D01*
X326200Y329173D01*
X326298Y329149D01*
X326396Y329122D01*
X326493Y329091D01*
X326588Y329056D01*
X326682Y329018D01*
X326774Y328976D01*
X326865Y328931D01*
X326954Y328882D01*
X327040Y328829D01*
X327125Y328774D01*
X327208Y328715D01*
X327288Y328652D01*
X327365Y328587D01*
X327441Y328519D01*
X327513Y328448D01*
X327583Y328374D01*
X327649Y328298D01*
X327713Y328219D01*
X327773Y328138D01*
X327831Y328054D01*
X327885Y327968D01*
X327936Y327880D01*
X327983Y327791D01*
X328027Y327699D01*
X328067Y327606D01*
X328103Y327511D01*
X328136Y327415D01*
X328165Y327318D01*
X328191Y327220D01*
X328212Y327121D01*
X328230Y327021D01*
X328243Y326921D01*
X328253Y326820D01*
X328259Y326718D01*
X328261Y326617D01*
X328259Y326516D01*
X328253Y326414D01*
X328243Y326313D01*
X328230Y326213D01*
X328212Y326113D01*
X328191Y326014D01*
X328165Y325916D01*
X328136Y325819D01*
X328103Y325723D01*
X328067Y325628D01*
X328027Y325535D01*
X327983Y325443D01*
X327936Y325354D01*
X327885Y325266D01*
X327831Y325180D01*
X327773Y325096D01*
X327713Y325015D01*
X327649Y324936D01*
X327583Y324860D01*
X327513Y324786D01*
X327441Y324715D01*
X327365Y324647D01*
X327288Y324582D01*
X327208Y324519D01*
X327125Y324460D01*
X327040Y324405D01*
X326953Y324352D01*
X326865Y324303D01*
X326774Y324258D01*
X326682Y324216D01*
X326588Y324178D01*
X326493Y324143D01*
X326396Y324112D01*
X326298Y324085D01*
X326200Y324061D01*
X326100Y324042D01*
X326000Y324026D01*
X325899Y324014D01*
X325798Y324006D01*
X325697Y324002D01*
X325595Y324002D01*
X325494Y324006D01*
X325393Y324014D01*
X325292Y324026D01*
X325192Y324042D01*
X325092Y324061D01*
X324994Y324085D01*
X324896Y324112D01*
X324799Y324143D01*
X324704Y324178D01*
X324610Y324216D01*
X324518Y324258D01*
X324427Y324303D01*
X324339Y324352D01*
X324252Y324405D01*
X324167Y324460D01*
X324084Y324519D01*
X324004Y324582D01*
X323927Y324647D01*
X323851Y324715D01*
X323779Y324786D01*
X323709Y324860D01*
X323643Y324936D01*
X323579Y325015D01*
X323519Y325096D01*
X323461Y325180D01*
X323407Y325266D01*
X323356Y325354D01*
X323309Y325443D01*
X323265Y325535D01*
X323225Y325628D01*
X323189Y325723D01*
X323156Y325819D01*
X323127Y325916D01*
X323101Y326014D01*
X323080Y326113D01*
X323062Y326213D01*
X323049Y326313D01*
X323039Y326414D01*
X323033Y326516D01*
X323031Y326617D01*
X323554Y331324D02*
X323556Y331414D01*
X323562Y331504D01*
X323571Y331593D01*
X323585Y331682D01*
X323602Y331771D01*
X323623Y331858D01*
X323648Y331945D01*
X323677Y332030D01*
X323709Y332114D01*
X323745Y332197D01*
X323784Y332278D01*
X323827Y332357D01*
X323873Y332434D01*
X323922Y332510D01*
X323975Y332583D01*
X324031Y332653D01*
X324089Y332722D01*
X324151Y332787D01*
X324215Y332850D01*
X324282Y332910D01*
X324352Y332968D01*
X324424Y333022D01*
X324498Y333073D01*
X324574Y333121D01*
X324652Y333165D01*
X324733Y333206D01*
X324814Y333244D01*
X324898Y333278D01*
X324982Y333308D01*
X325068Y333335D01*
X325155Y333358D01*
X325243Y333377D01*
X325332Y333392D01*
X325421Y333404D01*
X325511Y333412D01*
X325601Y333416D01*
X325691Y333416D01*
X325781Y333412D01*
X325871Y333404D01*
X325960Y333392D01*
X326049Y333377D01*
X326137Y333358D01*
X326224Y333335D01*
X326310Y333308D01*
X326394Y333278D01*
X326478Y333244D01*
X326559Y333206D01*
X326640Y333165D01*
X326718Y333121D01*
X326794Y333073D01*
X326868Y333022D01*
X326940Y332968D01*
X327010Y332910D01*
X327077Y332850D01*
X327141Y332787D01*
X327203Y332722D01*
X327261Y332653D01*
X327317Y332583D01*
X327370Y332510D01*
X327419Y332434D01*
X327465Y332357D01*
X327508Y332278D01*
X327547Y332197D01*
X327583Y332114D01*
X327615Y332030D01*
X327644Y331945D01*
X327669Y331858D01*
X327690Y331771D01*
X327707Y331682D01*
X327721Y331593D01*
X327730Y331504D01*
X327736Y331414D01*
X327738Y331324D01*
X327736Y331234D01*
X327730Y331144D01*
X327721Y331055D01*
X327707Y330966D01*
X327690Y330877D01*
X327669Y330790D01*
X327644Y330703D01*
X327615Y330618D01*
X327583Y330534D01*
X327547Y330451D01*
X327508Y330370D01*
X327465Y330291D01*
X327419Y330214D01*
X327370Y330138D01*
X327317Y330065D01*
X327261Y329995D01*
X327203Y329926D01*
X327141Y329861D01*
X327077Y329798D01*
X327010Y329738D01*
X326940Y329680D01*
X326868Y329626D01*
X326794Y329575D01*
X326718Y329527D01*
X326640Y329483D01*
X326559Y329442D01*
X326478Y329404D01*
X326394Y329370D01*
X326310Y329340D01*
X326224Y329313D01*
X326137Y329290D01*
X326049Y329271D01*
X325960Y329256D01*
X325871Y329244D01*
X325781Y329236D01*
X325691Y329232D01*
X325601Y329232D01*
X325511Y329236D01*
X325421Y329244D01*
X325332Y329256D01*
X325243Y329271D01*
X325155Y329290D01*
X325068Y329313D01*
X324982Y329340D01*
X324898Y329370D01*
X324814Y329404D01*
X324733Y329442D01*
X324652Y329483D01*
X324574Y329527D01*
X324498Y329575D01*
X324424Y329626D01*
X324352Y329680D01*
X324282Y329738D01*
X324215Y329798D01*
X324151Y329861D01*
X324089Y329926D01*
X324031Y329995D01*
X323975Y330065D01*
X323922Y330138D01*
X323873Y330214D01*
X323827Y330291D01*
X323784Y330370D01*
X323745Y330451D01*
X323709Y330534D01*
X323677Y330618D01*
X323648Y330703D01*
X323623Y330790D01*
X323602Y330877D01*
X323585Y330966D01*
X323571Y331055D01*
X323562Y331144D01*
X323556Y331234D01*
X323554Y331324D01*
D10*
X298450Y315214D02*
X298450Y297434D01*
X298450Y315214D02*
X331470Y315214D01*
X331470Y297434D01*
X298450Y297434D01*
D11*
X278633Y302514D02*
X277053Y302514D01*
X276975Y302516D01*
X276898Y302522D01*
X276821Y302531D01*
X276745Y302544D01*
X276669Y302561D01*
X276594Y302582D01*
X276521Y302606D01*
X276448Y302634D01*
X276377Y302666D01*
X276308Y302701D01*
X276241Y302739D01*
X276175Y302780D01*
X276112Y302825D01*
X276051Y302873D01*
X275992Y302923D01*
X275936Y302977D01*
X275882Y303033D01*
X275832Y303092D01*
X275784Y303153D01*
X275739Y303216D01*
X275698Y303282D01*
X275660Y303349D01*
X275625Y303418D01*
X275593Y303489D01*
X275565Y303562D01*
X275541Y303635D01*
X275520Y303710D01*
X275503Y303786D01*
X275490Y303862D01*
X275481Y303939D01*
X275475Y304016D01*
X275473Y304094D01*
X275472Y304094D02*
X275472Y308046D01*
X275473Y308046D02*
X275475Y308124D01*
X275481Y308201D01*
X275490Y308278D01*
X275503Y308354D01*
X275520Y308430D01*
X275541Y308505D01*
X275565Y308578D01*
X275593Y308651D01*
X275625Y308722D01*
X275660Y308791D01*
X275698Y308858D01*
X275739Y308924D01*
X275784Y308987D01*
X275832Y309048D01*
X275882Y309107D01*
X275936Y309163D01*
X275992Y309217D01*
X276051Y309267D01*
X276112Y309315D01*
X276175Y309360D01*
X276241Y309401D01*
X276308Y309439D01*
X276377Y309474D01*
X276448Y309506D01*
X276521Y309534D01*
X276594Y309558D01*
X276669Y309579D01*
X276745Y309596D01*
X276821Y309609D01*
X276898Y309618D01*
X276975Y309624D01*
X277053Y309626D01*
X278633Y309626D01*
X283769Y309626D02*
X283851Y309624D01*
X283933Y309618D01*
X284015Y309609D01*
X284096Y309596D01*
X284176Y309579D01*
X284256Y309558D01*
X284334Y309534D01*
X284411Y309506D01*
X284487Y309475D01*
X284562Y309440D01*
X284634Y309401D01*
X284705Y309360D01*
X284774Y309315D01*
X284840Y309267D01*
X284905Y309216D01*
X284967Y309162D01*
X285026Y309105D01*
X285083Y309046D01*
X285137Y308984D01*
X285188Y308919D01*
X285236Y308853D01*
X285281Y308784D01*
X285322Y308713D01*
X285361Y308641D01*
X285396Y308566D01*
X285427Y308490D01*
X285455Y308413D01*
X285479Y308335D01*
X285500Y308255D01*
X285517Y308175D01*
X285530Y308094D01*
X285539Y308012D01*
X285545Y307930D01*
X285547Y307848D01*
X283769Y309626D02*
X283676Y309624D01*
X283584Y309618D01*
X283492Y309609D01*
X283400Y309596D01*
X283309Y309579D01*
X283219Y309559D01*
X283129Y309535D01*
X283041Y309507D01*
X282953Y309475D01*
X282868Y309441D01*
X282783Y309402D01*
X282701Y309361D01*
X282620Y309316D01*
X282540Y309267D01*
X282463Y309216D01*
X282388Y309162D01*
X282316Y309104D01*
X282246Y309044D01*
X282178Y308980D01*
X282113Y308915D01*
X282050Y308846D01*
X281991Y308775D01*
X281934Y308702D01*
X281880Y308626D01*
X281830Y308549D01*
X281782Y308469D01*
X281738Y308388D01*
X281698Y308304D01*
X281660Y308220D01*
X281626Y308133D01*
X281596Y308046D01*
X284954Y306465D02*
X285015Y306526D01*
X285073Y306589D01*
X285128Y306655D01*
X285181Y306723D01*
X285230Y306794D01*
X285275Y306866D01*
X285318Y306941D01*
X285357Y307017D01*
X285393Y307096D01*
X285425Y307175D01*
X285453Y307256D01*
X285478Y307339D01*
X285499Y307422D01*
X285516Y307506D01*
X285530Y307591D01*
X285539Y307676D01*
X285545Y307762D01*
X285547Y307848D01*
X284954Y306465D02*
X281596Y302514D01*
X285547Y302514D01*
X288911Y302514D02*
X291282Y302514D01*
X291360Y302516D01*
X291437Y302522D01*
X291514Y302531D01*
X291590Y302544D01*
X291666Y302561D01*
X291741Y302582D01*
X291814Y302606D01*
X291887Y302634D01*
X291958Y302666D01*
X292027Y302701D01*
X292094Y302739D01*
X292160Y302780D01*
X292223Y302825D01*
X292284Y302873D01*
X292343Y302923D01*
X292399Y302977D01*
X292453Y303033D01*
X292503Y303092D01*
X292551Y303153D01*
X292596Y303216D01*
X292637Y303282D01*
X292675Y303349D01*
X292710Y303418D01*
X292742Y303489D01*
X292770Y303562D01*
X292794Y303635D01*
X292815Y303710D01*
X292832Y303786D01*
X292845Y303862D01*
X292854Y303939D01*
X292860Y304016D01*
X292862Y304094D01*
X292862Y304885D01*
X292860Y304963D01*
X292854Y305040D01*
X292845Y305117D01*
X292832Y305193D01*
X292815Y305269D01*
X292794Y305344D01*
X292770Y305417D01*
X292742Y305490D01*
X292710Y305561D01*
X292675Y305630D01*
X292637Y305697D01*
X292596Y305763D01*
X292551Y305826D01*
X292503Y305887D01*
X292453Y305946D01*
X292399Y306002D01*
X292343Y306056D01*
X292284Y306106D01*
X292223Y306154D01*
X292160Y306199D01*
X292094Y306240D01*
X292027Y306278D01*
X291958Y306313D01*
X291887Y306345D01*
X291814Y306373D01*
X291741Y306397D01*
X291666Y306418D01*
X291590Y306435D01*
X291514Y306448D01*
X291437Y306457D01*
X291360Y306463D01*
X291282Y306465D01*
X288911Y306465D01*
X288911Y309626D01*
X292862Y309626D01*
D12*
X378310Y392098D02*
X378388Y392100D01*
X378466Y392105D01*
X378543Y392115D01*
X378620Y392128D01*
X378696Y392144D01*
X378771Y392164D01*
X378845Y392188D01*
X378918Y392215D01*
X378990Y392246D01*
X379060Y392280D01*
X379129Y392317D01*
X379195Y392358D01*
X379260Y392402D01*
X379322Y392448D01*
X379382Y392498D01*
X379440Y392550D01*
X379495Y392605D01*
X379547Y392663D01*
X379597Y392723D01*
X379643Y392785D01*
X379687Y392850D01*
X379728Y392917D01*
X379765Y392985D01*
X379799Y393055D01*
X379830Y393127D01*
X379857Y393200D01*
X379881Y393274D01*
X379901Y393349D01*
X379917Y393425D01*
X379930Y393502D01*
X379940Y393579D01*
X379945Y393657D01*
X379947Y393735D01*
X378310Y392098D02*
X378196Y392100D01*
X378083Y392105D01*
X377969Y392115D01*
X377856Y392128D01*
X377744Y392145D01*
X377632Y392165D01*
X377521Y392189D01*
X377410Y392217D01*
X377301Y392248D01*
X377193Y392283D01*
X377086Y392322D01*
X376980Y392364D01*
X376876Y392409D01*
X376773Y392458D01*
X376672Y392511D01*
X376573Y392566D01*
X376475Y392625D01*
X376380Y392687D01*
X376287Y392752D01*
X376195Y392820D01*
X376107Y392891D01*
X376020Y392965D01*
X375936Y393042D01*
X375855Y393121D01*
X376060Y397827D02*
X376062Y397905D01*
X376067Y397983D01*
X376077Y398060D01*
X376090Y398137D01*
X376106Y398213D01*
X376126Y398288D01*
X376150Y398362D01*
X376177Y398435D01*
X376208Y398507D01*
X376242Y398577D01*
X376279Y398646D01*
X376320Y398712D01*
X376364Y398777D01*
X376410Y398839D01*
X376460Y398899D01*
X376512Y398957D01*
X376567Y399012D01*
X376625Y399064D01*
X376685Y399114D01*
X376747Y399160D01*
X376812Y399204D01*
X376879Y399245D01*
X376947Y399282D01*
X377017Y399316D01*
X377089Y399347D01*
X377162Y399374D01*
X377236Y399398D01*
X377311Y399418D01*
X377387Y399434D01*
X377464Y399447D01*
X377541Y399457D01*
X377619Y399462D01*
X377697Y399464D01*
X377807Y399462D01*
X377916Y399456D01*
X378026Y399446D01*
X378134Y399433D01*
X378243Y399415D01*
X378350Y399394D01*
X378457Y399368D01*
X378563Y399339D01*
X378668Y399307D01*
X378771Y399270D01*
X378873Y399230D01*
X378974Y399186D01*
X379073Y399138D01*
X379170Y399088D01*
X379265Y399033D01*
X379358Y398975D01*
X379449Y398914D01*
X379538Y398850D01*
X376878Y396394D02*
X376811Y396436D01*
X376746Y396480D01*
X376684Y396528D01*
X376624Y396578D01*
X376566Y396631D01*
X376511Y396687D01*
X376459Y396746D01*
X376409Y396806D01*
X376362Y396870D01*
X376319Y396935D01*
X376278Y397002D01*
X376241Y397071D01*
X376207Y397142D01*
X376176Y397214D01*
X376149Y397288D01*
X376125Y397362D01*
X376105Y397438D01*
X376089Y397515D01*
X376076Y397592D01*
X376066Y397670D01*
X376061Y397749D01*
X376059Y397827D01*
X379129Y395167D02*
X379195Y395125D01*
X379260Y395081D01*
X379322Y395034D01*
X379382Y394983D01*
X379440Y394930D01*
X379495Y394874D01*
X379548Y394816D01*
X379597Y394755D01*
X379644Y394692D01*
X379687Y394627D01*
X379728Y394560D01*
X379765Y394491D01*
X379799Y394420D01*
X379830Y394348D01*
X379857Y394274D01*
X379881Y394199D01*
X379901Y394124D01*
X379917Y394047D01*
X379930Y393970D01*
X379940Y393892D01*
X379945Y393813D01*
X379947Y393735D01*
X379129Y395167D02*
X376878Y396395D01*
X382674Y399464D02*
X384311Y392098D01*
X385948Y397009D01*
X387585Y392098D01*
X389222Y399464D01*
X392192Y392098D02*
X394238Y392098D01*
X394327Y392100D01*
X394416Y392106D01*
X394505Y392116D01*
X394593Y392129D01*
X394681Y392146D01*
X394768Y392168D01*
X394853Y392193D01*
X394938Y392221D01*
X395021Y392254D01*
X395103Y392290D01*
X395183Y392329D01*
X395261Y392372D01*
X395337Y392418D01*
X395412Y392468D01*
X395484Y392521D01*
X395553Y392577D01*
X395620Y392636D01*
X395685Y392697D01*
X395746Y392762D01*
X395805Y392829D01*
X395861Y392898D01*
X395914Y392970D01*
X395964Y393045D01*
X396010Y393121D01*
X396053Y393199D01*
X396092Y393279D01*
X396128Y393361D01*
X396161Y393444D01*
X396189Y393529D01*
X396214Y393614D01*
X396236Y393701D01*
X396253Y393789D01*
X396266Y393877D01*
X396276Y393966D01*
X396282Y394055D01*
X396284Y394144D01*
X396282Y394233D01*
X396276Y394322D01*
X396266Y394411D01*
X396253Y394499D01*
X396236Y394587D01*
X396214Y394674D01*
X396189Y394759D01*
X396161Y394844D01*
X396128Y394927D01*
X396092Y395009D01*
X396053Y395089D01*
X396010Y395167D01*
X395964Y395243D01*
X395914Y395318D01*
X395861Y395390D01*
X395805Y395459D01*
X395746Y395526D01*
X395685Y395591D01*
X395620Y395652D01*
X395553Y395711D01*
X395484Y395767D01*
X395412Y395820D01*
X395337Y395870D01*
X395261Y395916D01*
X395183Y395959D01*
X395103Y395998D01*
X395021Y396034D01*
X394938Y396067D01*
X394853Y396095D01*
X394768Y396120D01*
X394681Y396142D01*
X394593Y396159D01*
X394505Y396172D01*
X394416Y396182D01*
X394327Y396188D01*
X394238Y396190D01*
X394648Y399464D02*
X392192Y399464D01*
X394648Y399464D02*
X394727Y399462D01*
X394806Y399456D01*
X394885Y399447D01*
X394963Y399434D01*
X395040Y399416D01*
X395116Y399396D01*
X395191Y399371D01*
X395265Y399343D01*
X395338Y399312D01*
X395409Y399276D01*
X395478Y399238D01*
X395545Y399196D01*
X395610Y399151D01*
X395673Y399103D01*
X395734Y399052D01*
X395791Y398998D01*
X395847Y398942D01*
X395899Y398883D01*
X395949Y398821D01*
X395995Y398757D01*
X396039Y398691D01*
X396079Y398623D01*
X396115Y398553D01*
X396149Y398481D01*
X396179Y398407D01*
X396205Y398333D01*
X396228Y398257D01*
X396246Y398180D01*
X396262Y398103D01*
X396273Y398024D01*
X396281Y397946D01*
X396285Y397867D01*
X396285Y397787D01*
X396281Y397708D01*
X396273Y397630D01*
X396262Y397551D01*
X396246Y397474D01*
X396228Y397397D01*
X396205Y397321D01*
X396179Y397247D01*
X396149Y397173D01*
X396115Y397101D01*
X396079Y397031D01*
X396039Y396963D01*
X395995Y396897D01*
X395949Y396833D01*
X395899Y396771D01*
X395847Y396712D01*
X395791Y396656D01*
X395734Y396602D01*
X395673Y396551D01*
X395610Y396503D01*
X395545Y396458D01*
X395478Y396416D01*
X395409Y396378D01*
X395338Y396342D01*
X395265Y396311D01*
X395191Y396283D01*
X395116Y396258D01*
X395040Y396238D01*
X394963Y396220D01*
X394885Y396207D01*
X394806Y396198D01*
X394727Y396192D01*
X394648Y396190D01*
X394648Y396191D02*
X393011Y396191D01*
D10*
X328930Y320294D02*
X300990Y320294D01*
X300990Y332994D01*
X328930Y332994D01*
X328930Y320294D01*
D11*
X311580Y309372D02*
X309831Y309372D01*
X309750Y309374D01*
X309670Y309379D01*
X309589Y309389D01*
X309509Y309402D01*
X309430Y309418D01*
X309352Y309439D01*
X309275Y309463D01*
X309199Y309490D01*
X309124Y309521D01*
X309051Y309555D01*
X308979Y309593D01*
X308910Y309634D01*
X308842Y309678D01*
X308776Y309725D01*
X308713Y309776D01*
X308652Y309829D01*
X308594Y309885D01*
X308538Y309943D01*
X308485Y310004D01*
X308434Y310067D01*
X308387Y310133D01*
X308343Y310201D01*
X308302Y310270D01*
X308264Y310342D01*
X308230Y310415D01*
X308199Y310490D01*
X308172Y310566D01*
X308148Y310643D01*
X308127Y310721D01*
X308111Y310800D01*
X308098Y310880D01*
X308088Y310961D01*
X308083Y311041D01*
X308081Y311122D01*
X308081Y315496D01*
X308083Y315579D01*
X308089Y315662D01*
X308099Y315745D01*
X308113Y315827D01*
X308130Y315909D01*
X308152Y315989D01*
X308177Y316068D01*
X308206Y316146D01*
X308239Y316223D01*
X308276Y316298D01*
X308315Y316371D01*
X308359Y316442D01*
X308405Y316511D01*
X308455Y316578D01*
X308508Y316642D01*
X308564Y316704D01*
X308623Y316763D01*
X308685Y316819D01*
X308749Y316872D01*
X308816Y316921D01*
X308885Y316968D01*
X308956Y317012D01*
X309029Y317051D01*
X309104Y317088D01*
X309181Y317121D01*
X309259Y317150D01*
X309338Y317175D01*
X309418Y317197D01*
X309500Y317214D01*
X309582Y317228D01*
X309665Y317238D01*
X309748Y317244D01*
X309831Y317246D01*
X311580Y317246D01*
X317183Y317247D02*
X317269Y317245D01*
X317355Y317240D01*
X317440Y317230D01*
X317525Y317217D01*
X317609Y317200D01*
X317693Y317180D01*
X317775Y317156D01*
X317856Y317128D01*
X317937Y317097D01*
X318015Y317063D01*
X318092Y317025D01*
X318168Y316983D01*
X318241Y316939D01*
X318312Y316891D01*
X318382Y316840D01*
X318449Y316786D01*
X318513Y316730D01*
X318575Y316670D01*
X318635Y316608D01*
X318691Y316544D01*
X318745Y316477D01*
X318796Y316407D01*
X318844Y316336D01*
X318888Y316263D01*
X318930Y316187D01*
X318968Y316110D01*
X319002Y316032D01*
X319033Y315951D01*
X319061Y315870D01*
X319085Y315788D01*
X319105Y315704D01*
X319122Y315620D01*
X319135Y315535D01*
X319145Y315450D01*
X319150Y315364D01*
X319152Y315278D01*
X317183Y317246D02*
X317084Y317244D01*
X316984Y317238D01*
X316886Y317228D01*
X316787Y317215D01*
X316689Y317197D01*
X316592Y317176D01*
X316496Y317151D01*
X316401Y317122D01*
X316307Y317089D01*
X316214Y317053D01*
X316123Y317013D01*
X316034Y316970D01*
X315946Y316923D01*
X315861Y316873D01*
X315777Y316819D01*
X315696Y316762D01*
X315616Y316702D01*
X315540Y316639D01*
X315465Y316573D01*
X315394Y316504D01*
X315325Y316433D01*
X315259Y316358D01*
X315196Y316281D01*
X315136Y316202D01*
X315079Y316120D01*
X315026Y316037D01*
X314975Y315951D01*
X314929Y315863D01*
X314885Y315774D01*
X314846Y315683D01*
X314810Y315590D01*
X314777Y315496D01*
X318495Y313747D02*
X318559Y313811D01*
X318620Y313877D01*
X318678Y313946D01*
X318733Y314017D01*
X318786Y314090D01*
X318835Y314166D01*
X318880Y314243D01*
X318923Y314323D01*
X318962Y314404D01*
X318997Y314487D01*
X319029Y314571D01*
X319058Y314657D01*
X319082Y314743D01*
X319103Y314831D01*
X319120Y314919D01*
X319134Y315008D01*
X319143Y315098D01*
X319149Y315188D01*
X319151Y315278D01*
X318495Y313746D02*
X314777Y309372D01*
X319151Y309372D01*
X322778Y311122D02*
X324527Y317246D01*
X322778Y311122D02*
X327152Y311122D01*
X325840Y312872D02*
X325840Y309372D01*
D10*
X258826Y312420D02*
X258826Y294640D01*
X258826Y312420D02*
X291846Y312420D01*
X291846Y294640D01*
X258826Y294640D01*
D11*
X284558Y283718D02*
X286307Y283718D01*
X284558Y283718D02*
X284477Y283720D01*
X284397Y283725D01*
X284316Y283735D01*
X284236Y283748D01*
X284157Y283764D01*
X284079Y283785D01*
X284002Y283809D01*
X283926Y283836D01*
X283851Y283867D01*
X283778Y283901D01*
X283706Y283939D01*
X283637Y283980D01*
X283569Y284024D01*
X283503Y284071D01*
X283440Y284122D01*
X283379Y284175D01*
X283321Y284231D01*
X283265Y284289D01*
X283212Y284350D01*
X283161Y284413D01*
X283114Y284479D01*
X283070Y284547D01*
X283029Y284616D01*
X282991Y284688D01*
X282957Y284761D01*
X282926Y284836D01*
X282899Y284912D01*
X282875Y284989D01*
X282854Y285067D01*
X282838Y285146D01*
X282825Y285226D01*
X282815Y285307D01*
X282810Y285387D01*
X282808Y285468D01*
X282808Y289842D01*
X282810Y289925D01*
X282816Y290008D01*
X282826Y290091D01*
X282840Y290173D01*
X282857Y290255D01*
X282879Y290335D01*
X282904Y290414D01*
X282933Y290492D01*
X282966Y290569D01*
X283003Y290644D01*
X283042Y290717D01*
X283086Y290788D01*
X283132Y290857D01*
X283182Y290924D01*
X283235Y290988D01*
X283291Y291050D01*
X283350Y291109D01*
X283412Y291165D01*
X283476Y291218D01*
X283543Y291267D01*
X283612Y291314D01*
X283683Y291358D01*
X283756Y291397D01*
X283831Y291434D01*
X283908Y291467D01*
X283986Y291496D01*
X284065Y291521D01*
X284145Y291543D01*
X284227Y291560D01*
X284309Y291574D01*
X284392Y291584D01*
X284475Y291590D01*
X284558Y291592D01*
X286307Y291592D01*
X289504Y291592D02*
X289504Y290717D01*
X289504Y291592D02*
X293878Y291592D01*
X291691Y283718D01*
D10*
X289052Y277622D02*
X261112Y277622D01*
X261112Y290322D01*
X289052Y290322D01*
X289052Y277622D01*
D11*
X271702Y266700D02*
X269953Y266700D01*
X269872Y266702D01*
X269792Y266707D01*
X269711Y266717D01*
X269631Y266730D01*
X269552Y266746D01*
X269474Y266767D01*
X269397Y266791D01*
X269321Y266818D01*
X269246Y266849D01*
X269173Y266883D01*
X269101Y266921D01*
X269032Y266962D01*
X268964Y267006D01*
X268898Y267053D01*
X268835Y267104D01*
X268774Y267157D01*
X268716Y267213D01*
X268660Y267271D01*
X268607Y267332D01*
X268556Y267395D01*
X268509Y267461D01*
X268465Y267529D01*
X268424Y267598D01*
X268386Y267670D01*
X268352Y267743D01*
X268321Y267818D01*
X268294Y267894D01*
X268270Y267971D01*
X268249Y268049D01*
X268233Y268128D01*
X268220Y268208D01*
X268210Y268289D01*
X268205Y268369D01*
X268203Y268450D01*
X268203Y272824D01*
X268205Y272907D01*
X268211Y272990D01*
X268221Y273073D01*
X268235Y273155D01*
X268252Y273237D01*
X268274Y273317D01*
X268299Y273396D01*
X268328Y273474D01*
X268361Y273551D01*
X268398Y273626D01*
X268437Y273699D01*
X268481Y273770D01*
X268527Y273839D01*
X268577Y273906D01*
X268630Y273970D01*
X268686Y274032D01*
X268745Y274091D01*
X268807Y274147D01*
X268871Y274200D01*
X268938Y274249D01*
X269007Y274296D01*
X269078Y274340D01*
X269151Y274379D01*
X269226Y274416D01*
X269303Y274449D01*
X269381Y274478D01*
X269460Y274503D01*
X269540Y274525D01*
X269622Y274542D01*
X269704Y274556D01*
X269787Y274566D01*
X269870Y274572D01*
X269953Y274574D01*
X271702Y274574D01*
X274899Y272824D02*
X277086Y274574D01*
X277086Y266700D01*
X274899Y266700D02*
X279273Y266700D01*
X282900Y266700D02*
X285524Y266700D01*
X285605Y266702D01*
X285685Y266707D01*
X285766Y266717D01*
X285846Y266730D01*
X285925Y266746D01*
X286003Y266767D01*
X286080Y266791D01*
X286156Y266818D01*
X286231Y266849D01*
X286304Y266883D01*
X286376Y266921D01*
X286445Y266962D01*
X286513Y267006D01*
X286579Y267053D01*
X286642Y267104D01*
X286703Y267157D01*
X286761Y267213D01*
X286817Y267271D01*
X286870Y267332D01*
X286921Y267395D01*
X286968Y267461D01*
X287012Y267529D01*
X287053Y267598D01*
X287091Y267670D01*
X287125Y267743D01*
X287156Y267818D01*
X287183Y267894D01*
X287207Y267971D01*
X287228Y268049D01*
X287244Y268128D01*
X287257Y268208D01*
X287267Y268289D01*
X287272Y268369D01*
X287274Y268450D01*
X287274Y269325D01*
X287272Y269406D01*
X287267Y269486D01*
X287257Y269567D01*
X287244Y269647D01*
X287228Y269726D01*
X287207Y269804D01*
X287183Y269881D01*
X287156Y269957D01*
X287125Y270032D01*
X287091Y270105D01*
X287053Y270177D01*
X287012Y270246D01*
X286968Y270314D01*
X286921Y270380D01*
X286870Y270443D01*
X286817Y270504D01*
X286761Y270562D01*
X286703Y270618D01*
X286642Y270671D01*
X286579Y270722D01*
X286513Y270769D01*
X286445Y270813D01*
X286376Y270854D01*
X286304Y270892D01*
X286231Y270926D01*
X286156Y270957D01*
X286080Y270984D01*
X286003Y271008D01*
X285925Y271029D01*
X285846Y271045D01*
X285766Y271058D01*
X285685Y271068D01*
X285605Y271073D01*
X285524Y271075D01*
X285524Y271074D02*
X282900Y271074D01*
X282900Y274574D01*
X287274Y274574D01*
D10*
X298958Y64516D02*
X298958Y36576D01*
X286258Y36576D01*
X286258Y64516D01*
X298958Y64516D01*
D11*
X296926Y20066D02*
X289052Y20066D01*
X289052Y22253D01*
X289054Y22346D01*
X289060Y22438D01*
X289070Y22531D01*
X289083Y22623D01*
X289101Y22714D01*
X289123Y22804D01*
X289148Y22893D01*
X289177Y22982D01*
X289210Y23068D01*
X289246Y23154D01*
X289286Y23238D01*
X289330Y23320D01*
X289377Y23400D01*
X289427Y23478D01*
X289481Y23553D01*
X289537Y23627D01*
X289597Y23698D01*
X289660Y23766D01*
X289726Y23832D01*
X289794Y23895D01*
X289865Y23955D01*
X289939Y24011D01*
X290014Y24065D01*
X290092Y24115D01*
X290172Y24162D01*
X290254Y24206D01*
X290338Y24246D01*
X290424Y24282D01*
X290510Y24315D01*
X290599Y24344D01*
X290688Y24369D01*
X290778Y24391D01*
X290869Y24409D01*
X290961Y24422D01*
X291054Y24432D01*
X291146Y24438D01*
X291239Y24440D01*
X291332Y24438D01*
X291424Y24432D01*
X291517Y24422D01*
X291609Y24409D01*
X291700Y24391D01*
X291790Y24369D01*
X291879Y24344D01*
X291968Y24315D01*
X292054Y24282D01*
X292140Y24246D01*
X292224Y24206D01*
X292306Y24162D01*
X292386Y24115D01*
X292464Y24065D01*
X292539Y24011D01*
X292613Y23955D01*
X292684Y23895D01*
X292752Y23832D01*
X292818Y23766D01*
X292881Y23698D01*
X292941Y23627D01*
X292997Y23553D01*
X293051Y23478D01*
X293101Y23400D01*
X293148Y23320D01*
X293192Y23238D01*
X293232Y23154D01*
X293268Y23068D01*
X293301Y22982D01*
X293330Y22893D01*
X293355Y22804D01*
X293377Y22714D01*
X293395Y22623D01*
X293408Y22531D01*
X293418Y22438D01*
X293424Y22346D01*
X293426Y22253D01*
X293426Y20066D01*
X293426Y22691D02*
X296926Y24440D01*
X289927Y28004D02*
X289052Y28004D01*
X289052Y32379D01*
X296926Y30192D01*
D10*
X275082Y36576D02*
X275082Y64516D01*
X275082Y36576D02*
X262382Y36576D01*
X262382Y64516D01*
X275082Y64516D01*
D11*
X272288Y20320D02*
X264414Y20320D01*
X264414Y22507D01*
X264416Y22600D01*
X264422Y22692D01*
X264432Y22785D01*
X264445Y22877D01*
X264463Y22968D01*
X264485Y23058D01*
X264510Y23147D01*
X264539Y23236D01*
X264572Y23322D01*
X264608Y23408D01*
X264648Y23492D01*
X264692Y23574D01*
X264739Y23654D01*
X264789Y23732D01*
X264843Y23807D01*
X264899Y23881D01*
X264959Y23952D01*
X265022Y24020D01*
X265088Y24086D01*
X265156Y24149D01*
X265227Y24209D01*
X265301Y24265D01*
X265376Y24319D01*
X265454Y24369D01*
X265534Y24416D01*
X265616Y24460D01*
X265700Y24500D01*
X265786Y24536D01*
X265872Y24569D01*
X265961Y24598D01*
X266050Y24623D01*
X266140Y24645D01*
X266231Y24663D01*
X266323Y24676D01*
X266416Y24686D01*
X266508Y24692D01*
X266601Y24694D01*
X266694Y24692D01*
X266786Y24686D01*
X266879Y24676D01*
X266971Y24663D01*
X267062Y24645D01*
X267152Y24623D01*
X267241Y24598D01*
X267330Y24569D01*
X267416Y24536D01*
X267502Y24500D01*
X267586Y24460D01*
X267668Y24416D01*
X267748Y24369D01*
X267826Y24319D01*
X267901Y24265D01*
X267975Y24209D01*
X268046Y24149D01*
X268114Y24086D01*
X268180Y24020D01*
X268243Y23952D01*
X268303Y23881D01*
X268359Y23807D01*
X268413Y23732D01*
X268463Y23654D01*
X268510Y23574D01*
X268554Y23492D01*
X268594Y23408D01*
X268630Y23322D01*
X268663Y23236D01*
X268692Y23147D01*
X268717Y23058D01*
X268739Y22968D01*
X268757Y22877D01*
X268770Y22785D01*
X268780Y22692D01*
X268786Y22600D01*
X268788Y22507D01*
X268788Y20320D01*
X268788Y22945D02*
X272288Y24694D01*
X270101Y28259D02*
X270008Y28261D01*
X269916Y28267D01*
X269823Y28277D01*
X269731Y28290D01*
X269640Y28308D01*
X269550Y28330D01*
X269461Y28355D01*
X269372Y28384D01*
X269286Y28417D01*
X269200Y28453D01*
X269116Y28493D01*
X269034Y28537D01*
X268954Y28584D01*
X268876Y28634D01*
X268801Y28688D01*
X268727Y28744D01*
X268656Y28804D01*
X268588Y28867D01*
X268522Y28933D01*
X268459Y29001D01*
X268399Y29072D01*
X268343Y29146D01*
X268289Y29221D01*
X268239Y29299D01*
X268192Y29379D01*
X268148Y29461D01*
X268108Y29545D01*
X268072Y29631D01*
X268039Y29717D01*
X268010Y29806D01*
X267985Y29895D01*
X267963Y29985D01*
X267945Y30076D01*
X267932Y30168D01*
X267922Y30261D01*
X267916Y30353D01*
X267914Y30446D01*
X267916Y30539D01*
X267922Y30631D01*
X267932Y30724D01*
X267945Y30816D01*
X267963Y30907D01*
X267985Y30997D01*
X268010Y31086D01*
X268039Y31175D01*
X268072Y31261D01*
X268108Y31347D01*
X268148Y31431D01*
X268192Y31513D01*
X268239Y31593D01*
X268289Y31671D01*
X268343Y31746D01*
X268399Y31820D01*
X268459Y31891D01*
X268522Y31959D01*
X268588Y32025D01*
X268656Y32088D01*
X268727Y32148D01*
X268801Y32204D01*
X268876Y32258D01*
X268954Y32308D01*
X269034Y32355D01*
X269116Y32399D01*
X269200Y32439D01*
X269286Y32475D01*
X269372Y32508D01*
X269461Y32537D01*
X269550Y32562D01*
X269640Y32584D01*
X269731Y32602D01*
X269823Y32615D01*
X269916Y32625D01*
X270008Y32631D01*
X270101Y32633D01*
X270194Y32631D01*
X270286Y32625D01*
X270379Y32615D01*
X270471Y32602D01*
X270562Y32584D01*
X270652Y32562D01*
X270741Y32537D01*
X270830Y32508D01*
X270916Y32475D01*
X271002Y32439D01*
X271086Y32399D01*
X271168Y32355D01*
X271248Y32308D01*
X271326Y32258D01*
X271401Y32204D01*
X271475Y32148D01*
X271546Y32088D01*
X271614Y32025D01*
X271680Y31959D01*
X271743Y31891D01*
X271803Y31820D01*
X271859Y31746D01*
X271913Y31671D01*
X271963Y31593D01*
X272010Y31513D01*
X272054Y31431D01*
X272094Y31347D01*
X272130Y31261D01*
X272163Y31175D01*
X272192Y31086D01*
X272217Y30997D01*
X272239Y30907D01*
X272257Y30816D01*
X272270Y30724D01*
X272280Y30631D01*
X272286Y30539D01*
X272288Y30446D01*
X272286Y30353D01*
X272280Y30261D01*
X272270Y30168D01*
X272257Y30076D01*
X272239Y29985D01*
X272217Y29895D01*
X272192Y29806D01*
X272163Y29717D01*
X272130Y29631D01*
X272094Y29545D01*
X272054Y29461D01*
X272010Y29379D01*
X271963Y29299D01*
X271913Y29221D01*
X271859Y29146D01*
X271803Y29072D01*
X271743Y29001D01*
X271680Y28933D01*
X271614Y28867D01*
X271546Y28804D01*
X271475Y28744D01*
X271401Y28688D01*
X271326Y28634D01*
X271248Y28584D01*
X271168Y28537D01*
X271086Y28493D01*
X271002Y28453D01*
X270916Y28417D01*
X270830Y28384D01*
X270741Y28355D01*
X270652Y28330D01*
X270562Y28308D01*
X270471Y28290D01*
X270379Y28277D01*
X270286Y28267D01*
X270194Y28261D01*
X270101Y28259D01*
X266164Y28696D02*
X266082Y28698D01*
X266000Y28704D01*
X265919Y28713D01*
X265838Y28727D01*
X265757Y28744D01*
X265678Y28765D01*
X265600Y28789D01*
X265523Y28818D01*
X265447Y28850D01*
X265373Y28885D01*
X265301Y28924D01*
X265230Y28966D01*
X265162Y29011D01*
X265096Y29060D01*
X265032Y29111D01*
X264971Y29166D01*
X264912Y29223D01*
X264856Y29283D01*
X264803Y29346D01*
X264753Y29411D01*
X264706Y29478D01*
X264662Y29547D01*
X264622Y29619D01*
X264585Y29692D01*
X264551Y29767D01*
X264521Y29843D01*
X264495Y29921D01*
X264472Y30000D01*
X264453Y30079D01*
X264438Y30160D01*
X264426Y30241D01*
X264418Y30323D01*
X264414Y30405D01*
X264414Y30487D01*
X264418Y30569D01*
X264426Y30651D01*
X264438Y30732D01*
X264453Y30813D01*
X264472Y30892D01*
X264495Y30971D01*
X264521Y31049D01*
X264551Y31125D01*
X264585Y31200D01*
X264622Y31273D01*
X264662Y31345D01*
X264706Y31414D01*
X264753Y31481D01*
X264803Y31546D01*
X264856Y31609D01*
X264912Y31669D01*
X264971Y31726D01*
X265032Y31781D01*
X265096Y31832D01*
X265162Y31881D01*
X265230Y31926D01*
X265301Y31968D01*
X265373Y32007D01*
X265447Y32042D01*
X265523Y32074D01*
X265600Y32103D01*
X265678Y32127D01*
X265757Y32148D01*
X265838Y32165D01*
X265919Y32179D01*
X266000Y32188D01*
X266082Y32194D01*
X266164Y32196D01*
X266246Y32194D01*
X266328Y32188D01*
X266409Y32179D01*
X266490Y32165D01*
X266571Y32148D01*
X266650Y32127D01*
X266728Y32103D01*
X266805Y32074D01*
X266881Y32042D01*
X266955Y32007D01*
X267027Y31968D01*
X267098Y31926D01*
X267166Y31881D01*
X267232Y31832D01*
X267296Y31781D01*
X267357Y31726D01*
X267416Y31669D01*
X267472Y31609D01*
X267525Y31546D01*
X267575Y31481D01*
X267622Y31414D01*
X267666Y31345D01*
X267706Y31273D01*
X267743Y31200D01*
X267777Y31125D01*
X267807Y31049D01*
X267833Y30971D01*
X267856Y30892D01*
X267875Y30813D01*
X267890Y30732D01*
X267902Y30651D01*
X267910Y30569D01*
X267914Y30487D01*
X267914Y30405D01*
X267910Y30323D01*
X267902Y30241D01*
X267890Y30160D01*
X267875Y30079D01*
X267856Y30000D01*
X267833Y29921D01*
X267807Y29843D01*
X267777Y29767D01*
X267743Y29692D01*
X267706Y29619D01*
X267666Y29547D01*
X267622Y29478D01*
X267575Y29411D01*
X267525Y29346D01*
X267472Y29283D01*
X267416Y29223D01*
X267357Y29166D01*
X267296Y29111D01*
X267232Y29060D01*
X267166Y29011D01*
X267098Y28966D01*
X267027Y28924D01*
X266955Y28885D01*
X266881Y28850D01*
X266805Y28818D01*
X266728Y28789D01*
X266650Y28765D01*
X266571Y28744D01*
X266490Y28727D01*
X266409Y28713D01*
X266328Y28704D01*
X266246Y28698D01*
X266164Y28696D01*
M02*
