G04 EAGLE Gerber RS-274X export*
G75*
%MOMM*%
%FSLAX34Y34*%
%LPD*%
%INSilkscreen Bottom*%
%IPPOS*%
%AMOC8*
5,1,8,0,0,1.08239X$1,22.5*%
G01*
%ADD10C,0.076200*%
%ADD11C,0.127000*%
%ADD12C,0.101600*%


D10*
X330581Y401207D02*
X337947Y401207D01*
X337947Y399161D02*
X337947Y403253D01*
X337947Y406350D02*
X330581Y406350D01*
X337947Y406350D02*
X337947Y408396D01*
X337945Y408485D01*
X337939Y408574D01*
X337929Y408663D01*
X337916Y408751D01*
X337899Y408839D01*
X337877Y408926D01*
X337852Y409011D01*
X337824Y409096D01*
X337791Y409179D01*
X337755Y409261D01*
X337716Y409341D01*
X337673Y409419D01*
X337627Y409495D01*
X337577Y409570D01*
X337524Y409642D01*
X337468Y409711D01*
X337409Y409778D01*
X337348Y409843D01*
X337283Y409904D01*
X337216Y409963D01*
X337147Y410019D01*
X337075Y410072D01*
X337000Y410122D01*
X336924Y410168D01*
X336846Y410211D01*
X336766Y410250D01*
X336684Y410286D01*
X336601Y410319D01*
X336516Y410347D01*
X336431Y410372D01*
X336344Y410394D01*
X336256Y410411D01*
X336168Y410424D01*
X336079Y410434D01*
X335990Y410440D01*
X335901Y410442D01*
X335812Y410440D01*
X335723Y410434D01*
X335634Y410424D01*
X335546Y410411D01*
X335458Y410394D01*
X335371Y410372D01*
X335286Y410347D01*
X335201Y410319D01*
X335118Y410286D01*
X335036Y410250D01*
X334956Y410211D01*
X334878Y410168D01*
X334802Y410122D01*
X334727Y410072D01*
X334655Y410019D01*
X334586Y409963D01*
X334519Y409904D01*
X334454Y409843D01*
X334393Y409778D01*
X334334Y409711D01*
X334278Y409642D01*
X334225Y409570D01*
X334175Y409495D01*
X334129Y409419D01*
X334086Y409341D01*
X334047Y409261D01*
X334011Y409179D01*
X333978Y409096D01*
X333950Y409011D01*
X333925Y408926D01*
X333903Y408839D01*
X333886Y408751D01*
X333873Y408663D01*
X333863Y408574D01*
X333857Y408485D01*
X333855Y408396D01*
X333855Y406350D01*
X330581Y413304D02*
X330581Y415350D01*
X330583Y415439D01*
X330589Y415528D01*
X330599Y415617D01*
X330612Y415705D01*
X330629Y415793D01*
X330651Y415880D01*
X330676Y415965D01*
X330704Y416050D01*
X330737Y416133D01*
X330773Y416215D01*
X330812Y416295D01*
X330855Y416373D01*
X330901Y416449D01*
X330951Y416524D01*
X331004Y416596D01*
X331060Y416665D01*
X331119Y416732D01*
X331180Y416797D01*
X331245Y416858D01*
X331312Y416917D01*
X331381Y416973D01*
X331453Y417026D01*
X331528Y417076D01*
X331604Y417122D01*
X331682Y417165D01*
X331762Y417204D01*
X331844Y417240D01*
X331927Y417273D01*
X332012Y417301D01*
X332097Y417326D01*
X332184Y417348D01*
X332272Y417365D01*
X332360Y417378D01*
X332449Y417388D01*
X332538Y417394D01*
X332627Y417396D01*
X332716Y417394D01*
X332805Y417388D01*
X332894Y417378D01*
X332982Y417365D01*
X333070Y417348D01*
X333157Y417326D01*
X333242Y417301D01*
X333327Y417273D01*
X333410Y417240D01*
X333492Y417204D01*
X333572Y417165D01*
X333650Y417122D01*
X333726Y417076D01*
X333801Y417026D01*
X333873Y416973D01*
X333942Y416917D01*
X334009Y416858D01*
X334074Y416797D01*
X334135Y416732D01*
X334194Y416665D01*
X334250Y416596D01*
X334303Y416524D01*
X334353Y416449D01*
X334399Y416373D01*
X334442Y416295D01*
X334481Y416215D01*
X334517Y416133D01*
X334550Y416050D01*
X334578Y415965D01*
X334603Y415880D01*
X334625Y415793D01*
X334642Y415705D01*
X334655Y415617D01*
X334665Y415528D01*
X334671Y415439D01*
X334673Y415350D01*
X337947Y415759D02*
X337947Y413304D01*
X337947Y415759D02*
X337945Y415838D01*
X337939Y415917D01*
X337930Y415996D01*
X337917Y416074D01*
X337899Y416151D01*
X337879Y416227D01*
X337854Y416302D01*
X337826Y416376D01*
X337795Y416449D01*
X337759Y416520D01*
X337721Y416589D01*
X337679Y416656D01*
X337634Y416721D01*
X337586Y416784D01*
X337535Y416845D01*
X337481Y416902D01*
X337425Y416958D01*
X337366Y417010D01*
X337304Y417060D01*
X337240Y417106D01*
X337174Y417150D01*
X337106Y417190D01*
X337036Y417226D01*
X336964Y417260D01*
X336890Y417290D01*
X336816Y417316D01*
X336740Y417339D01*
X336663Y417357D01*
X336586Y417373D01*
X336507Y417384D01*
X336429Y417392D01*
X336350Y417396D01*
X336270Y417396D01*
X336191Y417392D01*
X336113Y417384D01*
X336034Y417373D01*
X335957Y417357D01*
X335880Y417339D01*
X335804Y417316D01*
X335730Y417290D01*
X335656Y417260D01*
X335584Y417226D01*
X335514Y417190D01*
X335446Y417150D01*
X335380Y417106D01*
X335316Y417060D01*
X335254Y417010D01*
X335195Y416958D01*
X335139Y416902D01*
X335085Y416845D01*
X335034Y416784D01*
X334986Y416721D01*
X334941Y416656D01*
X334899Y416589D01*
X334861Y416520D01*
X334825Y416449D01*
X334794Y416376D01*
X334766Y416302D01*
X334741Y416227D01*
X334721Y416151D01*
X334703Y416074D01*
X334690Y415996D01*
X334681Y415917D01*
X334675Y415838D01*
X334673Y415759D01*
X334673Y414122D01*
X140843Y427877D02*
X133477Y427877D01*
X140843Y425831D02*
X140843Y429923D01*
X140843Y433020D02*
X133477Y433020D01*
X140843Y433020D02*
X140843Y435066D01*
X140841Y435155D01*
X140835Y435244D01*
X140825Y435333D01*
X140812Y435421D01*
X140795Y435509D01*
X140773Y435596D01*
X140748Y435681D01*
X140720Y435766D01*
X140687Y435849D01*
X140651Y435931D01*
X140612Y436011D01*
X140569Y436089D01*
X140523Y436165D01*
X140473Y436240D01*
X140420Y436312D01*
X140364Y436381D01*
X140305Y436448D01*
X140244Y436513D01*
X140179Y436574D01*
X140112Y436633D01*
X140043Y436689D01*
X139971Y436742D01*
X139896Y436792D01*
X139820Y436838D01*
X139742Y436881D01*
X139662Y436920D01*
X139580Y436956D01*
X139497Y436989D01*
X139412Y437017D01*
X139327Y437042D01*
X139240Y437064D01*
X139152Y437081D01*
X139064Y437094D01*
X138975Y437104D01*
X138886Y437110D01*
X138797Y437112D01*
X138708Y437110D01*
X138619Y437104D01*
X138530Y437094D01*
X138442Y437081D01*
X138354Y437064D01*
X138267Y437042D01*
X138182Y437017D01*
X138097Y436989D01*
X138014Y436956D01*
X137932Y436920D01*
X137852Y436881D01*
X137774Y436838D01*
X137698Y436792D01*
X137623Y436742D01*
X137551Y436689D01*
X137482Y436633D01*
X137415Y436574D01*
X137350Y436513D01*
X137289Y436448D01*
X137230Y436381D01*
X137174Y436312D01*
X137121Y436240D01*
X137071Y436165D01*
X137025Y436089D01*
X136982Y436011D01*
X136943Y435931D01*
X136907Y435849D01*
X136874Y435766D01*
X136846Y435681D01*
X136821Y435596D01*
X136799Y435509D01*
X136782Y435421D01*
X136769Y435333D01*
X136759Y435244D01*
X136753Y435155D01*
X136751Y435066D01*
X136751Y433020D01*
X135114Y439974D02*
X140843Y441611D01*
X135114Y439974D02*
X135114Y444066D01*
X136751Y442838D02*
X133477Y442838D01*
X125857Y379109D02*
X118491Y379109D01*
X125857Y377063D02*
X125857Y381155D01*
X125857Y384252D02*
X118491Y384252D01*
X125857Y384252D02*
X125857Y386298D01*
X125855Y386387D01*
X125849Y386476D01*
X125839Y386565D01*
X125826Y386653D01*
X125809Y386741D01*
X125787Y386828D01*
X125762Y386913D01*
X125734Y386998D01*
X125701Y387081D01*
X125665Y387163D01*
X125626Y387243D01*
X125583Y387321D01*
X125537Y387397D01*
X125487Y387472D01*
X125434Y387544D01*
X125378Y387613D01*
X125319Y387680D01*
X125258Y387745D01*
X125193Y387806D01*
X125126Y387865D01*
X125057Y387921D01*
X124985Y387974D01*
X124910Y388024D01*
X124834Y388070D01*
X124756Y388113D01*
X124676Y388152D01*
X124594Y388188D01*
X124511Y388221D01*
X124426Y388249D01*
X124341Y388274D01*
X124254Y388296D01*
X124166Y388313D01*
X124078Y388326D01*
X123989Y388336D01*
X123900Y388342D01*
X123811Y388344D01*
X123722Y388342D01*
X123633Y388336D01*
X123544Y388326D01*
X123456Y388313D01*
X123368Y388296D01*
X123281Y388274D01*
X123196Y388249D01*
X123111Y388221D01*
X123028Y388188D01*
X122946Y388152D01*
X122866Y388113D01*
X122788Y388070D01*
X122712Y388024D01*
X122637Y387974D01*
X122565Y387921D01*
X122496Y387865D01*
X122429Y387806D01*
X122364Y387745D01*
X122303Y387680D01*
X122244Y387613D01*
X122188Y387544D01*
X122135Y387472D01*
X122085Y387397D01*
X122039Y387321D01*
X121996Y387243D01*
X121957Y387163D01*
X121921Y387081D01*
X121888Y386998D01*
X121860Y386913D01*
X121835Y386828D01*
X121813Y386741D01*
X121796Y386653D01*
X121783Y386565D01*
X121773Y386476D01*
X121767Y386387D01*
X121765Y386298D01*
X121765Y384252D01*
X118491Y391206D02*
X118491Y393661D01*
X118493Y393741D01*
X118499Y393821D01*
X118509Y393901D01*
X118522Y393980D01*
X118540Y394059D01*
X118561Y394136D01*
X118587Y394212D01*
X118616Y394287D01*
X118648Y394361D01*
X118684Y394433D01*
X118724Y394503D01*
X118767Y394570D01*
X118813Y394636D01*
X118863Y394699D01*
X118915Y394760D01*
X118970Y394819D01*
X119029Y394874D01*
X119089Y394926D01*
X119153Y394976D01*
X119219Y395022D01*
X119286Y395065D01*
X119356Y395105D01*
X119428Y395141D01*
X119502Y395173D01*
X119576Y395202D01*
X119653Y395228D01*
X119730Y395249D01*
X119809Y395267D01*
X119888Y395280D01*
X119968Y395290D01*
X120048Y395296D01*
X120128Y395298D01*
X120946Y395298D01*
X121024Y395296D01*
X121102Y395291D01*
X121179Y395281D01*
X121256Y395268D01*
X121332Y395252D01*
X121407Y395232D01*
X121481Y395208D01*
X121554Y395181D01*
X121626Y395150D01*
X121696Y395116D01*
X121765Y395079D01*
X121831Y395038D01*
X121896Y394994D01*
X121958Y394948D01*
X122018Y394898D01*
X122076Y394846D01*
X122131Y394791D01*
X122183Y394733D01*
X122233Y394673D01*
X122279Y394611D01*
X122323Y394546D01*
X122364Y394480D01*
X122401Y394411D01*
X122435Y394341D01*
X122466Y394269D01*
X122493Y394196D01*
X122517Y394122D01*
X122537Y394047D01*
X122553Y393971D01*
X122566Y393894D01*
X122576Y393817D01*
X122581Y393739D01*
X122583Y393661D01*
X122583Y391206D01*
X125857Y391206D01*
X125857Y395298D01*
X87249Y421019D02*
X79883Y421019D01*
X87249Y418973D02*
X87249Y423065D01*
X87249Y426162D02*
X79883Y426162D01*
X87249Y426162D02*
X87249Y428208D01*
X87247Y428297D01*
X87241Y428386D01*
X87231Y428475D01*
X87218Y428563D01*
X87201Y428651D01*
X87179Y428738D01*
X87154Y428823D01*
X87126Y428908D01*
X87093Y428991D01*
X87057Y429073D01*
X87018Y429153D01*
X86975Y429231D01*
X86929Y429307D01*
X86879Y429382D01*
X86826Y429454D01*
X86770Y429523D01*
X86711Y429590D01*
X86650Y429655D01*
X86585Y429716D01*
X86518Y429775D01*
X86449Y429831D01*
X86377Y429884D01*
X86302Y429934D01*
X86226Y429980D01*
X86148Y430023D01*
X86068Y430062D01*
X85986Y430098D01*
X85903Y430131D01*
X85818Y430159D01*
X85733Y430184D01*
X85646Y430206D01*
X85558Y430223D01*
X85470Y430236D01*
X85381Y430246D01*
X85292Y430252D01*
X85203Y430254D01*
X85114Y430252D01*
X85025Y430246D01*
X84936Y430236D01*
X84848Y430223D01*
X84760Y430206D01*
X84673Y430184D01*
X84588Y430159D01*
X84503Y430131D01*
X84420Y430098D01*
X84338Y430062D01*
X84258Y430023D01*
X84180Y429980D01*
X84104Y429934D01*
X84029Y429884D01*
X83957Y429831D01*
X83888Y429775D01*
X83821Y429716D01*
X83756Y429655D01*
X83695Y429590D01*
X83636Y429523D01*
X83580Y429454D01*
X83527Y429382D01*
X83477Y429307D01*
X83431Y429231D01*
X83388Y429153D01*
X83349Y429073D01*
X83313Y428991D01*
X83280Y428908D01*
X83252Y428823D01*
X83227Y428738D01*
X83205Y428651D01*
X83188Y428563D01*
X83175Y428475D01*
X83165Y428386D01*
X83159Y428297D01*
X83157Y428208D01*
X83157Y426162D01*
X83975Y433116D02*
X83975Y435571D01*
X83973Y435649D01*
X83968Y435727D01*
X83958Y435804D01*
X83945Y435881D01*
X83929Y435957D01*
X83909Y436032D01*
X83885Y436106D01*
X83858Y436179D01*
X83827Y436251D01*
X83793Y436321D01*
X83756Y436390D01*
X83715Y436456D01*
X83671Y436521D01*
X83625Y436583D01*
X83575Y436643D01*
X83523Y436701D01*
X83468Y436756D01*
X83410Y436808D01*
X83350Y436858D01*
X83288Y436904D01*
X83223Y436948D01*
X83157Y436989D01*
X83088Y437026D01*
X83018Y437060D01*
X82946Y437091D01*
X82873Y437118D01*
X82799Y437142D01*
X82724Y437162D01*
X82648Y437178D01*
X82571Y437191D01*
X82494Y437201D01*
X82416Y437206D01*
X82338Y437208D01*
X81929Y437208D01*
X81840Y437206D01*
X81751Y437200D01*
X81662Y437190D01*
X81574Y437177D01*
X81486Y437160D01*
X81399Y437138D01*
X81314Y437113D01*
X81229Y437085D01*
X81146Y437052D01*
X81064Y437016D01*
X80984Y436977D01*
X80906Y436934D01*
X80830Y436888D01*
X80755Y436838D01*
X80683Y436785D01*
X80614Y436729D01*
X80547Y436670D01*
X80482Y436609D01*
X80421Y436544D01*
X80362Y436477D01*
X80306Y436408D01*
X80253Y436336D01*
X80203Y436261D01*
X80157Y436185D01*
X80114Y436107D01*
X80075Y436027D01*
X80039Y435945D01*
X80006Y435862D01*
X79978Y435777D01*
X79953Y435692D01*
X79931Y435605D01*
X79914Y435517D01*
X79901Y435429D01*
X79891Y435340D01*
X79885Y435251D01*
X79883Y435162D01*
X79885Y435073D01*
X79891Y434984D01*
X79901Y434895D01*
X79914Y434807D01*
X79931Y434719D01*
X79953Y434632D01*
X79978Y434547D01*
X80006Y434462D01*
X80039Y434379D01*
X80075Y434297D01*
X80114Y434217D01*
X80157Y434139D01*
X80203Y434063D01*
X80253Y433988D01*
X80306Y433916D01*
X80362Y433847D01*
X80421Y433780D01*
X80482Y433715D01*
X80547Y433654D01*
X80614Y433595D01*
X80683Y433539D01*
X80755Y433486D01*
X80830Y433436D01*
X80906Y433390D01*
X80984Y433347D01*
X81064Y433308D01*
X81146Y433272D01*
X81229Y433239D01*
X81314Y433211D01*
X81399Y433186D01*
X81486Y433164D01*
X81574Y433147D01*
X81662Y433134D01*
X81751Y433124D01*
X81840Y433118D01*
X81929Y433116D01*
X83975Y433116D01*
X84089Y433118D01*
X84203Y433124D01*
X84317Y433134D01*
X84431Y433148D01*
X84544Y433166D01*
X84656Y433188D01*
X84767Y433213D01*
X84877Y433243D01*
X84987Y433276D01*
X85095Y433313D01*
X85201Y433354D01*
X85307Y433399D01*
X85410Y433447D01*
X85512Y433499D01*
X85612Y433555D01*
X85710Y433613D01*
X85806Y433676D01*
X85899Y433741D01*
X85991Y433810D01*
X86079Y433882D01*
X86166Y433957D01*
X86249Y434035D01*
X86330Y434116D01*
X86408Y434199D01*
X86483Y434286D01*
X86555Y434374D01*
X86624Y434466D01*
X86689Y434559D01*
X86751Y434655D01*
X86810Y434753D01*
X86866Y434853D01*
X86918Y434955D01*
X86966Y435058D01*
X87011Y435164D01*
X87052Y435270D01*
X87089Y435378D01*
X87122Y435488D01*
X87152Y435598D01*
X87177Y435709D01*
X87199Y435821D01*
X87217Y435934D01*
X87231Y436048D01*
X87241Y436162D01*
X87247Y436276D01*
X87249Y436390D01*
X72517Y396127D02*
X65151Y396127D01*
X72517Y394081D02*
X72517Y398173D01*
X72517Y401270D02*
X65151Y401270D01*
X72517Y401270D02*
X72517Y403316D01*
X72515Y403405D01*
X72509Y403494D01*
X72499Y403583D01*
X72486Y403671D01*
X72469Y403759D01*
X72447Y403846D01*
X72422Y403931D01*
X72394Y404016D01*
X72361Y404099D01*
X72325Y404181D01*
X72286Y404261D01*
X72243Y404339D01*
X72197Y404415D01*
X72147Y404490D01*
X72094Y404562D01*
X72038Y404631D01*
X71979Y404698D01*
X71918Y404763D01*
X71853Y404824D01*
X71786Y404883D01*
X71717Y404939D01*
X71645Y404992D01*
X71570Y405042D01*
X71494Y405088D01*
X71416Y405131D01*
X71336Y405170D01*
X71254Y405206D01*
X71171Y405239D01*
X71086Y405267D01*
X71001Y405292D01*
X70914Y405314D01*
X70826Y405331D01*
X70738Y405344D01*
X70649Y405354D01*
X70560Y405360D01*
X70471Y405362D01*
X70382Y405360D01*
X70293Y405354D01*
X70204Y405344D01*
X70116Y405331D01*
X70028Y405314D01*
X69941Y405292D01*
X69856Y405267D01*
X69771Y405239D01*
X69688Y405206D01*
X69606Y405170D01*
X69526Y405131D01*
X69448Y405088D01*
X69372Y405042D01*
X69297Y404992D01*
X69225Y404939D01*
X69156Y404883D01*
X69089Y404824D01*
X69024Y404763D01*
X68963Y404698D01*
X68904Y404631D01*
X68848Y404562D01*
X68795Y404490D01*
X68745Y404415D01*
X68699Y404339D01*
X68656Y404261D01*
X68617Y404181D01*
X68581Y404099D01*
X68548Y404016D01*
X68520Y403931D01*
X68495Y403846D01*
X68473Y403759D01*
X68456Y403671D01*
X68443Y403583D01*
X68433Y403494D01*
X68427Y403405D01*
X68425Y403316D01*
X68425Y401270D01*
X71699Y408224D02*
X72517Y408224D01*
X72517Y412316D01*
X65151Y410270D01*
X315595Y108853D02*
X322961Y108853D01*
X322961Y106807D02*
X322961Y110899D01*
X322961Y113996D02*
X315595Y113996D01*
X322961Y113996D02*
X322961Y116042D01*
X322959Y116131D01*
X322953Y116220D01*
X322943Y116309D01*
X322930Y116397D01*
X322913Y116485D01*
X322891Y116572D01*
X322866Y116657D01*
X322838Y116742D01*
X322805Y116825D01*
X322769Y116907D01*
X322730Y116987D01*
X322687Y117065D01*
X322641Y117141D01*
X322591Y117216D01*
X322538Y117288D01*
X322482Y117357D01*
X322423Y117424D01*
X322362Y117489D01*
X322297Y117550D01*
X322230Y117609D01*
X322161Y117665D01*
X322089Y117718D01*
X322014Y117768D01*
X321938Y117814D01*
X321860Y117857D01*
X321780Y117896D01*
X321698Y117932D01*
X321615Y117965D01*
X321530Y117993D01*
X321445Y118018D01*
X321358Y118040D01*
X321270Y118057D01*
X321182Y118070D01*
X321093Y118080D01*
X321004Y118086D01*
X320915Y118088D01*
X320826Y118086D01*
X320737Y118080D01*
X320648Y118070D01*
X320560Y118057D01*
X320472Y118040D01*
X320385Y118018D01*
X320300Y117993D01*
X320215Y117965D01*
X320132Y117932D01*
X320050Y117896D01*
X319970Y117857D01*
X319892Y117814D01*
X319816Y117768D01*
X319741Y117718D01*
X319669Y117665D01*
X319600Y117609D01*
X319533Y117550D01*
X319468Y117489D01*
X319407Y117424D01*
X319348Y117357D01*
X319292Y117288D01*
X319239Y117216D01*
X319189Y117141D01*
X319143Y117065D01*
X319100Y116987D01*
X319061Y116907D01*
X319025Y116825D01*
X318992Y116742D01*
X318964Y116657D01*
X318939Y116572D01*
X318917Y116485D01*
X318900Y116397D01*
X318887Y116309D01*
X318877Y116220D01*
X318871Y116131D01*
X318869Y116042D01*
X318869Y113996D01*
X317641Y120950D02*
X317730Y120952D01*
X317819Y120958D01*
X317908Y120968D01*
X317996Y120981D01*
X318084Y120998D01*
X318171Y121020D01*
X318256Y121045D01*
X318341Y121073D01*
X318424Y121106D01*
X318506Y121142D01*
X318586Y121181D01*
X318664Y121224D01*
X318740Y121270D01*
X318815Y121320D01*
X318887Y121373D01*
X318956Y121429D01*
X319023Y121488D01*
X319088Y121549D01*
X319149Y121614D01*
X319208Y121681D01*
X319264Y121750D01*
X319317Y121822D01*
X319367Y121897D01*
X319413Y121973D01*
X319456Y122051D01*
X319495Y122131D01*
X319531Y122213D01*
X319564Y122296D01*
X319592Y122381D01*
X319617Y122466D01*
X319639Y122553D01*
X319656Y122641D01*
X319669Y122729D01*
X319679Y122818D01*
X319685Y122907D01*
X319687Y122996D01*
X319685Y123085D01*
X319679Y123174D01*
X319669Y123263D01*
X319656Y123351D01*
X319639Y123439D01*
X319617Y123526D01*
X319592Y123611D01*
X319564Y123696D01*
X319531Y123779D01*
X319495Y123861D01*
X319456Y123941D01*
X319413Y124019D01*
X319367Y124095D01*
X319317Y124170D01*
X319264Y124242D01*
X319208Y124311D01*
X319149Y124378D01*
X319088Y124443D01*
X319023Y124504D01*
X318956Y124563D01*
X318887Y124619D01*
X318815Y124672D01*
X318740Y124722D01*
X318664Y124768D01*
X318586Y124811D01*
X318506Y124850D01*
X318424Y124886D01*
X318341Y124919D01*
X318256Y124947D01*
X318171Y124972D01*
X318084Y124994D01*
X317996Y125011D01*
X317908Y125024D01*
X317819Y125034D01*
X317730Y125040D01*
X317641Y125042D01*
X317552Y125040D01*
X317463Y125034D01*
X317374Y125024D01*
X317286Y125011D01*
X317198Y124994D01*
X317111Y124972D01*
X317026Y124947D01*
X316941Y124919D01*
X316858Y124886D01*
X316776Y124850D01*
X316696Y124811D01*
X316618Y124768D01*
X316542Y124722D01*
X316467Y124672D01*
X316395Y124619D01*
X316326Y124563D01*
X316259Y124504D01*
X316194Y124443D01*
X316133Y124378D01*
X316074Y124311D01*
X316018Y124242D01*
X315965Y124170D01*
X315915Y124095D01*
X315869Y124019D01*
X315826Y123941D01*
X315787Y123861D01*
X315751Y123779D01*
X315718Y123696D01*
X315690Y123611D01*
X315665Y123526D01*
X315643Y123439D01*
X315626Y123351D01*
X315613Y123263D01*
X315603Y123174D01*
X315597Y123085D01*
X315595Y122996D01*
X315597Y122907D01*
X315603Y122818D01*
X315613Y122729D01*
X315626Y122641D01*
X315643Y122553D01*
X315665Y122466D01*
X315690Y122381D01*
X315718Y122296D01*
X315751Y122213D01*
X315787Y122131D01*
X315826Y122051D01*
X315869Y121973D01*
X315915Y121897D01*
X315965Y121822D01*
X316018Y121750D01*
X316074Y121681D01*
X316133Y121614D01*
X316194Y121549D01*
X316259Y121488D01*
X316326Y121429D01*
X316395Y121373D01*
X316467Y121320D01*
X316542Y121270D01*
X316618Y121224D01*
X316696Y121181D01*
X316776Y121142D01*
X316858Y121106D01*
X316941Y121073D01*
X317026Y121045D01*
X317111Y121020D01*
X317198Y120998D01*
X317286Y120981D01*
X317374Y120968D01*
X317463Y120958D01*
X317552Y120952D01*
X317641Y120950D01*
X321324Y121359D02*
X321403Y121361D01*
X321482Y121367D01*
X321561Y121376D01*
X321639Y121389D01*
X321716Y121407D01*
X321792Y121427D01*
X321867Y121452D01*
X321941Y121480D01*
X322014Y121511D01*
X322085Y121547D01*
X322154Y121585D01*
X322221Y121627D01*
X322286Y121672D01*
X322349Y121720D01*
X322410Y121771D01*
X322467Y121825D01*
X322523Y121881D01*
X322575Y121940D01*
X322625Y122002D01*
X322671Y122066D01*
X322715Y122132D01*
X322755Y122200D01*
X322791Y122270D01*
X322825Y122342D01*
X322855Y122416D01*
X322881Y122490D01*
X322904Y122566D01*
X322922Y122643D01*
X322938Y122720D01*
X322949Y122799D01*
X322957Y122877D01*
X322961Y122956D01*
X322961Y123036D01*
X322957Y123115D01*
X322949Y123193D01*
X322938Y123272D01*
X322922Y123349D01*
X322904Y123426D01*
X322881Y123502D01*
X322855Y123576D01*
X322825Y123650D01*
X322791Y123722D01*
X322755Y123792D01*
X322715Y123860D01*
X322671Y123926D01*
X322625Y123990D01*
X322575Y124052D01*
X322523Y124111D01*
X322467Y124167D01*
X322410Y124221D01*
X322349Y124272D01*
X322286Y124320D01*
X322221Y124365D01*
X322154Y124407D01*
X322085Y124445D01*
X322014Y124481D01*
X321941Y124512D01*
X321867Y124540D01*
X321792Y124565D01*
X321716Y124585D01*
X321639Y124603D01*
X321561Y124616D01*
X321482Y124625D01*
X321403Y124631D01*
X321324Y124633D01*
X321245Y124631D01*
X321166Y124625D01*
X321087Y124616D01*
X321009Y124603D01*
X320932Y124585D01*
X320856Y124565D01*
X320781Y124540D01*
X320707Y124512D01*
X320634Y124481D01*
X320563Y124445D01*
X320494Y124407D01*
X320427Y124365D01*
X320362Y124320D01*
X320299Y124272D01*
X320238Y124221D01*
X320181Y124167D01*
X320125Y124111D01*
X320073Y124052D01*
X320023Y123990D01*
X319977Y123926D01*
X319933Y123860D01*
X319893Y123792D01*
X319857Y123722D01*
X319823Y123650D01*
X319793Y123576D01*
X319767Y123502D01*
X319744Y123426D01*
X319726Y123349D01*
X319710Y123272D01*
X319699Y123193D01*
X319691Y123115D01*
X319687Y123036D01*
X319687Y122956D01*
X319691Y122877D01*
X319699Y122799D01*
X319710Y122720D01*
X319726Y122643D01*
X319744Y122566D01*
X319767Y122490D01*
X319793Y122416D01*
X319823Y122342D01*
X319857Y122270D01*
X319893Y122200D01*
X319933Y122132D01*
X319977Y122066D01*
X320023Y122002D01*
X320073Y121940D01*
X320125Y121881D01*
X320181Y121825D01*
X320238Y121771D01*
X320299Y121720D01*
X320362Y121672D01*
X320427Y121627D01*
X320494Y121585D01*
X320563Y121547D01*
X320634Y121511D01*
X320707Y121480D01*
X320781Y121452D01*
X320856Y121427D01*
X320932Y121407D01*
X321009Y121389D01*
X321087Y121376D01*
X321166Y121367D01*
X321245Y121361D01*
X321324Y121359D01*
D11*
X383760Y255140D02*
X383760Y266140D01*
X345210Y266140D01*
X344569Y267951D01*
X343339Y271384D01*
X342261Y274005D01*
X341184Y276521D01*
X339343Y280511D01*
X337558Y283958D01*
X335765Y287078D01*
X333999Y290057D01*
X330444Y295502D01*
X327731Y299229D01*
X323918Y303914D01*
X318982Y309344D01*
X316504Y311748D01*
X314263Y313875D01*
X312302Y315614D01*
X310692Y316998D01*
X308763Y318601D01*
X306555Y320331D01*
X305037Y321443D01*
X302506Y323249D01*
X299249Y325469D01*
X296168Y327326D01*
X293729Y328718D01*
X290418Y330535D01*
X288885Y331140D01*
X383760Y207140D02*
X383760Y196140D01*
X345210Y196140D01*
X93760Y196140D02*
X93760Y207140D01*
X93760Y196140D02*
X132310Y196140D01*
X93760Y255140D02*
X93760Y266140D01*
X132310Y266140D01*
X132310Y196140D02*
X132951Y194329D01*
X134181Y190897D01*
X135259Y188275D01*
X136336Y185759D01*
X138177Y181769D01*
X139962Y178322D01*
X141755Y175202D01*
X143521Y172223D01*
X147077Y166778D01*
X149789Y163051D01*
X153602Y158366D01*
X158538Y152936D01*
X161016Y150533D01*
X163258Y148405D01*
X165218Y146666D01*
X166828Y145282D01*
X168757Y143679D01*
X170965Y141950D01*
X172483Y140837D01*
X175014Y139031D01*
X178271Y136812D01*
X181352Y134954D01*
X183791Y133562D01*
X187102Y131745D01*
X188635Y131140D01*
X132310Y266140D02*
X132951Y267951D01*
X134181Y271384D01*
X135259Y274005D01*
X136336Y276521D01*
X138177Y280511D01*
X139962Y283958D01*
X141755Y287078D01*
X143521Y290057D01*
X147077Y295502D01*
X149789Y299229D01*
X153602Y303914D01*
X158538Y309344D01*
X161016Y311748D01*
X163258Y313875D01*
X165218Y315614D01*
X166828Y316998D01*
X168757Y318601D01*
X170965Y320331D01*
X172483Y321443D01*
X175014Y323249D01*
X178271Y325469D01*
X181352Y327326D01*
X183791Y328718D01*
X187102Y330535D01*
X188635Y331140D01*
X345210Y196140D02*
X344569Y194329D01*
X343339Y190897D01*
X342261Y188275D01*
X341184Y185759D01*
X339343Y181769D01*
X337558Y178322D01*
X335765Y175202D01*
X333999Y172223D01*
X330444Y166778D01*
X327731Y163051D01*
X323918Y158366D01*
X318982Y152936D01*
X316504Y150533D01*
X314263Y148405D01*
X312302Y146666D01*
X310692Y145282D01*
X308763Y143679D01*
X306555Y141950D01*
X305037Y140837D01*
X302506Y139031D01*
X299249Y136812D01*
X296168Y134954D01*
X293729Y133562D01*
X290418Y131745D01*
X288885Y131140D01*
X288760Y331140D02*
X188760Y331140D01*
X188760Y131140D02*
X288760Y131140D01*
X378760Y276140D02*
X378760Y296140D01*
X388760Y286140D02*
X368760Y286140D01*
X108760Y286140D02*
X93760Y286140D01*
D12*
X395000Y346835D02*
X398252Y346835D01*
X395000Y346835D02*
X394888Y346833D01*
X394776Y346827D01*
X394664Y346818D01*
X394552Y346804D01*
X394441Y346787D01*
X394331Y346765D01*
X394222Y346741D01*
X394113Y346712D01*
X394006Y346679D01*
X393899Y346643D01*
X393795Y346603D01*
X393691Y346560D01*
X393589Y346513D01*
X393489Y346463D01*
X393390Y346409D01*
X393294Y346351D01*
X393199Y346291D01*
X393107Y346227D01*
X393017Y346160D01*
X392929Y346090D01*
X392844Y346017D01*
X392761Y345941D01*
X392681Y345863D01*
X392603Y345781D01*
X392529Y345697D01*
X392457Y345611D01*
X392389Y345522D01*
X392324Y345430D01*
X392261Y345337D01*
X392203Y345241D01*
X392147Y345144D01*
X392095Y345044D01*
X392046Y344943D01*
X392001Y344840D01*
X391959Y344736D01*
X391921Y344631D01*
X391887Y344524D01*
X391856Y344416D01*
X391830Y344307D01*
X391806Y344197D01*
X391787Y344086D01*
X391772Y343975D01*
X391760Y343863D01*
X391752Y343751D01*
X391748Y343639D01*
X391748Y343527D01*
X391752Y343415D01*
X391760Y343303D01*
X391772Y343191D01*
X391787Y343080D01*
X391806Y342969D01*
X391830Y342859D01*
X391856Y342750D01*
X391887Y342642D01*
X391921Y342535D01*
X391959Y342430D01*
X392001Y342326D01*
X392046Y342223D01*
X392095Y342122D01*
X392147Y342022D01*
X392203Y341925D01*
X392261Y341829D01*
X392324Y341736D01*
X392389Y341644D01*
X392457Y341555D01*
X392529Y341469D01*
X392603Y341385D01*
X392681Y341303D01*
X392761Y341225D01*
X392844Y341149D01*
X392929Y341076D01*
X393017Y341006D01*
X393107Y340939D01*
X393199Y340875D01*
X393294Y340815D01*
X393390Y340757D01*
X393489Y340703D01*
X393589Y340653D01*
X393691Y340606D01*
X393795Y340563D01*
X393899Y340523D01*
X394006Y340487D01*
X394113Y340454D01*
X394222Y340425D01*
X394331Y340401D01*
X394441Y340379D01*
X394552Y340362D01*
X394664Y340348D01*
X394776Y340339D01*
X394888Y340333D01*
X395000Y340331D01*
X398252Y340331D01*
X398252Y352038D01*
X395000Y352038D01*
X395000Y352037D02*
X394899Y352035D01*
X394798Y352029D01*
X394698Y352019D01*
X394598Y352006D01*
X394499Y351988D01*
X394400Y351967D01*
X394302Y351942D01*
X394206Y351913D01*
X394110Y351880D01*
X394016Y351844D01*
X393924Y351804D01*
X393833Y351760D01*
X393743Y351713D01*
X393656Y351663D01*
X393571Y351609D01*
X393488Y351552D01*
X393407Y351492D01*
X393328Y351428D01*
X393252Y351362D01*
X393179Y351293D01*
X393108Y351221D01*
X393040Y351146D01*
X392975Y351069D01*
X392914Y350989D01*
X392855Y350907D01*
X392800Y350823D01*
X392747Y350737D01*
X392699Y350648D01*
X392653Y350558D01*
X392612Y350466D01*
X392574Y350373D01*
X392539Y350278D01*
X392508Y350182D01*
X392481Y350085D01*
X392458Y349987D01*
X392439Y349888D01*
X392423Y349788D01*
X392411Y349688D01*
X392403Y349587D01*
X392399Y349486D01*
X392399Y349386D01*
X392403Y349285D01*
X392411Y349184D01*
X392423Y349084D01*
X392439Y348984D01*
X392458Y348885D01*
X392481Y348787D01*
X392508Y348690D01*
X392539Y348594D01*
X392574Y348499D01*
X392612Y348406D01*
X392653Y348314D01*
X392699Y348224D01*
X392747Y348136D01*
X392800Y348049D01*
X392855Y347965D01*
X392914Y347883D01*
X392975Y347803D01*
X393040Y347726D01*
X393108Y347651D01*
X393179Y347579D01*
X393252Y347510D01*
X393328Y347444D01*
X393407Y347380D01*
X393488Y347320D01*
X393571Y347263D01*
X393656Y347209D01*
X393743Y347159D01*
X393833Y347112D01*
X393924Y347068D01*
X394016Y347028D01*
X394110Y346992D01*
X394206Y346959D01*
X394302Y346930D01*
X394400Y346905D01*
X394499Y346884D01*
X394598Y346866D01*
X394698Y346853D01*
X394798Y346843D01*
X394899Y346837D01*
X395000Y346835D01*
X384864Y352038D02*
X384864Y340331D01*
X388116Y352038D02*
X381613Y352038D01*
X373852Y352038D02*
X373745Y352036D01*
X373638Y352030D01*
X373532Y352020D01*
X373426Y352007D01*
X373320Y351989D01*
X373216Y351968D01*
X373112Y351943D01*
X373009Y351914D01*
X372907Y351881D01*
X372806Y351845D01*
X372707Y351805D01*
X372610Y351761D01*
X372514Y351714D01*
X372419Y351663D01*
X372327Y351609D01*
X372237Y351552D01*
X372149Y351492D01*
X372063Y351428D01*
X371980Y351361D01*
X371899Y351291D01*
X371820Y351218D01*
X371745Y351143D01*
X371672Y351064D01*
X371602Y350983D01*
X371535Y350900D01*
X371472Y350814D01*
X371411Y350726D01*
X371354Y350636D01*
X371300Y350544D01*
X371249Y350449D01*
X371202Y350353D01*
X371158Y350256D01*
X371118Y350157D01*
X371082Y350056D01*
X371049Y349954D01*
X371020Y349851D01*
X370995Y349747D01*
X370974Y349643D01*
X370956Y349537D01*
X370943Y349431D01*
X370933Y349325D01*
X370927Y349218D01*
X370925Y349111D01*
X373852Y352038D02*
X373973Y352036D01*
X374094Y352030D01*
X374215Y352020D01*
X374336Y352007D01*
X374456Y351989D01*
X374575Y351968D01*
X374694Y351943D01*
X374811Y351914D01*
X374928Y351881D01*
X375044Y351844D01*
X375158Y351804D01*
X375271Y351760D01*
X375382Y351712D01*
X375492Y351661D01*
X375601Y351607D01*
X375707Y351549D01*
X375811Y351487D01*
X375914Y351422D01*
X376014Y351354D01*
X376112Y351283D01*
X376208Y351208D01*
X376301Y351131D01*
X376392Y351050D01*
X376480Y350967D01*
X376565Y350881D01*
X376648Y350792D01*
X376727Y350701D01*
X376804Y350607D01*
X376878Y350510D01*
X376948Y350412D01*
X377015Y350311D01*
X377079Y350208D01*
X377140Y350103D01*
X377197Y349996D01*
X377250Y349887D01*
X377300Y349777D01*
X377347Y349665D01*
X377390Y349551D01*
X377429Y349437D01*
X371901Y346835D02*
X371823Y346913D01*
X371747Y346993D01*
X371674Y347076D01*
X371603Y347162D01*
X371536Y347250D01*
X371472Y347340D01*
X371412Y347433D01*
X371354Y347527D01*
X371300Y347624D01*
X371250Y347722D01*
X371202Y347822D01*
X371159Y347924D01*
X371119Y348027D01*
X371082Y348132D01*
X371050Y348237D01*
X371021Y348344D01*
X370996Y348452D01*
X370975Y348561D01*
X370957Y348670D01*
X370944Y348780D01*
X370934Y348890D01*
X370928Y349000D01*
X370926Y349111D01*
X371901Y346835D02*
X377429Y340331D01*
X370926Y340331D01*
M02*
