G04 EAGLE Gerber RS-274X export*
G75*
%MOMM*%
%FSLAX34Y34*%
%LPD*%
%INSolderpaste Top*%
%IPPOS*%
%AMOC8*
5,1,8,0,0,1.08239X$1,22.5*%
G01*
%ADD10C,0.254000*%
%ADD11C,0.222250*%
%ADD12C,0.190500*%
%ADD13R,1.521406X0.940869*%
%ADD14C,0.105000*%
%ADD15R,1.300000X1.150000*%
%ADD16R,1.650000X0.610000*%
%ADD17R,1.117600X0.508000*%
%ADD18R,0.508000X1.117600*%
%ADD19R,0.600000X0.350000*%
%ADD20R,0.350000X0.600000*%
%ADD21R,1.778000X2.032000*%
%ADD22R,0.200000X1.000000*%
%ADD23R,1.000000X0.200000*%
%ADD24R,1.000000X1.250000*%
%ADD25R,0.550000X0.600000*%
%ADD26R,0.250000X1.250000*%
%ADD27R,1.650000X2.050000*%
%ADD28R,1.000000X1.700000*%
%ADD29R,0.400000X0.700000*%
%ADD30C,0.317500*%
%ADD31R,2.500000X1.200000*%


D10*
X154305Y173990D02*
X154305Y166370D01*
X142875Y166370D01*
X142875Y173990D01*
X154305Y173990D01*
X154305Y168783D02*
X142875Y168783D01*
X142875Y171196D02*
X154305Y171196D01*
X154305Y173609D02*
X142875Y173609D01*
X154305Y184150D02*
X154305Y191770D01*
X154305Y184150D02*
X142875Y184150D01*
X142875Y191770D01*
X154305Y191770D01*
X154305Y186563D02*
X142875Y186563D01*
X142875Y188976D02*
X154305Y188976D01*
X154305Y191389D02*
X142875Y191389D01*
D11*
X210344Y90964D02*
X210344Y84296D01*
X203676Y84296D01*
X203676Y90964D01*
X210344Y90964D01*
X210344Y86408D02*
X203676Y86408D01*
X203676Y88520D02*
X210344Y88520D01*
X210344Y90632D02*
X203676Y90632D01*
X210344Y99536D02*
X210344Y106204D01*
X210344Y99536D02*
X203676Y99536D01*
X203676Y106204D01*
X210344Y106204D01*
X210344Y101648D02*
X203676Y101648D01*
X203676Y103760D02*
X210344Y103760D01*
X210344Y105872D02*
X203676Y105872D01*
X283686Y198596D02*
X283686Y205264D01*
X290354Y205264D01*
X290354Y198596D01*
X283686Y198596D01*
X283686Y200708D02*
X290354Y200708D01*
X290354Y202820D02*
X283686Y202820D01*
X283686Y204932D02*
X290354Y204932D01*
X283686Y190024D02*
X283686Y183356D01*
X283686Y190024D02*
X290354Y190024D01*
X290354Y183356D01*
X283686Y183356D01*
X283686Y185468D02*
X290354Y185468D01*
X290354Y187580D02*
X283686Y187580D01*
X283686Y189692D02*
X290354Y189692D01*
D10*
X300355Y198120D02*
X300355Y205740D01*
X311785Y205740D01*
X311785Y198120D01*
X300355Y198120D01*
X300355Y200533D02*
X311785Y200533D01*
X311785Y202946D02*
X300355Y202946D01*
X300355Y205359D02*
X311785Y205359D01*
X300355Y187960D02*
X300355Y180340D01*
X300355Y187960D02*
X311785Y187960D01*
X311785Y180340D01*
X300355Y180340D01*
X300355Y182753D02*
X311785Y182753D01*
X311785Y185166D02*
X300355Y185166D01*
X300355Y187579D02*
X311785Y187579D01*
D11*
X344646Y84614D02*
X351314Y84614D01*
X351314Y77946D01*
X344646Y77946D01*
X344646Y84614D01*
X344646Y80058D02*
X351314Y80058D01*
X351314Y82170D02*
X344646Y82170D01*
X344646Y84282D02*
X351314Y84282D01*
X336074Y84614D02*
X329406Y84614D01*
X336074Y84614D02*
X336074Y77946D01*
X329406Y77946D01*
X329406Y84614D01*
X329406Y80058D02*
X336074Y80058D01*
X336074Y82170D02*
X329406Y82170D01*
X329406Y84282D02*
X336074Y84282D01*
X401352Y248888D02*
X401352Y255556D01*
X401352Y248888D02*
X394684Y248888D01*
X394684Y255556D01*
X401352Y255556D01*
X401352Y251000D02*
X394684Y251000D01*
X394684Y253112D02*
X401352Y253112D01*
X401352Y255224D02*
X394684Y255224D01*
X401352Y264128D02*
X401352Y270796D01*
X401352Y264128D02*
X394684Y264128D01*
X394684Y270796D01*
X401352Y270796D01*
X401352Y266240D02*
X394684Y266240D01*
X394684Y268352D02*
X401352Y268352D01*
X401352Y270464D02*
X394684Y270464D01*
X34766Y154464D02*
X34766Y147796D01*
X34766Y154464D02*
X41434Y154464D01*
X41434Y147796D01*
X34766Y147796D01*
X34766Y149908D02*
X41434Y149908D01*
X41434Y152020D02*
X34766Y152020D01*
X34766Y154132D02*
X41434Y154132D01*
X34766Y139224D02*
X34766Y132556D01*
X34766Y139224D02*
X41434Y139224D01*
X41434Y132556D01*
X34766Y132556D01*
X34766Y134668D02*
X41434Y134668D01*
X41434Y136780D02*
X34766Y136780D01*
X34766Y138892D02*
X41434Y138892D01*
X89376Y380206D02*
X96044Y380206D01*
X89376Y380206D02*
X89376Y386874D01*
X96044Y386874D01*
X96044Y380206D01*
X96044Y382318D02*
X89376Y382318D01*
X89376Y384430D02*
X96044Y384430D01*
X96044Y386542D02*
X89376Y386542D01*
X104616Y380206D02*
X111284Y380206D01*
X104616Y380206D02*
X104616Y386874D01*
X111284Y386874D01*
X111284Y380206D01*
X111284Y382318D02*
X104616Y382318D01*
X104616Y384430D02*
X111284Y384430D01*
X111284Y386542D02*
X104616Y386542D01*
X172244Y176054D02*
X172244Y169386D01*
X165576Y169386D01*
X165576Y176054D01*
X172244Y176054D01*
X172244Y171498D02*
X165576Y171498D01*
X165576Y173610D02*
X172244Y173610D01*
X172244Y175722D02*
X165576Y175722D01*
X172244Y184626D02*
X172244Y191294D01*
X172244Y184626D02*
X165576Y184626D01*
X165576Y191294D01*
X172244Y191294D01*
X172244Y186738D02*
X165576Y186738D01*
X165576Y188850D02*
X172244Y188850D01*
X172244Y190962D02*
X165576Y190962D01*
D10*
X171450Y316865D02*
X179070Y316865D01*
X171450Y316865D02*
X171450Y328295D01*
X179070Y328295D01*
X179070Y316865D01*
X179070Y319278D02*
X171450Y319278D01*
X171450Y321691D02*
X179070Y321691D01*
X179070Y324104D02*
X171450Y324104D01*
X171450Y326517D02*
X179070Y326517D01*
X189230Y316865D02*
X196850Y316865D01*
X189230Y316865D02*
X189230Y328295D01*
X196850Y328295D01*
X196850Y316865D01*
X196850Y319278D02*
X189230Y319278D01*
X189230Y321691D02*
X196850Y321691D01*
X196850Y324104D02*
X189230Y324104D01*
X189230Y326517D02*
X196850Y326517D01*
D11*
X403384Y160814D02*
X403384Y154146D01*
X396716Y154146D01*
X396716Y160814D01*
X403384Y160814D01*
X403384Y156258D02*
X396716Y156258D01*
X396716Y158370D02*
X403384Y158370D01*
X403384Y160482D02*
X396716Y160482D01*
X403384Y169386D02*
X403384Y176054D01*
X403384Y169386D02*
X396716Y169386D01*
X396716Y176054D01*
X403384Y176054D01*
X403384Y171498D02*
X396716Y171498D01*
X396716Y173610D02*
X403384Y173610D01*
X403384Y175722D02*
X396716Y175722D01*
X396716Y136684D02*
X396716Y130016D01*
X396716Y136684D02*
X403384Y136684D01*
X403384Y130016D01*
X396716Y130016D01*
X396716Y132128D02*
X403384Y132128D01*
X403384Y134240D02*
X396716Y134240D01*
X396716Y136352D02*
X403384Y136352D01*
X396716Y121444D02*
X396716Y114776D01*
X396716Y121444D02*
X403384Y121444D01*
X403384Y114776D01*
X396716Y114776D01*
X396716Y116888D02*
X403384Y116888D01*
X403384Y119000D02*
X396716Y119000D01*
X396716Y121112D02*
X403384Y121112D01*
X350044Y280194D02*
X343376Y280194D01*
X350044Y280194D02*
X350044Y273526D01*
X343376Y273526D01*
X343376Y280194D01*
X343376Y275638D02*
X350044Y275638D01*
X350044Y277750D02*
X343376Y277750D01*
X343376Y279862D02*
X350044Y279862D01*
X334804Y280194D02*
X328136Y280194D01*
X334804Y280194D02*
X334804Y273526D01*
X328136Y273526D01*
X328136Y280194D01*
X328136Y275638D02*
X334804Y275638D01*
X334804Y277750D02*
X328136Y277750D01*
X328136Y279862D02*
X334804Y279862D01*
X174784Y300196D02*
X168116Y300196D01*
X168116Y306864D01*
X174784Y306864D01*
X174784Y300196D01*
X174784Y302308D02*
X168116Y302308D01*
X168116Y304420D02*
X174784Y304420D01*
X174784Y306532D02*
X168116Y306532D01*
X183356Y300196D02*
X190024Y300196D01*
X183356Y300196D02*
X183356Y306864D01*
X190024Y306864D01*
X190024Y300196D01*
X190024Y302308D02*
X183356Y302308D01*
X183356Y304420D02*
X190024Y304420D01*
X190024Y306532D02*
X183356Y306532D01*
X184944Y90964D02*
X184944Y84296D01*
X178276Y84296D01*
X178276Y90964D01*
X184944Y90964D01*
X184944Y86408D02*
X178276Y86408D01*
X178276Y88520D02*
X184944Y88520D01*
X184944Y90632D02*
X178276Y90632D01*
X184944Y99536D02*
X184944Y106204D01*
X184944Y99536D02*
X178276Y99536D01*
X178276Y106204D01*
X184944Y106204D01*
X184944Y101648D02*
X178276Y101648D01*
X178276Y103760D02*
X184944Y103760D01*
X184944Y105872D02*
X178276Y105872D01*
D12*
X54928Y65087D02*
X49212Y65087D01*
X49212Y72073D01*
X54928Y72073D01*
X54928Y65087D01*
X54928Y66897D02*
X49212Y66897D01*
X49212Y68707D02*
X54928Y68707D01*
X54928Y70517D02*
X49212Y70517D01*
X64452Y65087D02*
X70168Y65087D01*
X64452Y65087D02*
X64452Y72073D01*
X70168Y72073D01*
X70168Y65087D01*
X70168Y66897D02*
X64452Y66897D01*
X64452Y68707D02*
X70168Y68707D01*
X70168Y70517D02*
X64452Y70517D01*
D13*
X68273Y146774D03*
D14*
X76705Y157745D02*
X76705Y164795D01*
X79855Y164795D01*
X79855Y157745D01*
X76705Y157745D01*
X76705Y158742D02*
X79855Y158742D01*
X79855Y159739D02*
X76705Y159739D01*
X76705Y160736D02*
X79855Y160736D01*
X79855Y161733D02*
X76705Y161733D01*
X76705Y162730D02*
X79855Y162730D01*
X79855Y163727D02*
X76705Y163727D01*
X76705Y164724D02*
X79855Y164724D01*
X66705Y164795D02*
X66705Y157745D01*
X66705Y164795D02*
X69855Y164795D01*
X69855Y157745D01*
X66705Y157745D01*
X66705Y158742D02*
X69855Y158742D01*
X69855Y159739D02*
X66705Y159739D01*
X66705Y160736D02*
X69855Y160736D01*
X69855Y161733D02*
X66705Y161733D01*
X66705Y162730D02*
X69855Y162730D01*
X69855Y163727D02*
X66705Y163727D01*
X66705Y164724D02*
X69855Y164724D01*
X56705Y164795D02*
X56705Y157745D01*
X56705Y164795D02*
X59855Y164795D01*
X59855Y157745D01*
X56705Y157745D01*
X56705Y158742D02*
X59855Y158742D01*
X59855Y159739D02*
X56705Y159739D01*
X56705Y160736D02*
X59855Y160736D01*
X59855Y161733D02*
X56705Y161733D01*
X56705Y162730D02*
X59855Y162730D01*
X59855Y163727D02*
X56705Y163727D01*
X56705Y164724D02*
X59855Y164724D01*
X56705Y135795D02*
X56705Y128745D01*
X56705Y135795D02*
X59855Y135795D01*
X59855Y128745D01*
X56705Y128745D01*
X56705Y129742D02*
X59855Y129742D01*
X59855Y130739D02*
X56705Y130739D01*
X56705Y131736D02*
X59855Y131736D01*
X59855Y132733D02*
X56705Y132733D01*
X56705Y133730D02*
X59855Y133730D01*
X59855Y134727D02*
X56705Y134727D01*
X56705Y135724D02*
X59855Y135724D01*
X66705Y135795D02*
X66705Y128745D01*
X66705Y135795D02*
X69855Y135795D01*
X69855Y128745D01*
X66705Y128745D01*
X66705Y129742D02*
X69855Y129742D01*
X69855Y130739D02*
X66705Y130739D01*
X66705Y131736D02*
X69855Y131736D01*
X69855Y132733D02*
X66705Y132733D01*
X66705Y133730D02*
X69855Y133730D01*
X69855Y134727D02*
X66705Y134727D01*
X66705Y135724D02*
X69855Y135724D01*
X76705Y135795D02*
X76705Y128745D01*
X76705Y135795D02*
X79855Y135795D01*
X79855Y128745D01*
X76705Y128745D01*
X76705Y129742D02*
X79855Y129742D01*
X79855Y130739D02*
X76705Y130739D01*
X76705Y131736D02*
X79855Y131736D01*
X79855Y132733D02*
X76705Y132733D01*
X76705Y133730D02*
X79855Y133730D01*
X79855Y134727D02*
X76705Y134727D01*
X76705Y135724D02*
X79855Y135724D01*
D11*
X56674Y84296D02*
X50006Y84296D01*
X50006Y90964D01*
X56674Y90964D01*
X56674Y84296D01*
X56674Y86408D02*
X50006Y86408D01*
X50006Y88520D02*
X56674Y88520D01*
X56674Y90632D02*
X50006Y90632D01*
X65246Y84296D02*
X71914Y84296D01*
X65246Y84296D02*
X65246Y90964D01*
X71914Y90964D01*
X71914Y84296D01*
X71914Y86408D02*
X65246Y86408D01*
X65246Y88520D02*
X71914Y88520D01*
X71914Y90632D02*
X65246Y90632D01*
X93186Y128746D02*
X99854Y128746D01*
X93186Y128746D02*
X93186Y135414D01*
X99854Y135414D01*
X99854Y128746D01*
X99854Y130858D02*
X93186Y130858D01*
X93186Y132970D02*
X99854Y132970D01*
X99854Y135082D02*
X93186Y135082D01*
X108426Y128746D02*
X115094Y128746D01*
X108426Y128746D02*
X108426Y135414D01*
X115094Y135414D01*
X115094Y128746D01*
X115094Y130858D02*
X108426Y130858D01*
X108426Y132970D02*
X115094Y132970D01*
X115094Y135082D02*
X108426Y135082D01*
X101124Y152876D02*
X94456Y152876D01*
X94456Y159544D01*
X101124Y159544D01*
X101124Y152876D01*
X101124Y154988D02*
X94456Y154988D01*
X94456Y157100D02*
X101124Y157100D01*
X101124Y159212D02*
X94456Y159212D01*
X109696Y152876D02*
X116364Y152876D01*
X109696Y152876D02*
X109696Y159544D01*
X116364Y159544D01*
X116364Y152876D01*
X116364Y154988D02*
X109696Y154988D01*
X109696Y157100D02*
X116364Y157100D01*
X116364Y159212D02*
X109696Y159212D01*
D15*
X342820Y53890D03*
X342820Y32390D03*
X381820Y32390D03*
X381820Y53890D03*
D16*
X75250Y364490D03*
X75250Y351790D03*
X75250Y339090D03*
X75250Y326390D03*
X127950Y326390D03*
X127950Y339090D03*
X127950Y351790D03*
X127950Y364490D03*
D17*
X376616Y124234D03*
X376616Y132362D03*
X376616Y140236D03*
X376616Y148364D03*
X376616Y156238D03*
X376616Y164366D03*
D18*
X362900Y163096D03*
D17*
X349184Y164366D03*
X349184Y156238D03*
X349184Y148364D03*
X349184Y140236D03*
X349184Y132362D03*
X349184Y124234D03*
D18*
X362900Y125504D03*
D19*
X348830Y257690D03*
X348830Y252690D03*
X348830Y247690D03*
X348830Y242690D03*
X348830Y237690D03*
D20*
X356680Y236040D03*
X361680Y236040D03*
X366680Y236040D03*
D19*
X374530Y237690D03*
X374530Y242690D03*
X374530Y247690D03*
X374530Y252690D03*
X374530Y257690D03*
D20*
X366680Y259340D03*
X361680Y259340D03*
X356680Y259340D03*
D21*
X215730Y131910D03*
X172550Y131910D03*
D22*
X196150Y196700D03*
X201150Y196700D03*
X206150Y196700D03*
X211150Y196700D03*
X216150Y196700D03*
X221150Y196700D03*
X226150Y196700D03*
X231150Y196700D03*
X236150Y196700D03*
X241150Y196700D03*
X246150Y196700D03*
X251150Y196700D03*
D23*
X266150Y211700D03*
X266150Y216700D03*
X266150Y221700D03*
X266150Y226700D03*
X266150Y231700D03*
X266150Y236700D03*
X266150Y241700D03*
X266150Y246700D03*
X266150Y251700D03*
X266150Y256700D03*
X266150Y261700D03*
X266150Y266700D03*
D22*
X251150Y281700D03*
X246150Y281700D03*
X241150Y281700D03*
X236150Y281700D03*
X231150Y281700D03*
X226150Y281700D03*
X221150Y281700D03*
X216150Y281700D03*
X211150Y281700D03*
X206150Y281700D03*
X201150Y281700D03*
X196150Y281700D03*
D23*
X181150Y266700D03*
X181150Y261700D03*
X181150Y256700D03*
X181150Y251700D03*
X181150Y246700D03*
X181150Y241700D03*
X181150Y236700D03*
X181150Y231700D03*
X181150Y226700D03*
X181150Y221700D03*
X181150Y216700D03*
X181150Y211700D03*
D11*
X149026Y224296D02*
X149026Y230964D01*
X155694Y230964D01*
X155694Y224296D01*
X149026Y224296D01*
X149026Y226408D02*
X155694Y226408D01*
X155694Y228520D02*
X149026Y228520D01*
X149026Y230632D02*
X155694Y230632D01*
X149026Y215724D02*
X149026Y209056D01*
X149026Y215724D02*
X155694Y215724D01*
X155694Y209056D01*
X149026Y209056D01*
X149026Y211168D02*
X155694Y211168D01*
X155694Y213280D02*
X149026Y213280D01*
X149026Y215392D02*
X155694Y215392D01*
D10*
X124895Y224940D02*
X124895Y232560D01*
X136325Y232560D01*
X136325Y224940D01*
X124895Y224940D01*
X124895Y227353D02*
X136325Y227353D01*
X136325Y229766D02*
X124895Y229766D01*
X124895Y232179D02*
X136325Y232179D01*
X124895Y214780D02*
X124895Y207160D01*
X124895Y214780D02*
X136325Y214780D01*
X136325Y207160D01*
X124895Y207160D01*
X124895Y209573D02*
X136325Y209573D01*
X136325Y211986D02*
X124895Y211986D01*
X124895Y214399D02*
X136325Y214399D01*
D24*
X266710Y138880D03*
X251710Y138880D03*
D11*
X246346Y123344D02*
X246346Y116676D01*
X246346Y123344D02*
X253014Y123344D01*
X253014Y116676D01*
X246346Y116676D01*
X246346Y118788D02*
X253014Y118788D01*
X253014Y120900D02*
X246346Y120900D01*
X246346Y123012D02*
X253014Y123012D01*
X246346Y108104D02*
X246346Y101436D01*
X246346Y108104D02*
X253014Y108104D01*
X253014Y101436D01*
X246346Y101436D01*
X246346Y103548D02*
X253014Y103548D01*
X253014Y105660D02*
X246346Y105660D01*
X246346Y107772D02*
X253014Y107772D01*
X268736Y116676D02*
X268736Y123344D01*
X275404Y123344D01*
X275404Y116676D01*
X268736Y116676D01*
X268736Y118788D02*
X275404Y118788D01*
X275404Y120900D02*
X268736Y120900D01*
X268736Y123012D02*
X275404Y123012D01*
X268736Y108104D02*
X268736Y101436D01*
X268736Y108104D02*
X275404Y108104D01*
X275404Y101436D01*
X268736Y101436D01*
X268736Y103548D02*
X275404Y103548D01*
X275404Y105660D02*
X268736Y105660D01*
X268736Y107772D02*
X275404Y107772D01*
X117316Y82074D02*
X117316Y75406D01*
X117316Y82074D02*
X123984Y82074D01*
X123984Y75406D01*
X117316Y75406D01*
X117316Y77518D02*
X123984Y77518D01*
X123984Y79630D02*
X117316Y79630D01*
X117316Y81742D02*
X123984Y81742D01*
X117316Y66834D02*
X117316Y60166D01*
X117316Y66834D02*
X123984Y66834D01*
X123984Y60166D01*
X117316Y60166D01*
X117316Y62278D02*
X123984Y62278D01*
X123984Y64390D02*
X117316Y64390D01*
X117316Y66502D02*
X123984Y66502D01*
X136366Y75406D02*
X136366Y82074D01*
X143034Y82074D01*
X143034Y75406D01*
X136366Y75406D01*
X136366Y77518D02*
X143034Y77518D01*
X143034Y79630D02*
X136366Y79630D01*
X136366Y81742D02*
X143034Y81742D01*
X136366Y66834D02*
X136366Y60166D01*
X136366Y66834D02*
X143034Y66834D01*
X143034Y60166D01*
X136366Y60166D01*
X136366Y62278D02*
X143034Y62278D01*
X143034Y64390D02*
X136366Y64390D01*
X136366Y66502D02*
X143034Y66502D01*
D25*
X104500Y62080D03*
X104500Y75080D03*
X86000Y68580D03*
D26*
X261060Y386600D03*
X251060Y386600D03*
X241060Y386600D03*
X231060Y386600D03*
X221060Y386600D03*
X211060Y386600D03*
X201060Y386600D03*
X191060Y386600D03*
D27*
X167060Y419100D03*
X285060Y419100D03*
D10*
X423799Y253746D02*
X423799Y246126D01*
X412369Y246126D01*
X412369Y253746D01*
X423799Y253746D01*
X423799Y248539D02*
X412369Y248539D01*
X412369Y250952D02*
X423799Y250952D01*
X423799Y253365D02*
X412369Y253365D01*
X423799Y263906D02*
X423799Y271526D01*
X423799Y263906D02*
X412369Y263906D01*
X412369Y271526D01*
X423799Y271526D01*
X423799Y266319D02*
X412369Y266319D01*
X412369Y268732D02*
X423799Y268732D01*
X423799Y271145D02*
X412369Y271145D01*
D28*
X97740Y210820D03*
X59740Y210820D03*
D11*
X67786Y244634D02*
X74454Y244634D01*
X74454Y237966D01*
X67786Y237966D01*
X67786Y244634D01*
X67786Y240078D02*
X74454Y240078D01*
X74454Y242190D02*
X67786Y242190D01*
X67786Y244302D02*
X74454Y244302D01*
X59214Y244634D02*
X52546Y244634D01*
X59214Y244634D02*
X59214Y237966D01*
X52546Y237966D01*
X52546Y244634D01*
X52546Y240078D02*
X59214Y240078D01*
X59214Y242190D02*
X52546Y242190D01*
X52546Y244302D02*
X59214Y244302D01*
D29*
X79860Y255660D03*
X86360Y255660D03*
X92860Y255660D03*
X92860Y272660D03*
X79860Y272660D03*
D11*
X66834Y262414D02*
X66834Y255746D01*
X60166Y255746D01*
X60166Y262414D01*
X66834Y262414D01*
X66834Y257858D02*
X60166Y257858D01*
X60166Y259970D02*
X66834Y259970D01*
X66834Y262082D02*
X60166Y262082D01*
X66834Y270986D02*
X66834Y277654D01*
X66834Y270986D02*
X60166Y270986D01*
X60166Y277654D01*
X66834Y277654D01*
X66834Y273098D02*
X60166Y273098D01*
X60166Y275210D02*
X66834Y275210D01*
X66834Y277322D02*
X60166Y277322D01*
D30*
X316397Y346418D02*
X325923Y346418D01*
X325923Y343242D01*
X316397Y343242D01*
X316397Y346418D01*
X316397Y346258D02*
X325923Y346258D01*
X325923Y355918D02*
X316397Y355918D01*
X325923Y355918D02*
X325923Y352742D01*
X316397Y352742D01*
X316397Y355918D01*
X316397Y355758D02*
X325923Y355758D01*
X325923Y365418D02*
X316397Y365418D01*
X325923Y365418D02*
X325923Y362242D01*
X316397Y362242D01*
X316397Y365418D01*
X316397Y365258D02*
X325923Y365258D01*
X300823Y362242D02*
X291297Y362242D01*
X291297Y365418D01*
X300823Y365418D01*
X300823Y362242D01*
X300823Y365258D02*
X291297Y365258D01*
X291297Y343242D02*
X300823Y343242D01*
X291297Y343242D02*
X291297Y346418D01*
X300823Y346418D01*
X300823Y343242D01*
X300823Y346258D02*
X291297Y346258D01*
D10*
X320040Y312039D02*
X327660Y312039D01*
X327660Y300609D01*
X320040Y300609D01*
X320040Y312039D01*
X320040Y303022D02*
X327660Y303022D01*
X327660Y305435D02*
X320040Y305435D01*
X320040Y307848D02*
X327660Y307848D01*
X327660Y310261D02*
X320040Y310261D01*
X309880Y312039D02*
X302260Y312039D01*
X309880Y312039D02*
X309880Y300609D01*
X302260Y300609D01*
X302260Y312039D01*
X302260Y303022D02*
X309880Y303022D01*
X309880Y305435D02*
X302260Y305435D01*
X302260Y307848D02*
X309880Y307848D01*
X309880Y310261D02*
X302260Y310261D01*
D31*
X413580Y317900D03*
X413580Y342900D03*
X413580Y367900D03*
X358580Y317900D03*
X358580Y342900D03*
X358580Y367900D03*
D11*
X325914Y329978D02*
X319246Y329978D01*
X325914Y329978D02*
X325914Y323310D01*
X319246Y323310D01*
X319246Y329978D01*
X319246Y325422D02*
X325914Y325422D01*
X325914Y327534D02*
X319246Y327534D01*
X319246Y329646D02*
X325914Y329646D01*
X310674Y329978D02*
X304006Y329978D01*
X310674Y329978D02*
X310674Y323310D01*
X304006Y323310D01*
X304006Y329978D01*
X304006Y325422D02*
X310674Y325422D01*
X310674Y327534D02*
X304006Y327534D01*
X304006Y329646D02*
X310674Y329646D01*
D10*
X288036Y309245D02*
X280416Y309245D01*
X288036Y309245D02*
X288036Y297815D01*
X280416Y297815D01*
X280416Y309245D01*
X280416Y300228D02*
X288036Y300228D01*
X288036Y302641D02*
X280416Y302641D01*
X280416Y305054D02*
X288036Y305054D01*
X288036Y307467D02*
X280416Y307467D01*
X270256Y309245D02*
X262636Y309245D01*
X270256Y309245D02*
X270256Y297815D01*
X262636Y297815D01*
X262636Y309245D01*
X262636Y300228D02*
X270256Y300228D01*
X270256Y302641D02*
X262636Y302641D01*
X262636Y305054D02*
X270256Y305054D01*
X270256Y307467D02*
X262636Y307467D01*
D11*
X279368Y287306D02*
X286036Y287306D01*
X286036Y280638D01*
X279368Y280638D01*
X279368Y287306D01*
X279368Y282750D02*
X286036Y282750D01*
X286036Y284862D02*
X279368Y284862D01*
X279368Y286974D02*
X286036Y286974D01*
X270796Y287306D02*
X264128Y287306D01*
X270796Y287306D02*
X270796Y280638D01*
X264128Y280638D01*
X264128Y287306D01*
X264128Y282750D02*
X270796Y282750D01*
X270796Y284862D02*
X264128Y284862D01*
X264128Y286974D02*
X270796Y286974D01*
X289274Y61500D02*
X289274Y54832D01*
X289274Y61500D02*
X295942Y61500D01*
X295942Y54832D01*
X289274Y54832D01*
X289274Y56944D02*
X295942Y56944D01*
X295942Y59056D02*
X289274Y59056D01*
X289274Y61168D02*
X295942Y61168D01*
X289274Y46260D02*
X289274Y39592D01*
X289274Y46260D02*
X295942Y46260D01*
X295942Y39592D01*
X289274Y39592D01*
X289274Y41704D02*
X295942Y41704D01*
X295942Y43816D02*
X289274Y43816D01*
X289274Y45928D02*
X295942Y45928D01*
X265398Y54832D02*
X265398Y61500D01*
X272066Y61500D01*
X272066Y54832D01*
X265398Y54832D01*
X265398Y56944D02*
X272066Y56944D01*
X272066Y59056D02*
X265398Y59056D01*
X265398Y61168D02*
X272066Y61168D01*
X265398Y46260D02*
X265398Y39592D01*
X265398Y46260D02*
X272066Y46260D01*
X272066Y39592D01*
X265398Y39592D01*
X265398Y41704D02*
X272066Y41704D01*
X272066Y43816D02*
X265398Y43816D01*
X265398Y45928D02*
X272066Y45928D01*
M02*
