G04 EAGLE Gerber RS-274X export*
G75*
%MOMM*%
%FSLAX34Y34*%
%LPD*%
%INSoldermask Top*%
%IPPOS*%
%AMOC8*
5,1,8,0,0,1.08239X$1,22.5*%
G01*
%ADD10C,2.603200*%
%ADD11C,0.463294*%
%ADD12C,0.425956*%
%ADD13C,0.395731*%
%ADD14C,0.305366*%
%ADD15R,2.603200X1.703200*%
%ADD16R,1.503200X1.353200*%
%ADD17R,1.853200X0.813200*%
%ADD18R,1.320800X0.711200*%
%ADD19R,0.711200X1.320800*%
%ADD20R,0.803200X0.553200*%
%ADD21R,0.553200X0.803200*%
%ADD22R,1.981200X2.235200*%
%ADD23R,0.403200X1.203200*%
%ADD24R,1.203200X0.403200*%
%ADD25R,1.203200X1.453200*%
%ADD26R,0.753200X0.803200*%
%ADD27R,0.400000X1.400000*%
%ADD28R,1.900000X2.350000*%
%ADD29C,1.473200*%
%ADD30R,1.203200X1.903200*%
%ADD31R,0.603200X0.903200*%
%ADD32C,0.519681*%
%ADD33R,2.703200X1.403200*%
%ADD34C,0.959600*%
%ADD35C,0.859600*%


D10*
X30000Y30000D03*
X420000Y30000D03*
X30000Y420000D03*
X420000Y420000D03*
D11*
X154275Y173960D02*
X154275Y166400D01*
X142905Y166400D01*
X142905Y173960D01*
X154275Y173960D01*
X154275Y170801D02*
X142905Y170801D01*
X154275Y184180D02*
X154275Y191740D01*
X154275Y184180D02*
X142905Y184180D01*
X142905Y191740D01*
X154275Y191740D01*
X154275Y188581D02*
X142905Y188581D01*
D12*
X210341Y90961D02*
X210341Y84299D01*
X203679Y84299D01*
X203679Y90961D01*
X210341Y90961D01*
X210341Y88346D02*
X203679Y88346D01*
X210341Y99539D02*
X210341Y106201D01*
X210341Y99539D02*
X203679Y99539D01*
X203679Y106201D01*
X210341Y106201D01*
X210341Y103586D02*
X203679Y103586D01*
X283689Y198599D02*
X283689Y205261D01*
X290351Y205261D01*
X290351Y198599D01*
X283689Y198599D01*
X283689Y202646D02*
X290351Y202646D01*
X283689Y190021D02*
X283689Y183359D01*
X283689Y190021D02*
X290351Y190021D01*
X290351Y183359D01*
X283689Y183359D01*
X283689Y187406D02*
X290351Y187406D01*
D11*
X300385Y198150D02*
X300385Y205710D01*
X311755Y205710D01*
X311755Y198150D01*
X300385Y198150D01*
X300385Y202551D02*
X311755Y202551D01*
X300385Y187930D02*
X300385Y180370D01*
X300385Y187930D02*
X311755Y187930D01*
X311755Y180370D01*
X300385Y180370D01*
X300385Y184771D02*
X311755Y184771D01*
D12*
X344649Y84611D02*
X351311Y84611D01*
X351311Y77949D01*
X344649Y77949D01*
X344649Y84611D01*
X344649Y81996D02*
X351311Y81996D01*
X336071Y84611D02*
X329409Y84611D01*
X336071Y84611D02*
X336071Y77949D01*
X329409Y77949D01*
X329409Y84611D01*
X329409Y81996D02*
X336071Y81996D01*
X401349Y248891D02*
X401349Y255553D01*
X401349Y248891D02*
X394687Y248891D01*
X394687Y255553D01*
X401349Y255553D01*
X401349Y252938D02*
X394687Y252938D01*
X401349Y264131D02*
X401349Y270793D01*
X401349Y264131D02*
X394687Y264131D01*
X394687Y270793D01*
X401349Y270793D01*
X401349Y268178D02*
X394687Y268178D01*
X34769Y154461D02*
X34769Y147799D01*
X34769Y154461D02*
X41431Y154461D01*
X41431Y147799D01*
X34769Y147799D01*
X34769Y151846D02*
X41431Y151846D01*
X34769Y139221D02*
X34769Y132559D01*
X34769Y139221D02*
X41431Y139221D01*
X41431Y132559D01*
X34769Y132559D01*
X34769Y136606D02*
X41431Y136606D01*
X89379Y380209D02*
X96041Y380209D01*
X89379Y380209D02*
X89379Y386871D01*
X96041Y386871D01*
X96041Y380209D01*
X96041Y384256D02*
X89379Y384256D01*
X104619Y380209D02*
X111281Y380209D01*
X104619Y380209D02*
X104619Y386871D01*
X111281Y386871D01*
X111281Y380209D01*
X111281Y384256D02*
X104619Y384256D01*
X172241Y176051D02*
X172241Y169389D01*
X165579Y169389D01*
X165579Y176051D01*
X172241Y176051D01*
X172241Y173436D02*
X165579Y173436D01*
X172241Y184629D02*
X172241Y191291D01*
X172241Y184629D02*
X165579Y184629D01*
X165579Y191291D01*
X172241Y191291D01*
X172241Y188676D02*
X165579Y188676D01*
D11*
X171480Y316895D02*
X179040Y316895D01*
X171480Y316895D02*
X171480Y328265D01*
X179040Y328265D01*
X179040Y316895D01*
X179040Y321296D02*
X171480Y321296D01*
X171480Y325697D02*
X179040Y325697D01*
X189260Y316895D02*
X196820Y316895D01*
X189260Y316895D02*
X189260Y328265D01*
X196820Y328265D01*
X196820Y316895D01*
X196820Y321296D02*
X189260Y321296D01*
X189260Y325697D02*
X196820Y325697D01*
D12*
X403381Y160811D02*
X403381Y154149D01*
X396719Y154149D01*
X396719Y160811D01*
X403381Y160811D01*
X403381Y158196D02*
X396719Y158196D01*
X403381Y169389D02*
X403381Y176051D01*
X403381Y169389D02*
X396719Y169389D01*
X396719Y176051D01*
X403381Y176051D01*
X403381Y173436D02*
X396719Y173436D01*
X396719Y136681D02*
X396719Y130019D01*
X396719Y136681D02*
X403381Y136681D01*
X403381Y130019D01*
X396719Y130019D01*
X396719Y134066D02*
X403381Y134066D01*
X396719Y121441D02*
X396719Y114779D01*
X396719Y121441D02*
X403381Y121441D01*
X403381Y114779D01*
X396719Y114779D01*
X396719Y118826D02*
X403381Y118826D01*
X350041Y280191D02*
X343379Y280191D01*
X350041Y280191D02*
X350041Y273529D01*
X343379Y273529D01*
X343379Y280191D01*
X343379Y277576D02*
X350041Y277576D01*
X334801Y280191D02*
X328139Y280191D01*
X334801Y280191D02*
X334801Y273529D01*
X328139Y273529D01*
X328139Y280191D01*
X328139Y277576D02*
X334801Y277576D01*
X174781Y300199D02*
X168119Y300199D01*
X168119Y306861D01*
X174781Y306861D01*
X174781Y300199D01*
X174781Y304246D02*
X168119Y304246D01*
X183359Y300199D02*
X190021Y300199D01*
X183359Y300199D02*
X183359Y306861D01*
X190021Y306861D01*
X190021Y300199D01*
X190021Y304246D02*
X183359Y304246D01*
X184941Y90961D02*
X184941Y84299D01*
X178279Y84299D01*
X178279Y90961D01*
X184941Y90961D01*
X184941Y88346D02*
X178279Y88346D01*
X184941Y99539D02*
X184941Y106201D01*
X184941Y99539D02*
X178279Y99539D01*
X178279Y106201D01*
X184941Y106201D01*
X184941Y103586D02*
X178279Y103586D01*
D13*
X54918Y65097D02*
X49222Y65097D01*
X49222Y72063D01*
X54918Y72063D01*
X54918Y65097D01*
X54918Y68856D02*
X49222Y68856D01*
X64462Y65097D02*
X70158Y65097D01*
X64462Y65097D02*
X64462Y72063D01*
X70158Y72063D01*
X70158Y65097D01*
X70158Y68856D02*
X64462Y68856D01*
D14*
X76691Y157731D02*
X76691Y164809D01*
X79869Y164809D01*
X79869Y157731D01*
X76691Y157731D01*
X76691Y160632D02*
X79869Y160632D01*
X79869Y163533D02*
X76691Y163533D01*
X66691Y164809D02*
X66691Y157731D01*
X66691Y164809D02*
X69869Y164809D01*
X69869Y157731D01*
X66691Y157731D01*
X66691Y160632D02*
X69869Y160632D01*
X69869Y163533D02*
X66691Y163533D01*
X56691Y164809D02*
X56691Y157731D01*
X56691Y164809D02*
X59869Y164809D01*
X59869Y157731D01*
X56691Y157731D01*
X56691Y160632D02*
X59869Y160632D01*
X59869Y163533D02*
X56691Y163533D01*
X56691Y135809D02*
X56691Y128731D01*
X56691Y135809D02*
X59869Y135809D01*
X59869Y128731D01*
X56691Y128731D01*
X56691Y131632D02*
X59869Y131632D01*
X59869Y134533D02*
X56691Y134533D01*
X66691Y135809D02*
X66691Y128731D01*
X66691Y135809D02*
X69869Y135809D01*
X69869Y128731D01*
X66691Y128731D01*
X66691Y131632D02*
X69869Y131632D01*
X69869Y134533D02*
X66691Y134533D01*
X76691Y135809D02*
X76691Y128731D01*
X76691Y135809D02*
X79869Y135809D01*
X79869Y128731D01*
X76691Y128731D01*
X76691Y131632D02*
X79869Y131632D01*
X79869Y134533D02*
X76691Y134533D01*
D15*
X68280Y146770D03*
D12*
X56671Y84299D02*
X50009Y84299D01*
X50009Y90961D01*
X56671Y90961D01*
X56671Y84299D01*
X56671Y88346D02*
X50009Y88346D01*
X65249Y84299D02*
X71911Y84299D01*
X65249Y84299D02*
X65249Y90961D01*
X71911Y90961D01*
X71911Y84299D01*
X71911Y88346D02*
X65249Y88346D01*
X93189Y128749D02*
X99851Y128749D01*
X93189Y128749D02*
X93189Y135411D01*
X99851Y135411D01*
X99851Y128749D01*
X99851Y132796D02*
X93189Y132796D01*
X108429Y128749D02*
X115091Y128749D01*
X108429Y128749D02*
X108429Y135411D01*
X115091Y135411D01*
X115091Y128749D01*
X115091Y132796D02*
X108429Y132796D01*
X101121Y152879D02*
X94459Y152879D01*
X94459Y159541D01*
X101121Y159541D01*
X101121Y152879D01*
X101121Y156926D02*
X94459Y156926D01*
X109699Y152879D02*
X116361Y152879D01*
X109699Y152879D02*
X109699Y159541D01*
X116361Y159541D01*
X116361Y152879D01*
X116361Y156926D02*
X109699Y156926D01*
D16*
X342820Y53890D03*
X342820Y32390D03*
X381820Y32390D03*
X381820Y53890D03*
D17*
X75250Y364490D03*
X75250Y351790D03*
X75250Y339090D03*
X75250Y326390D03*
X127950Y326390D03*
X127950Y339090D03*
X127950Y351790D03*
X127950Y364490D03*
D18*
X376616Y124234D03*
X376616Y132362D03*
X376616Y140236D03*
X376616Y148364D03*
X376616Y156238D03*
X376616Y164366D03*
D19*
X362900Y163096D03*
D18*
X349184Y164366D03*
X349184Y156238D03*
X349184Y148364D03*
X349184Y140236D03*
X349184Y132362D03*
X349184Y124234D03*
D19*
X362900Y125504D03*
D20*
X348830Y257690D03*
X348830Y252690D03*
X348830Y247690D03*
X348830Y242690D03*
X348830Y237690D03*
D21*
X356680Y236040D03*
X361680Y236040D03*
X366680Y236040D03*
D20*
X374530Y237690D03*
X374530Y242690D03*
X374530Y247690D03*
X374530Y252690D03*
X374530Y257690D03*
D21*
X366680Y259340D03*
X361680Y259340D03*
X356680Y259340D03*
D22*
X215730Y131910D03*
X172550Y131910D03*
D23*
X196150Y196700D03*
X201150Y196700D03*
X206150Y196700D03*
X211150Y196700D03*
X216150Y196700D03*
X221150Y196700D03*
X226150Y196700D03*
X231150Y196700D03*
X236150Y196700D03*
X241150Y196700D03*
X246150Y196700D03*
X251150Y196700D03*
D24*
X266150Y211700D03*
X266150Y216700D03*
X266150Y221700D03*
X266150Y226700D03*
X266150Y231700D03*
X266150Y236700D03*
X266150Y241700D03*
X266150Y246700D03*
X266150Y251700D03*
X266150Y256700D03*
X266150Y261700D03*
X266150Y266700D03*
D23*
X251150Y281700D03*
X246150Y281700D03*
X241150Y281700D03*
X236150Y281700D03*
X231150Y281700D03*
X226150Y281700D03*
X221150Y281700D03*
X216150Y281700D03*
X211150Y281700D03*
X206150Y281700D03*
X201150Y281700D03*
X196150Y281700D03*
D24*
X181150Y266700D03*
X181150Y261700D03*
X181150Y256700D03*
X181150Y251700D03*
X181150Y246700D03*
X181150Y241700D03*
X181150Y236700D03*
X181150Y231700D03*
X181150Y226700D03*
X181150Y221700D03*
X181150Y216700D03*
X181150Y211700D03*
D12*
X149029Y224299D02*
X149029Y230961D01*
X155691Y230961D01*
X155691Y224299D01*
X149029Y224299D01*
X149029Y228346D02*
X155691Y228346D01*
X149029Y215721D02*
X149029Y209059D01*
X149029Y215721D02*
X155691Y215721D01*
X155691Y209059D01*
X149029Y209059D01*
X149029Y213106D02*
X155691Y213106D01*
D11*
X124925Y224970D02*
X124925Y232530D01*
X136295Y232530D01*
X136295Y224970D01*
X124925Y224970D01*
X124925Y229371D02*
X136295Y229371D01*
X124925Y214750D02*
X124925Y207190D01*
X124925Y214750D02*
X136295Y214750D01*
X136295Y207190D01*
X124925Y207190D01*
X124925Y211591D02*
X136295Y211591D01*
D25*
X266710Y138880D03*
X251710Y138880D03*
D12*
X246349Y123341D02*
X246349Y116679D01*
X246349Y123341D02*
X253011Y123341D01*
X253011Y116679D01*
X246349Y116679D01*
X246349Y120726D02*
X253011Y120726D01*
X246349Y108101D02*
X246349Y101439D01*
X246349Y108101D02*
X253011Y108101D01*
X253011Y101439D01*
X246349Y101439D01*
X246349Y105486D02*
X253011Y105486D01*
X268739Y116679D02*
X268739Y123341D01*
X275401Y123341D01*
X275401Y116679D01*
X268739Y116679D01*
X268739Y120726D02*
X275401Y120726D01*
X268739Y108101D02*
X268739Y101439D01*
X268739Y108101D02*
X275401Y108101D01*
X275401Y101439D01*
X268739Y101439D01*
X268739Y105486D02*
X275401Y105486D01*
X117319Y82071D02*
X117319Y75409D01*
X117319Y82071D02*
X123981Y82071D01*
X123981Y75409D01*
X117319Y75409D01*
X117319Y79456D02*
X123981Y79456D01*
X117319Y66831D02*
X117319Y60169D01*
X117319Y66831D02*
X123981Y66831D01*
X123981Y60169D01*
X117319Y60169D01*
X117319Y64216D02*
X123981Y64216D01*
X136369Y75409D02*
X136369Y82071D01*
X143031Y82071D01*
X143031Y75409D01*
X136369Y75409D01*
X136369Y79456D02*
X143031Y79456D01*
X136369Y66831D02*
X136369Y60169D01*
X136369Y66831D02*
X143031Y66831D01*
X143031Y60169D01*
X136369Y60169D01*
X136369Y64216D02*
X143031Y64216D01*
D26*
X104500Y62080D03*
X104500Y75080D03*
X86000Y68580D03*
D27*
X261060Y386600D03*
X251060Y386600D03*
X241060Y386600D03*
X231060Y386600D03*
X221060Y386600D03*
X211060Y386600D03*
X201060Y386600D03*
X191060Y386600D03*
D28*
X167060Y419100D03*
X285060Y419100D03*
D11*
X423769Y253716D02*
X423769Y246156D01*
X412399Y246156D01*
X412399Y253716D01*
X423769Y253716D01*
X423769Y250557D02*
X412399Y250557D01*
X423769Y263936D02*
X423769Y271496D01*
X423769Y263936D02*
X412399Y263936D01*
X412399Y271496D01*
X423769Y271496D01*
X423769Y268337D02*
X412399Y268337D01*
D29*
X165100Y287020D03*
X157480Y271780D03*
D30*
X97740Y210820D03*
X59740Y210820D03*
D12*
X67789Y244631D02*
X74451Y244631D01*
X74451Y237969D01*
X67789Y237969D01*
X67789Y244631D01*
X67789Y242016D02*
X74451Y242016D01*
X59211Y244631D02*
X52549Y244631D01*
X59211Y244631D02*
X59211Y237969D01*
X52549Y237969D01*
X52549Y244631D01*
X52549Y242016D02*
X59211Y242016D01*
D31*
X79860Y255660D03*
X86360Y255660D03*
X92860Y255660D03*
X92860Y272660D03*
X79860Y272660D03*
D12*
X66831Y262411D02*
X66831Y255749D01*
X60169Y255749D01*
X60169Y262411D01*
X66831Y262411D01*
X66831Y259796D02*
X60169Y259796D01*
X66831Y270989D02*
X66831Y277651D01*
X66831Y270989D02*
X60169Y270989D01*
X60169Y277651D01*
X66831Y277651D01*
X66831Y275036D02*
X60169Y275036D01*
D32*
X316392Y346423D02*
X325928Y346423D01*
X325928Y343237D01*
X316392Y343237D01*
X316392Y346423D01*
X316392Y355923D02*
X325928Y355923D01*
X325928Y352737D01*
X316392Y352737D01*
X316392Y355923D01*
X316392Y365423D02*
X325928Y365423D01*
X325928Y362237D01*
X316392Y362237D01*
X316392Y365423D01*
X300828Y362237D02*
X291292Y362237D01*
X291292Y365423D01*
X300828Y365423D01*
X300828Y362237D01*
X300828Y343237D02*
X291292Y343237D01*
X291292Y346423D01*
X300828Y346423D01*
X300828Y343237D01*
D11*
X320070Y312009D02*
X327630Y312009D01*
X327630Y300639D01*
X320070Y300639D01*
X320070Y312009D01*
X320070Y305040D02*
X327630Y305040D01*
X327630Y309441D02*
X320070Y309441D01*
X309850Y312009D02*
X302290Y312009D01*
X309850Y312009D02*
X309850Y300639D01*
X302290Y300639D01*
X302290Y312009D01*
X302290Y305040D02*
X309850Y305040D01*
X309850Y309441D02*
X302290Y309441D01*
D33*
X413580Y317900D03*
X413580Y342900D03*
X413580Y367900D03*
X358580Y317900D03*
X358580Y342900D03*
X358580Y367900D03*
D12*
X325911Y329975D02*
X319249Y329975D01*
X325911Y329975D02*
X325911Y323313D01*
X319249Y323313D01*
X319249Y329975D01*
X319249Y327360D02*
X325911Y327360D01*
X310671Y329975D02*
X304009Y329975D01*
X310671Y329975D02*
X310671Y323313D01*
X304009Y323313D01*
X304009Y329975D01*
X304009Y327360D02*
X310671Y327360D01*
D11*
X288006Y309215D02*
X280446Y309215D01*
X288006Y309215D02*
X288006Y297845D01*
X280446Y297845D01*
X280446Y309215D01*
X280446Y302246D02*
X288006Y302246D01*
X288006Y306647D02*
X280446Y306647D01*
X270226Y309215D02*
X262666Y309215D01*
X270226Y309215D02*
X270226Y297845D01*
X262666Y297845D01*
X262666Y309215D01*
X262666Y302246D02*
X270226Y302246D01*
X270226Y306647D02*
X262666Y306647D01*
D12*
X279371Y287303D02*
X286033Y287303D01*
X286033Y280641D01*
X279371Y280641D01*
X279371Y287303D01*
X279371Y284688D02*
X286033Y284688D01*
X270793Y287303D02*
X264131Y287303D01*
X270793Y287303D02*
X270793Y280641D01*
X264131Y280641D01*
X264131Y287303D01*
X264131Y284688D02*
X270793Y284688D01*
X289277Y61497D02*
X289277Y54835D01*
X289277Y61497D02*
X295939Y61497D01*
X295939Y54835D01*
X289277Y54835D01*
X289277Y58882D02*
X295939Y58882D01*
X289277Y46257D02*
X289277Y39595D01*
X289277Y46257D02*
X295939Y46257D01*
X295939Y39595D01*
X289277Y39595D01*
X289277Y43642D02*
X295939Y43642D01*
X265401Y54835D02*
X265401Y61497D01*
X272063Y61497D01*
X272063Y54835D01*
X265401Y54835D01*
X265401Y58882D02*
X272063Y58882D01*
X265401Y46257D02*
X265401Y39595D01*
X265401Y46257D02*
X272063Y46257D01*
X272063Y39595D01*
X265401Y39595D01*
X265401Y43642D02*
X272063Y43642D01*
D34*
X143764Y364490D03*
X202692Y364744D03*
X297688Y287020D03*
X293370Y167640D03*
X382270Y182880D03*
X266446Y319024D03*
X318262Y262382D03*
X370840Y278384D03*
X50800Y259080D03*
X323850Y291084D03*
X284480Y320548D03*
X244856Y175270D03*
X411480Y133350D03*
X418084Y228346D03*
X410464Y283972D03*
X203718Y293068D03*
X275198Y191209D03*
X120650Y90170D03*
X25146Y111252D03*
X234188Y103646D03*
X147066Y290068D03*
D35*
X33020Y284480D03*
X50800Y299800D03*
X19050Y361950D03*
X19050Y330200D03*
X57150Y355600D03*
X57150Y330200D03*
X91440Y332740D03*
X93980Y314960D03*
X114300Y317500D03*
X139700Y317500D03*
X107950Y368300D03*
X71120Y299720D03*
X86360Y284480D03*
X19050Y298450D03*
X19050Y266700D03*
X33020Y266700D03*
X116840Y242570D03*
X133350Y241300D03*
X19050Y228600D03*
X33020Y229870D03*
X88900Y177800D03*
X57150Y177800D03*
X33020Y194310D03*
X19050Y196850D03*
X19050Y165100D03*
X50800Y226060D03*
X53340Y195580D03*
X19050Y133350D03*
X76200Y109220D03*
X57150Y107950D03*
X38100Y95250D03*
X19050Y88900D03*
X128270Y109220D03*
X16510Y57150D03*
X31750Y63500D03*
X69850Y50800D03*
X101600Y50800D03*
X133350Y50800D03*
X69850Y19050D03*
X101600Y19050D03*
X133350Y19050D03*
X165100Y19050D03*
X165100Y88900D03*
X165100Y57150D03*
X184150Y76200D03*
X215900Y76200D03*
X215900Y50800D03*
X184150Y50800D03*
X196850Y19050D03*
X228600Y19050D03*
X247650Y50800D03*
X247650Y82550D03*
X260350Y19050D03*
X292100Y19050D03*
X317500Y82550D03*
X330200Y63500D03*
X355600Y63500D03*
X330200Y19050D03*
X361950Y19050D03*
X393700Y19050D03*
X431800Y57150D03*
X431800Y88900D03*
X285750Y101600D03*
X304800Y107950D03*
X285750Y133350D03*
X311150Y133350D03*
X342900Y101600D03*
X374650Y107950D03*
X412400Y107950D03*
X431800Y120650D03*
X398780Y48260D03*
X434340Y162560D03*
X146050Y139700D03*
X152400Y156210D03*
X177800Y158750D03*
X196850Y177800D03*
X234950Y146050D03*
X279400Y171450D03*
X425450Y184150D03*
X393700Y184150D03*
X400050Y201850D03*
X425450Y215900D03*
X434800Y280400D03*
X434800Y304800D03*
X434800Y330200D03*
X379000Y342900D03*
X393700Y342900D03*
X400050Y304800D03*
X374650Y304800D03*
X355600Y330200D03*
X434800Y359950D03*
X342900Y292100D03*
X431800Y393700D03*
X393700Y406400D03*
X387350Y431800D03*
X355600Y431800D03*
X355600Y406400D03*
X323850Y431800D03*
X323850Y406400D03*
X304800Y431800D03*
X304800Y406400D03*
X317500Y387350D03*
X273050Y387350D03*
X254000Y406400D03*
X254000Y431800D03*
X222250Y431800D03*
X222250Y406400D03*
X190500Y431800D03*
X190500Y406400D03*
X184150Y374650D03*
X171450Y387350D03*
X152400Y400050D03*
X146050Y425450D03*
X135890Y411480D03*
X120650Y431800D03*
X123190Y392430D03*
X138430Y375920D03*
X88900Y431800D03*
X57150Y431800D03*
X50800Y400050D03*
X69850Y406400D03*
X63500Y381000D03*
X19050Y393700D03*
D34*
X320040Y111760D03*
X111760Y307340D03*
X281178Y256794D03*
X317500Y231140D03*
X350520Y215900D03*
X307340Y238760D03*
X342900Y223520D03*
X294640Y238760D03*
X342900Y208280D03*
X149860Y243840D03*
X128270Y151130D03*
X114300Y173990D03*
X168739Y230969D03*
X146812Y326136D03*
X240284Y332112D03*
X92202Y345948D03*
X252222Y345694D03*
X147320Y339090D03*
X250190Y317500D03*
X236220Y220980D03*
X363220Y177800D03*
X248910Y238760D03*
X346202Y191008D03*
X332486Y246380D03*
X363220Y199390D03*
X246380Y213360D03*
X337820Y170180D03*
X261620Y198120D03*
X330200Y160020D03*
X41910Y292100D03*
X139700Y104140D03*
X236220Y241300D03*
X154940Y388620D03*
X248393Y257328D03*
X119729Y300216D03*
X83045Y300216D03*
X360680Y302260D03*
X203708Y239268D03*
X292354Y78486D03*
X264195Y337743D03*
X182836Y200706D03*
M02*
