M48
;GenerationSoftware,Autodesk,EAGLE,9.5.0*%
;CreationDate,2019-10-22T14:16:57Z*%
FMAT,2
ICI,OFF
METRIC,TZ,000.000
T3C0.250
T2C0.350
T1C2.400
%
G90
M71
T1
X42000Y42000
X3000Y42000
X3000Y3000
X42000Y3000
T2
X29337Y16764
X38227Y18288
X26645Y31902
X31826Y26238
X37084Y27838
X5080Y25908
X32385Y29108
X28448Y32055
X24486Y17527
X41148Y13335
X41808Y22835
X41046Y28397
X20372Y29307
X27520Y19121
X12065Y9017
X2515Y11125
X23419Y10365
X14707Y29007
X24891Y23876
X32004Y11176
X11176Y30734
X28118Y25679
X31750Y23114
X35052Y21590
X30734Y23876
X34290Y22352
X29464Y23876
X34290Y20828
X14986Y24384
X12827Y15113
X11430Y17399
X16874Y23097
X14681Y32614
X24028Y33211
X9220Y34595
X25222Y34569
X14732Y33909
X25019Y31750
X23622Y22098
X36322Y17780
X34620Y19101
X33249Y24638
X36322Y19939
X24638Y21336
X33782Y17018
X14376Y36449
X33020Y16002
X4191Y29210
X13970Y10414
X23622Y24130
X15494Y38862
X24839Y25733
X11973Y30022
X26162Y19812
X36068Y30226
X20371Y23927
X29235Y7849
X26419Y33774
X18284Y20071
X20269Y36474
X29769Y28702
X8305Y30022
T3
X21590Y7620
X21590Y5080
X18415Y5080
X19685Y1905
X22860Y1905
X24765Y5080
X24765Y8255
X26035Y1905
X29210Y1905
X31750Y8255
X33020Y6350
X35560Y6350
X33020Y1905
X36195Y1905
X39370Y1905
X43180Y5715
X43180Y8890
X28575Y10160
X30480Y10795
X28575Y13335
X31115Y13335
X34290Y10160
X37465Y10795
X41240Y10795
X43180Y12065
X39878Y4826
X43434Y16256
X14605Y13970
X1905Y36195
X17780Y15875
X19685Y17780
X23495Y14605
X27940Y17145
X42545Y18415
X39370Y18415
X40005Y20185
X42545Y21590
X43480Y28040
X43480Y30480
X43480Y33020
X37900Y34290
X39370Y34290
X40005Y30480
X37465Y30480
X35560Y33020
X43480Y35995
X34290Y29210
X43180Y39370
X39370Y40640
X38735Y43180
X35560Y43180
X35560Y40640
X32385Y43180
X32385Y40640
X30480Y43180
X30480Y40640
X31750Y38735
X27305Y38735
X25400Y40640
X25400Y43180
X22225Y43180
X22225Y40640
X19050Y43180
X19050Y40640
X18415Y37465
X17145Y38735
X15240Y40005
X14605Y42545
X13589Y41148
X12065Y43180
X12319Y39243
X13843Y37592
X8890Y43180
X5715Y43180
X5080Y40005
X6985Y40640
X3302Y28448
X1905Y39370
X5080Y29980
X1905Y33020
X5715Y35560
X5715Y33020
X9144Y33274
X9398Y31496
X11430Y31750
X13970Y31750
X10795Y36830
X7112Y29972
X8636Y28448
X1905Y29845
X1905Y26670
X3302Y26670
X11684Y24257
X13335Y24130
X1905Y22860
X3302Y22987
X8890Y17780
X5715Y17780
X3302Y19431
X15240Y15621
X1905Y19685
X1905Y16510
X5080Y22606
X5334Y19558
X1905Y13335
X7620Y10922
X5715Y10795
X3810Y9525
X1905Y8890
X12827Y10922
X1651Y5715
X3175Y6350
X6985Y5080
X10160Y5080
X13335Y5080
X6985Y1905
X10160Y1905
X13335Y1905
X16510Y1905
X16510Y8890
X16510Y5715
X18415Y7620
X6350Y38100
M30